<svg xmlns="http://www.w3.org/2000/svg" xmlns:xlink="http://www.w3.org/1999/xlink" width="40" zoomAndPan="magnify" viewBox="0 0 30 30.000001" height="40" preserveAspectRatio="xMidYMid meet" version="1.0"><defs><clipPath id="9fca5f154e"><path d="M 0.582031 2.902344 L 29.515625 2.902344 L 29.515625 26.128906 L 0.582031 26.128906 Z M 0.582031 2.902344 " clip-rule="nonzero"/></clipPath></defs><g clip-path="url(#9fca5f154e)"><path fill="#ffffff" d="M 0.9375 3.996094 C 2.675781 5.519531 4.417969 7.039062 6.15625 8.558594 C 7.617188 9.835938 9.078125 11.113281 10.542969 12.382812 C 10.695312 12.515625 10.765625 12.652344 10.78125 12.855469 C 10.835938 13.578125 10.914062 14.296875 10.980469 15.019531 C 11.140625 16.796875 11.300781 18.570312 11.457031 20.347656 C 11.585938 21.78125 11.710938 23.214844 11.835938 24.648438 C 11.867188 25 11.902344 25.351562 11.9375 25.699219 C 11.957031 25.886719 12.058594 26.007812 12.238281 26.0625 C 12.414062 26.117188 12.566406 26.0625 12.6875 25.925781 C 12.738281 25.867188 12.78125 25.800781 12.828125 25.742188 C 13.667969 24.605469 14.511719 23.476562 15.351562 22.34375 C 18.265625 18.40625 21.183594 14.472656 24.097656 10.539062 C 25.757812 8.304688 27.414062 6.070312 29.070312 3.835938 C 29.144531 3.734375 29.226562 3.632812 29.285156 3.523438 C 29.414062 3.273438 29.277344 2.992188 29.003906 2.929688 C 28.925781 2.914062 28.847656 2.917969 28.769531 2.917969 C 26.613281 2.9375 24.460938 2.957031 22.304688 2.972656 C 19.875 2.992188 17.445312 3.011719 15.015625 3.03125 C 15.015625 3.03125 15.015625 3.03125 15.015625 3.035156 C 12.871094 3.054688 10.726562 3.074219 8.582031 3.097656 C 6.132812 3.117188 3.683594 3.140625 1.234375 3.160156 C 1.164062 3.164062 1.09375 3.160156 1.027344 3.171875 C 0.71875 3.230469 0.582031 3.578125 0.769531 3.832031 C 0.816406 3.894531 0.875 3.945312 0.9375 3.996094 Z M 27.378906 4.640625 C 27.382812 4.648438 27.382812 4.664062 27.378906 4.667969 C 27.359375 4.703125 27.335938 4.738281 27.316406 4.769531 C 22.457031 11.320312 17.597656 17.875 12.742188 24.429688 C 12.71875 24.425781 12.695312 24.421875 12.671875 24.417969 C 12.320312 20.492188 11.964844 16.566406 11.613281 12.613281 C 16.867188 9.941406 22.109375 7.273438 27.347656 4.605469 C 27.367188 4.628906 27.375 4.632812 27.378906 4.640625 Z M 2.332031 3.992188 C 10.539062 3.921875 18.742188 3.851562 27 3.777344 C 26.914062 3.847656 26.875 3.894531 26.820312 3.917969 C 23.855469 5.429688 20.886719 6.9375 17.917969 8.445312 C 15.78125 9.535156 13.644531 10.621094 11.507812 11.710938 C 11.179688 11.878906 11.226562 11.855469 10.976562 11.636719 C 8.417969 9.402344 5.859375 7.167969 3.300781 4.929688 C 3.03125 4.691406 2.757812 4.453125 2.480469 4.21875 C 2.425781 4.167969 2.355469 4.128906 2.292969 4.085938 C 2.304688 4.054688 2.320312 4.023438 2.332031 3.992188 Z M 2.332031 3.992188 " fill-opacity="1" fill-rule="nonzero"/></g></svg>