<?xml version="1.0" encoding="utf-8"?>
<!-- Generator: Adobe Illustrator 22.0.1, SVG Export Plug-In . SVG Version: 6.00 Build 0)  -->
<svg version="1.1" id="Layer_1" xmlns="http://www.w3.org/2000/svg" xmlns:xlink="http://www.w3.org/1999/xlink" x="0px" y="0px"
	 width="885px" height="432.7px" viewBox="0 0 885 432.7" style="enable-background:new 0 0 885 432.7;" xml:space="preserve">
<style type="text/css">
	.st0{opacity:0.27;}
	.st1{clip-path:url(#SVGID_1_);fill:#FFFFFF;}
</style>
<g class="st0">
	<g>
		<defs>
			<rect id="SVGID_3_" width="885" height="432.7"/>
		</defs>
		<clipPath id="SVGID_1_">
			<use xlink:href="#SVGID_3_"  style="overflow:visible;"/>
		</clipPath>
		
			<rect x="192.2" y="36.9" transform="matrix(0.7052 -0.709 0.709 0.7052 30.5107 148.9955)" class="st1" width="4.5" height="1.9"/>
		
			<rect x="178.3" y="50.5" transform="matrix(0.7036 -0.7106 0.7106 0.7036 17.0952 143.7952)" class="st1" width="5.2" height="1.9"/>
		<path class="st1" d="M112.3,121.8l-1.3-1.3c16.6-16.4,33.2-33.3,49.3-49.6c4.7-4.7,9.3-9.5,14-14.2l1.3,1.3
			c-4.7,4.7-9.3,9.5-14,14.2C145.6,88.5,128.9,105.4,112.3,121.8"/>
		<path class="st1" d="M116.5,130.9l-1.3-1.3c29.7-29.5,59.7-59.4,89.2-88.9l1.3,1.3C176.2,71.5,146.2,101.4,116.5,130.9"/>
		
			<rect x="212.5" y="42.8" transform="matrix(0.7063 -0.7079 0.7079 0.7063 32.3733 165.5421)" class="st1" width="6.4" height="1.9"/>
		<path class="st1" d="M116.2,144.6l-1.3-1.3c10.9-10.9,22-22.1,32.8-33c19.9-20.1,40.4-40.8,61.1-60.9l1.3,1.3
			c-20.6,20-41.2,40.8-61,60.8C138.2,122.5,127.1,133.7,116.2,144.6"/>
		<polygon class="st1" points="227.5,46.1 226.1,44.8 228.8,42.1 229.5,42.7 230.2,43.3 		"/>
		<path class="st1" d="M121,152.6l-1.3-1.3c16.6-16.4,33.1-33,49.1-49.1c17.3-17.4,35.2-35.4,53.3-53.2l1.3,1.3
			c-18.1,17.8-36,35.8-53.3,53.2C154.1,119.5,137.6,136.1,121,152.6"/>
		
			<rect x="245.3" y="28.4" transform="matrix(0.7071 -0.7071 0.7071 0.7071 54.3479 189.9429)" class="st1" width="22.2" height="1.9"/>
		
			<rect x="202.3" y="62.2" transform="matrix(0.7071 -0.7071 0.7071 0.7071 20.5778 175.952)" class="st1" width="40.7" height="1.9"/>
		<path class="st1" d="M123.9,163.3l-1.3-1.3c23.7-23.7,47.5-47.5,71.2-71.2l1.3,1.3C171.3,115.8,147.6,139.5,123.9,163.3"/>
		<path class="st1" d="M257.5,43.1l-1.3-1.3c8.9-9,17.8-18,26.8-27l1.3,1.3C275.4,25.1,266.4,34.1,257.5,43.1"/>
		<path class="st1" d="M238.7,62l-1.3-1.3c2.9-2.9,5.8-5.8,8.7-8.7l1.3,1.3C244.5,56.2,241.6,59.1,238.7,62"/>
		<polygon class="st1" points="231.9,68.8 230.5,67.5 232.8,65.2 234.2,66.6 		"/>
		<path class="st1" d="M223.2,77.6l-1.3-1.3c1.4-1.4,2.7-2.8,4.1-4.1l1.3,1.3C226,74.8,224.6,76.2,223.2,77.6"/>
		<path class="st1" d="M133.2,167.5l-1.3-1.4c24.1-22.6,47.5-46.5,70.1-69.6l1.3,1.3C180.8,120.9,157.4,144.8,133.2,167.5"/>
		<path class="st1" d="M272.2,42.3l-1.3-1.3c11.9-12,22.8-23.1,33.5-34l1.3,1.3C295,19.2,284.1,30.3,272.2,42.3"/>
		
			<rect x="244" y="60.8" transform="matrix(0.7087 -0.7055 0.7055 0.7087 29.7238 195.4194)" class="st1" width="15.1" height="1.9"/>
		
			<rect x="233.2" y="74.2" transform="matrix(0.7082 -0.7061 0.7061 0.7082 16.4629 190.0106)" class="st1" width="9.7" height="1.9"/>
		<path class="st1" d="M138.3,175.7l-1.3-1.3c25.5-25.3,51.4-51.1,74.3-73.9l1.3,1.3C189.8,124.6,163.8,150.4,138.3,175.7"/>
		<path class="st1" d="M283.1,44.6l-1.3-1.3c15.9-15.6,29.1-28.8,42.1-42.5l1.4,1.3C312.3,15.8,299,29,283.1,44.6"/>
		<path class="st1" d="M235.7,91.6l-1.3-1.3c10.2-10.4,20.3-20.4,29.7-29.6l1.3,1.3C256,71.2,245.9,81.2,235.7,91.6"/>
		
			<rect x="225.9" y="96.2" transform="matrix(0.7108 -0.7034 0.7034 0.7108 -2.1239 189.0344)" class="st1" width="5.9" height="1.9"/>
		<path class="st1" d="M149.1,177.7l-1.3-1.3c23.2-23.3,47-46.8,69.9-69.6l3.8-3.7l1.3,1.3l-3.8,3.7
			C196,130.9,172.3,154.4,149.1,177.7"/>
		
			<rect x="139.3" y="182.6" transform="matrix(0.7082 -0.7061 0.7061 0.7082 -88.1617 153.7664)" class="st1" width="5.2" height="1.9"/>
		<path class="st1" d="M287.3,52.8l-1.3-1.3c14-14.1,32.6-32.6,51.5-51.5l1.3,1.3C319.9,20.1,301.3,38.7,287.3,52.8"/>
		
			<rect x="265.7" y="68.8" transform="matrix(0.7058 -0.7084 0.7084 0.7058 29.7336 211.1099)" class="st1" width="6.6" height="1.9"/>
		
			<rect x="257.5" y="77.4" transform="matrix(0.7068 -0.7074 0.7074 0.7068 20.9325 207.2074)" class="st1" width="5.9" height="1.9"/>
		<path class="st1" d="M233,107.1l-1.3-1.3c8.1-8.2,15.3-15.3,21.9-21.8l1.3,1.3C248.3,91.8,241.1,98.9,233,107.1"/>
		<path class="st1" d="M154.6,185.3l-1.3-1.3c19.1-18.7,38.3-38,56.9-56.6c5.8-5.8,11.6-11.7,17.4-17.5l1.3,1.3
			c-5.8,5.8-11.6,11.6-17.4,17.5C192.9,147.3,173.7,166.6,154.6,185.3"/>
		
			<rect x="144.7" y="189.9" transform="matrix(0.7039 -0.7103 0.7103 0.7039 -91.8663 161.3991)" class="st1" width="5.9" height="1.9"/>
		<path class="st1" d="M297.6,55.7l-1.3-1.3c20.3-20.4,36.9-36.9,52.2-52.1l1.3,1.3C334.5,18.8,317.9,35.3,297.6,55.7"/>
		<rect x="286.7" y="61" transform="matrix(0.706 -0.7082 0.7082 0.706 41.3571 223.5665)" class="st1" width="6.5" height="1.9"/>
		<path class="st1" d="M223.8,128.8l-1.3-1.3c16-16,29.5-29.2,42.4-41.7l1.3,1.4C253.2,99.6,239.8,112.8,223.8,128.8"/>
		
			<rect x="213.4" y="133.6" transform="matrix(0.7055 -0.7087 0.7087 0.7055 -31.5455 193.2089)" class="st1" width="6.5" height="1.9"/>
		<path class="st1" d="M159.8,193.3l-1.3-1.3c8.3-8.4,16.6-16.7,24.9-25.1c8.7-8.8,17.5-17.7,26.2-26.5l1.3,1.3
			c-8.8,8.8-17.5,17.7-26.2,26.5C176.4,176.6,168.1,185,159.8,193.3"/>
		<rect x="150" y="198.2" transform="matrix(0.7042 -0.71 0.71 0.7042 -96.2334 167.2996)" class="st1" width="5.2" height="1.9"/>
		<path class="st1" d="M293.6,73.3l-1.3-1.3c10.5-10.4,21-21.1,31.1-31.5c11.5-11.7,23.3-23.8,35.2-35.5l1.3,1.3
			c-11.9,11.7-23.7,23.8-35.2,35.5C314.6,52.2,304.1,62.9,293.6,73.3"/>
		<path class="st1" d="M163.4,203.2l-1.3-1.3c37.2-36.8,74-73.6,109.6-109.6l1.3,1.3C237.5,129.5,200.6,166.4,163.4,203.2"/>
		<path class="st1" d="M299.6,80.4l-1.3-1.3c7.1-7.2,14.1-14.3,21.2-21.5c14-14.2,28.4-28.9,42.8-43.1l1.3,1.3
			c-14.4,14.2-28.8,28.9-42.8,43.1C313.7,66.1,306.6,73.2,299.6,80.4"/>
		<path class="st1" d="M261.4,118.3l-1.3-1.3c6.8-6.8,13-12.8,18.8-18.5l1.3,1.3C274.4,105.5,268.2,111.6,261.4,118.3"/>
		<path class="st1" d="M200.3,179.4l-1.3-1.3c7.3-7.3,14.6-14.6,21.9-21.9c11.5-11.5,23.4-23.5,35.2-35.1l1.3,1.3
			c-11.8,11.7-23.7,23.6-35.2,35.1C214.9,164.8,207.6,172.2,200.3,179.4"/>
		<path class="st1" d="M168.8,210.6l-1.3-1.3c5.5-5.4,11.2-11.1,17.1-16.9l1.3,1.3C180.1,199.5,174.3,205.2,168.8,210.6"/>
		<path class="st1" d="M306,87.8l-1.4-1.3c17.3-18.6,35.7-36.7,53.6-54.2c4.1-4,8.2-8,12.3-12l1.3,1.3c-4.1,4-8.2,8-12.3,12.1
			C341.7,51.1,323.2,69.2,306,87.8"/>
		<path class="st1" d="M274.1,119.7l-1.3-1.3c4.8-4.8,9.6-9.5,14.4-14.2l1.3,1.3C283.7,110.2,278.9,114.9,274.1,119.7"/>
		<path class="st1" d="M215.6,178l-1.3-1.3c17.9-17.7,36.4-36,54.8-54.6l1.3,1.3C252,142,233.5,160.3,215.6,178"/>
		<path class="st1" d="M176.8,216.5l-1.3-1.3c3.2-3.2,6.5-6.5,9.7-9.7l1.3,1.3C183.3,210,180,213.3,176.8,216.5"/>
		
			<rect x="322.6" y="44.8" transform="matrix(0.7071 -0.7071 0.7071 0.7071 72.9177 267.5098)" class="st1" width="73.5" height="1.9"/>
		
			<rect x="312.7" y="88.9" transform="matrix(0.7074 -0.7068 0.7068 0.7074 28.7878 249.1435)" class="st1" width="5.2" height="1.9"/>
		
			<rect x="279.5" y="116.6" transform="matrix(0.7071 -0.7071 0.7071 0.7071 1.112 237.7667)" class="st1" width="16.1" height="1.9"/>
		
			<rect x="262.3" y="132.8" transform="matrix(0.7071 -0.7071 0.7071 0.7071 -15.0952 231.0531)" class="st1" width="18.2" height="1.9"/>
		
			<rect x="219.8" y="180.4" transform="matrix(0.7071 -0.7071 0.7071 0.7071 -62.7006 211.3349)" class="st1" width="7.9" height="1.9"/>
		
			<rect x="183.6" y="214.7" transform="matrix(0.7071 -0.7071 0.7071 0.7071 -96.9693 197.142)" class="st1" width="11.8" height="1.9"/>
		
			<rect x="367.5" y="47.7" transform="matrix(0.7119 -0.7023 0.7023 0.7119 72.3864 273.6732)" class="st1" width="4.5" height="1.9"/>
		
			<rect x="352.3" y="58.2" transform="matrix(0.7111 -0.7031 0.7031 0.7111 62.1873 269.5724)" class="st1" width="13.6" height="1.9"/>
		
			<rect x="292.3" y="123.2" transform="matrix(0.7074 -0.7068 0.7068 0.7074 -1.6369 244.2427)" class="st1" width="3.8" height="1.9"/>
		
			<rect x="215.1" y="199.6" transform="matrix(0.7071 -0.7071 0.7071 0.7071 -78.0424 212.6911)" class="st1" width="5.3" height="1.9"/>
		
			<rect x="193.3" y="213.2" transform="matrix(0.7071 -0.7071 0.7071 0.7071 -91.6588 207.0564)" class="st1" width="21.5" height="1.9"/>
		
			<rect x="235.6" y="194.1" transform="matrix(0.7129 -0.7012 0.7012 0.7129 -68.6781 222.3442)" class="st1" width="3.2" height="1.9"/>
		
			<rect x="228.7" y="201" transform="matrix(0.7082 -0.7061 0.7061 0.7082 -75.3607 221.5442)" class="st1" width="3.3" height="1.9"/>
		
			<rect x="204.1" y="222" transform="matrix(0.7076 -0.7066 0.7066 0.7076 -96.3032 213.0433)" class="st1" width="10.4" height="1.9"/>
		
			<rect x="366.5" y="72.5" transform="matrix(0.7103 -0.7039 0.7039 0.7103 56.0043 282.9606)" class="st1" width="10.4" height="1.9"/>
		<polygon class="st1" points="236.4,209.6 235.1,208.3 239.2,204.2 240.6,205.4 		"/>
		<path class="st1" d="M213.7,232.7l-1.3-1.3c2.4-2.5,4.9-4.9,7.3-7.4l1.3,1.3C218.5,227.7,216.1,230.2,213.7,232.7"/>
		<path class="st1" d="M379.5,81.3l-1.3-1.3c3.3-3.4,6.7-6.8,10-10.2l1.3,1.3C386.2,74.5,382.9,77.9,379.5,81.3"/>
		<path class="st1" d="M246.7,213.6l-1.3-1.3c2.6-2.6,5.2-5.2,7.9-7.7l1.3,1.3C252,208.5,249.4,211,246.7,213.6"/>
		
			<rect x="223.2" y="224" transform="matrix(0.7134 -0.7007 0.7007 0.7134 -90.5973 228.3316)" class="st1" width="21.3" height="1.9"/>
		
			<rect x="217.6" y="237.4" transform="matrix(0.7158 -0.6983 0.6983 0.7158 -103.8104 221.5042)" class="st1" width="5.2" height="1.9"/>
		
			<rect x="256.5" y="211.5" transform="matrix(0.7052 -0.709 0.709 0.7052 -74.381 246.0523)" class="st1" width="4.5" height="1.9"/>
		
			<rect x="234.3" y="225.6" transform="matrix(0.7052 -0.709 0.709 0.7052 -88.4907 240.283)" class="st1" width="20.9" height="1.9"/>
		<path class="st1" d="M227,245.6l-1.3-1.3c2.4-2.4,4.9-4.9,7.3-7.3l1.3,1.3C231.9,240.8,229.5,243.2,227,245.6"/>
		<path class="st1" d="M234.1,252l-1.3-1.3c7.5-7.5,15.1-15,22.7-22.5l1.3,1.3C249.2,236.9,241.6,244.4,234.1,252"/>
		<path class="st1" d="M225.9,273.3l-1.3-1.3c13-13,26-26,38.9-39l1.3,1.3C251.9,247.3,238.9,260.3,225.9,273.3"/>
		
			<rect x="412" y="93.7" transform="matrix(0.7074 -0.7068 0.7068 0.7074 55.0157 322.1594)" class="st1" width="9.1" height="1.9"/>
		
			<rect x="400.9" y="104" transform="matrix(0.7071 -0.7071 0.7071 0.7071 44.8329 318.0435)" class="st1" width="10.9" height="1.9"/>
		<path class="st1" d="M227.8,284.6l-1.3-1.3c16.6-16.5,33.1-33,49.6-49.6l1.3,1.3C260.9,251.6,244.4,268.1,227.8,284.6"/>
		
			<rect x="441.4" y="76.5" transform="matrix(0.7071 -0.7071 0.7071 0.7071 76.1328 338.7202)" class="st1" width="11.1" height="1.9"/>
		
			<rect x="431.9" y="86.9" transform="matrix(0.7074 -0.7068 0.7068 0.7074 65.6126 334.2574)" class="st1" width="9.2" height="1.9"/>
		
			<rect x="418" y="99.2" transform="matrix(0.7071 -0.7071 0.7071 0.7071 53.4304 329.3167)" class="st1" width="12.4" height="1.9"/>
		
			<rect x="406.1" y="111.7" transform="matrix(0.7071 -0.7071 0.7071 0.7071 40.9213 324.1354)" class="st1" width="11.1" height="1.9"/>
		
			<rect x="220.3" y="267" transform="matrix(0.7071 -0.7071 0.7071 0.7071 -114.3842 259.8032)" class="st1" width="72.2" height="1.9"/>
		<path class="st1" d="M448.2,89.7l-1.3-1.3c13.2-13.3,25.2-25.3,36.5-36.6l1.3,1.3C473.4,64.4,461.5,76.4,448.2,89.7"/>
		<path class="st1" d="M434.9,103.2l-1.3-1.3c3.1-3.1,6.1-6.2,9.2-9.3l1.3,1.3C441,97,437.9,100.1,434.9,103.2"/>
		
			<rect x="416.8" y="111.6" transform="matrix(0.7028 -0.7114 0.7114 0.7028 46.0182 335.2794)" class="st1" width="15.1" height="1.9"/>
		<path class="st1" d="M236.6,303.6l-1.3-1.3c16.3-16.5,34-34.5,55.7-56.5l1.3,1.3C270.6,269.1,252.9,287.1,236.6,303.6"/>
		<path class="st1" d="M460.1,93.9l-1.3-1.3c13.5-13.6,26.7-27,37.8-38.3l1.3,1.3C486.9,66.9,473.7,80.3,460.1,93.9"/>
		<path class="st1" d="M451,103l-1.3-1.3c1.7-1.7,3.4-3.4,5.1-5L456,98C454.3,99.7,452.6,101.4,451,103"/>
		<path class="st1" d="M425.5,128.1l-1.3-1.3c6.7-6.5,13.6-13.2,20.8-20.5l1.3,1.3C439.1,114.8,432.3,121.5,425.5,128.1"/>
		<path class="st1" d="M406.5,147l-1.3-1.3c3.1-3.1,6.3-6.2,9.4-9.3l1.3,1.3C412.8,140.8,409.6,143.9,406.5,147"/>
		<path class="st1" d="M238.6,313.3l-1.3-1.3c21.7-21.6,41.6-41.2,60.7-59.9l1.3,1.3C280.2,272.1,260.3,291.7,238.6,313.3"/>
		<path class="st1" d="M493.1,72.6l-1.3-1.3c5.4-5.3,10.4-10.2,15.4-14.8l1.3,1.4C503.5,62.4,498.5,67.3,493.1,72.6"/>
		<path class="st1" d="M481.5,84.1l-1.3-1.3c2.5-2.5,5.1-5.1,7.6-7.6l1.3,1.3C486.5,79.1,484,81.6,481.5,84.1"/>
		<path class="st1" d="M463.7,102.2l-1.3-1.3c4.4-4.5,8.9-9.1,13.3-13.6l1.3,1.3C472.6,93.1,468.1,97.7,463.7,102.2"/>
		<path class="st1" d="M408.2,157.2l-1.3-1.4c18-16.7,35.8-34.9,51.4-50.9l1.3,1.3C444,122.3,426.3,140.5,408.2,157.2"/>
		<path class="st1" d="M247.9,318l-1.3-1.3c21.6-21.5,40.5-40.5,57.9-57.9l1.3,1.3C288.4,277.5,269.5,296.4,247.9,318"/>
		<path class="st1" d="M490.1,88.5l-1.3-1.3c7.8-8,17-17.2,26.1-26.4l1.3,1.3C507.1,71.3,498,80.5,490.1,88.5"/>
		<path class="st1" d="M478.5,100.3l-1.3-1.3c2.5-2.6,5.1-5.2,7.6-7.8l1.3,1.3C483.6,95.1,481.1,97.7,478.5,100.3"/>
		<path class="st1" d="M416.9,160.9l-1.3-1.4c18.8-17.5,36.8-35.4,58-56.9l1.3,1.3C453.7,125.4,435.7,143.3,416.9,160.9"/>
		<path class="st1" d="M406.2,171.3l-1.3-1.4c2.2-2.1,4.3-4.2,6.5-6.3l1.3,1.4C410.5,167.1,408.4,169.2,406.2,171.3"/>
		<path class="st1" d="M253.3,324.2l-1.3-1.3c20.4-20.4,38.8-38.7,56.3-56.1l1.3,1.3C292.1,285.5,273.7,303.8,253.3,324.2"/>
		<path class="st1" d="M454.9,136.4l-1.3-1.3c24.5-24.9,49-49.7,73.1-73.7l1.3,1.3C504,86.7,479.4,111.5,454.9,136.4"/>
		<path class="st1" d="M390.6,201.1l-1.3-1.3c14.6-14.6,29.1-29.3,43.7-43.9l1.3,1.3C419.7,171.9,405.1,186.5,390.6,201.1"/>
		<path class="st1" d="M252.1,340.1l-1.3-1.3c21.9-22,44.4-44.6,66.9-67.2l1.3,1.3C296.6,295.5,274.1,318.1,252.1,340.1"/>
		<rect x="538" y="62.3" transform="matrix(0.71 -0.7042 0.7042 0.71 112.1712 398.8072)" class="st1" width="4.5" height="1.9"/>
		<path class="st1" d="M461.7,143.6l-1.4-1.3c22.8-23.6,45.9-46.7,73.5-74.1l1.3,1.3C507.6,97,484.5,120,461.7,143.6"/>
		
			<rect x="452.9" y="147.6" transform="matrix(0.7052 -0.709 0.709 0.7052 28.9595 366.7205)" class="st1" width="5.3" height="1.9"/>
		<path class="st1" d="M392.6,212.9l-1.3-1.3c21.1-21.1,41.8-41.9,57.5-57.6l1.3,1.3C434.4,171,413.7,191.8,392.6,212.9"/>
		
			<rect x="232" y="314.6" transform="matrix(0.7071 -0.7071 0.7071 0.7071 -138.5541 296.5706)" class="st1" width="113.5" height="1.9"/>
		<path class="st1" d="M564.7,55.6l-1.3-1.3c4.7-4.8,9.5-9.5,14.2-14.3l1.3,1.3C574.1,46.1,569.4,50.9,564.7,55.6"/>
		<path class="st1" d="M470.9,149.3l-1.3-1.3c16.9-17.1,34.2-34.3,50.9-50.9c10.9-10.9,22.2-22.1,33.3-33.2l1.3,1.3
			c-11.1,11.1-22.4,22.3-33.3,33.2C505.1,115,487.7,132.2,470.9,149.3"/>
		
			<rect x="463.3" y="152.9" transform="matrix(0.7092 -0.705 0.705 0.7092 26.7095 372.4879)" class="st1" width="3.3" height="1.9"/>
		<path class="st1" d="M389.7,229.6l-1.3-1.3c24.1-23.7,47.9-47.2,70.5-69.7l1.3,1.3C437.6,182.3,413.9,205.8,389.7,229.6"/>
		<path class="st1" d="M245.9,372.4l-1.4-1.3c19.9-20.9,41-41.5,61.4-61.4c10.4-10.2,21.2-20.7,31.6-31.1l1.3,1.3
			c-10.5,10.4-21.2,20.9-31.7,31.1C286.9,331,265.8,351.5,245.9,372.4"/>
		<path class="st1" d="M588.6,44.7l-1.3-1.3c1.8-1.8,3.6-3.7,5.5-5.5l1.3,1.3C592.3,41,590.5,42.8,588.6,44.7"/>
		
			<rect x="574.4" y="55.2" transform="matrix(0.6942 -0.7198 0.7198 0.6942 135.7281 431.7521)" class="st1" width="3.2" height="1.9"/>
		<path class="st1" d="M482.5,150l-1.3-1.3c14.4-14.7,29.5-29.3,44-43.5c14.9-14.4,30.3-29.4,45-44.5l1.3,1.3
			c-14.7,15.1-30.1,30-45,44.5C512,120.7,496.9,135.3,482.5,150"/>
		<path class="st1" d="M394.2,238.3l-1.3-1.3c19.5-19.9,40.5-41,68.1-68.2l1.3,1.3C434.7,197.4,413.7,218.4,394.2,238.3"/>
		<path class="st1" d="M244.7,387.3l-1.3-1.3c15.9-15.9,32.2-32.1,48-47.6c17.1-16.9,34.7-34.3,51.8-51.5l1.3,1.3
			c-17.1,17.2-34.7,34.6-51.8,51.5C276.9,355.2,260.6,371.3,244.7,387.3"/>
		
			<rect x="598.4" y="40.5" transform="matrix(0.7068 -0.7074 0.7074 0.7068 147.2903 438.1783)" class="st1" width="7.8" height="1.9"/>
		
			<rect x="587" y="50.8" transform="matrix(0.7071 -0.7071 0.7071 0.7071 136.7887 433.7219)" class="st1" width="9.8" height="1.9"/>
		
			<rect x="497.4" y="94.4" transform="matrix(0.7071 -0.7071 0.7071 0.7071 93.1837 415.662)" class="st1" width="101.9" height="1.9"/>
		
			<rect x="503.7" y="136.4" transform="matrix(0.7071 -0.7071 0.7071 0.7071 51.1522 398.253)" class="st1" width="5.2" height="1.9"/>
		
			<rect x="494.8" y="145" transform="matrix(0.7066 -0.7077 0.7077 0.7066 42.774 395.0498)" class="st1" width="5.9" height="1.9"/>
		
			<rect x="484.2" y="154.3" transform="matrix(0.7074 -0.7068 0.7068 0.7074 33.2331 390.6913)" class="st1" width="8.5" height="1.9"/>
		
			<rect x="387.2" y="207.5" transform="matrix(0.7071 -0.7071 0.7071 0.7071 -19.886 368.8237)" class="st1" width="96.2" height="1.9"/>
		<path class="st1" d="M241.5,403.5l-1.3-1.3c30.6-30.6,62.5-62.5,93.1-93.1l1.3,1.3C304.1,340.9,272.2,372.8,241.5,403.5"/>
		<path class="st1" d="M599.4,58l-1.3-1.3c3.2-3.1,6.4-6.3,9.7-9.4l1.3,1.4C605.9,51.7,602.6,54.9,599.4,58"/>
		<path class="st1" d="M528.7,129.1l-1.3-1.3c7.9-7.9,15.8-15.9,23.6-23.9c14-14.2,28.6-28.9,43-43.2l1.3,1.3
			c-14.4,14.3-28.9,29-42.9,43.2C544.5,113.2,536.6,121.2,528.7,129.1"/>
		
			<rect x="517.9" y="134.5" transform="matrix(0.706 -0.7082 0.7082 0.706 57.3176 408.8852)" class="st1" width="6.5" height="1.9"/>
		<path class="st1" d="M502.1,155.7l-1.3-1.3c4.4-4.4,8.9-8.8,13.3-13.2l1.3,1.3C511,146.9,506.6,151.3,502.1,155.7"/>
		<path class="st1" d="M405.9,252l-1.3-1.3c27.6-27.5,55.3-55.2,81-81l1.3,1.3C461.1,196.8,433.5,224.5,405.9,252"/>
		<path class="st1" d="M241.1,417.1l-1.3-1.3c31.1-31.1,62.1-62.1,93.3-93.2l1.3,1.3C303.2,355,272.2,386,241.1,417.1"/>
		<path class="st1" d="M615.3,55.6l-1.3-1.3c1.6-1.6,3.3-3.3,4.9-4.9l1.3,1.3C618.5,52.4,616.9,54,615.3,55.6"/>
		<path class="st1" d="M534.9,137.7l-1.3-1.3c13.6-13.5,27.1-27.5,40.2-41.1c11.8-12.2,23.9-24.8,36.1-37l1.3,1.3
			c-12.2,12.2-24.3,24.8-36.1,36.9C562.1,110.1,548.5,124.1,534.9,137.7"/>
		<path class="st1" d="M513,158.9l-1.3-1.4c4.6-4.3,9.2-8.8,14.2-13.6l1.3,1.3C522.3,150.1,517.6,154.6,513,158.9"/>
		<path class="st1" d="M419,252.7l-1.3-1.3c27.2-27.4,54.8-54.8,80.8-80.6l1.3,1.3C473.8,197.9,446.2,225.4,419,252.7"/>
		
			<rect x="241.7" y="414.4" transform="matrix(0.706 -0.7082 0.7082 0.706 -219.3156 302.324)" class="st1" width="25.5" height="1.9"/>
		<path class="st1" d="M634,50.8l-1.3-1.3c0.9-0.9,1.8-1.8,2.7-2.7l1.3,1.3C635.8,49,634.9,49.9,634,50.8"/>
		<path class="st1" d="M625.9,59l-1.3-1.3c1.4-1.4,2.8-2.8,4.1-4.1l1.3,1.3C628.6,56.3,627.3,57.7,625.9,59"/>
		<path class="st1" d="M559.2,124.6l-1.3-1.3c6.3-6.1,12.7-12.3,18.9-18.3c14.5-13.9,29.4-28.3,43.6-43.1l1.4,1.3
			c-14.2,14.8-29.1,29.2-43.6,43.2C571.9,112.3,565.5,118.5,559.2,124.6"/>
		<path class="st1" d="M522.6,162.2l-1.4-1.3c7.8-8.6,16.6-17.7,26.8-27.9l1.3,1.3C539.2,144.5,530.4,153.6,522.6,162.2"/>
		<path class="st1" d="M437.2,247.6l-1.3-1.3c21.7-21.8,45-45.2,73.4-73.5l1.3,1.3C482.3,202.5,459,225.8,437.2,247.6"/>
		
			<rect x="250.3" y="426.6" transform="matrix(0.7071 -0.7071 0.7071 0.7071 -227.3188 306.3755)" class="st1" width="11.8" height="1.9"/>
		<path class="st1" d="M567.6,128.9l-1.3-1.3c28.7-28.4,57.9-57.2,86.1-85.1l3.3-3.3l1.3,1.3l-3.3,3.3
			C625.5,71.7,596.3,100.5,567.6,128.9"/>
		
			<rect x="557.9" y="133.5" transform="matrix(0.7068 -0.7074 0.7074 0.7068 69.3014 436.079)" class="st1" width="5.8" height="1.9"/>
		<path class="st1" d="M444,252.5l-1.3-1.3c35-34.9,72-71.8,109.9-109.9l1.3,1.3C516,180.7,479,217.7,444,252.5"/>
		
			<rect x="264.1" y="429.9" transform="matrix(0.7031 -0.7111 0.7111 0.7031 -227.4915 316.9227)" class="st1" width="3.3" height="1.9"/>
		<path class="st1" d="M566.8,143.8l-1.3-1.3c8-8.1,16-16.3,23.9-24.4c21.4-21.8,43.5-44.4,65.7-66.1c5-4.9,10-9.7,14.7-14.3
			l1.3,1.4c-4.8,4.5-9.7,9.3-14.7,14.2c-22.2,21.7-44.3,44.3-65.7,66.1C582.7,127.5,574.8,135.7,566.8,143.8"/>
		
			<rect x="556.1" y="149" transform="matrix(0.7036 -0.7106 0.7106 0.7036 59.2137 441.8972)" class="st1" width="6.5" height="1.9"/>
		<path class="st1" d="M524,186.5l-1.3-1.3c9.2-9,19.1-18.8,30-29.8l1.3,1.3C543.1,167.7,533.2,177.5,524,186.5"/>
		<path class="st1" d="M456.2,255.1l-1.3-1.3c20.9-21.3,42.4-43,63.7-64.5l1.3,1.3C498.6,212.1,477.1,233.8,456.2,255.1"/>
		<path class="st1" d="M568.3,156.4l-1.4-1.3c21.2-22.2,43.4-44,64.8-65.1c18.3-18,37.2-36.6,55.5-55.4l1.3,1.3
			c-18.3,18.8-37.3,37.4-55.6,55.4C611.7,112.5,589.5,134.3,568.3,156.4"/>
		<path class="st1" d="M527.5,197.9l-1.3-1.3c11.7-12,24.1-24.5,36.7-37.3l1.3,1.3C551.6,173.4,539.2,185.9,527.5,197.9"/>
		<path class="st1" d="M454.5,270.5l-1.3-1.3c23.6-23.4,46.8-46.4,68.9-68.5l1.3,1.3C501.2,224.1,478,247.1,454.5,270.5"/>
		<path class="st1" d="M557.7,178.9l-1.3-1.3c45.4-46.9,92.8-94.3,140.7-140.7l1.3,1.3C650.5,84.7,603.2,132,557.7,178.9"/>
		<path class="st1" d="M529.8,206.8l-1.3-1.3c8-7.9,15.9-15.8,23.8-23.7l1.3,1.3C545.7,191,537.7,198.9,529.8,206.8"/>
		<path class="st1" d="M459.8,277.2l-1.3-1.3c17.1-17.5,34.7-35.1,51.7-52.1c4.8-4.7,9.5-9.5,14.2-14.2l1.3,1.3
			c-4.7,4.8-9.5,9.5-14.2,14.2C494.5,242.1,476.9,259.7,459.8,277.2"/>
		<path class="st1" d="M566.2,186.4l-1.3-1.4c36-33.8,70.9-69.4,104.5-103.8c13.7-14,27.8-28.4,41.9-42.6l1.3,1.3
			c-14.1,14.2-28.2,28.6-41.8,42.6C637.1,117,602.3,152.6,566.2,186.4"/>
		<path class="st1" d="M536.4,215.9l-1.3-1.3c8.6-8.5,17.1-16.9,25.7-25.4l1.3,1.3C553.5,198.9,545,207.4,536.4,215.9"/>
		<path class="st1" d="M463.9,288.2l-1.3-1.3c23.7-23.7,47.8-47.6,68.4-68.2l1.3,1.3C511.6,240.5,487.6,264.5,463.9,288.2"/>
		<path class="st1" d="M576,188.9l-1.3-1.4c44.8-42.8,89.8-88.4,133.2-132.5l10.4-10.6l1.3,1.3l-10.4,10.6
			C665.8,100.5,620.8,146.1,576,188.9"/>
		<path class="st1" d="M540.8,224l-1.3-1.3c10.5-10.5,21.1-20.9,31.6-31.4l1.3,1.3C561.8,203,551.3,213.5,540.8,224"/>
		<path class="st1" d="M465,299.4l-1.3-1.3c21.9-21.8,45.4-45.1,71.7-71.4l1.3,1.3C510.4,254.3,486.9,277.6,465,299.4"/>
		<path class="st1" d="M583.7,193.7l-1.3-1.3c49.1-49.1,97-97,145.9-145.9l1.3,1.3C680.7,96.7,632.8,144.6,583.7,193.7"/>
		
			<rect x="537" y="213.7" transform="matrix(0.7071 -0.7071 0.7071 0.7071 12.7342 459.9423)" class="st1" width="49.1" height="1.9"/>
		<path class="st1" d="M513,264.2l-1.3-1.3c9.4-9.3,18.8-18.6,28.2-27.9l1.3,1.3C531.8,245.6,522.4,254.9,513,264.2"/>
		<path class="st1" d="M461.1,316l-1.3-1.3c15.8-15.7,31.5-31.4,47.3-47.2l1.3,1.3C492.6,284.5,476.9,300.3,461.1,316"/>
		<path class="st1" d="M597.3,192.8l-1.3-1.3c25.1-24.4,50.2-49.6,74.5-74c23.7-23.8,48.2-48.4,72.7-72.2l1.3,1.3
			c-24.5,23.8-49,48.4-72.7,72.2C647.5,143.2,622.4,168.4,597.3,192.8"/>
		
			<rect x="568.7" y="214.9" transform="matrix(0.7055 -0.7087 0.7087 0.7055 15.7752 469.6328)" class="st1" width="8.5" height="1.9"/>
		<path class="st1" d="M464.8,325.8l-1.3-1.3c12-12,24.2-24.3,36-36.3c18.7-18.9,38.1-38.5,57.4-57.5l1.3,1.3
			c-19.3,18.9-38.6,38.5-57.3,57.5C489,301.4,476.8,313.8,464.8,325.8"/>
		<path class="st1" d="M606.4,197.2l-1.3-1.3c29.5-29,60.9-60,92.7-91.5c20.5-20.4,39.2-39,57.2-57l1.3,1.3
			c-17.9,18-36.6,36.6-57.2,57C667.3,137.2,635.9,168.2,606.4,197.2"/>
		<path class="st1" d="M469,334.8l-1.3-1.3c27-27.4,56.6-57.3,90.7-91.2l1.3,1.3C525.6,277.6,495.9,307.4,469,334.8"/>
		
			<rect x="773.6" y="39.9" transform="matrix(0.705 -0.7092 0.7092 0.705 199.8431 562.1597)" class="st1" width="3.9" height="1.9"/>
		<path class="st1" d="M610,207l-1.3-1.3c32.8-31.7,65.1-63.9,92.3-91.2c9.2-9.2,18.3-18.4,27.5-27.6c11.7-11.7,23.3-23.4,35-35.1
			l1.3,1.3c-11.7,11.7-23.3,23.4-35,35.1c-9.2,9.2-18.3,18.4-27.5,27.6C675.1,143.1,642.8,175.3,610,207"/>
		<path class="st1" d="M470.5,347.1l-1.3-1.3c19.1-19.3,39-39.2,60.8-61.1l1.3,1.3C509.5,307.9,489.6,327.9,470.5,347.1"/>
		
			<rect x="780" y="41.4" transform="matrix(0.7071 -0.7071 0.7071 0.7071 200.3373 568.2755)" class="st1" width="12.2" height="1.9"/>
		<path class="st1" d="M613.8,215.9l-1.4-1.3c33.8-35.9,69.9-71.2,104.8-105.4c19.7-19.3,40.1-39.3,59.8-59l1.3,1.3
			c-19.7,19.8-40.1,39.7-59.8,59.1C683.6,144.7,647.5,180,613.8,215.9"/>
		<path class="st1" d="M474.5,355.1l-1.3-1.3c19.2-19.2,38.5-38.4,57.7-57.6l1.3,1.3C513,316.7,493.7,335.9,474.5,355.1"/>
		<path class="st1" d="M617.6,226l-1.4-1.3C659.9,179.3,706,134.4,750.6,91c14.2-13.8,28.8-28,43.2-42.1l1.3,1.3
			c-14.4,14.1-29.1,28.4-43.2,42.1C707.4,135.7,661.3,180.6,617.6,226"/>
		<path class="st1" d="M476.7,366.2l-1.3-1.3c18.1-18.2,37.1-37.1,58-58l1.3,1.3C513.7,329.1,494.7,348.1,476.7,366.2"/>
		<path class="st1" d="M653.7,203.2l-1.3-1.4c31.2-29.3,61.9-60.3,91.7-90.3c20.2-20.4,41.1-41.4,61.9-61.7l1.3,1.3
			c-20.8,20.3-41.7,41.3-61.9,61.7C715.7,142.9,684.9,173.9,653.7,203.2"/>
		<path class="st1" d="M621.6,235.4l-1.3-1.4c3.1-3,6.1-6.2,9-9.3c0.8-0.9,1.7-1.8,2.5-2.7l1.4,1.3c-0.8,0.9-1.7,1.8-2.5,2.7
			C627.8,229.2,624.8,232.4,621.6,235.4"/>
		<path class="st1" d="M543.3,313.7l-1.3-1.3c3.8-3.8,7.6-7.7,11.3-11.5l1.3,1.3C550.9,306,547.1,309.8,543.3,313.7"/>
		<path class="st1" d="M485.6,371.4l-1.3-1.3c11.9-11.8,23.8-23.7,35.6-35.5l1.3,1.3C509.4,347.7,497.5,359.5,485.6,371.4"/>
		<path class="st1" d="M663.5,207.7l-1.4-1.3c22.5-24.1,46.4-47.6,69.5-70.4c6.7-6.6,13.5-13.3,20.2-19.9
			C776.2,92,796.1,72,814.5,53.3l1.3,1.3c-18.4,18.7-38.3,38.7-62.7,62.9c-6.7,6.7-13.5,13.3-20.2,19.9
			C709.9,160.1,686,183.6,663.5,207.7"/>
		
			<rect x="622.7" y="239.7" transform="matrix(0.7071 -0.7071 0.7071 0.7071 14.2236 515.6038)" class="st1" width="13.5" height="1.9"/>
		<path class="st1" d="M540.8,330.6l-1.3-1.3c5.8-5.8,11.6-11.5,17.4-17.3l1.3,1.3C552.4,319,546.6,324.8,540.8,330.6"/>
		
			<rect x="502.6" y="363.1" transform="matrix(0.7092 -0.705 0.705 0.7092 -109.607 462.282)" class="st1" width="5.9" height="1.9"/>
		<path class="st1" d="M791.5,91.3l-1.3-1.3c13.2-13.3,26.3-26.3,36.3-36.1l1.3,1.3C817.8,65.1,804.7,78.1,791.5,91.3"/>
		
			<rect x="780.8" y="96.3" transform="matrix(0.705 -0.7092 0.7092 0.705 162.4207 584.9551)" class="st1" width="7.1" height="1.9"/>
		<path class="st1" d="M734.3,148.5l-1.3-1.3c12.8-12.8,26.6-26.6,43.6-43.5l1.3,1.3C760.9,121.9,747,135.7,734.3,148.5"/>
		<path class="st1" d="M669.2,214.3l-1.3-1.3c18.8-19.2,38.9-39.6,61.4-62.2l1.3,1.3C708.1,174.7,688,195.1,669.2,214.3"/>
		
			<rect x="629.4" y="248" transform="matrix(0.7031 -0.7111 0.7111 0.7031 11.0337 524.2586)" class="st1" width="7.8" height="1.9"/>
		
			<rect x="537.7" y="333.5" transform="matrix(0.7071 -0.7071 0.7071 0.7071 -76.0013 485.3361)" class="st1" width="20.3" height="1.9"/>
		<path class="st1" d="M806.4,90.4l-1.3-1.3c9-9.3,19-19.3,31.5-31.7l1.3,1.3C825.3,71.1,815.3,81.1,806.4,90.4"/>
		<path class="st1" d="M743.7,153.1l-1.3-1.3c15.9-15.9,31.8-31.8,47.7-47.7l1.3,1.3C775.5,121.3,759.6,137.2,743.7,153.1"/>
		<path class="st1" d="M678,218.8l-1.3-1.3c20.5-20.5,41-41.1,61.5-61.6l1.3,1.3C719,177.7,698.5,198.2,678,218.8"/>
		
			<rect x="667.6" y="223.6" transform="matrix(0.7111 -0.7031 0.7031 0.7111 35.9361 536.5876)" class="st1" width="6.5" height="1.9"/>
		<path class="st1" d="M817.3,91.9l-1.3-1.3l4.6-4.7c9.1-9.3,18.4-18.9,27.7-28.3l1.3,1.3c-9.3,9.4-18.6,19-27.7,28.3L817.3,91.9z"
			/>
		<rect x="789" y="115.7" transform="matrix(0.705 -0.7092 0.7092 0.705 150.805 595.8772)" class="st1" width="5.2" height="1.9"/>
		<path class="st1" d="M769.5,140.1l-1.3-1.3c5.5-5.4,10.9-10.9,16.4-16.4l1.3,1.3C780.5,129.2,775,134.7,769.5,140.1"/>
		
			<rect x="745.6" y="156.6" transform="matrix(0.705 -0.7092 0.7092 0.705 109.7989 579.0173)" class="st1" width="10.5" height="1.9"/>
		<path class="st1" d="M678.4,231.5l-1.3-1.3c18.4-18.4,36.6-36.7,58.3-58.5l1.3,1.3C715,194.8,696.8,213.1,678.4,231.5"/>
		<path class="st1" d="M822.9,100l-1.3-1.3c14.6-14.1,28.9-28.8,42.7-43l1.3,1.3C851.8,71.1,837.5,85.8,822.9,100"/>
		<path class="st1" d="M783.3,139.8l-1.3-1.3c3.6-3.7,7.2-7.3,10.8-11l1.3,1.3C790.5,132.4,786.9,136.1,783.3,139.8"/>
		
			<rect x="752.7" y="162.5" transform="matrix(0.7071 -0.7071 0.7071 0.7071 106.5075 584.0749)" class="st1" width="11.2" height="1.9"/>
		
			<rect x="715.6" y="191.8" transform="matrix(0.7071 -0.7071 0.7071 0.7071 77.2768 571.9772)" class="st1" width="26.9" height="1.9"/>
		
			<rect x="685.3" y="224.7" transform="matrix(0.7071 -0.7071 0.7071 0.7071 44.3323 558.3478)" class="st1" width="21.6" height="1.9"/>
		
			<rect x="677.4" y="240.2" transform="matrix(0.7076 -0.7066 0.7066 0.7076 28.5773 551.4232)" class="st1" width="6.5" height="1.9"/>
		
			<rect x="668.1" y="249.5" transform="matrix(0.7076 -0.7066 0.7066 0.7076 19.3647 547.5984)" class="st1" width="6.5" height="1.9"/>
		<path class="st1" d="M848.9,88.1l-1.3-1.3c9.8-9.7,19.5-19.4,29.2-29.2l1.3,1.3C868.4,68.7,858.6,78.4,848.9,88.1"/>
		<path class="st1" d="M822.7,114.1l-1.3-1.3c7.4-7.3,14.7-14.6,22.1-21.9l1.3,1.3C837.4,99.5,830,106.8,822.7,114.1"/>
		<path class="st1" d="M765.4,171.5l-1.3-1.3c7.5-7.5,15.1-15,22.6-22.5l1.3,1.3C780.5,156.5,773,164,765.4,171.5"/>
		
			<rect x="731.9" y="199" transform="matrix(0.7081 -0.7061 0.7061 0.7081 73.5468 577.8986)" class="st1" width="7.9" height="1.9"/>
		
			<rect x="690.7" y="234.3" transform="matrix(0.7076 -0.7066 0.7066 0.7076 38.6176 563.7271)" class="st1" width="19.7" height="1.9"/>
		<path class="st1" d="M683.1,253.8l-1.3-1.3c2.3-2.3,4.6-4.6,7-6.8l1.3,1.3C687.7,249.3,685.4,251.6,683.1,253.8"/>
		
			<rect x="674.9" y="257.7" transform="matrix(0.7169 -0.6972 0.6972 0.7169 11.3417 545.1344)" class="st1" width="3.8" height="1.9"/>
		<path class="st1" d="M860.7,89l-1.4-1.3c7.5-7.8,15.5-16,24.3-24.9l1.3,1.3C876.2,73,868.2,81.1,860.7,89"/>
		<path class="st1" d="M730.7,219.7l-1.3-1.3c2.5-2.4,4.9-4.9,7.3-7.3l1.3,1.3C735.6,214.9,733.1,217.3,730.7,219.7"/>
		
			<rect x="687.5" y="257.7" transform="matrix(0.709 -0.7053 0.7053 0.709 18.3216 561.769)" class="st1" width="4.6" height="1.9"/>
		
			<rect x="678.4" y="265.9" transform="matrix(0.705 -0.7092 0.7092 0.705 11.9006 562.2064)" class="st1" width="6.6" height="1.9"/>
		
			<rect x="878.3" y="79.4" transform="matrix(0.7074 -0.7068 0.7068 0.7074 201.0178 646.1999)" class="st1" width="5.3" height="1.9"/>
		<path class="st1" d="M731.3,231.8l-1.3-1.3c3.1-3.1,6.2-6.2,9.3-9.3l1.3,1.3C737.5,225.6,734.4,228.7,731.3,231.8"/>
		<path class="st1" d="M684.1,278.9l-1.3-1.3c2.9-2.9,5.8-5.8,8.8-8.7l1.3,1.3C689.9,273.1,687,276,684.1,278.9"/>
		
			<rect x="735.4" y="232.4" transform="matrix(0.7023 -0.7119 0.7119 0.7023 54.5479 597.1516)" class="st1" width="11.7" height="1.9"/>
		<path class="st1" d="M704.2,271.6l-1.3-1.3c7.7-7.6,15.3-15.2,23-22.9l1.3,1.3C719.5,256.4,711.9,264,704.2,271.6"/>
		<rect x="688.7" y="278.4" transform="matrix(0.7042 -0.71 0.71 0.7042 7.3602 576.2976)" class="st1" width="13" height="1.9"/>
		
			<rect x="740.9" y="242.5" transform="matrix(0.6993 -0.7148 0.7148 0.6993 49.6919 605.0908)" class="st1" width="6.4" height="1.9"/>
		<path class="st1" d="M713.2,276.1l-1.3-1.3c5.1-5.1,10.2-10.2,15.3-15.4l1.3,1.3C723.4,265.9,718.3,271,713.2,276.1"/>
		<polygon class="st1" points="706.3,283.1 704.9,281.7 707.7,279 709,280.3 		"/>
		
			<rect x="698.1" y="287" transform="matrix(0.7135 -0.7007 0.7007 0.7135 -1.1319 573.0452)" class="st1" width="3.9" height="1.9"/>
		<path class="st1" d="M730.3,272.6l-1.3-1.3c3.3-3.2,6.5-6.4,9.8-9.7l1.3,1.3C736.8,266.1,733.5,269.4,730.3,272.6"/>
		
			<rect x="722.6" y="276.3" transform="matrix(0.7071 -0.7071 0.7071 0.7071 16.0982 593.3583)" class="st1" width="3.3" height="1.9"/>
		<rect x="710" y="288.6" transform="matrix(0.7071 -0.7071 0.7071 0.7071 3.798 588.2646)" class="st1" width="3.9" height="1.9"/>
		
			<rect x="750" y="261.1" transform="matrix(0.7071 -0.7071 0.7071 0.7071 35.1384 608.962)" class="st1" width="5.2" height="1.9"/>
		
			<rect x="735.2" y="275.9" transform="matrix(0.7071 -0.7071 0.7071 0.7071 20.3385 602.8324)" class="st1" width="5.2" height="1.9"/>
		
			<rect x="757.4" y="266.3" transform="matrix(0.7066 -0.7077 0.7077 0.7066 34.1039 616.694)" class="st1" width="6.5" height="1.9"/>
		<path class="st1" d="M765.1,277.8l-1.3-1.3c2.6-2.6,5.2-5.2,7.8-7.8l1.3,1.3C770.3,272.5,767.7,275.2,765.1,277.8"/>
		
			<rect x="744.2" y="293.3" transform="matrix(0.7082 -0.7061 0.7061 0.7082 10.4109 613.5856)" class="st1" width="6.5" height="1.9"/>
		<path class="st1" d="M775.5,280.9l-1.3-1.3c3.2-3.2,6.5-6.3,9.7-9.5l1.3,1.3C782,274.6,778.8,277.8,775.5,280.9"/>
		<path class="st1" d="M714.8,340.8l-1.3-1.3c11-10.9,22.6-22.3,34.5-34l1.3,1.3C737.5,318.5,725.9,329.9,714.8,340.8"/>
		
			<rect x="774" y="282.2" transform="matrix(0.7082 -0.7061 0.7061 0.7082 29.1375 636.7609)" class="st1" width="21.6" height="1.9"/>
		<path class="st1" d="M718.5,350.5l-1.3-1.3c16.1-16,32.1-32,48.2-48l1.3,1.3C750.7,318.5,734.6,334.5,718.5,350.5"/>
		<path class="st1" d="M786.3,295.7l-1.3-1.3c4.3-4.3,8.6-8.6,12.8-12.9l1.3,1.3C794.9,287.1,790.6,291.4,786.3,295.7"/>
		<path class="st1" d="M721.6,360.4l-1.3-1.3c16.6-16.5,34.3-34.2,54.2-54l1.3,1.3C755.9,326.2,738.2,343.9,721.6,360.4"/>
		
			<rect x="799.2" y="291.1" transform="matrix(0.709 -0.7053 0.7053 0.709 27.4895 650.6714)" class="st1" width="5.9" height="1.9"/>
		
			<rect x="786.1" y="303.8" transform="matrix(0.7076 -0.7066 0.7066 0.7076 15.4704 646.8345)" class="st1" width="6.5" height="1.9"/>
		<path class="st1" d="M723.3,371.8l-1.3-1.3c17.6-17.5,36-35.8,56.1-55.8l1.3,1.3C759.3,336.1,740.9,354.3,723.3,371.8"/>
		
			<rect x="806.7" y="298.4" transform="matrix(0.706 -0.7082 0.7082 0.706 25.624 660.4241)" class="st1" width="3.2" height="1.9"/>
		<path class="st1" d="M738.3,370.7l-1.3-1.3c19.5-19.5,39-39,58.5-58.5l1.3,1.3C777.3,331.7,757.8,351.2,738.3,370.7"/>
		<path class="st1" d="M761.1,361.1l-1.3-1.3c12.6-12.5,25.5-25.3,39.3-39.1l1.3,1.3C786.6,335.8,773.7,348.6,761.1,361.1"/>
		
			<rect x="761" y="344.2" transform="matrix(0.7071 -0.7071 0.7071 0.7071 -12.9555 658.919)" class="st1" width="55.8" height="1.9"/>
		<path class="st1" d="M779.5,369.5l-1.3-1.3c10.7-10.5,21.6-21.3,33.4-33l1.3,1.3C801.1,348.1,790.2,358.9,779.5,369.5"/>
		<path class="st1" d="M779.5,369.5l-1.3-1.3c10.6-10.5,21.5-21.2,33.4-33l1.3,1.3C801,348.2,790.1,359,779.5,369.5"/>
		<path class="st1" d="M783.8,378.1l-1.3-1.3c10.6-10.7,21.3-21.3,31.9-32l1.3,1.3C805,356.8,794.4,367.5,783.8,378.1"/>
		
			<rect x="843.7" y="327.2" transform="matrix(0.7079 -0.7063 0.7063 0.7079 15.1203 692.9018)" class="st1" width="3.3" height="1.9"/>
		<path class="st1" d="M792.1,382.5l-1.3-1.3c9.1-9.1,18.2-18.2,27.3-27.3l1.3,1.3C810.3,364.4,801.2,373.5,792.1,382.5"/>
		
			<rect x="805.2" y="378.6" transform="matrix(0.71 -0.7042 0.7042 0.71 -32.8817 679.1628)" class="st1" width="5.9" height="1.9"/>
		
			<rect x="793.6" y="388.5" transform="matrix(0.71 -0.7042 0.7042 0.71 -42.7375 675.0102)" class="st1" width="9.1" height="1.9"/>
		
			<rect x="801.5" y="395.3" transform="matrix(0.706 -0.7082 0.7082 0.706 -44.4583 685.4543)" class="st1" width="3.8" height="1.9"/>
		
			<rect x="869.7" y="380.3" transform="matrix(0.7079 -0.7063 0.7063 0.7079 -14.5806 727.28)" class="st1" width="4.6" height="1.9"/>
		<path class="st1" d="M852.3,402.5l-1.3-1.3c4.9-5,9.8-10,14.6-14.8l1.3,1.3C862.1,392.6,857.2,397.5,852.3,402.5"/>
		
			<rect x="192.2" y="36.9" transform="matrix(0.7052 -0.709 0.709 0.7052 30.5107 148.9955)" class="st1" width="4.5" height="1.9"/>
		
			<rect x="178.3" y="50.5" transform="matrix(0.7036 -0.7106 0.7106 0.7036 17.0952 143.7952)" class="st1" width="5.2" height="1.9"/>
		<path class="st1" d="M112.3,121.8l-1.3-1.3c16.6-16.4,33.3-33.3,49.4-49.7c4.7-4.7,9.3-9.4,14-14.1l1.3,1.3
			c-4.7,4.7-9.3,9.4-14,14.1C145.6,88.5,128.9,105.4,112.3,121.8"/>
		
			<rect x="177" y="37.3" transform="matrix(0.7018 -0.7124 0.7124 0.7018 26.8965 140.7095)" class="st1" width="9.1" height="1.9"/>
		<rect x="170.9" y="46" transform="matrix(0.7012 -0.713 0.713 0.7012 18.1618 137.2939)" class="st1" width="3.9" height="1.9"/>
		<path class="st1" d="M108.2,113l-1.3-1.3C127,92.1,146.9,72,167.2,51.4l1.3,1.3C148.3,73.3,128.4,93.4,108.2,113"/>
		
			<rect x="171.9" y="30.9" transform="matrix(0.7052 -0.709 0.709 0.7052 28.9491 133.3452)" class="st1" width="5.8" height="1.9"/>
		
			<rect x="157.6" y="43.4" transform="matrix(0.7055 -0.7087 0.7087 0.7055 16.4494 128.1868)" class="st1" width="9.7" height="1.9"/>
		<path class="st1" d="M97.7,110.3l-1.3-1.3c21.4-21.2,40.3-40.1,57.9-57.7l1.3,1.3C138,70.2,119.1,89,97.7,110.3"/>
		
			<rect x="144.7" y="41.1" transform="matrix(0.7127 -0.7015 0.7015 0.7127 13.8326 117.9382)" class="st1" width="12.3" height="1.9"/>
		<rect x="135.6" y="52.3" transform="matrix(0.7121 -0.702 0.702 0.7121 2.7777 113.2971)" class="st1" width="7.8" height="1.9"/>
		<path class="st1" d="M93.2,101l-1.3-1.3c13.9-14.3,27.8-28.2,39.7-39.9l1.3,1.3C121,72.8,107.1,86.7,93.2,101"/>
		<rect x="144" y="31.4" transform="matrix(0.7111 -0.7031 0.7031 0.7111 19.8961 113.092)" class="st1" width="7.1" height="1.9"/>
		<path class="st1" d="M125.1,55.9l-1.3-1.3c4-4,8.1-8,12.1-11.9l4.4-4.3l1.3,1.3l-4.4,4.3C133.1,47.9,129.1,51.9,125.1,55.9"/>
		<path class="st1" d="M87.5,93.7l-1.4-1.3c12.1-12.5,24.3-24.7,33.5-33.8l1.3,1.3C111.7,69.1,99.5,81.2,87.5,93.7"/>
		
			<rect x="123.2" y="36.2" transform="matrix(0.7071 -0.7071 0.7071 0.7071 11.6368 102.3781)" class="st1" width="12.5" height="1.9"/>
		
			<rect x="111.8" y="48.3" transform="matrix(0.7071 -0.7071 0.7071 0.7071 -0.4132 97.3855)" class="st1" width="11.1" height="1.9"/>
		
			<rect x="70.1" y="72.6" transform="matrix(0.7071 -0.7071 0.7071 0.7071 -24.7453 87.3055)" class="st1" width="45.9" height="1.9"/>
		<path class="st1" d="M67.7,87.6l-1.3-1.3c9.5-9.6,19.1-19.1,28.6-28.7l1.3,1.3C86.8,68.5,77.2,78.1,67.7,87.6"/>
		
			<rect x="45.4" y="72.7" transform="matrix(0.7074 -0.7068 0.7068 0.7074 -32.6319 68.5307)" class="st1" width="42" height="1.9"/>
		<rect x="38" y="96" transform="matrix(0.7074 -0.7068 0.7068 0.7074 -55.8376 58.9256)" class="st1" width="10.5" height="1.9"/>
		<path class="st1" d="M22.9,104.8l-1.3-1.3C39.1,85.8,54.9,70,69.7,55.2l1.3,1.3C56.2,71.3,40.5,87.1,22.9,104.8"/>
		<path class="st1" d="M23.3,91.2L22,89.8c11.6-11.4,23.2-23.2,34.4-34.5l0.4-0.4l1.3,1.3l-0.4,0.4C46.5,68,34.9,79.7,23.3,91.2"/>
		<path class="st1" d="M11.4,102.8l-1.3-1.3c2.8-2.7,5.5-5.4,8.3-8.1l1.3,1.3C16.9,97.5,14.2,100.2,11.4,102.8"/>
		
			<rect x="-0.6" y="108.4" transform="matrix(0.7034 -0.7108 0.7108 0.7034 -76.6391 35.0263)" class="st1" width="8.5" height="1.9"/>
		<path class="st1" d="M14.7,87.3L13.3,86c10.9-10.9,21.9-21.8,32.8-32.8l1.3,1.3C36.5,65.5,25.6,76.4,14.7,87.3"/>
		<path class="st1" d="M12.5,76.1l-1.3-1.3c7.6-7.6,15.1-15.2,22.7-22.7l1.3,1.3C27.6,60.9,20.1,68.5,12.5,76.1"/>
		
			<rect x="10.6" y="59.8" transform="matrix(0.7063 -0.7079 0.7079 0.7063 -38.9319 27.6166)" class="st1" width="6.5" height="1.9"/>
	</g>
</g>
</svg>
