<svg width="24" height="22" viewBox="0 0 24 22" fill="none" xmlns="http://www.w3.org/2000/svg">
<path opacity="0.4" d="M12.7094 0.710501L15.2874 5.89124C15.4774 6.26659 15.8399 6.52725 16.258 6.58517L22.0487 7.42855C22.3868 7.47605 22.6938 7.65445 22.9011 7.9267C23.1061 8.19546 23.1941 8.53606 23.1443 8.87086C23.1037 9.1489 22.9729 9.40608 22.7725 9.60302L18.5766 13.6705C18.2696 13.9543 18.1307 14.3748 18.2048 14.7861L19.2379 20.5044C19.3479 21.1948 18.8904 21.8459 18.2048 21.9768C17.9222 22.022 17.6327 21.9745 17.3779 21.8447L12.2126 19.1536C11.8292 18.9601 11.3764 18.9601 10.993 19.1536L5.82771 21.8447C5.19305 22.1818 4.40667 21.9525 4.05344 21.3269C3.92257 21.0778 3.87624 20.794 3.91909 20.5171L4.95216 14.7977C5.02628 14.3876 4.88614 13.9647 4.58039 13.6809L0.38444 9.61576C-0.114719 9.13384 -0.129775 8.34027 0.350854 7.84097C0.361278 7.83054 0.372859 7.81896 0.38444 7.80737C0.583641 7.60464 0.845381 7.47605 1.12797 7.44245L6.91868 6.59791C7.33562 6.53883 7.69812 6.28049 7.88921 5.90282L10.3746 0.710501C10.5958 0.265643 11.0544 -0.0112349 11.5524 0.000349923H11.7076C12.1396 0.0524817 12.516 0.320091 12.7094 0.710501Z" fill="#196164"/>
<path d="M11.5697 19.0093C11.3454 19.0162 11.1269 19.0765 10.9304 19.1843L5.79031 21.8693C5.16138 22.1695 4.40876 21.9365 4.05614 21.3351C3.9255 21.0894 3.8781 20.8078 3.92204 20.532L4.94866 14.8247C5.01803 14.4098 4.87929 13.988 4.57755 13.696L0.379717 9.63192C-0.118566 9.14405 -0.127815 8.34328 0.360063 7.84382C0.367 7.83687 0.37278 7.83108 0.379717 7.82528C0.578568 7.62828 0.835224 7.49849 1.11153 7.45793L6.90711 6.60502C7.32678 6.55171 7.69095 6.28981 7.87593 5.90971L10.3951 0.652032C10.6344 0.227894 11.0934 -0.0247338 11.5789 0.00191964C11.5697 0.346097 11.5697 18.7752 11.5697 19.0093Z" fill="#196164"/>
</svg>
