<svg width="25" height="25" viewBox="0 0 25 25" fill="none" xmlns="http://www.w3.org/2000/svg">
<path fill-rule="evenodd" clip-rule="evenodd" d="M12.5017 0C15.8433 0 18.9837 1.2992 21.3425 3.65916C26.2183 8.53494 26.2183 16.4674 21.3425 21.3432C18.9523 23.7345 15.734 25 12.4738 25C10.6965 25 8.90765 24.6243 7.23392 23.8497C6.74076 23.652 6.279 23.4659 5.94752 23.4659C5.56602 23.4682 5.05308 23.645 4.55759 23.8159C3.54103 24.1649 2.27556 24.5999 1.33925 23.6671C0.406436 22.7331 0.836788 21.4711 1.1834 20.4557C1.35437 19.9556 1.53001 19.4391 1.53001 19.0483C1.53001 18.7273 1.37531 18.3179 1.13804 17.7282C-1.04048 13.0234 -0.0332218 7.35321 3.662 3.66032C6.02079 1.30036 9.16004 0 12.5017 0ZM12.5028 1.74467C9.62645 1.74467 6.92453 2.86359 4.8949 4.89439C1.71494 8.07202 0.849583 12.9513 2.73965 17.0373C3.01181 17.7108 3.27468 18.3668 3.27468 19.0483C3.27468 19.7288 3.04089 20.4138 2.83502 21.0187C2.66521 21.5165 2.40816 22.2678 2.57332 22.433C2.73499 22.6005 3.49102 22.3365 3.98999 22.1655C4.589 21.9608 5.26826 21.7258 5.9417 21.7212C6.61631 21.7212 7.25253 21.9771 7.92598 22.2481C12.0515 24.1556 16.9308 23.2879 20.1096 20.1103C24.3038 15.9137 24.3038 9.08742 20.1096 4.89323C18.0788 2.86243 15.3781 1.74467 12.5028 1.74467ZM17.0935 11.8204C17.7356 11.8204 18.2566 12.3403 18.2566 12.9835C18.2566 13.6267 17.7356 14.1466 17.0935 14.1466C16.4515 14.1466 15.9258 13.6267 15.9258 12.9835C15.9258 12.3403 16.441 11.8204 17.0831 11.8204H17.0935ZM12.4308 11.8204C13.0729 11.8204 13.594 12.3403 13.594 12.9835C13.594 13.6267 13.0729 14.1466 12.4308 14.1466C11.7888 14.1466 11.2631 13.6267 11.2631 12.9835C11.2631 12.3403 11.7772 11.8204 12.4204 11.8204H12.4308ZM7.76768 11.8204C8.40972 11.8204 8.93079 12.3403 8.93079 12.9835C8.93079 13.6267 8.40972 14.1466 7.76768 14.1466C7.12564 14.1466 6.59991 13.6267 6.59991 12.9835C6.59991 12.3403 7.11517 11.8204 7.75721 11.8204H7.76768Z" fill="#0A4020"/>
</svg>
