<svg width="27" height="26" viewBox="0 0 27 26" fill="none" xmlns="http://www.w3.org/2000/svg">
<path fill-rule="evenodd" clip-rule="evenodd" d="M15.7597 1.13792L16.71 2.08816C17.0779 2.45343 17.5692 2.65622 18.0918 2.65622H19.4281C21.5872 2.65622 23.3434 4.4124 23.3434 6.57155V7.90655C23.3434 8.42782 23.5462 8.92048 23.9141 9.29096L24.8474 10.2256C25.5871 10.96 25.9978 11.9415 26.0018 12.9879C26.0056 14.0343 25.6014 15.0184 24.8643 15.7606L23.9115 16.7108C23.5462 17.0787 23.3434 17.5688 23.3434 18.0913V19.429C23.3434 21.5868 21.5872 23.343 19.4294 23.343H18.0892C17.5744 23.343 17.0714 23.551 16.7061 23.9136L15.7727 24.847C15.0097 25.6152 14.0036 26 12.9974 26C12.0004 26 11.0034 25.623 10.2403 24.8665C10.2299 24.8561 10.2195 24.8457 10.2091 24.834L9.2862 23.9123C8.91832 23.5471 8.42696 23.3443 7.90439 23.343H6.57068C4.41153 23.343 2.65665 21.5868 2.65665 19.429V18.0887C2.65665 17.5662 2.45257 17.0761 2.08599 16.7069L1.15136 15.7736C-0.366936 14.2631 -0.385134 11.8037 1.10586 10.2698L1.14096 10.2347L2.08729 9.28576C2.45257 8.91788 2.65665 8.42522 2.65665 7.90395V6.57155C2.65665 4.4137 4.41153 2.65752 6.56938 2.65622H7.90829C8.42955 2.65622 8.92092 2.45213 9.29399 2.08426L10.2234 1.15222C11.743 -0.377771 14.2272 -0.385571 15.7597 1.13792ZM11.6052 2.52883L10.6706 3.46606C9.92445 4.20311 8.94562 4.60608 7.90829 4.60608H6.57068C5.48786 4.60738 4.60652 5.48872 4.60652 6.57155V7.90395C4.60652 8.94518 4.20225 9.92401 3.4691 10.6624L2.54616 11.5866C2.53706 11.597 2.52796 11.6048 2.51886 11.6139C1.75582 12.3821 1.75972 13.6288 2.52796 14.3918L3.4665 15.3303C4.20225 16.0687 4.60652 17.0475 4.60652 18.0887V19.429C4.60652 20.5118 5.48656 21.3931 6.57068 21.3931H7.90569C8.94822 21.3944 9.92705 21.7987 10.6641 22.5331L11.6013 23.4678L11.6273 23.4964C12.3943 24.2451 13.6292 24.236 14.3909 23.4704L15.3295 22.5344C16.0574 21.8078 17.0636 21.3931 18.0892 21.3931H19.4281C20.5122 21.3931 21.3936 20.5118 21.3936 19.429V18.0913C21.3936 17.0501 21.7965 16.0713 22.5323 15.3342L23.4682 14.397C23.8491 14.0148 24.0532 13.5196 24.0519 12.9944C24.0506 12.4705 23.8439 11.9779 23.4708 11.6061L22.5336 10.6676C21.7965 9.92531 21.3936 8.94778 21.3936 7.90655V6.57155C21.3936 5.48742 20.5122 4.60608 19.4281 4.60608H18.0918C17.0506 4.60608 16.0717 4.20181 15.3347 3.46996L14.3961 2.53013C13.6149 1.75668 12.3683 1.76058 11.6052 2.52883ZM16.2532 14.9478C16.972 14.9478 17.5531 15.5288 17.5531 16.2477C17.5531 16.9665 16.972 17.5476 16.2532 17.5476C15.5343 17.5476 14.9468 16.9665 14.9468 16.2477C14.9468 15.5288 15.5226 14.9478 16.2415 14.9478H16.2532ZM17.0303 8.96988C17.4112 9.35075 17.4112 9.96821 17.0303 10.3491L10.3474 17.0306C10.1577 17.2217 9.90807 17.3166 9.65849 17.3166C9.40891 17.3166 9.15932 17.2217 8.96954 17.0306C8.58866 16.6497 8.58866 16.0336 8.96954 15.6527L15.6511 8.96988C16.0319 8.58901 16.6494 8.58901 17.0303 8.96988ZM9.75364 8.44823C10.4725 8.44823 11.0536 9.02929 11.0536 9.74814C11.0536 10.467 10.4725 11.048 9.75364 11.048C9.03479 11.048 8.44723 10.467 8.44723 9.74814C8.44723 9.02929 9.02309 8.44823 9.74194 8.44823H9.75364Z" fill="#0A4020"/>
</svg>
