<svg width="16" height="25" viewBox="0 0 16 25" fill="none" xmlns="http://www.w3.org/2000/svg">
<path d="M8.82184 25H6.92529V22.3563C2.21264 21.954 0 19.3966 0 16.0345V15.8621H2.06897V16.2356C2.06897 18.9943 3.7931 20.4885 8.3046 20.4885C12.1552 20.4885 13.908 19.4253 13.908 17.2414C13.908 15.0862 12.6149 14.3103 9.79885 13.7356L5.71839 12.9598C2.58621 12.3563 0.0862069 11.0345 0.0862069 7.84483C0.0862069 5.37356 2.06897 2.9023 6.92529 2.61494V0H8.82184V2.61494C13.5632 2.95977 15.6897 5.68966 15.6897 8.96552V9.13793H13.6207V8.7931C13.6207 6.00575 11.8966 4.51149 7.70115 4.51149C3.87931 4.51149 2.15517 5.60345 2.15517 7.70115C2.15517 9.88506 3.41954 10.546 6.26437 11.1494L10.3161 11.954C13.7644 12.6149 15.977 14.0805 15.977 17.069C15.977 19.7414 13.7931 22.2414 8.82184 22.4138V25Z" fill="#1A4C2E"/>
</svg>
