<svg width="30" height="23" viewBox="0 0 30 23" fill="none" xmlns="http://www.w3.org/2000/svg">
<path d="M9.58691 2.45831H20.2536V0.458313H9.58691V2.45831ZM27.2536 9.45831V13.4583H29.2536V9.45831H27.2536ZM20.2536 20.4583H9.58691V22.4583H20.2536V20.4583ZM2.58691 13.4583V9.45831H0.586914V13.4583H2.58691ZM9.58691 20.4583C7.67303 20.4583 6.33821 20.4562 5.33107 20.3208C4.35271 20.1892 3.83461 19.9487 3.46559 19.5796L2.05138 20.9938C2.85394 21.7964 3.86443 22.1416 5.06458 22.3029C6.23596 22.4604 7.72957 22.4583 9.58691 22.4583V20.4583ZM0.586914 13.4583C0.586914 15.3157 0.58479 16.8093 0.742278 17.9806C0.903633 19.1808 1.24882 20.1913 2.05138 20.9938L3.46559 19.5796C3.09658 19.2106 2.85598 18.6925 2.72444 17.7142C2.58904 16.707 2.58691 15.3722 2.58691 13.4583H0.586914ZM27.2536 13.4583C27.2536 15.3722 27.2515 16.707 27.1161 17.7142C26.9845 18.6925 26.7439 19.2106 26.3749 19.5796L27.7891 20.9938C28.5917 20.1913 28.9369 19.1808 29.0982 17.9806C29.2557 16.8093 29.2536 15.3157 29.2536 13.4583H27.2536ZM20.2536 22.4583C22.1109 22.4583 23.6045 22.4604 24.7759 22.3029C25.9761 22.1416 26.9866 21.7964 27.7891 20.9938L26.3749 19.5796C26.0059 19.9487 25.4878 20.1892 24.5094 20.3208C23.5023 20.4562 22.1675 20.4583 20.2536 20.4583V22.4583ZM20.2536 2.45831C22.1675 2.45831 23.5023 2.46044 24.5094 2.59584C25.4878 2.72738 26.0059 2.96798 26.3749 3.33699L27.7891 1.92278C26.9866 1.12022 25.9761 0.775032 24.7759 0.613677C23.6045 0.456189 22.1109 0.458313 20.2536 0.458313V2.45831ZM29.2536 9.45831C29.2536 7.60097 29.2557 6.10736 29.0982 4.93598C28.9369 3.73583 28.5917 2.72533 27.7891 1.92278L26.3749 3.33699C26.7439 3.70601 26.9845 4.22411 27.1161 5.20247C27.2515 6.20961 27.2536 7.54443 27.2536 9.45831H29.2536ZM9.58691 0.458313C7.72957 0.458313 6.23596 0.456189 5.06458 0.613677C3.86443 0.775032 2.85394 1.12022 2.05138 1.92278L3.46559 3.33699C3.83461 2.96798 4.35271 2.72738 5.33107 2.59584C6.33821 2.46044 7.67303 2.45831 9.58691 2.45831V0.458313ZM2.58691 9.45831C2.58691 7.54443 2.58904 6.20961 2.72444 5.20247C2.85598 4.22411 3.09658 3.70601 3.46559 3.33699L2.05138 1.92278C1.24882 2.72533 0.903633 3.73583 0.742278 4.93598C0.58479 6.10736 0.586914 7.60096 0.586914 9.45831H2.58691Z" fill="#0A4020"/>
<path d="M28.3387 8.211H1.5V10.2755H28.3387V8.211Z" fill="#0A4020"/>
<circle cx="8.72661" cy="15.9529" r="1.54839" fill="#0A4020"/>
</svg>
