<svg width="32" height="32" viewBox="0 0 32 32" fill="none" xmlns="http://www.w3.org/2000/svg">
<path d="M20.0672 6.66666C21.3695 6.92075 22.5664 7.55767 23.5046 8.49591C24.4429 9.43415 25.0798 10.631 25.3339 11.9333M20.0672 1.33333C22.7729 1.63391 25.296 2.84556 27.2222 4.76934C29.1484 6.69312 30.3632 9.21467 30.6672 11.92M29.3339 22.56V26.56C29.3354 26.9313 29.2593 27.2989 29.1106 27.6391C28.9618 27.9794 28.7436 28.2848 28.47 28.5358C28.1964 28.7869 27.8733 28.978 27.5216 29.0969C27.1698 29.2159 26.7971 29.2601 26.4272 29.2267C22.3243 28.7809 18.3832 27.3789 14.9206 25.1333C11.699 23.0862 8.96768 20.3549 6.92056 17.1333C4.6672 13.6549 3.26489 9.69465 2.82723 5.57333C2.79391 5.20462 2.83773 4.83301 2.9559 4.48216C3.07406 4.13131 3.26399 3.80891 3.51358 3.53549C3.76318 3.26207 4.06697 3.04361 4.40562 2.89402C4.74426 2.74444 5.11035 2.66701 5.48056 2.66666H9.48056C10.1276 2.66029 10.755 2.88943 11.2456 3.31137C11.7362 3.73331 12.0567 4.31926 12.1472 4.96C12.3161 6.24008 12.6292 7.49696 13.0806 8.70666C13.26 9.18389 13.2988 9.70255 13.1924 10.2012C13.0861 10.6998 12.839 11.1575 12.4806 11.52L10.7872 13.2133C12.6853 16.5514 15.4492 19.3153 18.7872 21.2133L20.4806 19.52C20.8431 19.1615 21.3008 18.9145 21.7994 18.8081C22.298 18.7018 22.8167 18.7406 23.2939 18.92C24.5036 19.3714 25.7605 19.6845 27.0406 19.8533C27.6883 19.9447 28.2798 20.2709 28.7026 20.77C29.1254 21.269 29.3501 21.9061 29.3339 22.56Z" stroke="white" stroke-width="2" stroke-linecap="round" stroke-linejoin="round"/>
</svg>
