<svg width="54" height="54" viewBox="0 0 54 54" fill="none" xmlns="http://www.w3.org/2000/svg">
<path d="M0 34.5001C0 45.2698 8.73045 54.0001 19.5 54.0001C30.2697 54.0001 39 45.2698 39 34.5001C39 23.7304 30.2697 15.0001 19.5 15.0001C8.73045 15.0001 0 23.7304 0 34.5001Z" fill="#196164"/>
<path d="M18.8697 7.83877C18.5043 8.32783 18.8896 9.00013 19.5001 9.00013C33.5833 9.00013 45.0001 20.4169 45.0001 34.5001C45.0001 35.1106 45.6724 35.4958 46.1614 35.1304C50.9197 31.5748 54.0001 25.897 54.0001 19.5001C54.0001 8.73058 45.2698 0.00012207 34.5001 0.00012207C28.1032 0.00012207 22.4254 3.08046 18.8697 7.83877Z" fill="#A2D732"/>
</svg>
