<svg width="55" height="55" viewBox="0 0 55 55" fill="none" xmlns="http://www.w3.org/2000/svg">
<path d="M0 35.1391C0 46.1082 8.89209 55.0001 19.861 55.0001C30.8301 55.0001 39.7221 46.1082 39.7221 35.1391C39.7221 24.17 30.8301 15.2781 19.861 15.2781C8.89209 15.2781 0 24.17 0 35.1391Z" fill="#A2D732"/>
<path d="M19.218 7.98377C18.8458 8.48189 19.2383 9.16663 19.8601 9.16663C34.204 9.16663 45.8322 20.7948 45.8322 35.1388C45.8322 35.7606 46.5169 36.1529 47.015 35.7807C51.8614 32.1593 54.9988 26.3764 54.9988 19.861C54.9988 8.89209 46.1069 0 35.1378 0C28.6224 0 22.8395 3.13737 19.218 7.98377Z" fill="#196164"/>
<path d="M21.2999 41.7243H19.4034V39.9605C16.331 39.676 14.7758 38.0829 14.7758 35.6743V35.5605H16.8241V35.8639C16.8241 37.3811 17.7155 38.1398 20.5034 38.1398C22.931 38.1398 23.7844 37.6087 23.7844 36.4139C23.7844 35.3139 23.1396 34.8967 21.5275 34.5932L18.4172 34.0811C16.2741 33.7018 14.7568 32.7156 14.7568 30.6294C14.7568 28.9225 16.0655 27.1967 19.4034 26.9691V25.2242H21.2999V26.988C24.2586 27.3105 25.6241 29.0363 25.6241 31.2742V31.388H23.5948V31.1415C23.5948 29.5863 22.6655 28.8087 20.0293 28.8087C17.7155 28.8087 16.8051 29.3777 16.8051 30.5156C16.8051 31.6156 17.4499 31.976 18.9482 32.2984L22.0396 32.8294C24.581 33.2846 25.8327 34.4415 25.8327 36.3001C25.8327 38.0829 24.4862 39.7518 21.2999 39.9794V41.7243Z" fill="#196164"/>
</svg>
