<svg width="33" height="35" viewBox="0 0 33 35" fill="none" xmlns="http://www.w3.org/2000/svg">
<path d="M28.9765 5.90614L19.017 1.47022C17.5553 0.824379 15.3459 0.824379 13.8842 1.47022L3.92464 5.90614C1.40925 7.02787 1.03534 8.55749 1.03534 9.37329C1.03534 10.1891 1.40925 11.7187 3.92464 12.8404L13.8842 17.2763C14.615 17.5993 15.5328 17.7692 16.4506 17.7692C17.3684 17.7692 18.2861 17.5993 19.017 17.2763L28.9765 12.8404C31.4919 11.7187 31.8658 10.1891 31.8658 9.37329C31.8658 8.55749 31.5089 7.02787 28.9765 5.90614Z" fill="#196164"/>
<path d="M16.452 26.5558C15.8061 26.5558 15.1603 26.4198 14.5654 26.1649L3.11024 21.0661C1.35967 20.2843 0 18.1938 0 16.2733C0 15.5765 0.560863 15.0156 1.25769 15.0156C1.95452 15.0156 2.51539 15.5765 2.51539 16.2733C2.51539 17.1911 3.2802 18.3808 4.12999 18.7547L15.5852 23.8535C16.129 24.0914 16.7579 24.0914 17.3018 23.8535L28.757 18.7547C29.6068 18.3808 30.3716 17.2081 30.3716 16.2733C30.3716 15.5765 30.9324 15.0156 31.6293 15.0156C32.3261 15.0156 32.887 15.5765 32.887 16.2733C32.887 18.1769 31.5273 20.2843 29.7767 21.0661L18.3215 26.1649C17.7437 26.4198 17.0978 26.5558 16.452 26.5558Z" fill="#196164" fill-opacity="0.41"/>
<path d="M16.452 34.986C15.8061 34.986 15.1603 34.85 14.5654 34.5951L3.11024 29.4963C1.2237 28.6635 0 26.777 0 24.7035C0 24.0067 0.560863 23.4458 1.25769 23.4458C1.95452 23.4458 2.51539 24.0067 2.51539 24.7035C2.51539 25.7742 3.14423 26.743 4.12999 27.1849L15.5852 32.2836C16.129 32.5216 16.7579 32.5216 17.3018 32.2836L28.757 27.1849C29.7257 26.76 30.3716 25.7742 30.3716 24.7035C30.3716 24.0067 30.9324 23.4458 31.6293 23.4458C32.3261 23.4458 32.887 24.0067 32.887 24.7035C32.887 26.777 31.6633 28.6465 29.7767 29.4963L18.3215 34.5951C17.7437 34.85 17.0978 34.986 16.452 34.986Z" fill="#196164" fill-opacity="0.41"/>
</svg>
