<svg width="36" height="30" viewBox="0 0 36 30" fill="none" xmlns="http://www.w3.org/2000/svg">
<path fill-rule="evenodd" clip-rule="evenodd" d="M33.5335 19.1297C33.1435 19.1319 32.7685 18.9784 32.4916 18.7029L28.9549 15.1566C28.678 14.8812 28.3031 14.7276 27.913 14.7299H12.9885C11.8183 14.7299 10.6963 14.2627 9.87023 13.4317C9.04417 12.6006 8.58206 11.474 8.58596 10.3006V4.41454C8.58596 1.97646 10.557 0 12.9885 0H30.5985C33.03 0 35.001 1.97646 35.001 4.41454V10.3006C35.001 11.1133 34.344 11.7721 33.5335 11.7721C32.723 11.7721 32.066 11.1133 32.066 10.3006V4.41454C32.066 3.60185 31.409 2.94303 30.5985 2.94303H12.9885C12.178 2.94303 11.521 3.60185 11.521 4.41454V10.3006C11.521 11.1133 12.178 11.7721 12.9885 11.7721H27.913C29.0802 11.7731 30.1993 12.2389 31.0241 13.067L34.5608 16.6134C34.9822 17.0325 35.1103 17.6649 34.8855 18.2157C34.6606 18.7664 34.1271 19.1272 33.5335 19.1297ZM2.9717 20.2841V14.3473C2.9717 13.5276 3.63694 12.8631 4.45755 12.8631C5.27816 12.8631 5.9434 12.1986 5.9434 11.3789C5.9434 10.5592 5.27816 9.89468 4.45755 9.89468C1.99571 9.89468 1.04723e-10 11.8882 1.04723e-10 14.3473V20.2841C1.04723e-10 21.1038 0.665237 21.7683 1.48585 21.7683C2.30646 21.7683 2.9717 21.1038 2.9717 20.2841ZM6.11332 24.9686L2.58829 28.5235L2.57367 28.5087C2.21621 28.9297 1.65494 29.1131 1.12063 28.9834C0.586317 28.8538 0.169138 28.4331 0.0406112 27.8943C-0.0879157 27.3554 0.0939019 26.7894 0.511311 26.4289L4.05096 22.874C4.87308 22.0439 5.98843 21.577 7.15181 21.576H22.0271C22.8349 21.576 23.4898 20.9156 23.4898 20.1009V18.6258C23.4898 17.8112 24.1446 17.1508 24.9524 17.1508C25.7602 17.1508 26.4151 17.8112 26.4151 18.6258V20.1009C26.4151 22.5449 24.4505 24.5261 22.0271 24.5261H7.15181C6.76092 24.5277 6.38694 24.6871 6.11332 24.9686Z" fill="white"/>
</svg>
