<svg width="54" height="48" viewBox="0 0 54 48" fill="none" xmlns="http://www.w3.org/2000/svg">
<path d="M19.5981 31.6208C9.028 31.6208 0 33.2537 0 39.7798C0 46.3111 8.97059 48.0001 19.5981 48.0001C30.1681 48.0001 39.1961 46.3673 39.1961 39.8411C39.1961 33.3099 30.2255 31.6208 19.5981 31.6208Z" fill="#A2D732"/>
<path d="M19.593 25.3993C26.7919 25.3993 32.5609 19.7496 32.5609 12.6997C32.5609 5.64969 26.7919 0 19.593 0C12.3967 0 6.625 5.64969 6.625 12.6997C6.625 19.7496 12.3967 25.3993 19.593 25.3993Z" fill="#A2D732"/>
<path d="M37.7912 12.9299C37.7912 16.52 36.6901 19.8699 34.7592 22.6526C34.5583 22.9388 34.7357 23.3247 35.0854 23.386C35.5707 23.4652 36.0691 23.5138 36.5779 23.524C41.6398 23.6543 46.1825 20.4628 47.4375 15.6563C49.2979 8.52458 43.8394 2.12109 36.8857 2.12109C36.1317 2.12109 35.4089 2.19775 34.7044 2.33829C34.6079 2.35873 34.5035 2.40473 34.4513 2.4865C34.3835 2.59126 34.4331 2.72669 34.5009 2.81613C36.5909 5.68568 37.7912 9.17873 37.7912 12.9299Z" fill="#196164"/>
<path d="M52.746 32.451C51.8197 30.5166 49.5836 29.1905 46.1811 28.5389C44.5765 28.1556 40.2294 27.6113 36.1877 27.688C36.1277 27.6956 36.0938 27.7365 36.0886 27.7621C36.0807 27.8029 36.099 27.8643 36.1773 27.9077C38.0455 28.8123 45.2653 32.7474 44.3573 41.0469C44.3181 41.4097 44.613 41.7163 44.9809 41.6652C46.7578 41.4174 51.3292 40.454 52.746 37.4593C53.5314 35.875 53.5314 34.0352 52.746 32.451Z" fill="#196164"/>
</svg>
