<svg width="43" height="43" viewBox="0 0 43 43" fill="none" xmlns="http://www.w3.org/2000/svg">
<path d="M0 27.4721C0 36.048 6.95203 42.9999 15.5278 42.9999C24.1037 42.9999 31.0556 36.048 31.0556 27.4721C31.0556 18.8962 24.1037 11.9443 15.5278 11.9443C6.95203 11.9443 0 18.8962 0 27.4721Z" fill="#C5FF4A"/>
<path d="M15.0258 6.24188C14.7348 6.63132 15.0416 7.16667 15.5278 7.16667C26.7422 7.16667 35.8333 16.2578 35.8333 27.4722C35.8333 27.9584 36.3687 28.2651 36.7581 27.9741C40.5471 25.1428 43 20.6216 43 15.5278C43 6.95203 36.0481 0 27.4722 0C22.3784 0 17.8572 2.45287 15.0258 6.24188Z" fill="#196164"/>
</svg>
