<svg width="51" height="51" viewBox="0 0 51 51" fill="none" xmlns="http://www.w3.org/2000/svg">
<path d="M0 32.1239C0 42.0958 8.08126 50.1794 18.05 50.1794C28.0189 50.1794 36.1 42.0958 36.1 32.1239C36.1 22.152 28.0189 14.0684 18.05 14.0684C8.08126 14.0684 0 22.152 0 32.1239Z" fill="#C5FF4A"/>
<path d="M18.4238 7.4372C18.0876 7.89003 18.442 8.51253 19.0037 8.51253C31.9599 8.51253 42.4632 19.0836 42.4632 32.1236C42.4632 32.6889 43.0817 33.0456 43.5315 32.7072C47.9091 29.415 50.743 24.1578 50.743 18.2347C50.743 8.26295 42.7113 0.179199 32.8034 0.179199C26.9183 0.179199 21.6949 3.03137 18.4238 7.4372Z" fill="#326949"/>
</svg>
