<svg width="62" height="53" viewBox="0 0 62 53" fill="none" xmlns="http://www.w3.org/2000/svg">
<circle cx="30.6202" cy="32.255" r="12.505" fill="#ADFFD8" stroke="black" stroke-width="1.5"/>
<path d="M27.359 35.0439C28.5078 35.8115 29.9013 36.447 31.5962 36.4096C33.3589 36.3703 34.2892 35.6009 34.2628 34.5084C34.1969 31.8522 27.0483 32.4787 26.9579 28.755C26.9089 26.7414 28.73 25.4365 31.3288 25.3811C33.3156 25.3365 34.5076 26.0184 35.5472 26.9378L34.5792 28.0088C33.5434 27.2609 32.7186 26.8289 31.229 26.861C29.7394 26.8931 28.7808 27.6 28.8091 28.6711C28.8656 31.0257 36.0161 30.4205 36.1121 34.3388C36.1611 36.3953 34.2515 37.8305 31.4041 37.8912C29.631 37.8963 27.9072 37.3382 26.5078 36.306L27.359 35.0439ZM30.4927 22.6142L31.8486 22.5839L31.9314 26.0309L30.5755 26.0613L30.4927 22.6142ZM32.2045 37.2521L32.2911 40.958L30.9352 40.9884L30.8448 37.2825L32.2045 37.2521Z" fill="black"/>
<path d="M11.3789 50.8404V25.2999M50.6918 25.2999V50.8404" stroke="black" stroke-width="1.5" stroke-miterlimit="10" stroke-linecap="round"/>
<path d="M3.95117 24.8529L31.0398 1.5293" stroke="black" stroke-width="1.5" stroke-miterlimit="10" stroke-linecap="round"/>
<path d="M59.3075 25.6043L31.3555 1.5293" stroke="black" stroke-width="1.5" stroke-miterlimit="10" stroke-linecap="round"/>
<path d="M3.95117 24.8529L11.6162 25.1014" stroke="black" stroke-width="1.5" stroke-miterlimit="10" stroke-linecap="round"/>
<path d="M50.8672 25.5111L59.0416 25.772" stroke="black" stroke-width="1.5" stroke-miterlimit="10" stroke-linecap="round"/>
<path d="M1 51.7643H61.1962" stroke="black" stroke-width="1.5" stroke-miterlimit="10" stroke-linecap="round"/>
</svg>
