<svg width="20" height="19" viewBox="0 0 20 19" fill="none" xmlns="http://www.w3.org/2000/svg">
<path fill-rule="evenodd" clip-rule="evenodd" d="M14.5665 0C17.6642 0 20 2.52744 20 5.87907V12.2679C20 13.9833 19.3935 15.533 18.2912 16.6326C17.3023 17.6177 16.0195 18.1395 14.5814 18.1395H5.41581C3.98047 18.1395 2.6986 17.6186 1.70884 16.6326C0.606512 15.533 0 13.9833 0 12.2679V5.87907C0 2.52744 2.33581 0 5.43349 0H14.5665ZM14.5665 1.39535H5.43349C3.09395 1.39535 1.39535 3.28093 1.39535 5.87907V12.2679C1.39535 13.6102 1.85674 14.8093 2.69395 15.6437C3.41581 16.3647 4.35814 16.7442 5.4186 16.7442H14.5665C14.5684 16.7423 14.5758 16.7442 14.5814 16.7442C15.6428 16.7442 16.5842 16.3647 17.306 15.6437C18.1442 14.8093 18.6047 13.6102 18.6047 12.2679V5.87907C18.6047 3.28093 16.906 1.39535 14.5665 1.39535ZM16.0326 5.70121C16.2753 5.99981 16.2298 6.43888 15.9312 6.6826L11.7972 10.0426C11.2744 10.4575 10.6493 10.6649 10.0251 10.6649C9.40279 10.6649 8.78233 10.4593 8.26326 10.0482L4.09116 6.68446C3.7907 6.4426 3.74419 6.0026 3.98512 5.70307C4.22791 5.40446 4.66698 5.35702 4.96651 5.59795L9.13488 8.95795C9.6586 9.37284 10.3963 9.37284 10.9237 8.95423L15.0502 5.59981C15.3498 5.35516 15.7888 5.40167 16.0326 5.70121Z" fill="#D3FF76"/>
</svg>
