<svg width="31" height="31" viewBox="0 0 31 31" fill="none" xmlns="http://www.w3.org/2000/svg">
<path fill-rule="evenodd" clip-rule="evenodd" d="M2.58498 13.2083H28.4163C28.4069 10.2115 28.3087 8.61952 27.2824 7.59321C26.1474 6.45825 24.3207 6.45825 20.6673 6.45825H10.334C6.6806 6.45825 4.85391 6.45825 3.71895 7.59321C2.69264 8.61952 2.59439 10.2115 2.58498 13.2083ZM28.4173 15.2083H2.58398V18.0833C2.58398 21.7366 2.58398 23.5633 3.71895 24.6983C4.85391 25.8333 6.6806 25.8333 10.334 25.8333H20.6673C24.3207 25.8333 26.1474 25.8333 27.2824 24.6983C28.4173 23.5633 28.4173 21.7366 28.4173 18.0833V15.2083ZM9.04232 19.6666C8.49003 19.6666 8.04232 20.1143 8.04232 20.6666C8.04232 21.2189 8.49003 21.6666 9.04232 21.6666H9.05523C9.60752 21.6666 10.0552 21.2189 10.0552 20.6666C10.0552 20.1143 9.60752 19.6666 9.05523 19.6666H9.04232Z" fill="#B4C3BF"/>
<path d="M28.5 13H2.5V15.5H28.5V13Z" fill="#196164"/>
<circle cx="9.5" cy="20.5" r="1.5" fill="#196164"/>
</svg>
