<svg width="78" height="77" viewBox="0 0 78 77" fill="none" xmlns="http://www.w3.org/2000/svg">
<mask id="mask0_148_71" style="mask-type:alpha" maskUnits="userSpaceOnUse" x="0" y="0" width="78" height="77">
<ellipse cx="39" cy="38.5" rx="39" ry="38.5" fill="black"/>
</mask>
<g mask="url(#mask0_148_71)">
<path d="M66.1575 50.8975C61.9494 58.977 55.7278 65.013 49.0918 68.2522C42.4558 71.4915 35.44 71.9222 29.5789 68.8696C23.7179 65.817 20.0491 59.8214 18.8994 52.527C17.7497 45.2327 19.1291 36.6747 23.3371 28.5953C27.5452 20.5158 33.7668 14.4798 40.4027 11.2406C47.0388 8.00124 54.0546 7.57054 59.9156 10.6232C65.7767 13.6758 69.4454 19.6714 70.5952 26.9658C71.7449 34.26 70.3655 42.8181 66.1575 50.8975Z" fill="black" stroke="black"/>
<path d="M51.6633 45.0999C47.4553 53.1793 41.2336 59.2154 34.5977 62.4546C27.9617 65.6939 20.9458 66.1246 15.0848 63.072C9.22377 60.0194 5.55498 54.0238 4.40524 46.7294C3.25553 39.4351 4.63493 30.8771 8.84297 22.7976C13.051 14.7182 19.2727 8.68218 25.9086 5.44294C32.5446 2.20363 39.5605 1.77294 45.4215 4.82556C51.2825 7.87817 54.9513 13.8738 56.101 21.1682C57.2508 28.4624 55.8714 37.0205 51.6633 45.0999Z" fill="#FFFEFB" stroke="black"/>
<path d="M58.791 9.82141L44.2969 4.02374" stroke="black"/>
<path d="M31.7031 69.6716L17.209 63.874" stroke="black"/>
</g>
</svg>
