<svg width="41" height="39" viewBox="0 0 41 39" fill="none" xmlns="http://www.w3.org/2000/svg">
<path d="M21.9815 1.22884L26.4403 10.1892C26.7688 10.8383 27.3958 11.2892 28.1189 11.3894L38.1342 12.848C38.7191 12.9302 39.2499 13.2387 39.6084 13.7096C39.963 14.1744 40.1152 14.7635 40.0291 15.3426C39.959 15.8234 39.7326 16.2682 39.3861 16.6089L32.129 23.6437C31.5982 24.1346 31.3578 24.8619 31.486 25.5732L33.2727 35.4632C33.463 36.6574 32.6718 37.7834 31.486 38.0098C30.9973 38.088 30.4965 38.0058 30.0558 37.7814L21.1222 33.127C20.4592 32.7923 19.676 32.7923 19.013 33.127L10.0793 37.7814C8.98162 38.3645 7.62154 37.9678 7.01061 36.8858C6.78426 36.455 6.70414 35.9641 6.77825 35.4853L8.56498 25.5932C8.69318 24.8839 8.45081 24.1526 7.922 23.6617L0.664907 16.6309C-0.198412 15.7974 -0.224452 14.4249 0.606818 13.5613C0.624846 13.5433 0.644877 13.5232 0.664907 13.5032C1.00943 13.1526 1.46213 12.9302 1.95087 12.8721L11.9662 11.4114C12.6873 11.3092 13.3142 10.8624 13.6447 10.2092L17.9433 1.22884C18.3259 0.459441 19.1191 -0.0194313 19.9804 0.000605207H20.2488C20.996 0.0907695 21.647 0.553613 21.9815 1.22884Z" fill="#196164"/>
<path d="M20.0103 32.8774C19.6224 32.8895 19.2445 32.9937 18.9046 33.1801L10.0146 37.824C8.92685 38.3431 7.62515 37.9402 7.01529 36.9C6.78934 36.4751 6.70736 35.9881 6.78334 35.5111L8.55893 25.64C8.67891 24.9225 8.43896 24.1929 7.91708 23.6878L0.656738 16.6588C-0.205066 15.815 -0.221062 14.4301 0.622745 13.5662C0.634742 13.5542 0.64474 13.5442 0.656738 13.5342C1.00066 13.1935 1.44456 12.969 1.92245 12.8988L11.9462 11.4237C12.672 11.3315 13.3019 10.8785 13.6218 10.2211L17.9788 1.12772C18.3927 0.394154 19.1865 -0.0427782 20.0263 0.00332011C20.0103 0.59859 20.0103 32.4726 20.0103 32.8774Z" fill="#C5FF4A"/>
</svg>
