<svg width="24" height="16" viewBox="0 0 24 16" fill="none" xmlns="http://www.w3.org/2000/svg">
<path fill-rule="evenodd" clip-rule="evenodd" d="M11.9999 0.298462C18.5245 0.298462 23.6331 7.24609 23.8475 7.54192C24.0508 7.82228 24.0508 8.20321 23.8475 8.48381C23.6331 8.77936 18.5245 15.727 11.9999 15.727C5.4753 15.727 0.36647 8.7794 0.152297 8.48358C-0.0507658 8.20293 -0.0507658 7.82228 0.152297 7.54163C0.36647 7.24609 5.4753 0.298462 11.9999 0.298462ZM1.79907 8.0122C3.03127 9.5197 7.19383 14.131 11.9999 14.131C16.8163 14.131 20.9701 9.52206 22.2007 8.01329C20.968 6.50499 16.8057 1.89451 11.9999 1.89451C7.18352 1.89451 3.02968 6.50338 1.79907 8.0122Z" fill="#254035"/>
<path fill-rule="evenodd" clip-rule="evenodd" d="M6.85742 7.58419C6.85742 4.98478 8.9723 2.8699 11.5717 2.8699C14.1711 2.8699 16.286 4.98478 16.286 7.58419C16.286 10.1836 14.1711 12.2985 11.5717 12.2985C8.9723 12.2985 6.85742 10.1836 6.85742 7.58419ZM8.42888 7.58419C8.42888 9.31717 9.83868 10.727 11.5717 10.727C13.3047 10.727 14.7145 9.31717 14.7145 7.58419C14.7145 5.8512 13.3047 4.44136 11.5717 4.44136C9.83872 4.44136 8.42888 5.8512 8.42888 7.58419Z" fill="#254035"/>
</svg>
