<svg width="37" height="37" viewBox="0 0 37 37" fill="none" xmlns="http://www.w3.org/2000/svg">
<path d="M14.8419 6.55265C14.9336 6.73925 14.9942 6.93907 15.0213 7.1445L15.5225 14.5964L15.7712 18.3418C15.7738 18.727 15.8343 19.1097 15.9506 19.4776C16.2511 20.1913 16.9739 20.6449 17.7603 20.6133L29.7434 19.8295C30.2623 19.8209 30.7634 20.015 31.1364 20.369C31.4473 20.664 31.648 21.0499 31.7112 21.465L31.7324 21.717C31.2365 28.5835 26.1935 34.3107 19.3412 35.7891C12.489 37.2675 5.46235 34.1444 2.07627 28.1155C1.10009 26.364 0.490363 24.4387 0.28288 22.4529C0.196204 21.865 0.158038 21.2712 0.168755 20.6773C0.158053 13.3156 5.40044 6.95122 12.7388 5.41692C13.622 5.27939 14.4878 5.74695 14.8419 6.55265Z" fill="#196164"/>
<path d="M19.7334 0.154062C27.9412 0.362876 34.8396 6.26501 36.1674 14.2147L36.1547 14.2734L36.1185 14.3587L36.1235 14.5928C36.1047 14.9031 35.985 15.2016 35.7785 15.4427C35.5635 15.6938 35.2698 15.8648 34.9463 15.9312L34.749 15.9583L20.9236 16.8541C20.4637 16.8994 20.0058 16.7511 19.6638 16.4461C19.3788 16.1919 19.1966 15.8488 19.1452 15.479L18.2172 1.6737C18.201 1.62702 18.201 1.57642 18.2172 1.52973C18.2299 1.1492 18.3974 0.7895 18.6823 0.531002C18.9672 0.272503 19.3458 0.136747 19.7334 0.154062Z" fill="#CFFF45"/>
</svg>
