<svg width="28" height="28" viewBox="0 0 28 28" fill="none" xmlns="http://www.w3.org/2000/svg">
<path fill-rule="evenodd" clip-rule="evenodd" d="M16.9709 1.22537L17.9941 2.24863C18.3903 2.64198 18.9194 2.86035 19.4821 2.86035H20.9211C23.2462 2.86035 25.1373 4.75148 25.1373 7.07656V8.51416C25.1373 9.07549 25.3557 9.60601 25.7519 10.005L26.7569 11.0114C27.5534 11.8023 27.9957 12.8592 28 13.986C28.0041 15.1129 27.5688 16.1725 26.7751 16.9718L25.7491 17.9951C25.3557 18.3912 25.1373 18.9189 25.1373 19.4816V20.922C25.1373 23.2457 23.2462 25.1369 20.9225 25.1369H19.4793C18.925 25.1369 18.3833 25.3608 17.9899 25.7514L16.9849 26.7564C16.1632 27.5837 15.0797 27.9981 13.9963 27.9981C12.9226 27.9981 11.849 27.5921 11.0273 26.7774C11.0161 26.7662 11.0049 26.755 10.9937 26.7424L9.99983 25.75C9.60368 25.3566 9.07456 25.1383 8.51183 25.1369H7.07563C4.75055 25.1369 2.86082 23.2457 2.86082 20.922V19.4788C2.86082 18.9161 2.64105 18.3884 2.2463 17.9909L1.23984 16.9858C-0.395134 15.3592 -0.414732 12.7108 1.19085 11.059L1.22864 11.0212L2.2477 9.99936C2.64105 9.60321 2.86082 9.07269 2.86082 8.51136V7.07656C2.86082 4.75288 4.75055 2.86175 7.07423 2.86035H8.51603C9.07736 2.86035 9.60648 2.64058 10.0082 2.24443L11.0091 1.24077C12.6455 -0.406803 15.3205 -0.415201 16.9709 1.22537ZM12.4971 2.72316L11.4906 3.73242C10.6871 4.52611 9.63308 4.96005 8.51603 4.96005H7.07563C5.90959 4.96145 4.96053 5.91052 4.96053 7.07656V8.51136C4.96053 9.63261 4.52519 10.6867 3.73569 11.4818L2.74183 12.477C2.73203 12.4882 2.72223 12.4966 2.71244 12.5064C1.89075 13.3337 1.89495 14.6761 2.72223 15.4978L3.73289 16.5085C4.52519 17.3035 4.96053 18.3576 4.96053 19.4788V20.922C4.96053 22.0881 5.90819 23.0372 7.07563 23.0372H8.51323C9.63588 23.0386 10.6899 23.4739 11.4836 24.2648L12.4929 25.2712L12.5209 25.302C13.3468 26.1083 14.6766 26.0985 15.4969 25.274L16.5075 24.2662C17.2914 23.4837 18.3749 23.0372 19.4793 23.0372H20.9211C22.0886 23.0372 23.0376 22.0881 23.0376 20.922V19.4816C23.0376 18.3604 23.4716 17.3063 24.2639 16.5127L25.2717 15.5034C25.6819 15.0919 25.9016 14.5585 25.9002 13.993C25.8988 13.4289 25.6763 12.8984 25.2745 12.498L24.2653 11.4874C23.4716 10.6881 23.0376 9.63541 23.0376 8.51416V7.07656C23.0376 5.90912 22.0886 4.96005 20.9211 4.96005H19.4821C18.3609 4.96005 17.3068 4.52472 16.5131 3.73662L15.5025 2.72456C14.6612 1.89168 13.3188 1.89588 12.4971 2.72316ZM17.5022 16.0965C18.2763 16.0965 18.902 16.7222 18.902 17.4963C18.902 18.2704 18.2763 18.8961 17.5022 18.8961C16.7281 18.8961 16.0954 18.2704 16.0954 17.4963C16.0954 16.7222 16.7155 16.0965 17.4896 16.0965H17.5022ZM18.339 9.6592C18.7492 10.0693 18.7492 10.7343 18.339 11.1444L11.1426 18.3394C10.9383 18.5452 10.6695 18.6474 10.4007 18.6474C10.132 18.6474 9.86321 18.5452 9.65884 18.3394C9.24869 17.9293 9.24869 17.2658 9.65884 16.8556L16.8538 9.6592C17.264 9.24906 17.9289 9.24906 18.339 9.6592ZM10.5032 9.09746C11.2773 9.09746 11.903 9.72318 11.903 10.4973C11.903 11.2714 11.2773 11.8971 10.5032 11.8971C9.7291 11.8971 9.09639 11.2714 9.09639 10.4973C9.09639 9.72318 9.71651 9.09746 10.4906 9.09746H10.5032Z" fill="#0A4020"/>
</svg>
