<svg width="68" height="53" viewBox="0 0 68 53" fill="none" xmlns="http://www.w3.org/2000/svg">
<path d="M55.7242 45.3515C61.647 45.3515 66.4483 40.5108 66.4483 34.5395C66.4483 28.5681 61.647 23.7274 55.7242 23.7274C49.8014 23.7274 45 28.5681 45 34.5395C45 40.5108 49.8014 45.3515 55.7242 45.3515Z" fill="#ADFFD8" stroke="black" stroke-width="1.5" stroke-miterlimit="10"/>
<path d="M52.3288 37.1277C53.3446 37.9521 54.6016 38.4161 55.9053 38.4479C57.4062 38.4479 58.2188 37.7695 58.2188 36.7833C58.2188 34.3725 52.1166 34.8004 52.1166 31.4242C52.1166 29.6031 53.6693 28.4551 55.9053 28.4551C56.5734 28.4342 57.2381 28.5586 57.8543 28.8197C58.4705 29.0808 59.0238 29.4725 59.4765 29.9683L58.6329 30.918C57.8682 30.1914 56.8524 29.7945 55.8017 29.8118C54.513 29.8118 53.7314 30.4328 53.7314 31.3772C53.7314 33.5115 59.8285 33.1045 59.8285 36.6528C59.8285 38.5157 58.1774 39.7837 55.75 39.7837C54.238 39.756 52.7794 39.2155 51.6094 38.2496L52.3288 37.1277ZM55.2531 25.9347H56.4073V29.0656H55.2531V25.9347ZM56.4073 39.2254V42.5807H55.2531V39.2254H56.4073Z" fill="black"/>
<path d="M26.4395 22.5794C32.2051 22.5794 36.879 17.8672 36.879 12.0543C36.879 6.24152 32.2051 1.5293 26.4395 1.5293C20.6739 1.5293 16 6.24152 16 12.0543C16 17.8672 20.6739 22.5794 26.4395 22.5794Z" stroke="black" stroke-width="1.5" stroke-miterlimit="10"/>
<path d="M51 44.8498V51.5143H1V36.5103C1 30.4562 5.61333 25.5221 11.2978 25.5221H17.4178" stroke="black" stroke-width="1.5" stroke-miterlimit="10"/>
<path d="M36.2812 25.1103H41.2241C43.5776 25.1022 45.8853 25.7664 47.8801 27.0259" stroke="black" stroke-width="1.5" stroke-miterlimit="10"/>
<path d="M18 25.5221C20.9426 32.6055 26.113 43.5167 26.113 43.5167L36 25.5221" stroke="black" stroke-width="1.5" stroke-miterlimit="10" stroke-linecap="round"/>
</svg>
