<svg width="52" height="53" viewBox="0 0 52 53" fill="none" xmlns="http://www.w3.org/2000/svg">
<path opacity="0.0998797" fill-rule="evenodd" clip-rule="evenodd" d="M41.2406 26.1799C41.2406 17.7623 34.4168 10.9385 25.9992 10.9385C17.5816 10.9385 10.7578 17.7623 10.7578 26.1799C10.7578 34.5974 17.5816 41.4212 25.9992 41.4212C34.4168 41.4212 41.2406 34.5974 41.2406 26.1799ZM19.467 26.1799C19.467 22.5723 22.3915 19.6478 25.9991 19.6478C29.6066 19.6478 32.5311 22.5723 32.5311 26.1799C32.5311 29.7874 29.6066 32.7119 25.9991 32.7119C22.3915 32.7119 19.467 29.7874 19.467 26.1799Z" fill="#C5FF4A"/>
<path d="M22.3695 46.1191C24.59 44.1144 28.0152 44.2893 30.0199 46.5098L32.248 48.9778C32.8795 49.6772 33.7923 50.0553 34.7334 50.0073C36.4616 49.919 37.791 48.4465 37.7027 46.7183L37.5331 43.3977C37.5237 43.2136 37.5237 43.0292 37.5331 42.8451C37.6857 39.8575 40.2314 37.5592 43.219 37.7118L46.5396 37.8814C47.4808 37.9295 48.3936 37.5514 49.0251 36.8519C50.1846 35.5675 50.0835 33.5863 48.799 32.4267L46.3311 30.1986C46.1943 30.0751 46.0639 29.9447 45.9403 29.8078C43.9357 27.5874 44.1106 24.1622 46.3311 22.1575L48.799 19.9294C49.4985 19.2979 49.8766 18.3851 49.8286 17.444C49.7403 15.7158 48.2678 14.3864 46.5396 14.4747L43.219 14.6443C43.0349 14.6537 42.8505 14.6537 42.6664 14.6443C39.6788 14.4917 37.3805 11.946 37.5331 8.95837L37.7027 5.63775C37.7508 4.69661 37.3727 3.78381 36.6732 3.15231C35.3888 1.99274 33.4076 2.09393 32.248 3.37833L30.0199 5.84629C29.8964 5.9831 29.7659 6.11352 29.6291 6.23704C27.4086 8.24172 23.9835 8.06678 21.9788 5.84629L19.7507 3.37833C19.1192 2.67885 18.2064 2.30076 17.2652 2.34883C15.5371 2.4371 14.2077 3.9096 14.296 5.63775L14.4656 8.95837C14.475 9.14245 14.475 9.32689 14.4656 9.51097C14.313 12.4986 11.7673 14.7969 8.77965 14.6443L5.45904 14.4747C4.5179 14.4266 3.6051 14.8047 2.9736 15.5042C1.81403 16.7886 1.91522 18.7698 3.19962 19.9294L5.66758 22.1575C5.80439 22.281 5.93481 22.4114 6.05833 22.5482C8.06301 24.7687 7.88807 28.1939 5.66758 30.1986L3.19962 32.4267C2.50014 33.0582 2.12205 33.971 2.17012 34.9121C2.25839 36.6403 3.73089 37.9697 5.45904 37.8814L8.77965 37.7118C8.96374 37.7024 9.14818 37.7024 9.33226 37.7118C12.3199 37.8644 14.6182 40.4101 14.4656 43.3977L14.296 46.7183C14.2479 47.6595 14.626 48.5723 15.3255 49.2038C16.6099 50.3634 18.5911 50.2622 19.7507 48.9778L21.9788 46.5098C22.1023 46.373 22.2327 46.2426 22.3695 46.1191Z" fill="#C5FF4A"/>
<circle cx="25.9996" cy="27.2188" r="10.4" fill="#214D3A"/>
</svg>
