<svg width="58" height="58" viewBox="0 0 58 58" fill="none" xmlns="http://www.w3.org/2000/svg">
<path d="M0 37.0557C0 48.6231 9.37711 58 20.9443 58C32.5118 58 41.8887 48.6231 41.8887 37.0557C41.8887 25.4883 32.5118 16.1113 20.9443 16.1113C9.37711 16.1113 0 25.4883 0 37.0557Z" fill="#C5FF4A"/>
<path d="M20.2679 8.41924C19.8754 8.94453 20.2893 9.66663 20.945 9.66663C36.0713 9.66663 48.3337 21.929 48.3337 37.0554C48.3337 37.7111 49.0558 38.1248 49.5811 37.7324C54.6918 33.9134 58.0004 27.8151 58.0004 20.9444C58.0004 9.37711 48.6234 0 37.056 0C30.1853 0 24.0869 3.3085 20.2679 8.41924Z" fill="#196164"/>
<path d="M22.4605 44.0001H20.4605V42.1401C17.2205 41.8401 15.5805 40.1601 15.5805 37.6201V37.5001H17.7405V37.8201C17.7405 39.4201 18.6805 40.2201 21.6205 40.2201C24.1805 40.2201 25.0805 39.6601 25.0805 38.4001C25.0805 37.2401 24.4005 36.8001 22.7005 36.4801L19.4205 35.9401C17.1605 35.5401 15.5605 34.5001 15.5605 32.3001C15.5605 30.5001 16.9405 28.6801 20.4605 28.4401V26.6001H22.4605V28.4601C25.5805 28.8001 27.0205 30.6201 27.0205 32.9801V33.1001H24.8805V32.8401C24.8805 31.2001 23.9005 30.3801 21.1205 30.3801C18.6805 30.3801 17.7205 30.9801 17.7205 32.1801C17.7205 33.3401 18.4005 33.7201 19.9805 34.0601L23.2405 34.6201C25.9205 35.1001 27.2405 36.3201 27.2405 38.2801C27.2405 40.1601 25.8205 41.9201 22.4605 42.1601V44.0001Z" fill="#196164"/>
</svg>
