<svg width="27" height="27" viewBox="0 0 27 27" fill="none" xmlns="http://www.w3.org/2000/svg">
<path fill-rule="evenodd" clip-rule="evenodd" d="M13.5018 0C17.1108 0 20.5024 1.40314 23.0499 3.95189C28.3158 9.21773 28.3158 17.7848 23.0499 23.0506C20.4685 25.6333 16.9927 27 13.4717 27C11.5522 27 9.62026 26.5943 7.81264 25.7577C7.28002 25.5441 6.78133 25.3431 6.42332 25.3431C6.0113 25.3456 5.45733 25.5366 4.9222 25.7212C3.82431 26.0981 2.45761 26.5679 1.44639 25.5604C0.438951 24.5517 0.903732 23.1888 1.27807 22.0922C1.46272 21.552 1.65241 20.9943 1.65241 20.5722C1.65241 20.2255 1.48534 19.7833 1.22908 19.1465C-1.12372 14.0653 -0.0358796 7.94147 3.95496 3.95315C6.50246 1.40439 9.89285 0 13.5018 0ZM13.5031 1.88425C10.3966 1.88425 7.4785 3.09268 5.28649 5.28594C1.85214 8.71778 0.917549 13.9874 2.95882 18.4003C3.25276 19.1276 3.53665 19.8361 3.53665 20.5722C3.53665 21.3071 3.28416 22.0469 3.06182 22.7001C2.87842 23.2378 2.60081 24.0493 2.77919 24.2276C2.95379 24.4085 3.7703 24.1234 4.30919 23.9387C4.95612 23.7176 5.68972 23.4639 6.41704 23.4589C7.14561 23.4589 7.83274 23.7352 8.56005 24.0279C13.0157 26.088 18.2853 25.1509 21.7184 21.7191C26.2481 17.1868 26.2481 9.81441 21.7184 5.28468C19.5251 3.09142 16.6083 1.88425 13.5031 1.88425ZM18.461 12.766C19.1544 12.766 19.7172 13.3275 19.7172 14.0222C19.7172 14.7168 19.1544 15.2784 18.461 15.2784C17.7676 15.2784 17.1998 14.7168 17.1998 14.0222C17.1998 13.3275 17.7563 12.766 18.4497 12.766H18.461ZM13.4253 12.766C14.1187 12.766 14.6815 13.3275 14.6815 14.0222C14.6815 14.7168 14.1187 15.2784 13.4253 15.2784C12.7319 15.2784 12.1641 14.7168 12.1641 14.0222C12.1641 13.3275 12.7193 12.766 13.414 12.766H13.4253ZM8.38909 12.766C9.08249 12.766 9.64526 13.3275 9.64526 14.0222C9.64526 14.7168 9.08249 15.2784 8.38909 15.2784C7.69569 15.2784 7.1279 14.7168 7.1279 14.0222C7.1279 13.3275 7.68438 12.766 8.37778 12.766H8.38909Z" fill="#0A4020"/>
</svg>
