<svg width="21" height="24" viewBox="0 0 21 24" fill="none" xmlns="http://www.w3.org/2000/svg">
<path fill-rule="evenodd" clip-rule="evenodd" d="M19.7474 3.65102L12.0628 0.357627C10.9502 -0.119209 9.69078 -0.119209 8.57816 0.357627L0.89358 3.65102C0.351483 3.88335 0 4.41638 0 5.00617V12.7508C0 15.6077 1.37969 18.2887 3.70442 19.9492L8.60659 23.4508C9.63185 24.1831 11.0091 24.1831 12.0344 23.4508L16.9366 19.9492C19.2613 18.2887 20.641 15.6077 20.641 12.7508V5.00617C20.641 4.41638 20.2895 3.88335 19.7474 3.65102ZM15.5243 9.08197C15.8693 8.65071 15.7994 8.02142 15.3682 7.67641C14.9369 7.3314 14.3076 7.40132 13.9626 7.83258L8.76313 14.3319L6.60444 12.1732C6.21392 11.7827 5.58075 11.7827 5.19023 12.1732C4.7997 12.5638 4.7997 13.1969 5.19023 13.5875L7.74393 16.1412C8.37609 16.7733 9.4174 16.7156 9.97589 16.0175L15.5243 9.08197Z" fill="#0E3E2F" fill-opacity="0.31"/>
<path d="M5.42383 12.2042L9.03978 15.8201L14.9157 8.13623" stroke="#196164" stroke-width="2" stroke-linecap="round"/>
</svg>
