<svg width="62" height="52" viewBox="0 0 62 52" fill="none" xmlns="http://www.w3.org/2000/svg">
<circle cx="30.6202" cy="31.255" r="12.505" fill="#FFF2AC" stroke="black" stroke-width="1.5"/>
<path d="M27.359 34.392C28.5078 35.1597 29.9013 35.7954 31.5962 35.7579C33.3589 35.7186 34.2892 34.9491 34.2628 33.8564C34.1969 31.1996 27.0483 31.8263 26.9579 28.1019C26.9089 26.0879 28.73 24.7827 31.3288 24.7274C33.3156 24.6827 34.5076 25.3648 35.5472 26.2843L34.5792 27.3555C33.5434 26.6074 32.7186 26.1754 31.229 26.2075C29.7394 26.2396 28.7808 26.9467 28.8091 28.0179C28.8656 30.3729 36.0161 29.7677 36.1121 33.6867C36.1611 35.7436 34.2515 37.1791 31.4041 37.2398C29.631 37.2449 27.9072 36.6867 26.5078 35.6543L27.359 34.392ZM30.4927 21.9599L31.8486 21.9296L31.9314 25.3773L30.5755 25.4076L30.4927 21.9599ZM32.2045 36.6006L32.2911 40.3072L30.9352 40.3375L30.8448 36.6309L32.2045 36.6006Z" fill="black"/>
<path d="M11.3789 50.1916V24.6463M50.6918 24.6463V50.1916" stroke="black" stroke-width="1.5" stroke-miterlimit="10" stroke-linecap="round"/>
<path d="M3.95117 24.1991L31.0398 0.871094" stroke="black" stroke-width="1.5" stroke-miterlimit="10" stroke-linecap="round"/>
<path d="M59.3075 24.9506L31.3555 0.871094" stroke="black" stroke-width="1.5" stroke-miterlimit="10" stroke-linecap="round"/>
<path d="M3.95117 24.1992L11.6162 24.4476" stroke="black" stroke-width="1.5" stroke-miterlimit="10" stroke-linecap="round"/>
<path d="M50.8672 24.8575L59.0416 25.1184" stroke="black" stroke-width="1.5" stroke-miterlimit="10" stroke-linecap="round"/>
<path d="M1 51.1155H61.1962" stroke="black" stroke-width="1.5" stroke-miterlimit="10" stroke-linecap="round"/>
</svg>
