<svg width="18" height="20" viewBox="0 0 18 20" fill="none" xmlns="http://www.w3.org/2000/svg">
<path d="M14.7778 8.74994H2.72222C1.77107 8.74994 1 9.521 1 10.4722V16.4999C1 17.4511 1.77107 18.2222 2.72222 18.2222H14.7778C15.7289 18.2222 16.5 17.4511 16.5 16.4999V10.4722C16.5 9.521 15.7289 8.74994 14.7778 8.74994Z" stroke="black" stroke-width="2" stroke-linecap="round" stroke-linejoin="round"/>
<path d="M4.44336 8.74997V5.30553C4.44336 4.16362 4.89698 3.06849 5.70443 2.26104C6.51188 1.45359 7.60701 0.999969 8.74891 0.999969C9.89082 0.999969 10.986 1.45359 11.7934 2.26104C12.6009 3.06849 13.0545 4.16362 13.0545 5.30553V8.74997" stroke="black" stroke-width="2" stroke-linecap="round" stroke-linejoin="round"/>
</svg>
