<svg width="153" height="154" viewBox="0 0 153 154" fill="none" xmlns="http://www.w3.org/2000/svg">
<path d="M53 103.976L99.5518 58" stroke="black" stroke-width="1.5"/>
<path d="M64.084 58H99.552V88.6506" stroke="black" stroke-width="1.5"/>
<path d="M7.11975 48.1991L7.28339 49.6558C6.23608 49.6702 5.28072 49.9804 4.39439 50.5408C3.50806 51.1013 2.84476 52.0196 2.42161 53.3016C1.94203 54.7545 2.04295 56.1716 2.73 57.5356C3.42269 58.8827 4.55249 59.8242 6.14212 60.3489C7.71467 60.868 9.1888 60.8239 10.5816 60.2221C11.963 59.5976 12.9104 58.5077 13.4351 56.918C13.8469 55.6702 13.8434 54.4749 13.4246 53.332C13.0113 52.172 12.2007 51.3547 10.9926 50.8801L9.14759 56.4695L7.84853 56.0407L10.19 48.9472L10.7028 49.1164C12.4463 49.6919 13.713 50.7356 14.4973 52.2644C15.2872 53.7762 15.3662 55.4893 14.7399 57.3866C14.0798 59.3865 12.8999 60.7788 11.2117 61.5864C9.52354 62.3939 7.6966 62.4733 5.74801 61.8301C3.81651 61.1925 2.39 60.0013 1.497 58.2849C0.604003 56.5685 0.467736 54.7417 1.09965 52.8273C1.60744 51.289 2.42373 50.1368 3.56562 49.3764C4.69606 48.5933 5.88458 48.2084 7.11975 48.1991Z" fill="black"/>
<path d="M13.4103 29.8283L14.5441 30.5938L10.4349 36.6805L14.4778 39.4099L18.2345 33.8453L19.3683 34.6108L15.6116 40.1754L19.8485 43.0357L23.998 36.8893L25.1318 37.6547L20.1564 45.0245L8.47523 37.1384L13.4103 29.8283Z" fill="black"/>
<path d="M32.1734 30.4407L23.6901 20.9788L20.1787 24.127L19.2535 23.095L27.3752 15.8133L28.3004 16.8453L24.8025 19.9815L33.2858 29.4433L32.1734 30.4407Z" fill="black"/>
<path d="M51.4078 14.3684L51.0364 18.2695L49.597 18.7324L51.0734 3.4525L52.667 2.93994L62.7742 14.4942L61.2834 14.9737L58.7247 12.0151L51.4078 14.3684ZM51.5257 12.9124L57.763 10.9063L52.313 4.66101L51.5257 12.9124Z" fill="black"/>
<path d="M92.0229 14.5844L90.9001 15.5485L89.3222 13.645C87.9351 14.4251 86.4223 14.6957 84.7836 14.4569C82.7887 14.1661 81.2308 13.2478 80.0923 11.6994C78.9563 10.1332 78.5413 8.36282 78.8321 6.3679C79.1254 4.35517 80.0337 2.74129 81.5695 1.5645C83.1053 0.387703 84.8808 -0.0629159 86.8936 0.230452C88.8885 0.521224 90.4463 1.43952 91.5823 3.00574C92.7209 4.55415 93.1537 6.32711 92.8629 8.32203C92.5955 10.1566 91.7971 11.641 90.4802 12.8133L92.0229 14.5844ZM80.359 6.49951C80.1254 8.10258 80.442 9.54937 81.3116 10.8221C82.1989 12.0974 83.4339 12.8595 85.0191 13.0906C86.2481 13.2697 87.3662 13.087 88.3911 12.5452L86.0594 9.82243L87.1974 8.8787L89.5491 11.7135C90.5394 10.7847 91.1308 9.59755 91.3359 8.19041C91.5696 6.58735 91.253 5.14056 90.3656 3.86524C89.4783 2.58992 88.2433 1.82783 86.658 1.59677C85.0728 1.36571 83.692 1.72835 82.4954 2.69992C81.3014 3.65367 80.5901 4.91427 80.359 6.49951Z" fill="black"/>
<path d="M112.963 8.96177L114.293 9.60203L110.568 17.3382C109.014 20.5656 106.349 21.5797 103.348 20.1352C101.84 19.409 100.875 18.3849 100.485 17.0785C100.095 15.772 100.259 14.3527 100.993 12.8281L104.756 5.0109L106.086 5.65116L102.354 13.4035C101.081 16.0471 101.874 17.8869 103.998 18.9098C106.188 19.9639 108.044 19.1793 109.192 16.7952L112.963 8.96177Z" fill="black"/>
<path d="M129.517 30.7009C128.127 32.1855 126.446 32.9792 124.513 33.0681C122.581 33.1569 120.866 32.5127 119.381 31.1223C117.923 29.7565 117.155 28.1007 117.105 26.1794C117.067 24.245 117.738 22.5547 119.116 21.0833C120.506 19.5987 122.187 18.805 124.119 18.7162C126.052 18.6273 127.767 19.2715 129.252 20.6619C130.71 22.0277 131.464 23.6712 131.502 25.6056C131.552 27.5269 130.895 29.2295 129.517 30.7009ZM128.339 29.7208C129.446 28.5383 130.013 27.1699 130.013 25.6163C130.013 24.0626 129.434 22.7317 128.265 21.6366C127.096 20.5416 125.755 20.0506 124.218 20.1647C122.693 20.2656 121.389 20.8942 120.294 22.0634C119.187 23.2459 118.62 24.6143 118.62 26.168C118.62 27.7216 119.199 29.0525 120.368 30.1476C121.537 31.2427 122.878 31.7336 124.403 31.6327C125.94 31.5186 127.244 30.8901 128.339 29.7208Z" fill="black"/>
<path d="M130.513 44.6218L141.44 38.1326L139.032 34.0778L140.223 33.3701L145.793 42.7487L144.602 43.4564L142.203 39.4171L131.276 45.9063L130.513 44.6218Z" fill="black"/>
<path d="M152.105 60.4436L150.794 60.8347L148.694 53.7971L144.02 55.1913L145.939 61.6252L144.628 62.0163L142.709 55.5824L137.81 57.0435L139.93 64.1501L138.619 64.5412L136.077 56.0201L149.583 51.9916L152.105 60.4436Z" fill="black"/>
<path d="M152 79.5C152 99.2586 144.151 118.208 130.179 132.179C116.208 146.151 97.2586 154 77.5 154C57.7414 154 38.792 146.151 24.8206 132.179C10.8491 118.208 3 99.2586 3 79.5H4.2814C4.28141 98.9188 11.9955 117.542 25.7266 131.273C39.4578 145.005 58.0812 152.719 77.5 152.719C96.9188 152.719 115.542 145.005 129.273 131.273C143.005 117.542 150.719 98.9188 150.719 79.5H152Z" fill="black"/>
</svg>
