<svg width="62" height="63" viewBox="0 0 62 63" fill="none" xmlns="http://www.w3.org/2000/svg">
<path d="M45.949 8.45512L60.3273 23.9002C60.5529 24.1413 60.7288 24.4248 60.845 24.7343C60.9612 25.0439 61.0154 25.3734 61.0044 25.704C60.9935 26.0346 60.9176 26.3598 60.7812 26.6609C60.6448 26.962 60.4505 27.2331 60.2095 27.4586L25.6091 59.9482C25.1228 60.4048 24.4758 60.6487 23.8104 60.6265C23.145 60.6044 22.5156 60.3178 22.0605 59.8299L1.87616 38.1576C1.42267 37.6687 1.18048 37.0193 1.20256 36.3516C1.22464 35.6839 1.50919 35.0521 1.99397 34.5944L36.5802 2.10484C36.8203 1.87836 37.1026 1.70172 37.4109 1.58505C37.7192 1.46838 38.0474 1.41398 38.3766 1.42497C38.7059 1.43596 39.0298 1.51213 39.3297 1.6491C39.6295 1.78607 39.8995 1.98114 40.1241 2.22314C41.5851 3.77206 43.035 5.31941 44.4739 6.86518L45.949 8.45512Z" stroke="black" stroke-width="1.5" stroke-miterlimit="10" stroke-linecap="round"/>
<path d="M12.207 38.3668L18.8286 32.1481" stroke="black" stroke-width="1.5" stroke-miterlimit="10" stroke-linecap="round"/>
<path d="M19.4258 46.2787L26.0474 40.0599" stroke="black" stroke-width="1.5" stroke-miterlimit="10" stroke-linecap="round"/>
<path d="M15.9102 42.3412L29.092 29.9619" stroke="black" stroke-width="1.5" stroke-miterlimit="10" stroke-linecap="round"/>
<path d="M43.1493 20.2339L37.9232 25.141C37.4877 25.5498 37.4648 26.2357 37.872 26.6729L40.8275 29.8463C41.2347 30.2835 41.9178 30.3065 42.3532 29.8977L47.5793 24.9906C48.0147 24.5818 48.0376 23.8959 47.6304 23.4587L44.6749 20.2852C44.2677 19.848 43.5847 19.825 43.1493 20.2339Z" fill="#ADFFD8" stroke="black" stroke-width="1.5" stroke-miterlimit="10"/>
<path d="M1 60.7385L46.4631 61.4059" stroke="black" stroke-width="1.5" stroke-miterlimit="10" stroke-linecap="round"/>
</svg>
