<svg width="46" height="52" viewBox="0 0 46 52" fill="none" xmlns="http://www.w3.org/2000/svg">
<rect x="9.55078" y="0.00012207" width="36.0816" height="42.449" rx="8" fill="#196164"/>
<path d="M32.4922 24.453C31.5339 24.453 30.2645 24.4318 28.6842 24.4318C24.8299 24.4318 21.6607 21.2417 21.6607 17.3513V10.5255C21.6607 9.98849 21.232 9.55127 20.7003 9.55127H9.47382C4.23464 9.55127 0 13.8514 0 19.1214V41.9908C0 47.5198 4.43639 52.0002 9.91094 52.0002H26.6288C31.8491 52.0002 36.0816 47.7278 36.0816 42.4535V25.4081C36.0816 24.869 35.655 24.4339 35.1212 24.436C34.2239 24.4424 33.1479 24.453 32.4922 24.453Z" fill="#A2D732"/>
<path d="M26.7091 10.7552C26.0745 10.0951 24.9666 10.5493 24.9666 11.4641V17.061C24.9666 19.4084 26.9001 21.3399 29.2475 21.3399C30.7269 21.3568 32.7814 21.3611 34.5261 21.3568C35.4196 21.3547 35.8738 20.2871 35.2541 19.6419C33.0149 17.3136 29.0056 13.1408 26.7091 10.7552Z" fill="#A2D732"/>
<path d="M23.173 36.9156C24.0453 36.9156 24.7542 37.6245 24.7542 38.4968C24.7542 39.3692 24.0453 40.0759 23.173 40.0759H11.6184C10.7461 40.0759 10.0393 39.3692 10.0393 38.4968C10.0393 37.6245 10.7461 36.9156 11.6184 36.9156H23.173ZM18.8027 26.3157C19.675 26.3157 20.3839 27.0246 20.3839 27.8969C20.3839 28.7692 19.675 29.476 18.8027 29.476H11.6182C10.7458 29.476 10.0391 28.7692 10.0391 27.8969C10.0391 27.0246 10.7458 26.3157 11.6182 26.3157H18.8027Z" fill="#196164"/>
</svg>
