<svg width="19" height="19" viewBox="0 0 19 19" fill="none" xmlns="http://www.w3.org/2000/svg">
<path fill-rule="evenodd" clip-rule="evenodd" d="M4.08911 0.924302C5.06987 0.937473 5.76878 1.67238 6.65295 2.60221C6.87158 2.83137 7.10776 3.08161 7.37205 3.34502C8.65309 4.62694 8.28871 5.67267 7.99457 6.51206C7.67497 7.42784 7.39839 8.21806 9.05435 9.87402C10.7103 11.53 11.4996 11.2534 12.4146 10.9312C13.2548 10.6379 14.2979 10.2709 15.5816 11.5528C15.8424 11.8136 16.0882 12.0471 16.3165 12.264C17.2498 13.1526 17.9874 13.8541 17.9998 14.8375C18.0093 15.6751 17.5001 16.5303 16.2427 17.7877L15.6861 17.4101L16.1576 17.8693C15.8792 18.1547 15.1391 18.915 13.6894 18.9238H13.6631C11.4751 18.9238 8.62236 17.1818 5.18401 13.7444C1.73161 10.2928 -0.0130232 7.43135 7.31856e-05 5.23892C0.00804943 3.79018 0.767542 3.04825 1.0529 2.76991L1.07726 2.74331L1.13631 2.68387C2.39628 1.4239 3.26201 0.905864 4.08911 0.924302ZM4.07243 2.24134H4.06541C3.67112 2.24134 3.07233 2.63645 2.2372 3.44766L2.06951 3.61234L2.07141 3.61194C2.07141 3.61194 2.05708 3.62838 2.03266 3.65328L1.97395 3.71203C1.76147 3.91837 1.32158 4.34772 1.31714 5.24594C1.31016 6.5024 2.13638 8.83531 6.11472 12.8128C10.0737 16.7709 12.4031 17.6068 13.6631 17.6068H13.6815C14.5798 17.6015 15.0082 17.1616 15.2146 16.95C15.2769 16.8859 15.3278 16.8376 15.3638 16.8087C16.2392 15.928 16.687 15.2739 16.6827 14.8533C16.6774 14.4248 16.1444 13.9191 15.4077 13.2175C15.1733 12.9954 14.9187 12.7522 14.65 12.4835C13.9529 11.789 13.6095 11.9075 12.8501 12.1744C11.8008 12.5423 10.3635 13.0463 8.12364 10.8047C5.88292 8.56488 6.38515 7.12755 6.75129 6.07744C7.01645 5.31882 7.13762 4.97376 6.44134 4.2766C6.16916 4.00442 5.92419 3.74628 5.69853 3.50921C5.00138 2.77694 4.49827 2.24749 4.07243 2.24134ZM11.6306 4.04788C13.4577 4.4026 14.8687 5.81271 15.2243 7.64076C15.2937 7.99899 15.061 8.34406 14.7045 8.41342C14.6615 8.42132 14.6194 8.42571 14.5772 8.42571C14.2682 8.42571 13.9933 8.20796 13.9319 7.89363C13.679 6.59415 12.6772 5.59233 11.3794 5.34033C11.0221 5.27097 10.7894 4.9259 10.8588 4.56855C10.9281 4.21119 11.2794 3.97764 11.6306 4.04788ZM11.578 0.929307C15.1586 1.32705 17.9393 4.10425 18.3405 7.68396C18.3809 8.04571 18.121 8.37145 17.7601 8.41184C17.7356 8.41448 17.7101 8.41623 17.6855 8.41623C17.3545 8.41623 17.07 8.16775 17.0323 7.83147C16.6995 4.86725 14.3973 2.56682 11.4322 2.23757C11.0713 2.19718 10.8106 1.87231 10.851 1.51056C10.8905 1.14969 11.2127 0.88365 11.578 0.929307Z" fill="#19352D" fill-opacity="0.4"/>
</svg>
