<svg width="30" height="29" viewBox="0 0 30 29" fill="none" xmlns="http://www.w3.org/2000/svg">
<path d="M16.2045 0.905888L19.4915 7.51133C19.7336 7.9899 20.1958 8.32224 20.7289 8.39609L28.1121 9.4714C28.5432 9.53196 28.9345 9.75943 29.1989 10.1065C29.4602 10.4492 29.5724 10.8835 29.5089 11.3103C29.4573 11.6648 29.2904 11.9928 29.0349 12.2439L23.6851 17.4298C23.2938 17.7917 23.1166 18.3279 23.2111 18.8522L24.5283 26.143C24.6685 27.0234 24.0853 27.8535 23.2111 28.0204C22.8508 28.078 22.4817 28.0174 22.1568 27.852L15.571 24.4208C15.0822 24.1741 14.5049 24.1741 14.0161 24.4208L7.43034 27.852C6.62114 28.2818 5.61851 27.9894 5.16813 27.1918C5.00127 26.8742 4.94221 26.5123 4.99684 26.1593L6.314 18.867C6.40851 18.3441 6.22983 17.805 5.84 17.4431L0.490162 12.2601C-0.146267 11.6456 -0.165463 10.6339 0.447339 9.99723C0.460629 9.98394 0.475395 9.96917 0.490162 9.9544C0.744142 9.69591 1.07786 9.53196 1.43816 9.48912L8.82132 8.41234C9.35291 8.33701 9.8151 8.00763 10.0587 7.5261L13.2276 0.905888C13.5096 0.338694 14.0944 -0.0143245 14.7293 0.000446151H14.9272C15.478 0.0669142 15.9579 0.408117 16.2045 0.905888Z" fill="white"/>
<path d="M14.7514 24.2368C14.4654 24.2457 14.1868 24.3225 13.9362 24.46L7.38264 27.8834C6.58077 28.2661 5.62117 27.9691 5.17158 27.2022C5.00502 26.889 4.94458 26.53 5.0006 26.1783L6.30954 18.9015C6.39798 18.3725 6.2211 17.8347 5.83638 17.4624L0.484139 12.2807C-0.151172 11.6587 -0.162964 10.6377 0.45908 10.0009C0.467924 9.99201 0.475295 9.98462 0.484139 9.97723C0.737674 9.72605 1.06491 9.56057 1.41721 9.50886L8.80656 8.4214C9.34164 8.35343 9.80596 8.01951 10.0418 7.53488L13.2537 0.83134C13.5589 0.290565 14.1441 -0.0315356 14.7632 0.00244754C14.7514 0.441273 14.7514 23.9384 14.7514 24.2368Z" fill="#FFDF6C"/>
</svg>
