<svg width="23" height="23" viewBox="0 0 23 23" fill="none" xmlns="http://www.w3.org/2000/svg">
<path fill-rule="evenodd" clip-rule="evenodd" d="M4.9978 0.924408C6.1965 0.940505 7.05073 1.83873 8.13138 2.97518C8.39859 3.25527 8.68727 3.56112 9.01028 3.88306C10.576 5.44985 10.1306 6.72796 9.77114 7.75389C9.38052 8.87317 9.04248 9.839 11.0664 11.863C13.0904 13.8869 14.0551 13.5489 15.1733 13.155C16.2003 12.7966 17.4752 12.348 19.0442 13.9148C19.3629 14.2335 19.6634 14.519 19.9424 14.784C21.0831 15.8701 21.9846 16.7275 21.9998 17.9294C22.0114 18.9532 21.389 19.9984 19.8522 21.5352L19.1719 21.0737L19.7481 21.635C19.408 21.9838 18.5033 22.9131 16.7315 22.9238H16.6994C14.0251 22.9238 10.5384 20.7947 6.33601 16.5934C2.11642 12.3748 -0.0159172 8.87747 8.94491e-05 6.19783C0.00983819 4.42715 0.938106 3.52034 1.28688 3.18015L1.31665 3.14764L1.38883 3.07499C2.92879 1.53503 3.9869 0.901872 4.9978 0.924408ZM4.97742 2.53412H4.96883C4.48692 2.53412 3.75507 3.01704 2.73436 4.00851L2.5294 4.20979L2.53172 4.2093C2.53172 4.2093 2.51421 4.22939 2.48436 4.25983L2.4126 4.33164C2.1529 4.58382 1.61526 5.10859 1.60984 6.20642C1.60131 7.74208 2.61114 10.5934 7.47354 15.4548C12.3123 20.2925 15.1594 21.3141 16.6994 21.3141H16.7219C17.8197 21.3077 18.3434 20.77 18.5956 20.5114C18.6718 20.4331 18.734 20.374 18.778 20.3386C19.848 19.2623 20.3953 18.4628 20.3899 17.9487C20.3834 17.425 19.7321 16.8069 18.8317 15.9495C18.5452 15.678 18.2339 15.3807 17.9056 15.0523C17.0535 14.2035 16.6339 14.3483 15.7056 14.6746C14.4232 15.1242 12.6665 15.7402 9.92889 13.0005C7.19023 10.2629 7.80407 8.50616 8.25157 7.22268C8.57566 6.29549 8.72376 5.87374 7.87275 5.02167C7.54008 4.68899 7.24067 4.37349 6.96487 4.08374C6.1128 3.18874 5.49789 2.54163 4.97742 2.53412ZM14.2151 4.74211C16.4483 5.17566 18.1729 6.89913 18.6075 9.13341C18.6923 9.57125 18.4079 9.993 17.9722 10.0778C17.9196 10.0874 17.8681 10.0928 17.8166 10.0928C17.4389 10.0928 17.103 9.82666 17.0278 9.44248C16.7188 7.85423 15.4943 6.62977 13.9082 6.32178C13.4714 6.237 13.1871 5.81525 13.2718 5.37849C13.3566 4.94172 13.7859 4.65626 14.2151 4.74211ZM14.1509 0.930525C18.5271 1.41666 21.9258 4.81101 22.4162 9.18621C22.4656 9.62834 22.1479 10.0265 21.7068 10.0758C21.6768 10.0791 21.6457 10.0812 21.6156 10.0812C21.2111 10.0812 20.8634 9.77751 20.8172 9.3665C20.4105 5.74357 17.5967 2.93194 13.9727 2.52951C13.5316 2.48014 13.2129 2.08308 13.2623 1.64095C13.3106 1.19988 13.7044 0.874721 14.1509 0.930525Z" fill="#D3FF76"/>
</svg>
