<svg width="46" height="63" viewBox="0 0 46 63" fill="none" xmlns="http://www.w3.org/2000/svg">
<path d="M42.503 28.9577C41.9818 27.9833 38.0726 20.9012 29.5872 18.2617C27.4675 17.5977 25.2584 17.2639 23.0373 17.2719C17.1923 17.2729 11.587 19.5979 7.45436 23.7355C3.32166 27.8731 1 33.4844 1 39.3354V51.4279C1 54.0734 2.04985 56.6105 3.9186 58.4812C5.78734 60.3518 8.32191 61.4027 10.9647 61.4027H35.1253C37.7681 61.4027 40.3027 60.3518 42.1714 58.4812C44.0402 56.6105 45.09 54.0734 45.09 51.4279V39.3354C45.0791 35.7176 44.1914 32.1565 42.503 28.9577Z" stroke="black" stroke-width="1.5" stroke-miterlimit="10" stroke-linecap="round"/>
<path d="M17.442 17.6517L12.5631 9.21148C12.4847 9.07478 12.4431 8.92001 12.4424 8.76236C12.4417 8.60471 12.482 8.44959 12.5593 8.31224C12.6366 8.17488 12.7483 8.06001 12.8833 7.97889C13.0184 7.89777 13.1722 7.85319 13.3296 7.84954H20.4007C20.4007 7.84954 24.9807 0.913206 25.3064 1.45031L27.8206 8.32142L32.7723 8.13343C32.9372 8.12997 33.0998 8.17187 33.2425 8.25458C33.3852 8.33729 33.5025 8.45763 33.5816 8.60248C33.6607 8.74733 33.6985 8.91113 33.6909 9.07602C33.6834 9.24091 33.6308 9.40057 33.5388 9.53758L28.2882 17.5596" stroke="black" stroke-width="1.5" stroke-miterlimit="10"/>
<path d="M23.7825 51.8374C29.8496 51.8374 34.768 46.914 34.768 40.8407C34.768 34.7674 29.8496 29.844 23.7825 29.844C17.7153 29.844 12.7969 34.7674 12.7969 40.8407C12.7969 46.914 17.7153 51.8374 23.7825 51.8374Z" fill="#ADFFD8" stroke="black" stroke-width="1.5" stroke-miterlimit="10"/>
<path d="M21.7785 42.3553L21.6472 42.2481L21.5567 42.3915L21.0558 43.1855L20.9851 43.2975L21.0875 43.3815C21.8003 43.9661 22.662 44.3329 23.57 44.444V46.242V46.392H23.72H24.5225H24.6725V46.242V44.4399C25.2806 44.3594 25.8048 44.1566 26.2067 43.8511C26.7406 43.4453 27.0522 42.8623 27.0522 42.1697C27.0522 41.5042 26.7616 41.022 26.3368 40.657C25.9183 40.2973 25.3669 40.0488 24.8353 39.838C24.6957 39.7826 24.558 39.73 24.424 39.6788C24.0373 39.5311 23.6806 39.3948 23.3934 39.2364C23.0054 39.0223 22.8078 38.8017 22.8078 38.5199C22.8078 38.2324 22.9261 38.0029 23.1411 37.8411C23.3604 37.6759 23.6907 37.5741 24.119 37.5741L24.1219 37.574C24.8125 37.5606 25.4808 37.8193 25.9827 38.2945L26.0944 38.4003L26.1973 38.2859L26.7864 37.6312L26.8778 37.5297L26.7853 37.4292C26.4536 37.0692 26.0482 36.7852 25.5967 36.5965C25.3007 36.4729 24.9895 36.3921 24.6725 36.3559V34.7355V34.5855H24.5225H23.72H23.57V34.7355V36.3778C23.0286 36.4553 22.5548 36.6392 22.1867 36.9186C21.6834 37.3005 21.3852 37.856 21.3852 38.5338C21.3852 39.1755 21.6785 39.6371 22.1029 39.9874C22.5207 40.3324 23.0715 40.5748 23.6014 40.7881C23.6954 40.826 23.7887 40.8629 23.8806 40.8992C24.3161 41.0716 24.7212 41.232 25.0384 41.4254C25.4198 41.6579 25.6297 41.9115 25.6297 42.2486C25.6297 42.5467 25.5103 42.7893 25.2789 42.9619C25.0428 43.138 24.6777 43.2499 24.1768 43.2502C23.3008 43.2245 22.4577 42.91 21.7785 42.3553Z" fill="black" stroke="black" stroke-width="0.3"/>
</svg>
