<svg width="24" height="18" viewBox="0 0 24 18" fill="none" xmlns="http://www.w3.org/2000/svg">
<path d="M7.47031 2H16.0036V0H7.47031V2ZM21.4036 7.4V10.6H23.4036V7.4H21.4036ZM16.0036 16H7.47031V18H16.0036V16ZM2.07031 10.6V7.4H0.0703125V10.6H2.07031ZM7.47031 16C5.93355 16 4.88157 15.9979 4.09229 15.8918C3.33177 15.7895 2.96654 15.6075 2.71468 15.3556L1.30046 16.7698C1.98586 17.4552 2.8435 17.7419 3.82579 17.8739C4.77932 18.0021 5.99009 18 7.47031 18V16ZM0.0703125 10.6C0.0703125 12.0802 0.0681888 13.291 0.196387 14.2445C0.328453 15.2268 0.615066 16.0845 1.30046 16.7698L2.71468 15.3556C2.46282 15.1038 2.2808 14.7385 2.17855 13.978C2.07244 13.1887 2.07031 12.1368 2.07031 10.6H0.0703125ZM21.4036 10.6C21.4036 12.1368 21.4015 13.1887 21.2954 13.978C21.1932 14.7385 21.0111 15.1038 20.7593 15.3556L22.1735 16.7698C22.8589 16.0845 23.1455 15.2268 23.2776 14.2445C23.4058 13.291 23.4036 12.0802 23.4036 10.6H21.4036ZM16.0036 18C17.4839 18 18.6946 18.0021 19.6482 17.8739C20.6305 17.7419 21.4881 17.4552 22.1735 16.7698L20.7593 15.3556C20.5074 15.6075 20.1422 15.7895 19.3817 15.8918C18.5924 15.9979 17.5404 16 16.0036 16V18ZM16.0036 2C17.5404 2 18.5924 2.00212 19.3817 2.10824C20.1422 2.21049 20.5074 2.3925 20.7593 2.64437L22.1735 1.23015C21.4881 0.544753 20.6305 0.25814 19.6482 0.126074C18.6946 -0.00212371 17.4839 0 16.0036 0V2ZM23.4036 7.4C23.4036 5.91978 23.4058 4.70901 23.2776 3.75548C23.1455 2.77319 22.8589 1.91555 22.1735 1.23015L20.7593 2.64437C21.0111 2.89623 21.1932 3.26146 21.2954 4.02198C21.4015 4.81126 21.4036 5.86324 21.4036 7.4H23.4036ZM7.47031 0C5.99009 0 4.77932 -0.00212371 3.82579 0.126074C2.8435 0.25814 1.98586 0.544753 1.30046 1.23015L2.71468 2.64437C2.96654 2.3925 3.33177 2.21049 4.09229 2.10824C4.88157 2.00212 5.93355 2 7.47031 2V0ZM2.07031 7.4C2.07031 5.86324 2.07244 4.81126 2.17855 4.02198C2.2808 3.26146 2.46282 2.89623 2.71468 2.64437L1.30046 1.23015C0.615066 1.91555 0.328453 2.77319 0.196387 3.75548C0.0681888 4.70901 0.0703125 5.91978 0.0703125 7.4H2.07031Z" fill="#0A4020"/>
<path d="M22.471 6.4021H1V8.05371H22.471V6.4021Z" fill="#0A4020"/>
<circle cx="6.78363" cy="12.5956" r="1.23871" fill="#0A4020"/>
</svg>
