<svg width="46" height="62" viewBox="0 0 46 62" fill="none" xmlns="http://www.w3.org/2000/svg">
<path d="M42.503 28.3731C41.9818 27.3985 38.0726 20.3151 29.5872 17.6751C27.4675 17.011 25.2584 16.6771 23.0373 16.6851C17.1923 16.6861 11.587 19.0115 7.45436 23.1499C3.32166 27.2883 1 32.9007 1 38.7527V50.8475C1 53.4935 2.04985 56.0311 3.9186 57.9021C5.78734 59.7731 8.32191 60.8242 10.9647 60.8242H35.1253C37.7681 60.8242 40.3027 59.7731 42.1714 57.9021C44.0402 56.0311 45.09 53.4935 45.09 50.8475V38.7527C45.0791 35.1343 44.1914 31.5725 42.503 28.3731Z" stroke="black" stroke-width="1.5" stroke-miterlimit="10" stroke-linecap="round"/>
<path d="M17.441 17.065L12.5621 8.62316C12.4837 8.48644 12.4421 8.33164 12.4414 8.17396C12.4408 8.01628 12.4811 7.86113 12.5584 7.72375C12.6357 7.58637 12.7473 7.47147 12.8824 7.39034C13.0174 7.3092 13.1712 7.26462 13.3287 7.26096H20.3998C20.3998 7.26096 24.9797 0.323328 25.3055 0.860534L27.8196 7.73294L32.7713 7.54491C32.9362 7.54145 33.0988 7.58336 33.2415 7.66609C33.3843 7.74881 33.5015 7.86917 33.5806 8.01405C33.6597 8.15892 33.6975 8.32275 33.69 8.48768C33.6824 8.6526 33.6298 8.81228 33.5379 8.94932L28.2872 16.9729" stroke="black" stroke-width="1.5" stroke-miterlimit="10"/>
<path d="M23.7825 51.2571C29.8496 51.2571 34.768 46.3328 34.768 40.2583C34.768 34.1838 29.8496 29.2595 23.7825 29.2595C17.7153 29.2595 12.7969 34.1838 12.7969 40.2583C12.7969 46.3328 17.7153 51.2571 23.7825 51.2571Z" fill="#FFF2AC" stroke="black" stroke-width="1.5" stroke-miterlimit="10"/>
<path d="M21.7775 41.7733L21.6462 41.6661L21.5558 41.8095L21.0548 42.6036L20.9841 42.7156L21.0865 42.7996C21.7993 43.3843 22.661 43.7512 23.5691 43.8624V45.6607V45.8107H23.7191H24.5216H24.6716V45.6607V43.8582C25.2796 43.7777 25.8038 43.5748 26.2058 43.2693C26.7396 42.8634 27.0513 42.2803 27.0513 41.5876C27.0513 40.922 26.7606 40.4397 26.3358 40.0747C25.9173 39.7149 25.3659 39.4663 24.8343 39.2554C24.6947 39.2001 24.5571 39.1475 24.423 39.0963C24.0364 38.9485 23.6797 38.8122 23.3924 38.6538C23.0044 38.4397 22.8068 38.219 22.8068 37.9371C22.8068 37.6496 22.9252 37.42 23.1402 37.2581C23.3595 37.0929 23.6897 36.9911 24.118 36.9911L24.1209 36.991C24.8115 36.9776 25.4798 37.2363 25.9817 37.7116L26.0934 37.8175L26.1964 37.7031L26.7855 37.0482L26.8768 36.9467L26.7843 36.8463C26.4526 36.4862 26.0472 36.2021 25.5957 36.0134C25.2997 35.8897 24.9886 35.8089 24.6716 35.7728V34.152V34.002H24.5216H23.7191H23.5691V34.152V35.7947C23.0276 35.8722 22.5539 36.0561 22.1857 36.3355C21.6824 36.7175 21.3842 37.2731 21.3842 37.9511C21.3842 38.5928 21.6775 39.0545 22.1019 39.4049C22.5198 39.75 23.0705 39.9923 23.6004 40.2057C23.6945 40.2436 23.7877 40.2805 23.8796 40.3169C24.3151 40.4893 24.7202 40.6497 25.0374 40.8431C25.4188 41.0757 25.6287 41.3294 25.6287 41.6666C25.6287 41.9647 25.5093 42.2073 25.2779 42.38C25.0418 42.5561 24.6767 42.668 24.1758 42.6684C23.2998 42.6427 22.4567 42.328 21.7775 41.7733Z" fill="black" stroke="black" stroke-width="0.3"/>
</svg>
