<svg width="62" height="62" viewBox="0 0 62 62" fill="none" xmlns="http://www.w3.org/2000/svg">
<path d="M45.949 7.86483L60.3273 23.3128C60.5529 23.554 60.7288 23.8375 60.845 24.1471C60.9612 24.4567 61.0154 24.7863 61.0044 25.117C60.9935 25.4476 60.9176 25.7729 60.7812 26.074C60.6448 26.3752 60.4505 26.6464 60.2095 26.8719L25.6091 59.3676C25.1228 59.8242 24.4758 60.0682 23.8104 60.0461C23.145 60.0239 22.5156 59.7373 22.0605 59.2493L1.87616 37.5729C1.42267 37.0839 1.18048 36.4344 1.20256 35.7665C1.22464 35.0987 1.50919 34.4668 1.99397 34.0091L36.5802 1.51335C36.8203 1.28683 37.1026 1.11016 37.4109 0.993465C37.7192 0.876774 38.0474 0.822365 38.3766 0.833358C38.7059 0.844351 39.0298 0.920531 39.3297 1.05753C39.6295 1.19452 39.8995 1.38963 40.1241 1.63167C41.5851 3.18089 43.035 4.72853 44.4739 6.27459L45.949 7.86483Z" stroke="black" stroke-width="1.5" stroke-miterlimit="10" stroke-linecap="round"/>
<path d="M12.207 37.7822L18.8286 31.5623" stroke="black" stroke-width="1.5" stroke-miterlimit="10" stroke-linecap="round"/>
<path d="M19.4258 45.6954L26.0474 39.4755" stroke="black" stroke-width="1.5" stroke-miterlimit="10" stroke-linecap="round"/>
<path d="M15.9102 41.7573L29.092 29.3756" stroke="black" stroke-width="1.5" stroke-miterlimit="10" stroke-linecap="round"/>
<path d="M43.1487 19.6463L37.9231 24.5538C37.4877 24.9627 37.4648 25.6486 37.872 26.0859L40.8272 29.2596C41.2343 29.6969 41.9173 29.7199 42.3527 29.311L47.5783 24.4034C48.0137 23.9945 48.0366 23.3086 47.6295 22.8714L44.6743 19.6976C44.2671 19.2604 43.5841 19.2374 43.1487 19.6463Z" fill="#FFF2AC" stroke="black" stroke-width="1.5" stroke-miterlimit="10"/>
<path d="M1 60.1581L46.4631 60.8255" stroke="black" stroke-width="1.5" stroke-miterlimit="10" stroke-linecap="round"/>
</svg>
