<svg width="38" height="37" viewBox="0 0 38 37" fill="none" xmlns="http://www.w3.org/2000/svg">
<path fill-rule="evenodd" clip-rule="evenodd" d="M22.4273 1.61935L23.7796 2.97161C24.3031 3.49142 25.0024 3.78 25.746 3.78H27.6477C30.7203 3.78 33.2195 6.27918 33.2195 9.35182V11.2516C33.2195 11.9934 33.5081 12.6945 34.0316 13.2217L35.3598 14.5518C36.4124 15.597 36.9969 16.9936 37.0025 18.4828C37.008 19.9719 36.4327 21.3723 35.3838 22.4286L34.0279 23.7808C33.5081 24.3043 33.2195 25.0017 33.2195 25.7454V27.6489C33.2195 30.7197 30.7203 33.2189 27.6495 33.2189H25.7423C25.0098 33.2189 24.2939 33.5148 23.774 34.031L22.4458 35.3592C21.36 36.4524 19.9282 37 18.4964 37C17.0775 37 15.6587 36.4635 14.5728 35.3869C14.558 35.3721 14.5432 35.3573 14.5284 35.3407L13.215 34.0291C12.6915 33.5093 11.9922 33.2207 11.2486 33.2189H9.35059C6.27795 33.2189 3.78062 30.7197 3.78062 27.6489V25.7417C3.78062 24.998 3.49019 24.3006 2.96853 23.7753L1.63847 22.4471C-0.522178 20.2975 -0.548076 16.7976 1.57373 14.6147L1.62367 14.5648L2.97038 13.2143C3.49019 12.6908 3.78062 11.9897 3.78062 11.2479V9.35182C3.78062 6.28103 6.27795 3.78185 9.34874 3.78H11.2541C11.9959 3.78 12.6952 3.48957 13.2261 2.96606L14.5487 1.6397C16.7112 -0.537598 20.2463 -0.548697 22.4273 1.61935ZM16.5151 3.59872L15.1851 4.93247C14.1233 5.98135 12.7303 6.55481 11.2541 6.55481H9.35059C7.80964 6.55666 6.55543 7.81087 6.55543 9.35182V11.2479C6.55543 12.7297 5.98012 14.1226 4.93679 15.1734L3.62338 16.4886C3.61044 16.5034 3.59749 16.5145 3.58454 16.5275C2.49866 17.6207 2.50421 19.3948 3.59749 20.4806L4.93309 21.8163C5.98012 22.867 6.55543 24.2599 6.55543 25.7417V27.6489C6.55543 29.1898 7.8078 30.4441 9.35059 30.4441H11.2504C12.734 30.4459 14.127 31.0212 15.1758 32.0664L16.5096 33.3965L16.5466 33.4371C17.638 34.5027 19.3954 34.4897 20.4794 33.4002L21.815 32.0682C22.851 31.0342 24.2828 30.4441 25.7423 30.4441H27.6477C29.1905 30.4441 30.4447 29.1898 30.4447 27.6489V25.7454C30.4447 24.2636 31.0181 22.8707 32.0652 21.8218L33.3971 20.488C33.9391 19.9442 34.2295 19.2394 34.2277 18.492C34.2258 17.7465 33.9317 17.0454 33.4008 16.5164L32.067 15.1808C31.0181 14.1245 30.4447 12.7334 30.4447 11.2516V9.35182C30.4447 7.80902 29.1905 6.55481 27.6477 6.55481H25.746C24.2643 6.55481 22.8713 5.9795 21.8224 4.93802L20.4868 3.60057C19.375 2.49989 17.601 2.50544 16.5151 3.59872ZM23.1295 21.2718C24.1525 21.2718 24.9794 22.0987 24.9794 23.1217C24.9794 24.1447 24.1525 24.9716 23.1295 24.9716C22.1066 24.9716 21.2704 24.1447 21.2704 23.1217C21.2704 22.0987 22.0899 21.2718 23.1129 21.2718H23.1295ZM24.2354 12.7648C24.7774 13.3068 24.7774 14.1855 24.2354 14.7275L14.7252 24.2359C14.4551 24.5078 14.0999 24.6429 13.7448 24.6429C13.3896 24.6429 13.0344 24.5078 12.7643 24.2359C12.2223 23.6939 12.2223 22.817 12.7643 22.275L22.2727 12.7648C22.8147 12.2228 23.6934 12.2228 24.2354 12.7648ZM13.8802 12.0225C14.9032 12.0225 15.7301 12.8494 15.7301 13.8723C15.7301 14.8953 14.9032 15.7222 13.8802 15.7222C12.8572 15.7222 12.0211 14.8953 12.0211 13.8723C12.0211 12.8494 12.8406 12.0225 13.8635 12.0225H13.8802Z" fill="#FFDB1E"/>
</svg>
