<svg width="18" height="15" viewBox="0 0 18 15" fill="none" xmlns="http://www.w3.org/2000/svg">
<path fill-rule="evenodd" clip-rule="evenodd" d="M12.7275 0C15.4341 0 17.475 2.09 17.475 4.86154V10.1446C17.475 11.5631 16.9451 12.8446 15.9819 13.7538C15.1179 14.5685 13.9971 15 12.7405 15H4.73207C3.47793 15 2.35791 14.5692 1.4931 13.7538C0.52994 12.8446 0 11.5631 0 10.1446V4.86154C0 2.09 2.04092 0 4.74751 0H12.7275ZM12.7275 1.15385H4.74751C2.70334 1.15385 1.21919 2.71308 1.21919 4.86154V10.1446C1.21919 11.2546 1.62233 12.2462 2.35384 12.9362C2.98457 13.5323 3.80792 13.8462 4.73451 13.8462H12.7275C12.7291 13.8446 12.7356 13.8462 12.7405 13.8462C13.6679 13.8462 14.4904 13.5323 15.1212 12.9362C15.8535 12.2462 16.2558 11.2546 16.2558 10.1446V4.86154C16.2558 2.71308 14.7717 1.15385 12.7275 1.15385ZM14.0084 4.71446C14.2206 4.96138 14.1808 5.32446 13.9199 5.526L10.3078 8.30446C9.85102 8.64754 9.30483 8.81908 8.75945 8.81908C8.21569 8.81908 7.67356 8.64908 7.22002 8.30908L3.57465 5.52754C3.31212 5.32754 3.27148 4.96369 3.482 4.716C3.69413 4.46908 4.07777 4.42985 4.33949 4.62908L7.9816 7.40754C8.43921 7.75062 9.08375 7.75062 9.5446 7.40446L13.1501 4.63062C13.4119 4.42831 13.7955 4.46677 14.0084 4.71446Z" fill="#0F3732" fill-opacity="0.4"/>
</svg>
