<svg width="24" height="38" viewBox="0 0 24 38" fill="none" xmlns="http://www.w3.org/2000/svg">
<path d="M12.894 37.2H10.122V33.336C3.234 32.748 0 29.01 0 24.096V23.844H3.024V24.39C3.024 28.422 5.544 30.606 12.138 30.606C17.766 30.606 20.328 29.052 20.328 25.86C20.328 22.71 18.438 21.576 14.322 20.736L8.358 19.602C3.78 18.72 0.126 16.788 0.126 12.126C0.126 8.51398 3.024 4.90197 10.122 4.48197V0.659973H12.894V4.48197C19.824 4.98597 22.932 8.97597 22.932 13.764V14.016H19.908V13.512C19.908 9.43797 17.388 7.25397 11.256 7.25397C5.67 7.25397 3.15 8.84997 3.15 11.916C3.15 15.108 4.998 16.074 9.156 16.956L15.078 18.132C20.118 19.098 23.352 21.24 23.352 25.608C23.352 29.514 20.16 33.168 12.894 33.42V37.2Z" fill="#FFDB1E"/>
</svg>
