<svg width="68" height="52" viewBox="0 0 68 52" fill="none" xmlns="http://www.w3.org/2000/svg">
<path d="M55.7242 44.7015C61.647 44.7015 66.4483 39.8599 66.4483 33.8874C66.4483 27.915 61.647 23.0734 55.7242 23.0734C49.8014 23.0734 45 27.915 45 33.8874C45 39.8599 49.8014 44.7015 55.7242 44.7015Z" fill="#FFF2AC" stroke="black" stroke-width="1.5" stroke-miterlimit="10"/>
<path d="M52.3288 36.4762C53.3446 37.3008 54.6016 37.7649 55.9053 37.7967C57.4062 37.7967 58.2188 37.1182 58.2188 36.1317C58.2188 33.7205 52.1166 34.1485 52.1166 30.7717C52.1166 28.9502 53.6693 27.802 55.9053 27.802C56.5734 27.7811 57.2381 27.9055 57.8543 28.1666C58.4705 28.4278 59.0238 28.8196 59.4765 29.3155L58.6329 30.2654C57.8682 29.5387 56.8524 29.1417 55.8017 29.159C54.513 29.159 53.7314 29.78 53.7314 30.7247C53.7314 32.8593 59.8285 32.4522 59.8285 36.0013C59.8285 37.8645 58.1774 39.1328 55.75 39.1328C54.238 39.105 52.7794 38.5645 51.6094 37.5983L52.3288 36.4762ZM55.2531 25.2811H56.4073V28.4126H55.2531V25.2811ZM56.4073 38.5743V41.9302H55.2531V38.5743H56.4073Z" fill="black"/>
<path d="M26.4395 21.9252C32.2051 21.9252 36.879 17.212 36.879 11.3981C36.879 5.58421 32.2051 0.871094 26.4395 0.871094C20.6739 0.871094 16 5.58421 16 11.3981C16 17.212 20.6739 21.9252 26.4395 21.9252Z" stroke="black" stroke-width="1.5" stroke-miterlimit="10"/>
<path d="M51 44.1998V50.8656H1V35.8587C1 29.8035 5.61333 24.8685 11.2978 24.8685H17.4178" stroke="black" stroke-width="1.5" stroke-miterlimit="10"/>
<path d="M36.2812 24.4564H41.2241C43.5776 24.4484 45.8853 25.1125 47.8801 26.3721" stroke="black" stroke-width="1.5" stroke-miterlimit="10"/>
<path d="M18 24.8685C20.9426 31.9532 26.113 42.8665 26.113 42.8665L36 24.8685" stroke="black" stroke-width="1.5" stroke-miterlimit="10" stroke-linecap="round"/>
</svg>
