<svg width="20" height="21" viewBox="0 0 20 21" fill="none" xmlns="http://www.w3.org/2000/svg">
<path fill-rule="evenodd" clip-rule="evenodd" d="M10.0642 1C7.34537 1 5.12206 3.33401 5.12207 6.18822C5.12208 9.04243 7.34538 11.3764 10.0642 11.3764C12.783 11.3764 14.9982 9.04243 14.9983 6.18822C14.9983 3.33401 12.783 1 10.0642 1ZM10.0638 2.72882C11.8926 2.72882 13.3511 4.26835 13.3511 6.1882C13.3511 8.10808 11.8926 9.64588 10.0638 9.64588C8.23504 9.64588 6.76856 8.10808 6.76855 6.1882C6.76855 4.26835 8.23503 2.72882 10.0638 2.72882ZM9.99821 13.1053C10.021 13.1053 10.0429 13.1053 10.064 13.1053C10.0854 13.1053 10.1076 13.1053 10.1307 13.1053C10.9984 13.1047 13.0807 13.1034 15.0544 13.7941C16.0675 14.1486 17.0709 14.693 17.8431 15.5685C18.6153 16.4441 19.12 17.6658 19.12 19.1545C19.1101 19.6245 18.7443 20 18.2966 20C17.8488 20 17.4831 19.6245 17.4732 19.1545C17.4732 18.05 17.1481 17.3251 16.6337 16.7419C16.1193 16.1587 15.3761 15.7272 14.5365 15.4335C12.8574 14.8467 10.8874 14.8341 10.064 14.8341C9.2406 14.8341 7.269 14.8459 5.58991 15.4335C4.75036 15.7273 4.00072 16.1587 3.48633 16.7419C2.97195 17.3251 2.64683 18.05 2.64683 19.1545C2.6369 19.6245 2.27117 20 1.82342 20C1.37566 20 1.00993 19.6245 1 19.1545C0.999997 17.6658 1.50474 16.4441 2.27694 15.5685C3.04914 14.693 4.05409 14.1486 5.06723 13.7941C7.04164 13.1035 9.13076 13.1047 9.99821 13.1053Z" fill="#174E3D"/>
<path d="M5.12207 6.18822L4.87207 6.18822V6.18822L5.12207 6.18822ZM14.9983 6.18822L15.2483 6.18822V6.18822L14.9983 6.18822ZM13.3511 6.1882L13.6011 6.1882V6.1882L13.3511 6.1882ZM6.76855 6.1882L6.51855 6.1882V6.1882L6.76855 6.1882ZM9.99821 13.1053L9.99806 13.3553H9.99806L9.99821 13.1053ZM10.1307 13.1053L10.1306 12.8553H10.1306L10.1307 13.1053ZM15.0544 13.7941L14.9718 14.0301L14.9718 14.0301L15.0544 13.7941ZM17.8431 15.5685L18.0306 15.4032V15.4032L17.8431 15.5685ZM19.12 19.1545L19.37 19.1598V19.1545H19.12ZM17.4732 19.1545H17.2231L17.2232 19.1598L17.4732 19.1545ZM16.6337 16.7419L16.8212 16.5766V16.5766L16.6337 16.7419ZM14.5365 15.4335L14.6191 15.1975L14.619 15.1975L14.5365 15.4335ZM5.58991 15.4335L5.50734 15.1975L5.58991 15.4335ZM3.48633 16.7419L3.29884 16.5766L3.29884 16.5766L3.48633 16.7419ZM2.64683 19.1545L2.89683 19.1598V19.1545H2.64683ZM1 19.1545H0.749944L0.750056 19.1598L1 19.1545ZM2.27694 15.5685L2.08945 15.4032H2.08945L2.27694 15.5685ZM5.06723 13.7941L4.98469 13.5581L4.98466 13.5581L5.06723 13.7941ZM5.37207 6.18822C5.37206 3.46049 7.49475 1.25 10.0642 1.25V0.75C7.19598 0.75 4.87206 3.20753 4.87207 6.18822L5.37207 6.18822ZM10.0642 11.1264C7.49476 11.1264 5.37208 8.91594 5.37207 6.18822L4.87207 6.18822C4.87208 9.16891 7.196 11.6264 10.0642 11.6264V11.1264ZM14.7483 6.18822C14.7482 8.91648 12.6331 11.1264 10.0642 11.1264V11.6264C12.9329 11.6264 15.2482 9.16837 15.2483 6.18822L14.7483 6.18822ZM10.0642 1.25C12.6331 1.25 14.7483 3.45995 14.7483 6.18822L15.2483 6.18822C15.2483 3.20807 12.9329 0.75 10.0642 0.75V1.25ZM13.6011 6.1882C13.6011 4.14268 12.0428 2.47882 10.0638 2.47882V2.97882C11.7425 2.97882 13.1011 4.39401 13.1011 6.18819L13.6011 6.1882ZM10.0638 9.89588C12.0426 9.89588 13.6011 8.23391 13.6011 6.1882L13.1011 6.18819C13.1011 7.98225 11.7426 9.39588 10.0638 9.39588V9.89588ZM6.51855 6.1882C6.51856 8.23472 8.08582 9.89588 10.0638 9.89588V9.39588C8.38427 9.39588 7.01856 7.98143 7.01855 6.18819L6.51855 6.1882ZM10.0638 2.47882C8.08565 2.47882 6.51855 4.14186 6.51855 6.1882L7.01855 6.18819C7.01855 4.39483 8.38441 2.97882 10.0638 2.97882V2.47882ZM10.064 12.8553C10.043 12.8553 10.0212 12.8553 9.99835 12.8553L9.99806 13.3553C10.0208 13.3553 10.0429 13.3553 10.064 13.3553V12.8553ZM10.1306 12.8553C10.1075 12.8553 10.0853 12.8553 10.064 12.8553V13.3553C10.0855 13.3553 10.1078 13.3553 10.1309 13.3553L10.1306 12.8553ZM15.137 13.5581C13.1189 12.852 10.9978 12.8547 10.1306 12.8553L10.1309 13.3553C10.999 13.3547 13.0424 13.3549 14.9718 14.0301L15.137 13.5581ZM18.0306 15.4032C17.2209 14.4852 16.1752 13.9215 15.1369 13.5581L14.9718 14.0301C15.9598 14.3758 16.9208 14.9008 17.6556 15.7339L18.0306 15.4032ZM19.37 19.1545C19.37 17.6073 18.8446 16.3261 18.0306 15.4032L17.6556 15.7339C18.386 16.562 18.87 17.7244 18.87 19.1545H19.37ZM18.2966 20.25C18.8913 20.25 19.3574 19.7545 19.3699 19.1598L18.8701 19.1493C18.8628 19.4944 18.5974 19.75 18.2966 19.75V20.25ZM17.2232 19.1598C17.2358 19.7545 17.7019 20.25 18.2966 20.25V19.75C17.9958 19.75 17.7304 19.4944 17.7231 19.1493L17.2232 19.1598ZM16.4462 16.9073C16.9189 17.4433 17.2232 18.1088 17.2232 19.1545H17.7232C17.7232 17.9912 17.3772 17.207 16.8212 16.5766L16.4462 16.9073ZM14.454 15.6695C15.2681 15.9543 15.9691 16.3663 16.4462 16.9073L16.8212 16.5766C16.2695 15.9511 15.4841 15.5001 14.6191 15.1975L14.454 15.6695ZM10.064 15.0841C10.8895 15.0841 12.8198 15.0984 14.4541 15.6695L14.619 15.1975C12.8951 14.5951 10.8854 14.5841 10.064 14.5841V15.0841ZM5.67248 15.6694C7.30662 15.0976 9.23838 15.0841 10.064 15.0841V14.5841C9.24281 14.5841 7.23138 14.5942 5.50734 15.1975L5.67248 15.6694ZM3.67382 16.9073C4.15055 16.3668 4.8576 15.9546 5.67248 15.6694L5.50734 15.1975C4.64311 15.4999 3.85088 15.9507 3.29884 16.5766L3.67382 16.9073ZM2.89683 19.1545C2.89683 18.1088 3.20112 17.4433 3.67383 16.9073L3.29884 16.5766C2.74278 17.207 2.39683 17.9912 2.39683 19.1545H2.89683ZM1.82342 20.25C2.41814 20.25 2.88421 19.7545 2.89678 19.1598L2.39689 19.1493C2.3896 19.4944 2.12421 19.75 1.82342 19.75V20.25ZM0.750056 19.1598C0.762621 19.7545 1.2287 20.25 1.82342 20.25V19.75C1.52263 19.75 1.25724 19.4944 1.24994 19.1493L0.750056 19.1598ZM2.08945 15.4032C1.27544 16.3261 0.749996 17.6073 0.75 19.1545H1.25C1.25 17.7244 1.73403 16.562 2.46443 15.7339L2.08945 15.4032ZM4.98466 13.5581C3.94652 13.9214 2.89915 14.4851 2.08945 15.4032L2.46443 15.7339C3.19914 14.9009 4.16165 14.3759 5.1498 14.0301L4.98466 13.5581ZM9.99835 12.8553C9.13141 12.8547 7.00346 12.852 4.98469 13.5581L5.14977 14.0301C7.07982 13.355 9.13011 13.3547 9.99806 13.3553L9.99835 12.8553Z" fill="#174E3D"/>
</svg>
