<svg xmlns="http://www.w3.org/2000/svg" xmlns:xlink="http://www.w3.org/1999/xlink" width="50" zoomAndPan="magnify" viewBox="0 0 37.5 36.000001" height="48" preserveAspectRatio="xMidYMid meet" version="1.0"><defs><clipPath id="b19c669046"><path d="M 0.949219 1 L 35 1 L 35 35 L 0.949219 35 Z M 0.949219 1 " clip-rule="nonzero"/></clipPath><clipPath id="1b4a1c50de"><path d="M 16 0 L 35.976562 0 L 35.976562 20 L 16 20 Z M 16 0 " clip-rule="nonzero"/></clipPath><clipPath id="f3577fd23f"><path d="M 16.539062 11 L 25 11 L 25 20.433594 L 16.539062 20.433594 Z M 16.539062 11 " clip-rule="nonzero"/></clipPath><clipPath id="14f3aab7bd"><path d="M 16.539062 6 L 30 6 L 30 20.433594 L 16.539062 20.433594 Z M 16.539062 6 " clip-rule="nonzero"/></clipPath><clipPath id="38a3bd513b"><path d="M 16.539062 1 L 35 1 L 35 20.433594 L 16.539062 20.433594 Z M 16.539062 1 " clip-rule="nonzero"/></clipPath><clipPath id="d2a83681fa"><path d="M 16.539062 0 L 35.976562 0 L 35.976562 20 L 16.539062 20 Z M 16.539062 0 " clip-rule="nonzero"/></clipPath></defs><path fill="#012d50" d="M 17.808594 13.292969 C 18.328125 13.292969 18.753906 12.867188 18.753906 12.34375 C 18.753906 11.824219 18.328125 11.398438 17.808594 11.398438 C 14.09375 11.398438 11.070312 14.417969 11.070312 18.132812 C 11.070312 21.847656 14.09375 24.867188 17.808594 24.867188 C 21.519531 24.867188 24.542969 21.847656 24.542969 18.132812 C 24.542969 17.609375 24.117188 17.1875 23.59375 17.1875 C 23.074219 17.1875 22.648438 17.609375 22.648438 18.132812 C 22.648438 20.804688 20.476562 22.976562 17.808594 22.976562 C 15.136719 22.976562 12.964844 20.804688 12.964844 18.132812 C 12.964844 15.464844 15.136719 13.292969 17.808594 13.292969 " fill-opacity="1" fill-rule="nonzero"/><path fill="#012d50" d="M 17.808594 6.542969 C 11.414062 6.542969 6.214844 11.742188 6.214844 18.132812 C 6.214844 24.523438 11.414062 29.726562 17.808594 29.726562 C 24.199219 29.726562 29.398438 24.523438 29.398438 18.132812 C 29.398438 17.609375 28.972656 17.1875 28.449219 17.1875 C 27.929688 17.1875 27.503906 17.609375 27.503906 18.132812 C 27.503906 23.480469 23.152344 27.832031 17.808594 27.832031 C 12.460938 27.832031 8.109375 23.480469 8.109375 18.132812 C 8.109375 12.785156 12.460938 8.4375 17.808594 8.4375 C 18.328125 8.4375 18.753906 8.011719 18.753906 7.488281 C 18.753906 6.964844 18.328125 6.542969 17.808594 6.542969 " fill-opacity="1" fill-rule="nonzero"/><g clip-path="url(#b19c669046)"><path fill="#012d50" d="M 33.722656 17.1875 C 33.199219 17.1875 32.777344 17.609375 32.777344 18.132812 C 32.777344 26.386719 26.0625 33.105469 17.808594 33.105469 C 9.550781 33.105469 2.835938 26.386719 2.835938 18.132812 C 2.835938 9.878906 9.550781 3.164062 17.808594 3.164062 C 18.328125 3.164062 18.753906 2.742188 18.753906 2.21875 C 18.753906 1.695312 18.328125 1.269531 17.808594 1.269531 C 8.507812 1.269531 0.945312 8.835938 0.945312 18.132812 C 0.945312 27.433594 8.507812 34.996094 17.808594 34.996094 C 27.105469 34.996094 34.667969 27.433594 34.667969 18.132812 C 34.667969 17.609375 34.246094 17.1875 33.722656 17.1875 " fill-opacity="1" fill-rule="nonzero"/></g><g clip-path="url(#1b4a1c50de)"><path fill="#012d50" d="M 30.117188 9.917969 L 28 9.410156 L 31.066406 6.34375 L 33.183594 6.851562 Z M 26.152344 5.957031 L 29.21875 2.890625 L 29.699219 4.902344 L 26.632812 7.96875 Z M 35.957031 6.066406 C 35.867188 5.738281 35.601562 5.484375 35.265625 5.402344 L 31.554688 4.515625 L 30.667969 0.804688 C 30.589844 0.46875 30.335938 0.207031 30.007812 0.113281 C 29.671875 0.0234375 29.320312 0.113281 29.078125 0.351562 L 24.441406 4.992188 C 24.207031 5.222656 24.113281 5.5625 24.1875 5.882812 L 25.0625 9.539062 L 17.136719 17.464844 C 16.769531 17.832031 16.769531 18.433594 17.136719 18.800781 C 17.324219 18.988281 17.5625 19.078125 17.808594 19.078125 C 18.050781 19.078125 18.289062 18.988281 18.476562 18.800781 L 26.320312 10.957031 L 30.191406 11.882812 C 30.261719 11.898438 30.339844 11.90625 30.410156 11.90625 C 30.660156 11.90625 30.902344 11.8125 31.078125 11.628906 L 35.714844 6.992188 C 35.960938 6.75 36.050781 6.394531 35.957031 6.066406 " fill-opacity="1" fill-rule="nonzero"/></g><g clip-path="url(#f3577fd23f)"><path fill="#4beddb" d="M 17.808594 13.292969 C 18.328125 13.292969 18.753906 12.867188 18.753906 12.34375 C 18.753906 11.824219 18.328125 11.398438 17.808594 11.398438 C 14.09375 11.398438 11.070312 14.417969 11.070312 18.132812 C 11.070312 21.847656 14.09375 24.867188 17.808594 24.867188 C 21.519531 24.867188 24.542969 21.847656 24.542969 18.132812 C 24.542969 17.609375 24.117188 17.1875 23.59375 17.1875 C 23.074219 17.1875 22.648438 17.609375 22.648438 18.132812 C 22.648438 20.804688 20.476562 22.976562 17.808594 22.976562 C 15.136719 22.976562 12.964844 20.804688 12.964844 18.132812 C 12.964844 15.464844 15.136719 13.292969 17.808594 13.292969 " fill-opacity="1" fill-rule="nonzero"/></g><g clip-path="url(#14f3aab7bd)"><path fill="#4beddb" d="M 17.808594 6.542969 C 11.414062 6.542969 6.214844 11.742188 6.214844 18.132812 C 6.214844 24.523438 11.414062 29.726562 17.808594 29.726562 C 24.199219 29.726562 29.398438 24.523438 29.398438 18.132812 C 29.398438 17.609375 28.972656 17.1875 28.449219 17.1875 C 27.929688 17.1875 27.503906 17.609375 27.503906 18.132812 C 27.503906 23.480469 23.152344 27.832031 17.808594 27.832031 C 12.460938 27.832031 8.109375 23.480469 8.109375 18.132812 C 8.109375 12.785156 12.460938 8.4375 17.808594 8.4375 C 18.328125 8.4375 18.753906 8.011719 18.753906 7.488281 C 18.753906 6.964844 18.328125 6.542969 17.808594 6.542969 " fill-opacity="1" fill-rule="nonzero"/></g><g clip-path="url(#38a3bd513b)"><path fill="#4beddb" d="M 33.722656 17.1875 C 33.199219 17.1875 32.777344 17.609375 32.777344 18.132812 C 32.777344 26.386719 26.0625 33.105469 17.808594 33.105469 C 9.550781 33.105469 2.835938 26.386719 2.835938 18.132812 C 2.835938 9.878906 9.550781 3.164062 17.808594 3.164062 C 18.328125 3.164062 18.753906 2.742188 18.753906 2.21875 C 18.753906 1.695312 18.328125 1.269531 17.808594 1.269531 C 8.507812 1.269531 0.945312 8.835938 0.945312 18.132812 C 0.945312 27.433594 8.507812 34.996094 17.808594 34.996094 C 27.105469 34.996094 34.667969 27.433594 34.667969 18.132812 C 34.667969 17.609375 34.246094 17.1875 33.722656 17.1875 " fill-opacity="1" fill-rule="nonzero"/></g><g clip-path="url(#d2a83681fa)"><path fill="#4beddb" d="M 30.117188 9.917969 L 28 9.410156 L 31.066406 6.34375 L 33.183594 6.851562 Z M 26.152344 5.957031 L 29.21875 2.890625 L 29.699219 4.902344 L 26.632812 7.96875 Z M 35.957031 6.066406 C 35.867188 5.738281 35.601562 5.484375 35.265625 5.402344 L 31.554688 4.515625 L 30.667969 0.804688 C 30.589844 0.46875 30.335938 0.207031 30.007812 0.113281 C 29.671875 0.0234375 29.320312 0.113281 29.078125 0.351562 L 24.441406 4.992188 C 24.207031 5.222656 24.113281 5.5625 24.1875 5.882812 L 25.0625 9.539062 L 17.136719 17.464844 C 16.769531 17.832031 16.769531 18.433594 17.136719 18.800781 C 17.324219 18.988281 17.5625 19.078125 17.808594 19.078125 C 18.050781 19.078125 18.289062 18.988281 18.476562 18.800781 L 26.320312 10.957031 L 30.191406 11.882812 C 30.261719 11.898438 30.339844 11.90625 30.410156 11.90625 C 30.660156 11.90625 30.902344 11.8125 31.078125 11.628906 L 35.714844 6.992188 C 35.960938 6.75 36.050781 6.394531 35.957031 6.066406 " fill-opacity="1" fill-rule="nonzero"/></g></svg>