<svg width="23" height="29" viewBox="0 0 23 29" fill="none" xmlns="http://www.w3.org/2000/svg">
<path d="M17.6148 10.1594C14.743 8.33286 10.1338 5.39993 2.98449 0.847879C2.50248 0.485895 1.94791 0.438458 1.46875 0.622881L13.7349 14.5713L17.6148 10.1594Z" fill="#32BBFF"/>
<path d="M1.46779 0.622559C1.37798 0.657148 1.29059 0.698875 1.20701 0.749277C0.677882 1.07475 0.289062 1.70104 0.289062 2.49314V26.6488C0.289062 27.4409 0.677834 28.0672 1.20701 28.3926C1.29044 28.4429 1.37779 28.4848 1.4675 28.5196L13.734 14.571L1.46779 0.622559Z" fill="#32BBFF"/>
<path d="M13.7333 14.5713L1.4668 28.52C1.9461 28.7058 2.50067 28.662 2.98282 28.2947C9.91611 23.8799 14.4734 20.9817 17.3784 19.1396C17.4592 19.088 17.5385 19.0375 17.6168 18.9875L13.7333 14.5713Z" fill="#32BBFF"/>
<path d="M0.263672 15.1348V26.8182C0.263672 27.5845 0.654589 28.1903 1.18669 28.5051C1.27058 28.5538 1.35841 28.5943 1.44861 28.628L13.7828 15.1348H0.263672Z" fill="#2C9FD9"/>
<path d="M3.00603 0.856206C2.43332 0.415821 1.75795 0.428366 1.22852 0.755561L13.5763 15.1348L17.6446 10.3972C14.7713 8.52569 10.1594 5.52047 3.00603 0.856206Z" fill="#29CC5E"/>
<path d="M13.5736 14.0103L1.22852 28.3873C1.75787 28.7144 2.43305 28.7333 3.00563 28.2867C9.94128 23.7637 14.5001 20.7945 17.4061 18.9073C17.487 18.8544 17.5663 18.8026 17.6446 18.7514L13.5736 14.0103Z" fill="#D93F21"/>
<path d="M22.4729 15.1323C22.4729 14.473 22.167 13.8077 21.5606 13.4387C21.5606 13.4387 20.4266 12.7507 16.9508 10.6367L12.8164 15.1323L16.9548 19.6322C20.3925 17.5334 21.5606 16.8258 21.5606 16.8258C22.167 16.4569 22.4729 15.7915 22.4729 15.1323Z" fill="#FFD500"/>
<path d="M21.5606 16.8275C22.167 16.4587 22.4729 15.7937 22.4729 15.1348H12.8164L16.9548 19.6325C20.3926 17.5348 21.5606 16.8275 21.5606 16.8275Z" fill="#FFAA00"/>
</svg>
