<svg xmlns="http://www.w3.org/2000/svg" xmlns:xlink="http://www.w3.org/1999/xlink" width="50" zoomAndPan="magnify" viewBox="0 0 37.5 36.000001" height="48" preserveAspectRatio="xMidYMid meet" version="1.0"><defs><clipPath id="b0c8274ff3"><path d="M 0.992188 0 L 36.019531 0 L 36.019531 35.027344 L 0.992188 35.027344 Z M 0.992188 0 " clip-rule="nonzero"/></clipPath></defs><g clip-path="url(#b0c8274ff3)"><path fill="#012d50" d="M 33.773438 17.511719 C 33.773438 25.929688 26.925781 32.78125 18.507812 32.78125 C 10.089844 32.78125 3.242188 25.929688 3.242188 17.511719 C 3.242188 9.09375 10.089844 2.246094 18.507812 2.246094 C 26.925781 2.246094 33.773438 9.09375 33.773438 17.511719 Z M 34.644531 10.695312 C 33.761719 8.609375 32.5 6.738281 30.890625 5.128906 C 29.28125 3.519531 27.410156 2.257812 25.324219 1.375 C 23.164062 0.464844 20.871094 0 18.507812 0 C 16.144531 0 13.847656 0.464844 11.6875 1.375 C 9.605469 2.257812 7.730469 3.519531 6.121094 5.128906 C 4.515625 6.738281 3.253906 8.609375 2.371094 10.695312 C 1.457031 12.855469 0.992188 15.148438 0.992188 17.511719 C 0.992188 19.878906 1.457031 22.171875 2.371094 24.332031 C 3.253906 26.417969 4.515625 28.289062 6.121094 29.898438 C 7.730469 31.503906 9.605469 32.769531 11.6875 33.648438 C 13.847656 34.5625 16.144531 35.027344 18.507812 35.027344 C 20.871094 35.027344 23.164062 34.5625 25.324219 33.648438 C 27.410156 32.769531 29.28125 31.503906 30.890625 29.898438 C 32.5 28.289062 33.761719 26.417969 34.644531 24.332031 C 35.558594 22.171875 36.019531 19.878906 36.019531 17.511719 C 36.019531 15.148438 35.558594 12.855469 34.644531 10.695312 " fill-opacity="1" fill-rule="nonzero"/></g><path fill="#012d50" d="M 18.507812 28.609375 C 15.542969 28.609375 12.753906 27.457031 10.660156 25.359375 C 8.5625 23.265625 7.410156 20.476562 7.410156 17.511719 C 7.410156 14.550781 8.5625 11.761719 10.660156 9.667969 C 12.753906 7.570312 15.542969 6.417969 18.507812 6.417969 C 21.472656 6.417969 24.257812 7.570312 26.355469 9.667969 C 28.449219 11.761719 29.605469 14.550781 29.605469 17.511719 C 29.605469 20.476562 28.449219 23.265625 26.355469 25.359375 C 24.257812 27.457031 21.472656 28.609375 18.507812 28.609375 Z M 27.824219 8.195312 C 25.335938 5.707031 22.027344 4.335938 18.507812 4.335938 C 14.988281 4.335938 11.675781 5.707031 9.1875 8.195312 C 6.699219 10.683594 5.328125 13.992188 5.328125 17.511719 C 5.328125 21.035156 6.699219 24.34375 9.1875 26.832031 C 11.675781 29.320312 14.988281 30.691406 18.507812 30.691406 C 22.027344 30.691406 25.335938 29.320312 27.824219 26.832031 C 30.316406 24.34375 31.683594 21.035156 31.683594 17.511719 C 31.683594 13.992188 30.316406 10.683594 27.824219 8.195312 " fill-opacity="1" fill-rule="nonzero"/><path fill="#4beddb" d="M 19.097656 16.921875 L 19.097656 12.648438 C 20.1875 12.773438 21.175781 13.25 21.972656 14.046875 C 22.769531 14.847656 23.246094 15.832031 23.375 16.921875 Z M 21.972656 20.980469 C 21.175781 21.777344 20.1875 22.253906 19.097656 22.378906 L 19.097656 18.105469 L 23.375 18.105469 C 23.246094 19.195312 22.769531 20.179688 21.972656 20.980469 Z M 15.042969 20.980469 C 14.242188 20.179688 13.765625 19.195312 13.640625 18.105469 L 17.917969 18.105469 L 17.917969 22.378906 C 16.824219 22.253906 15.839844 21.777344 15.042969 20.980469 Z M 15.042969 14.046875 C 15.839844 13.25 16.824219 12.773438 17.917969 12.648438 L 17.917969 16.921875 L 13.640625 16.921875 C 13.765625 15.832031 14.242188 14.847656 15.042969 14.046875 Z M 26.765625 16.921875 L 24.5625 16.921875 C 24.429688 15.511719 23.832031 14.238281 22.808594 13.214844 C 21.78125 12.1875 20.507812 11.589844 19.097656 11.460938 L 19.097656 9.257812 C 19.097656 8.929688 18.832031 8.664062 18.507812 8.664062 C 18.179688 8.664062 17.917969 8.929688 17.917969 9.257812 L 17.917969 11.460938 C 16.503906 11.589844 15.230469 12.1875 14.207031 13.214844 C 13.183594 14.238281 12.582031 15.511719 12.453125 16.921875 L 10.25 16.921875 C 9.921875 16.921875 9.660156 17.1875 9.660156 17.511719 C 9.660156 17.839844 9.921875 18.105469 10.25 18.105469 L 12.453125 18.105469 C 12.582031 19.515625 13.183594 20.789062 14.207031 21.8125 C 15.230469 22.839844 16.503906 23.4375 17.917969 23.566406 L 17.917969 25.769531 C 17.917969 26.097656 18.179688 26.363281 18.507812 26.363281 C 18.832031 26.363281 19.097656 26.097656 19.097656 25.769531 L 19.097656 23.566406 C 20.507812 23.4375 21.78125 22.835938 22.808594 21.8125 C 23.832031 20.789062 24.429688 19.515625 24.5625 18.105469 L 26.765625 18.105469 C 27.089844 18.105469 27.355469 17.839844 27.355469 17.511719 C 27.355469 17.1875 27.089844 16.921875 26.765625 16.921875 " fill-opacity="1" fill-rule="nonzero"/></svg>