<svg width="88" height="22" viewBox="0 0 88 22" fill="none" xmlns="http://www.w3.org/2000/svg">
<path d="M0.267578 21V0.531969H8.41558C12.4476 0.531969 14.9116 2.63197 14.9116 6.04797C14.9116 8.31597 13.9036 9.93997 11.9716 10.752C14.1276 11.452 15.2196 13.076 15.2196 15.456C15.2196 18.956 12.7836 21 8.55558 21H0.267578ZM8.10758 3.69597H3.85158V9.26797H8.19158C10.1516 9.26797 11.2436 8.23197 11.2436 6.41197C11.2436 4.64797 10.1236 3.69597 8.10758 3.69597ZM8.41558 12.292H3.85158V17.836H8.41558C10.4316 17.836 11.5516 16.856 11.5516 15.008C11.5516 13.272 10.4036 12.292 8.41558 12.292Z" fill="white"/>
<path d="M22.1179 21.364C19.1779 21.364 17.3859 19.656 17.3859 17.052C17.3859 14.504 19.2339 12.908 22.5099 12.656L26.6539 12.348V12.04C26.6539 10.164 25.5339 9.40797 23.7979 9.40797C21.7819 9.40797 20.6619 10.248 20.6619 11.704H17.7499C17.7499 8.70797 20.2139 6.74797 23.9659 6.74797C27.6899 6.74797 29.9859 8.76397 29.9859 12.6V21H26.9899L26.7379 18.956C26.1499 20.384 24.2739 21.364 22.1179 21.364ZM23.2379 18.788C25.3379 18.788 26.6819 17.528 26.6819 15.4V14.672L23.7979 14.896C21.6699 15.092 20.8579 15.792 20.8579 16.912C20.8579 18.172 21.6979 18.788 23.2379 18.788Z" fill="white"/>
<path d="M36.5057 21H33.3417V0.167969H36.7577V9.18397C37.6537 7.64397 39.5017 6.71997 41.6017 6.71997C45.5497 6.71997 47.9577 9.79997 47.9577 14.168C47.9577 18.424 45.3537 21.364 41.3777 21.364C39.3057 21.364 37.5417 20.44 36.7297 18.844L36.5057 21ZM36.7857 14.028C36.7857 16.52 38.3257 18.228 40.6777 18.228C43.0857 18.228 44.5137 16.492 44.5137 14.028C44.5137 11.564 43.0857 9.79997 40.6777 9.79997C38.3257 9.79997 36.7857 11.536 36.7857 14.028Z" fill="white"/>
<path d="M59.7295 7.16797H63.1455V21H59.9815L59.7295 19.152C58.8895 20.468 57.0975 21.364 55.2495 21.364C52.0575 21.364 50.1815 19.208 50.1815 15.82V7.16797H53.5975V14.616C53.5975 17.248 54.6335 18.312 56.5375 18.312C58.6935 18.312 59.7295 17.052 59.7295 14.42V7.16797Z" fill="white"/>
<path d="M70.0897 21H66.6737V7.16797H69.8377L70.1177 8.95997C70.9857 7.55997 72.6657 6.74797 74.5417 6.74797C78.0137 6.74797 79.8057 8.90397 79.8057 12.488V21H76.3897V13.3C76.3897 10.976 75.2417 9.85597 73.4777 9.85597C71.3777 9.85597 70.0897 11.312 70.0897 13.552V21Z" fill="white"/>
<path d="M85.458 21.336C84.226 21.336 83.19 20.328 83.19 19.124C83.19 17.892 84.226 16.884 85.458 16.884C86.69 16.884 87.726 17.892 87.726 19.124C87.726 20.328 86.69 21.336 85.458 21.336Z" fill="white"/>
</svg>
