<svg width="149" height="28" viewBox="0 0 149 28" fill="none" xmlns="http://www.w3.org/2000/svg">
<path d="M54.4466 25.1112V1.62115H63.4166C65.6966 1.62115 67.5266 2.16115 68.9066 3.27115C70.2866 4.38115 70.9766 5.88115 70.9766 7.80115C70.9766 8.31115 70.8866 8.85115 70.7366 9.42115C70.4066 10.5012 69.2966 12.1212 67.5866 12.8712C69.2066 13.3812 70.3466 14.1912 71.0366 15.2412C71.7266 16.2912 72.0566 17.4012 72.0566 18.5412C72.0566 22.5012 69.1466 25.1112 63.7166 25.1112H54.4466ZM58.1066 4.95115V11.5512H62.7266C65.7566 11.5512 67.2866 10.1412 67.2866 8.19115C67.2866 6.24115 65.9366 4.95115 62.9366 4.95115H58.1066ZM58.1066 14.7912V21.7812H63.7766C66.7466 21.7812 68.3666 20.3712 68.3666 18.2412C68.3666 16.2012 66.7766 14.7912 63.5366 14.7912H58.1066Z" fill="#0A4020"/>
<path d="M83.5278 14.2512C83.5278 12.9312 82.3878 11.8512 80.3778 11.8512C78.5478 11.8512 77.1978 12.6912 76.3878 14.4012L73.6578 12.8412C74.9178 10.1112 77.1978 8.76115 80.4678 8.76115C83.4678 8.76115 85.4778 9.84115 86.4678 12.0312C86.8278 12.8412 87.0078 13.8012 87.0078 14.9112V25.1112H83.4978V22.9212C82.5078 24.5712 80.9478 25.3812 78.7878 25.3812C77.2278 25.3812 75.9378 24.9312 74.9178 24.0612C73.8978 23.1912 73.3878 22.0512 73.3878 20.6712V20.4912C73.3878 16.7712 77.2278 15.6012 80.0478 15.6012H82.0278C83.0178 15.6012 83.5278 15.1512 83.5278 14.2512ZM83.4978 18.6312V18.1212H80.0478C79.2978 18.1212 78.5778 18.3312 77.9178 18.7212C77.2878 19.1112 76.9578 19.6512 76.9578 20.3412C76.9578 21.6612 77.9778 22.5312 79.5078 22.5312C81.9378 22.5312 83.4978 21.0312 83.4978 18.6312Z" fill="#0A4020"/>
<path d="M106.844 17.0412C106.844 19.2912 106.094 21.2412 104.594 22.8912C103.094 24.5412 101.204 25.3512 98.8937 25.3512C97.9937 25.3512 97.0037 25.1112 95.9537 24.6312C94.9037 24.1512 94.1237 23.4912 93.6137 22.6512V25.1112H90.1337V0.691152H93.7037V11.4612C94.2137 10.6212 94.9637 9.96115 96.0137 9.51115C97.0637 9.03115 98.0537 8.79115 98.9837 8.79115C101.324 8.79115 103.214 9.63115 104.654 11.3112C106.124 12.9912 106.844 14.9112 106.844 17.0412ZM94.9637 13.4712C94.0937 14.4612 93.6437 15.6612 93.6437 17.0712C93.6437 18.4812 94.0937 19.6812 94.9637 20.6712C95.8637 21.6312 97.0337 22.1112 98.4437 22.1112C99.8537 22.1112 101.024 21.6312 101.894 20.6712C102.794 19.6812 103.244 18.4812 103.244 17.0712C103.244 15.6612 102.794 14.4612 101.894 13.4712C101.024 12.4812 99.8537 12.0012 98.4437 12.0012C97.0337 12.0012 95.8637 12.4812 94.9637 13.4712Z" fill="#0A4020"/>
<path d="M108.874 9.09115H112.444V18.0612C112.444 20.4612 113.614 22.0512 115.984 22.0512C118.234 22.0512 119.674 20.4312 119.674 18.0012V9.09115H123.244V25.1112H119.764V22.9512C118.534 24.6012 116.914 25.4412 114.874 25.4412C111.004 25.4412 108.874 22.7712 108.874 18.9312V9.09115Z" fill="#0A4020"/>
<path d="M140.908 25.1112H137.338V16.1412C137.338 13.7412 136.168 12.1512 133.798 12.1512C131.548 12.1512 130.108 13.7712 130.108 16.2012V25.1112H126.538V9.09115H130.018V11.2512C131.248 9.60115 132.868 8.76115 134.908 8.76115C138.838 8.76115 140.908 11.4012 140.908 15.2412V25.1112Z" fill="#0A4020"/>
<path d="M143.392 22.6512C143.392 21.1812 144.562 20.0112 146.002 20.0112C147.472 20.0112 148.612 21.1812 148.612 22.6512C148.612 24.0912 147.442 25.2612 146.002 25.2612C144.562 25.2612 143.392 24.0612 143.392 22.6512Z" fill="#0A4020"/>
<path d="M3.18388 5.47849C-1.52321 10.8999 -0.944074 19.1105 4.47726 23.8175C9.89868 28.5246 18.1092 27.9455 22.8163 22.5241C27.5234 17.1027 26.9443 8.89219 21.5229 4.1851C16.1016 -0.521919 7.89096 0.0570755 3.18388 5.47849Z" fill="#CFFF45"/>
<path d="M24.3361 0.304616C23.9384 0.391088 23.8386 0.897931 24.1459 1.16476C31.2353 7.32006 31.9926 18.0571 25.8372 25.1465C25.5704 25.4539 25.7405 25.9416 26.1463 25.9714C30.0957 26.2612 34.1279 24.7494 36.9238 21.5292C41.6308 16.1079 41.0518 7.89729 35.6304 3.1902C32.4102 0.394327 28.2057 -0.536626 24.3361 0.304616Z" fill="#497577"/>
</svg>
