<svg width="149" height="28" viewBox="0 0 149 28" fill="none" xmlns="http://www.w3.org/2000/svg">
<path d="M54.3496 26V2.50999H63.3196C65.5996 2.50999 67.4296 3.04999 68.8096 4.15999C70.1896 5.26999 70.8796 6.76999 70.8796 8.68999C70.8796 9.19999 70.7896 9.73999 70.6396 10.31C70.3096 11.39 69.1996 13.01 67.4896 13.76C69.1096 14.27 70.2496 15.08 70.9396 16.13C71.6296 17.18 71.9596 18.29 71.9596 19.43C71.9596 23.39 69.0496 26 63.6196 26H54.3496ZM58.0096 5.83999V12.44H62.6296C65.6596 12.44 67.1896 11.03 67.1896 9.07999C67.1896 7.12999 65.8396 5.83999 62.8396 5.83999H58.0096ZM58.0096 15.68V22.67H63.6796C66.6496 22.67 68.2696 21.26 68.2696 19.13C68.2696 17.09 66.6796 15.68 63.4396 15.68H58.0096Z" fill="black"/>
<path d="M83.4309 15.14C83.4309 13.82 82.2909 12.74 80.2809 12.74C78.4509 12.74 77.1009 13.58 76.2909 15.29L73.5609 13.73C74.8209 11 77.1009 9.64999 80.3709 9.64999C83.3709 9.64999 85.3809 10.73 86.3709 12.92C86.7309 13.73 86.9109 14.69 86.9109 15.8V26H83.4009V23.81C82.4109 25.46 80.8509 26.27 78.6909 26.27C77.1309 26.27 75.8409 25.82 74.8209 24.95C73.8009 24.08 73.2909 22.94 73.2909 21.56V21.38C73.2909 17.66 77.1309 16.49 79.9509 16.49H81.9309C82.9209 16.49 83.4309 16.04 83.4309 15.14ZM83.4009 19.52V19.01H79.9509C79.2009 19.01 78.4809 19.22 77.8209 19.61C77.1909 20 76.8609 20.54 76.8609 21.23C76.8609 22.55 77.8809 23.42 79.4109 23.42C81.8409 23.42 83.4009 21.92 83.4009 19.52Z" fill="black"/>
<path d="M106.747 17.93C106.747 20.18 105.997 22.13 104.497 23.78C102.997 25.43 101.107 26.24 98.7967 26.24C97.8967 26.24 96.9067 26 95.8567 25.52C94.8067 25.04 94.0267 24.38 93.5167 23.54V26H90.0367V1.57999H93.6067V12.35C94.1167 11.51 94.8667 10.85 95.9167 10.4C96.9667 9.91999 97.9567 9.67999 98.8867 9.67999C101.227 9.67999 103.117 10.52 104.557 12.2C106.027 13.88 106.747 15.8 106.747 17.93ZM94.8667 14.36C93.9967 15.35 93.5467 16.55 93.5467 17.96C93.5467 19.37 93.9967 20.57 94.8667 21.56C95.7667 22.52 96.9367 23 98.3467 23C99.7567 23 100.927 22.52 101.797 21.56C102.697 20.57 103.147 19.37 103.147 17.96C103.147 16.55 102.697 15.35 101.797 14.36C100.927 13.37 99.7567 12.89 98.3467 12.89C96.9367 12.89 95.7667 13.37 94.8667 14.36Z" fill="black"/>
<path d="M108.777 9.97999H112.347V18.95C112.347 21.35 113.517 22.94 115.887 22.94C118.137 22.94 119.577 21.32 119.577 18.89V9.97999H123.147V26H119.667V23.84C118.437 25.49 116.817 26.33 114.777 26.33C110.907 26.33 108.777 23.66 108.777 19.82V9.97999Z" fill="black"/>
<path d="M140.811 26H137.241V17.03C137.241 14.63 136.071 13.04 133.701 13.04C131.451 13.04 130.011 14.66 130.011 17.09V26H126.441V9.97999H129.921V12.14C131.151 10.49 132.771 9.64999 134.811 9.64999C138.741 9.64999 140.811 12.29 140.811 16.13V26Z" fill="black"/>
<path d="M143.295 23.54C143.295 22.07 144.465 20.9 145.905 20.9C147.375 20.9 148.515 22.07 148.515 23.54C148.515 24.98 147.345 26.15 145.905 26.15C144.465 26.15 143.295 24.95 143.295 23.54Z" fill="black"/>
<path d="M3.18388 6.36186C-1.52321 11.7827 -0.944074 19.9924 4.47727 24.6989C9.89868 29.4054 18.1092 28.8264 22.8163 23.4056C27.5234 17.9848 26.9443 9.77518 21.5229 5.06861C16.1016 0.362111 7.89096 0.941042 3.18388 6.36186Z" fill="#FFDB1E"/>
<path d="M24.3361 1.18855C23.9384 1.27502 23.8386 1.7818 24.1459 2.0486C31.2353 8.20322 31.9926 18.9391 25.8372 26.0277C25.5704 26.335 25.7405 26.8227 26.1463 26.8525C30.0957 27.1423 34.1279 25.6306 36.9238 22.4108C41.6308 16.9901 41.0518 8.78039 35.6304 4.07382C32.4102 1.27826 28.2057 0.347406 24.3361 1.18855Z" fill="#186560"/>
</svg>
