<svg width="150" height="29" viewBox="0 0 150 29" fill="none" xmlns="http://www.w3.org/2000/svg">
<mask id="mask0_12_20" style="mask-type:alpha" maskUnits="userSpaceOnUse" x="0" y="0" width="150" height="29">
<rect width="150" height="29" fill="#D9D9D9"/>
</mask>
<g mask="url(#mask0_12_20)">
<path d="M54.6887 26V2.50999H63.6587C65.9387 2.50999 67.7687 3.04999 69.1487 4.15999C70.5287 5.26999 71.2187 6.76999 71.2187 8.68999C71.2187 9.19999 71.1287 9.73999 70.9787 10.31C70.6487 11.39 69.5387 13.01 67.8287 13.76C69.4487 14.27 70.5887 15.08 71.2787 16.13C71.9687 17.18 72.2987 18.29 72.2987 19.43C72.2987 23.39 69.3887 26 63.9587 26H54.6887ZM58.3487 5.83999V12.44H62.9687C65.9987 12.44 67.5287 11.03 67.5287 9.07999C67.5287 7.12999 66.1787 5.83999 63.1787 5.83999H58.3487ZM58.3487 15.68V22.67H64.0187C66.9887 22.67 68.6087 21.26 68.6087 19.13C68.6087 17.09 67.0187 15.68 63.7787 15.68H58.3487Z" fill="white"/>
<path d="M83.77 15.14C83.77 13.82 82.63 12.74 80.62 12.74C78.79 12.74 77.44 13.58 76.63 15.29L73.9 13.73C75.16 11 77.44 9.64999 80.71 9.64999C83.71 9.64999 85.72 10.73 86.71 12.92C87.07 13.73 87.25 14.69 87.25 15.8V26H83.74V23.81C82.75 25.46 81.19 26.27 79.03 26.27C77.47 26.27 76.18 25.82 75.16 24.95C74.14 24.08 73.63 22.94 73.63 21.56V21.38C73.63 17.66 77.47 16.49 80.29 16.49H82.27C83.26 16.49 83.77 16.04 83.77 15.14ZM83.74 19.52V19.01H80.29C79.54 19.01 78.82 19.22 78.16 19.61C77.53 20 77.2 20.54 77.2 21.23C77.2 22.55 78.22 23.42 79.75 23.42C82.18 23.42 83.74 21.92 83.74 19.52Z" fill="white"/>
<path d="M107.086 17.93C107.086 20.18 106.336 22.13 104.836 23.78C103.336 25.43 101.446 26.24 99.1358 26.24C98.2358 26.24 97.2458 26 96.1958 25.52C95.1458 25.04 94.3658 24.38 93.8558 23.54V26H90.3758V1.57999H93.9458V12.35C94.4558 11.51 95.2058 10.85 96.2558 10.4C97.3058 9.91999 98.2958 9.67999 99.2258 9.67999C101.566 9.67999 103.456 10.52 104.896 12.2C106.366 13.88 107.086 15.8 107.086 17.93ZM95.2058 14.36C94.3358 15.35 93.8858 16.55 93.8858 17.96C93.8858 19.37 94.3358 20.57 95.2058 21.56C96.1058 22.52 97.2758 23 98.6858 23C100.096 23 101.266 22.52 102.136 21.56C103.036 20.57 103.486 19.37 103.486 17.96C103.486 16.55 103.036 15.35 102.136 14.36C101.266 13.37 100.096 12.89 98.6858 12.89C97.2758 12.89 96.1058 13.37 95.2058 14.36Z" fill="white"/>
<path d="M109.116 9.97999H112.686V18.95C112.686 21.35 113.856 22.94 116.226 22.94C118.476 22.94 119.916 21.32 119.916 18.89V9.97999H123.486V26H120.006V23.84C118.776 25.49 117.156 26.33 115.116 26.33C111.246 26.33 109.116 23.66 109.116 19.82V9.97999Z" fill="white"/>
<path d="M141.15 26H137.58V17.03C137.58 14.63 136.41 13.04 134.04 13.04C131.79 13.04 130.35 14.66 130.35 17.09V26H126.78V9.97999H130.26V12.14C131.49 10.49 133.11 9.64999 135.15 9.64999C139.08 9.64999 141.15 12.29 141.15 16.13V26Z" fill="white"/>
<path d="M143.634 23.54C143.634 22.07 144.804 20.9 146.244 20.9C147.715 20.9 148.854 22.07 148.854 23.54C148.854 24.98 147.685 26.15 146.244 26.15C144.804 26.15 143.634 24.95 143.634 23.54Z" fill="white"/>
<path d="M3.52284 6.36735C-1.18425 11.7888 -0.605111 19.9994 4.81623 24.7064C10.2376 29.4135 18.4482 28.8344 23.1552 23.413C27.8623 17.9916 27.2833 9.78105 21.8619 5.07396C16.4405 0.366943 8.22992 0.945938 3.52284 6.36735Z" fill="#196164"/>
<path d="M24.6751 1.19349C24.2774 1.27996 24.1775 1.78681 24.4848 2.05364C31.5742 8.20893 32.3315 18.946 26.1762 26.0354C25.9093 26.3427 26.0794 26.8305 26.4853 26.8603C30.4346 27.1501 34.4669 25.6383 37.2627 22.4181C41.9698 16.9968 41.3908 8.78616 35.9693 4.07908C32.7492 1.2832 28.5447 0.352249 24.6751 1.19349Z" fill="#C4F500"/>
</g>
</svg>
