<svg width="150" height="31" viewBox="0 0 150 31" fill="none" xmlns="http://www.w3.org/2000/svg">
<mask id="mask0_1109_23247" style="mask-type:alpha" maskUnits="userSpaceOnUse" x="0" y="0" width="150" height="31">
<rect width="150" height="31" fill="#D9D9D9"/>
</mask>
<g mask="url(#mask0_1109_23247)">
<path d="M55.6895 27V3.50999H64.6595C66.9395 3.50999 68.7695 4.04999 70.1495 5.15999C71.5295 6.26999 72.2195 7.76999 72.2195 9.68999C72.2195 10.2 72.1295 10.74 71.9795 11.31C71.6495 12.39 70.5395 14.01 68.8295 14.76C70.4495 15.27 71.5895 16.08 72.2795 17.13C72.9695 18.18 73.2995 19.29 73.2995 20.43C73.2995 24.39 70.3895 27 64.9595 27H55.6895ZM59.3495 6.83999V13.44H63.9695C66.9995 13.44 68.5295 12.03 68.5295 10.08C68.5295 8.12999 67.1795 6.83999 64.1795 6.83999H59.3495ZM59.3495 16.68V23.67H65.0195C67.9895 23.67 69.6095 22.26 69.6095 20.13C69.6095 18.09 68.0195 16.68 64.7795 16.68H59.3495Z" fill="black"/>
<path d="M84.7707 16.14C84.7707 14.82 83.6307 13.74 81.6207 13.74C79.7907 13.74 78.4407 14.58 77.6307 16.29L74.9007 14.73C76.1607 12 78.4407 10.65 81.7107 10.65C84.7107 10.65 86.7207 11.73 87.7107 13.92C88.0707 14.73 88.2507 15.69 88.2507 16.8V27H84.7407V24.81C83.7507 26.46 82.1907 27.27 80.0307 27.27C78.4707 27.27 77.1807 26.82 76.1607 25.95C75.1407 25.08 74.6307 23.94 74.6307 22.56V22.38C74.6307 18.66 78.4707 17.49 81.2907 17.49H83.2707C84.2607 17.49 84.7707 17.04 84.7707 16.14ZM84.7407 20.52V20.01H81.2907C80.5407 20.01 79.8207 20.22 79.1607 20.61C78.5307 21 78.2007 21.54 78.2007 22.23C78.2007 23.55 79.2207 24.42 80.7507 24.42C83.1807 24.42 84.7407 22.92 84.7407 20.52Z" fill="black"/>
<path d="M108.087 18.93C108.087 21.18 107.337 23.13 105.837 24.78C104.337 26.43 102.447 27.24 100.137 27.24C99.2366 27.24 98.2466 27 97.1966 26.52C96.1466 26.04 95.3666 25.38 94.8566 24.54V27H91.3766V2.57999H94.9466V13.35C95.4566 12.51 96.2066 11.85 97.2566 11.4C98.3066 10.92 99.2966 10.68 100.227 10.68C102.567 10.68 104.457 11.52 105.897 13.2C107.367 14.88 108.087 16.8 108.087 18.93ZM96.2066 15.36C95.3366 16.35 94.8866 17.55 94.8866 18.96C94.8866 20.37 95.3366 21.57 96.2066 22.56C97.1066 23.52 98.2766 24 99.6866 24C101.097 24 102.267 23.52 103.137 22.56C104.037 21.57 104.487 20.37 104.487 18.96C104.487 17.55 104.037 16.35 103.137 15.36C102.267 14.37 101.097 13.89 99.6866 13.89C98.2766 13.89 97.1066 14.37 96.2066 15.36Z" fill="black"/>
<path d="M110.116 10.98H113.686V19.95C113.686 22.35 114.856 23.94 117.226 23.94C119.476 23.94 120.916 22.32 120.916 19.89V10.98H124.486V27H121.006V24.84C119.776 26.49 118.156 27.33 116.116 27.33C112.246 27.33 110.116 24.66 110.116 20.82V10.98Z" fill="black"/>
<path d="M142.151 27H138.581V18.03C138.581 15.63 137.411 14.04 135.041 14.04C132.791 14.04 131.351 15.66 131.351 18.09V27H127.781V10.98H131.261V13.14C132.491 11.49 134.111 10.65 136.151 10.65C140.081 10.65 142.151 13.29 142.151 17.13V27Z" fill="black"/>
<path d="M144.635 24.54C144.635 23.07 145.805 21.9 147.245 21.9C148.715 21.9 149.855 23.07 149.855 24.54C149.855 25.98 148.685 27.15 147.245 27.15C145.805 27.15 144.635 25.95 144.635 24.54Z" fill="black"/>
<path d="M4.52211 7.36735C-0.184979 12.7888 0.394157 20.9994 5.8155 25.7064C11.2369 30.4135 19.4474 29.8344 24.1545 24.413C28.8616 18.9916 28.2825 10.781 22.8611 6.07396C17.4398 1.36694 9.22919 1.94594 4.52211 7.36735Z" fill="#196164"/>
<path d="M25.6748 2.19346C25.2771 2.27993 25.1773 2.78678 25.4846 3.05361C32.574 9.2089 33.3313 19.9459 27.1759 27.0354C26.9091 27.3427 27.0792 27.8305 27.485 27.8602C31.4344 28.1501 35.4666 26.6382 38.2625 23.4181C42.9695 17.9967 42.3905 9.78613 36.9691 5.07905C33.7489 2.28317 29.5444 1.35222 25.6748 2.19346Z" fill="#C4F500"/>
</g>
</svg>
