<svg width="756" height="800" viewBox="0 0 756 800" fill="none" xmlns="http://www.w3.org/2000/svg">
<path d="M1 6.10352e-05H726C742.569 6.10352e-05 756 13.4315 756 30.0001V770C756 786.569 742.569 800 726 800H1V6.10352e-05Z" fill="url(#paint0_linear_1109_22827)" fill-opacity="0.7"/>
<path d="M1.00195 567.4L754.002 567.4" stroke="black" stroke-width="0.7"/>
<path d="M1.00195 679.4L754.002 679.4" stroke="black" stroke-width="0.7"/>
<path d="M1.00195 455.4L754.002 455.4" stroke="black" stroke-width="0.7"/>
<path d="M1.00195 343.4L754.002 343.4" stroke="black" stroke-width="0.7"/>
<path d="M1.00195 231.4L754.002 231.4" stroke="black" stroke-width="0.7"/>
<path d="M1.00195 119.4L754.002 119.4" stroke="black" stroke-width="0.7"/>
<path d="M110.781 1.00006V799.9" stroke="black" stroke-width="0.7"/>
<path d="M232.781 1.00006V799.9" stroke="black" stroke-width="0.7"/>
<path d="M356.781 1.00006V799.9" stroke="black" stroke-width="0.7"/>
<path d="M472.781 1.00006V799.9" stroke="black" stroke-width="0.7"/>
<path d="M595.781 1.00006V799.9" stroke="black" stroke-width="0.7"/>
<path d="M756.002 777V19C756.002 10.1635 748.839 3 740.002 3V3" stroke="black"/>
<path d="M1 1L1.00003 797" stroke="black"/>
<path fill-rule="evenodd" clip-rule="evenodd" d="M668.912 403.1C666.012 398.711 663.675 394.034 661.521 389.273C661.773 389.016 661.808 389.389 661.988 389.35C662.166 389.225 661.864 388.797 662.357 388.789C662.81 388.781 662.994 389.047 663.173 389.34C664.115 390.882 664.651 392.633 665.723 394.123C666.089 394.632 666.64 395.08 666.708 395.854C666.749 396.33 667.396 396.597 667.618 397.125C667.758 397.455 668.044 397.76 668.203 398.13C668.836 399.604 669.818 400.81 671.123 401.745C671.358 401.914 671.523 402.148 671.398 402.383C671.055 403.025 670.955 403.802 670.047 404.101C669.388 404.318 669.002 404.15 668.592 403.745C667.606 402.768 666.93 401.569 666.249 400.382C665.452 398.994 664.766 397.544 664.019 396.129C663.014 394.227 662.166 392.257 661.243 390.32C661.156 390.136 660.91 389.866 661.17 389.723C661.365 389.615 661.502 389.927 661.593 390.105C662.163 391.228 662.677 392.375 663.176 393.533C663.653 394.643 664.269 395.697 664.877 396.745C665.861 398.439 666.746 400.19 667.822 401.83C668.128 402.297 668.442 402.766 668.912 403.1Z" fill="black"/>
<path fill-rule="evenodd" clip-rule="evenodd" d="M684.641 416.472C684.728 417.032 684.089 417.032 683.922 417.097C683.471 417.273 683.445 417.942 683.061 417.89C682.478 417.812 681.838 417.999 681.307 417.461C680.279 416.422 679.423 415.252 678.53 414.108C677.882 413.278 677.217 412.46 676.733 411.515C676.517 411.093 676.361 410.662 676.406 410.185C676.452 409.695 676.636 409.347 677.17 409.159C677.566 409.019 677.927 408.752 678.352 408.657C678.757 408.566 679.144 408.533 679.339 409.027C679.475 409.375 679.826 409.529 680.056 409.797C680.977 410.872 682.132 411.746 682.824 413.018C683.337 413.961 683.984 414.812 684.615 415.675C684.795 415.922 685.029 416.194 684.641 416.472Z" fill="black"/>
<path fill-rule="evenodd" clip-rule="evenodd" d="M681.906 387.352C682.057 387.559 682.154 387.693 682.248 387.821C682.373 387.805 682.357 387.714 682.376 387.637C682.416 387.48 682.184 387.283 682.382 387.179C682.622 387.053 682.625 387.395 682.782 387.465C682.958 387.277 682.723 387.065 682.818 386.883C683.399 386.853 683.655 387.193 683.887 387.667C684.515 388.956 685.249 390.182 686.199 391.271C686.557 391.682 686.445 392.381 686.958 392.691C687.608 393.085 688.002 393.722 688.273 394.339C688.741 395.404 689.624 396.084 690.302 396.949C690.493 397.192 690.878 397.232 690.94 397.595C690.96 397.712 691.038 397.923 690.882 397.902C690.348 397.83 690.356 398.296 690.119 398.541C689.679 398.996 689.098 398.8 688.609 398.587C687.839 398.252 687.261 397.64 686.786 396.975C684.968 394.429 683.356 391.758 682.106 388.883C681.916 388.446 681.626 387.984 681.906 387.352Z" fill="black"/>
<path fill-rule="evenodd" clip-rule="evenodd" d="M675.822 389.134C676.135 389.479 676.468 389.83 676.783 390.197C678.781 392.519 680.511 395.035 682.146 397.621C682.772 398.613 683.321 399.655 684.074 400.567C684.29 400.828 684.401 401.137 683.919 401.296C683.805 401.333 683.708 401.43 683.613 401.511C682.979 402.052 682.305 402.017 681.721 401.395C681.121 400.758 680.719 399.986 680.308 399.227C678.57 396.013 676.725 392.868 674.472 389.98C674.186 389.614 674.212 389.57 674.648 389.47C674.696 389.459 674.752 389.413 674.772 389.369C675.013 388.85 675.401 389.014 675.822 389.134Z" fill="black"/>
<path fill-rule="evenodd" clip-rule="evenodd" d="M686.352 421.997C687.203 423.092 687.628 424.322 688.386 425.334C689.153 426.357 689.83 427.451 690.759 428.352C690.117 427.453 689.472 426.555 688.832 425.654C688.098 424.619 687.506 423.503 686.899 422.391C686.595 421.834 686.805 421.526 687.25 421.352C687.684 421.183 688.148 421.364 688.273 421.832C688.529 422.785 689.105 423.571 689.736 424.229C690.835 425.376 691.669 426.759 692.931 427.759C693.222 427.99 693.36 428.376 693.687 428.628C694.055 428.911 694.384 429.129 694.869 429.146C695.151 429.156 695.598 429.037 695.694 429.427C695.772 429.746 695.743 430.13 695.366 430.368C695.223 430.46 695.157 430.676 695.058 430.836C694.474 431.772 693.527 431.976 692.647 431.278C691.466 430.342 690.539 429.16 689.642 427.96C688.467 426.387 687.356 424.773 686.538 422.977C686.417 422.712 686.261 422.458 686.352 421.997Z" fill="black"/>
<path fill-rule="evenodd" clip-rule="evenodd" d="M713.547 403.005C712.798 404.296 712.007 404.359 711.188 403.303C710.548 402.477 710.193 401.497 709.825 400.536C708.967 398.293 708.186 396.023 707.532 393.709C707.372 393.143 707.491 392.636 707.611 392.116C707.653 391.934 707.759 391.536 707.886 391.626C708.146 391.813 708.555 391.681 708.706 392.1C709.381 393.97 710.217 395.775 711.004 397.599C711.351 398.403 711.636 399.236 712.004 400.03C712.254 400.567 712.533 401.13 713.27 401.157C713.358 401.16 713.524 401.28 713.516 401.318C713.392 401.927 713.758 402.549 713.547 403.005Z" fill="black"/>
<path fill-rule="evenodd" clip-rule="evenodd" d="M691.91 372.898C691.548 371.804 690.88 370.867 690.516 369.785C690.41 369.466 690.354 369.126 690.212 368.824C689.978 368.326 690.438 368.218 690.665 368.11C690.885 368.004 691.21 368.082 691.364 368.421C691.994 369.805 692.812 371.098 693.707 372.304C694.345 373.163 694.738 374.205 695.655 374.904C696.001 375.169 696.286 375.675 696.624 376.06C697.076 376.574 696.386 376.696 696.191 376.985C696.161 377.031 695.997 376.992 695.972 377.036C695.868 377.223 696.277 377.604 695.824 377.632C695.21 377.671 694.609 377.743 694.071 377.158C693.217 376.228 692.567 375.182 691.962 374.099C691.141 372.63 690.243 371.194 689.823 369.536C689.792 369.413 689.75 369.293 689.729 369.169C689.707 369.042 689.713 368.89 689.854 368.848C690.035 368.796 690.135 368.937 690.16 369.088C690.377 370.415 691.182 371.477 691.749 372.646C691.792 372.735 691.856 372.814 691.91 372.898Z" fill="black"/>
<path fill-rule="evenodd" clip-rule="evenodd" d="M697.608 405.808C697.506 405.379 697.453 404.93 697.29 404.526C697.1 404.054 697.199 403.708 697.57 403.414C697.792 403.238 698.002 403.424 698.141 403.534C698.5 403.816 698.667 404.222 698.589 404.68C698.57 404.789 698.423 404.886 698.586 404.98C699.386 405.439 699.406 406.385 699.872 407.055C700.015 407.26 700.102 407.54 700.233 407.777C700.616 408.47 701.086 409.127 700.878 410.007C700.83 410.212 700.826 410.579 701.146 410.638C702.122 410.817 702.335 411.697 702.75 412.365C703.431 413.463 703.949 414.658 704.677 415.731C704.759 415.852 704.901 415.98 704.77 416.116C704.606 416.286 704.581 415.921 704.398 415.999C704.387 416.323 704.617 416.746 703.998 416.849C703.777 416.885 703.926 417.212 704.034 417.393C704.116 417.53 704.187 417.67 704.01 417.77C703.797 417.892 703.776 417.669 703.705 417.563C702.414 415.639 701.369 413.58 700.373 411.494C699.495 409.658 698.618 407.821 697.741 405.984C697.697 405.926 697.652 405.867 697.608 405.808Z" fill="black"/>
<path fill-rule="evenodd" clip-rule="evenodd" d="M696.789 392.455C696.196 391.297 695.606 390.135 695.097 388.933C695.231 390.046 696.042 391.762 696.789 392.455ZM698.918 392.088C698.863 392.31 698.482 391.443 698.589 392.196C698.592 392.216 698.593 392.253 698.584 392.257C698.121 392.445 697.962 392.755 698.106 393.255C698.144 393.386 697.062 393.611 696.843 393.503C696.513 393.34 696.258 393.085 696.06 392.784C694.942 391.085 694.276 389.218 694.029 387.202C693.908 386.214 694.382 385.525 695.184 385.027C695.615 384.76 695.863 384.905 695.988 385.407C696.119 385.934 696.279 386.456 696.464 386.967C696.677 387.557 696.964 388.113 697.136 388.726C697.363 389.532 697.998 390.13 698.401 390.854C698.624 391.254 698.865 391.632 698.918 392.088Z" fill="black"/>
<path fill-rule="evenodd" clip-rule="evenodd" d="M709.123 376.599C709.351 376.838 709.488 376.982 709.697 377.201C709.673 377.024 709.688 376.932 709.649 376.88C709.336 376.455 709.639 376.181 709.927 375.994C710.236 375.794 710.606 375.909 710.822 376.186C711.176 376.637 711.508 377.114 711.779 377.618C712.152 378.314 712.478 379.046 712.971 379.658C713.486 380.298 713.915 381.044 714.787 381.334C715.198 381.471 715.237 381.903 714.892 382.152C714.705 382.287 714.619 382.457 714.524 382.643C713.921 383.82 712.769 383.942 711.933 382.867C710.755 381.352 710.038 379.589 709.38 377.806C709.254 377.465 709.013 377.14 709.123 376.599Z" fill="black"/>
<path fill-rule="evenodd" clip-rule="evenodd" d="M709.089 432.178C709.496 432.422 709.896 432.191 710.252 432.332C710.028 432.879 709.569 433.039 708.939 432.824C708.255 432.589 707.8 432.07 707.483 431.488C706.808 430.25 706.012 429.082 705.624 427.674C705.473 427.122 705.042 426.553 704.811 425.969C704.153 424.303 703.552 422.614 702.935 420.932C702.811 420.594 702.746 420.242 702.748 419.878C702.749 419.692 702.811 419.544 702.99 419.474C703.184 419.399 703.318 419.498 703.412 419.656C703.551 419.891 703.709 420.121 703.81 420.373C704.741 422.701 705.623 425.051 706.605 427.358C706.987 428.257 707.535 429.102 708.188 429.844C708.49 430.187 708.98 430.289 709.399 430.474C709.513 430.525 709.745 430.459 709.716 430.695C709.66 431.15 709.637 431.544 710.298 431.497C710.448 431.487 710.409 431.686 710.345 431.803C710.231 432.012 710.09 432.248 709.82 432.124C709.572 432.01 709.375 432.075 709.089 432.178Z" fill="black"/>
<path fill-rule="evenodd" clip-rule="evenodd" d="M686.108 407.247C685.956 407.317 685.901 407.374 685.997 407.499C686.346 407.952 686.733 408.384 687.017 408.876C687.188 409.173 687.737 409.448 687.254 409.928C687.177 410.004 687.302 410.051 687.39 410.048C687.596 410.039 687.673 410.162 687.74 410.34C687.853 410.642 688.065 410.83 688.389 410.955C688.986 411.186 689.033 411.721 688.519 412.092C688.457 412.137 688.304 412.191 688.338 412.218C689.157 412.861 687.694 412.662 688.013 413.109C687.804 413.186 687.607 413.165 687.404 413.07C686.938 412.853 686.667 412.454 686.417 412.036C685.472 410.45 685.002 408.689 684.58 406.917C684.477 406.49 684.703 406.066 684.805 405.648C684.864 405.402 685.109 405.379 685.321 405.395C685.612 405.418 685.567 405.552 685.398 405.703C685.793 405.964 685.921 406.394 686.105 406.793C686.186 406.968 686.315 407.126 686.108 407.247Z" fill="black"/>
<path fill-rule="evenodd" clip-rule="evenodd" d="M681.087 377.978C681.027 378.004 680.968 378.029 680.909 378.055C681.169 378.551 681.427 379.048 681.695 379.539C681.726 379.596 681.78 379.704 681.883 379.647C681.955 379.608 682.025 379.509 681.96 379.444C681.546 379.03 681.5 378.39 681.087 377.978ZM684.961 382.758C685.1 383.052 685.561 383.166 685.302 383.689C685.115 384.066 684.977 383.899 684.789 383.791C684.636 384.12 685.081 384.21 684.995 384.53C684.425 384.354 684.05 383.89 683.553 383.633C683.541 383.621 683.526 383.61 683.51 383.598C683.401 383.016 682.953 382.638 682.648 382.174C682.522 381.983 682.328 381.829 682.23 381.627C681.444 380.001 680.46 378.479 679.753 376.808C679.2 375.498 678.533 374.237 678.044 372.897C677.932 372.589 677.787 372.29 677.785 371.768C678.157 372.385 678.44 372.855 678.723 373.325C678.71 373.309 678.696 373.295 678.681 373.28C678.811 374.162 679.408 374.835 679.661 375.673C679.913 375.582 679.788 375.439 679.819 375.343C679.873 375.18 680.017 375.143 680.175 375.159C680.252 375.167 680.374 375.164 680.343 375.276C680.204 375.775 680.625 375.879 680.903 376.057C681.211 376.254 681.286 376.526 681.284 376.855C681.282 377.361 681.46 377.765 681.944 377.991C682.004 378.114 682.065 378.238 682.125 378.362C682.089 378.896 682.739 380.065 683.184 380.265C683.059 380.51 683.455 380.864 683.021 381.044C682.7 380.987 682.543 380.968 682.73 381.408C682.967 381.964 683.566 382.242 683.72 382.837C683.743 382.925 683.827 382.969 683.919 382.919C684.039 382.854 684.047 382.735 683.958 382.663C683.57 382.35 683.467 381.836 683.121 381.499C682.975 381.357 682.852 381.224 683.015 381.02C683.883 381.34 684.071 382.26 684.625 382.858C684.699 382.937 684.265 383.133 684.635 383.185C684.816 383.211 685.018 383.03 684.961 382.758Z" fill="black"/>
<path fill-rule="evenodd" clip-rule="evenodd" d="M720.632 391.375C720.875 391.664 721.202 391.737 721.525 391.793C721.695 391.822 721.824 391.844 721.785 392.046C721.75 392.23 721.588 392.262 721.44 392.248C721.062 392.215 720.75 391.989 720.513 391.743C719.61 390.803 719.009 389.672 718.57 388.451C718.44 388.089 718.357 387.701 718.172 387.369C717.836 386.766 717.991 386.16 718.115 385.569C718.174 385.293 718.511 385.428 718.706 385.477C718.818 385.506 718.963 385.684 718.97 385.802C719.033 386.94 719.963 387.655 720.364 388.634C720.496 388.956 721.029 389.151 721.208 389.573C721.349 389.906 721.604 390.188 721.521 390.607C721.472 390.849 721.821 390.846 721.923 391.027C721.976 391.12 722.055 391.204 722.01 391.311C721.965 391.418 721.808 391.494 721.755 391.44C721.397 391.073 720.997 391.514 720.632 391.375Z" fill="black"/>
<path fill-rule="evenodd" clip-rule="evenodd" d="M697.608 405.807C697.653 405.866 697.697 405.926 697.741 405.984C697.962 407.079 698.395 408.11 698.835 409.122C699.439 410.513 700.147 411.865 700.879 413.195C701.499 414.321 701.93 415.55 702.758 416.567C703.094 416.98 703.33 417.479 703.35 418.123C702.637 417.861 702.46 417.208 702.14 416.706C701.298 415.384 700.652 413.954 699.994 412.536C698.807 409.977 697.503 407.463 696.783 404.712C696.742 404.555 696.652 404.396 696.865 404.197C697.298 404.657 697.283 405.319 697.608 405.807Z" fill="black"/>
<path fill-rule="evenodd" clip-rule="evenodd" d="M702.238 380.118C702.271 380.425 702.845 380.417 702.585 380.707C702.363 380.954 702.078 380.654 701.901 380.458C700.806 379.241 700.308 377.801 700.377 376.172C700.387 375.925 700.395 375.563 700.776 375.549C701.115 375.537 701.127 375.865 701.203 376.092C701.523 377.046 701.874 377.977 702.691 378.64C702.896 378.807 702.872 379.037 702.84 379.268C702.83 379.349 702.835 379.44 702.861 379.516C703.066 380.122 702.95 380.423 702.238 380.118Z" fill="black"/>
<path fill-rule="evenodd" clip-rule="evenodd" d="M679.529 377.433C680.166 377.881 680.205 378.669 680.548 379.283C680.802 379.738 681.132 380.18 681.226 380.727C681.25 380.864 681.397 380.998 681.224 381.1C681.086 381.182 680.934 381.127 680.852 380.971C680.357 380.03 679.845 379.098 679.471 378.1C679.383 377.865 679.514 377.649 679.552 377.425L679.529 377.433Z" fill="black"/>
<path fill-rule="evenodd" clip-rule="evenodd" d="M679.551 377.425C679.362 377.408 679.178 377.408 679.081 377.185C678.527 375.922 677.953 374.668 677.553 373.345C677.522 373.242 677.382 373.115 677.565 373.029C677.681 372.975 677.766 373.054 677.809 373.162C678.359 374.548 678.941 375.92 679.588 377.264C679.606 377.302 679.55 377.376 679.528 377.433L679.551 377.425Z" fill="black"/>
<path fill-rule="evenodd" clip-rule="evenodd" d="M683.509 383.598C683.526 383.609 683.54 383.62 683.553 383.632C683.742 383.87 683.818 384.196 684.121 384.347C684.229 384.4 684.385 384.472 684.28 384.623C684.185 384.758 684.065 384.662 683.96 384.585C683.025 383.897 682.288 383.019 681.587 382.11C681.466 381.954 681.407 381.666 681.588 381.539C681.802 381.389 681.916 381.661 681.993 381.803C682.376 382.508 682.947 383.048 683.509 383.598Z" fill="black"/>
<path fill-rule="evenodd" clip-rule="evenodd" d="M678.681 373.28C678.695 373.294 678.709 373.309 678.723 373.324C678.621 372.957 678.784 372.514 678.372 372.224C678.305 372.177 678.148 371.843 678.416 371.752C678.671 371.665 678.725 371.946 678.762 372.103C678.932 372.812 679.212 373.459 679.75 374.047C679.443 374.105 679.157 374.29 679.109 373.796C679.084 373.53 678.803 373.469 678.681 373.28Z" fill="black"/>
<path fill-rule="evenodd" clip-rule="evenodd" d="M682.125 378.362C682.065 378.238 682.005 378.114 681.944 377.99C681.928 377.873 681.911 377.757 681.894 377.64C681.93 377.623 681.966 377.606 682.001 377.59C682.224 377.964 682.447 378.339 682.67 378.714C682.634 378.746 682.598 378.778 682.562 378.81C682.417 378.66 682.271 378.511 682.125 378.362Z" fill="black"/>
<path fill-rule="evenodd" clip-rule="evenodd" d="M684.8 382.381C684.36 382.27 684.268 381.849 684.06 381.537C683.856 381.23 683.677 380.906 683.486 380.59C683.66 380.617 683.779 380.703 683.872 380.863C684.172 381.374 684.49 381.876 684.8 382.381Z" fill="black"/>
<path d="M34 634C36.4009 629.562 41.0862 625.855 44.5776 622.362C45.7972 621.142 58.1712 607.753 54.8886 615.288C52.6814 620.354 50.0955 625.258 48.1332 630.44C47.6372 631.75 50.7509 628.614 51.2442 628.249C52.2813 627.483 57.9997 622.583 57.9997 624.598C57.9997 626.686 58.0393 628.168 57.1997 629.892" stroke="black" stroke-width="1.5" stroke-linecap="round"/>
<path fill-rule="evenodd" clip-rule="evenodd" d="M170.169 58C168.368 65.7958 161.98 71.8358 154 73.1235C161.895 74.3975 168.233 80.3239 170.11 88C171.69 80.7118 177.268 74.9139 184.433 73.0186V72.719C177.354 70.8465 171.824 65.1647 170.169 58Z" fill="black"/>
<path fill-rule="evenodd" clip-rule="evenodd" d="M673.085 58C672.184 61.8979 668.99 64.9179 665 65.5617C668.948 66.1987 672.116 69.1618 673.055 72.9999C673.845 69.3558 676.634 66.4569 680.217 65.5093V65.3594C676.677 64.4232 673.912 61.5823 673.085 58Z" fill="black"/>
<defs>
<linearGradient id="paint0_linear_1109_22827" x1="378.5" y1="6.10352e-05" x2="378.5" y2="800" gradientUnits="userSpaceOnUse">
<stop stop-color="#FFFCAB"/>
<stop offset="1" stop-color="#56FF52" stop-opacity="0"/>
</linearGradient>
</defs>
</svg>
