<svg width="163" height="144" viewBox="0 0 163 144" fill="none" xmlns="http://www.w3.org/2000/svg">
<path fill-rule="evenodd" clip-rule="evenodd" d="M6.10269 42.0426C9.80929 34.6008 15.5609 28.3676 22.5907 24.0425C25.2109 22.4524 27.9588 21.244 30.8347 20.3535C40.932 17.1732 52.1157 17.8093 61.7017 22.0708C65.9839 23.8517 69.946 26.5231 73.3331 29.6397C77.6787 33.6468 81.2573 38.7351 82.9187 44.4596C83.4944 46.2405 82.663 46.1769 81.4487 45.032C80.8101 44.4596 80.1073 43.5691 79.468 42.5514C78.6373 41.5338 77.8702 40.3253 77.0395 38.9896C74.0995 34.2829 70.0095 30.2757 65.2806 27.2864C60.4875 24.297 55.0554 22.3888 49.3677 21.4984C48.5369 21.3075 47.6422 21.3075 46.8115 21.244C45.9167 21.1803 45.086 21.0531 44.1913 21.1167C42.4658 21.1803 40.6764 21.1803 38.9509 21.4984C35.436 21.88 32.0489 23.0249 28.7258 24.2333C26.9363 24.9966 25.2109 25.8235 23.6132 26.8411C22.7824 27.35 22.0155 27.9224 21.2486 28.4948L19.9705 29.2581L18.8841 30.2122C15.9443 32.7564 13.3241 35.6821 11.2152 38.926C9.87315 40.8978 8.78673 43.0603 7.82817 45.2229C6.93346 47.4489 6.16654 49.7387 5.5914 52.0285C3.92985 59.0886 4.18541 66.6575 6.48611 73.5268C8.33938 78.8698 11.2791 83.6399 15.1135 87.5195C15.497 87.9652 15.9443 88.3465 16.3917 88.7921C16.839 89.1734 17.2864 89.619 17.7337 90.0003C21.1847 92.9259 22.399 93.7528 22.7824 94.9618C22.8463 95.216 23.038 95.5338 23.038 95.7887C23.102 96.17 22.6546 96.17 21.7599 95.9158C21.3125 95.7887 20.8013 95.5338 20.2261 95.216C19.6509 94.8983 18.948 94.4527 18.245 93.9435C13.9633 90.9543 10.1288 86.884 7.31689 82.1132C5.9109 79.7603 4.76063 77.216 3.80199 74.5445C2.90728 71.8731 2.26822 69.1381 1.94872 66.3395C1.43744 62.2052 1.50137 58.0073 2.20429 53.873C2.90728 49.7388 4.18541 45.7316 6.03876 41.979L6.10269 42.0426Z" fill="#1B1B1B"/>
<path fill-rule="evenodd" clip-rule="evenodd" d="M43.8001 104.121C41.6911 106.601 39.1349 108.446 36.4507 109.973C35.4922 110.481 34.5336 111.117 33.5111 111.499C32.7441 111.881 31.9134 112.135 31.0826 112.453L29.8684 112.898L29.2293 113.089L28.4624 113.343C27.1843 113.725 25.9061 114.106 24.6919 114.297C23.6054 114.489 22.0078 114.997 22.0078 114.552C22.519 113.789 23.0942 112.898 23.5416 112.198L24.1807 111.117L24.5641 110.163C24.6919 109.845 24.8197 109.527 24.8836 109.273L25.0114 108.7C25.2031 107.937 25.3309 107.173 25.3309 106.346C25.5227 104.311 25.2671 102.276 25.3309 100.177C25.3309 99.5412 26.0978 99.4776 26.8647 99.986C27.6316 100.495 28.4624 101.513 28.5263 102.849C28.5902 104.63 28.4624 106.411 28.1429 108.192C28.015 108.637 27.9511 109.082 27.8233 109.527L27.6316 110.1C27.6316 110.1 27.6316 110.1 27.5677 110.1C27.5038 110.163 27.4399 110.227 27.312 110.354L27.1843 110.545C27.1843 110.608 27.1843 110.608 27.1843 110.608C27.2482 110.672 27.2482 110.672 27.376 110.672C27.5038 110.672 27.6955 110.672 27.8873 110.608L28.079 110.545L28.3346 110.481C28.4624 110.417 28.6541 110.354 28.782 110.29L29.6767 109.973C30.8909 109.463 32.1051 108.954 33.2554 108.382C35.8117 107.11 38.2402 105.584 40.2852 103.611C40.6047 103.357 40.8604 102.976 41.1799 102.657C41.4356 102.34 41.7551 102.022 42.0107 101.703L42.9693 100.305L43.2249 99.8589L43.2888 99.7954H43.4166H43.6723L44.6309 99.8589L45.8451 99.9225C46.1647 99.9225 46.5481 99.986 46.8677 99.986C47.5706 99.986 48.2096 99.986 48.9126 99.986C50.2547 99.9225 51.5967 99.8589 52.9388 99.6047C54.9838 99.287 56.9649 98.6507 58.8821 97.9509C59.3295 97.7602 59.713 97.6331 60.1603 97.4425C61.7579 96.8698 62.2692 96.8062 62.9083 97.3782C63.0361 97.506 63.2279 97.6331 63.3556 97.7602C63.7391 98.2051 63.2917 98.9685 62.1414 99.6047C58.6904 101.449 54.5364 102.467 50.3825 102.785C48.8487 102.912 47.2511 102.912 45.7173 102.849H45.206H45.0782C45.0143 102.849 44.8865 102.849 44.8865 102.849L44.8226 102.912L44.6309 103.167C44.3752 103.548 44.1196 103.866 43.8001 104.121Z" fill="#1B1B1B"/>
<path fill-rule="evenodd" clip-rule="evenodd" d="M87.5186 51.1378C84.9622 52.2191 82.5337 53.6821 80.2973 55.2721C78.0601 56.9895 76.0151 58.834 74.2259 60.9965C72.5009 63.1591 70.9031 65.4489 69.6888 67.993C68.5381 70.4737 67.5795 73.145 67.0045 75.8797C66.1738 79.8872 66.1095 84.021 66.621 88.0285C67.6438 95.0887 70.9666 101.958 76.2073 106.983C81.3201 112.135 88.2858 115.378 95.5071 116.269C98.7028 116.651 102.026 116.587 105.221 116.142C106.052 116.014 106.818 115.887 107.649 115.697C108.416 115.505 109.247 115.378 110.014 115.124L111.164 114.806L112.059 114.551L112.506 114.424L112.762 114.361C112.826 114.361 112.89 114.424 112.953 114.488L114.232 115.57C114.488 115.824 114.871 116.014 115.191 116.205C117.491 117.668 120.239 118.241 123.051 118.495C124.457 118.559 125.863 118.559 127.269 118.432L127.908 118.368L128.355 118.304L128.803 118.241L128.995 118.177C129.058 118.177 129.058 118.177 129.123 118.177L129.058 118.113C128.867 117.922 128.739 117.732 128.547 117.541L128.291 117.223L128.036 116.841C127.908 116.714 127.844 116.524 127.716 116.396C126.95 115.187 126.374 113.852 125.99 112.453C125.671 111.244 125.799 110.608 125.99 110.481C126.246 110.354 126.566 110.735 127.077 111.435C127.588 112.135 128.228 113.089 129.123 114.17C129.314 114.424 129.57 114.743 129.825 114.997C129.953 115.124 130.081 115.251 130.209 115.442L130.4 115.633C130.464 115.76 130.656 115.951 130.784 116.078C131.806 117.286 133.468 118.749 134.937 120.276C134.618 120.403 134.171 120.467 133.723 120.594C133.276 120.721 132.829 120.785 132.382 120.912C131.934 121.039 131.423 121.103 130.912 121.23C130.4 121.294 129.825 121.421 129.314 121.484L128.547 121.611L127.78 121.675C127.525 121.675 127.205 121.739 126.95 121.739C126.374 121.739 125.799 121.802 125.224 121.802C124.073 121.802 122.923 121.739 121.709 121.611C119.408 121.357 117.044 120.784 114.807 119.64C114.232 119.386 113.721 119.004 113.209 118.686C112.953 118.495 112.698 118.368 112.443 118.177L112.059 117.859C112.059 117.859 112.059 117.859 111.995 117.795L110.461 118.241C109.375 118.495 108.225 118.749 107.138 118.94C105.988 119.067 104.901 119.259 103.751 119.386C99.2135 119.767 94.5486 119.449 90.1386 118.241C85.7294 117.032 81.5115 114.997 77.933 112.198C75.7602 110.544 73.7788 108.636 71.9895 106.538C70.2002 104.438 68.6659 102.085 67.3881 99.6046C64.7678 94.6431 63.4897 89.0461 63.4258 83.5126C63.4258 80.4592 63.8092 77.4065 64.4483 74.4807C65.1513 71.5549 66.1738 68.6291 67.5795 65.9577C68.2188 64.5584 69.1138 63.3499 69.8802 62.0142C70.7752 60.8057 71.6695 59.5337 72.6923 58.4524C74.6738 56.1626 76.9737 54.1908 79.4666 52.41C85.538 48.1484 92.8872 45.6043 100.364 45.2862C101.77 45.159 103.176 45.2862 104.582 45.3499C105.285 45.3499 105.988 45.477 106.691 45.6043C107.394 45.7315 108.097 45.7315 108.8 45.9223C110.142 46.2403 111.548 46.4948 112.89 47.0035C113.529 47.258 114.232 47.4488 114.871 47.7032L116.788 48.53L117.747 48.9753L118.641 49.4841L120.495 50.5018L122.22 51.6467C122.795 52.0283 123.37 52.41 123.945 52.8551L125.608 54.1908C126.118 54.6361 126.63 55.1449 127.141 55.6538C128.164 56.6078 129.058 57.6891 129.953 58.7068C132.701 62.0778 134.81 65.8941 136.216 69.9648C137.622 74.0355 138.197 78.3605 137.942 82.6857C137.814 84.5938 137.622 86.4383 137.175 88.3463C136.344 91.8446 135.321 94.0076 134.49 95.4065C133.66 96.8061 132.957 97.5052 132.254 97.9508C131.934 98.1415 131.55 98.46 131.295 98.5235C130.848 98.6506 130.912 98.0144 131.359 96.8697C131.806 95.7242 132.51 93.9433 133.34 91.654C134.49 88.2827 135.13 84.6573 135.13 81.0319C135.065 77.4065 134.49 73.781 133.276 70.2828C132.062 66.8481 130.273 63.5407 127.908 60.6149C125.608 57.6891 122.731 55.2086 119.6 53.2368C117.236 51.7739 114.743 50.5018 112.059 49.7386C110.781 49.2297 109.375 49.0389 108.033 48.7209C107.33 48.5937 106.627 48.53 105.988 48.4665L104.966 48.3392C104.646 48.3392 104.262 48.3392 103.943 48.2757C98.3828 47.8305 92.695 48.9753 87.5186 51.1378Z" fill="#1B1B1B"/>
<circle cx="44.5685" cy="50.6813" r="15.7286" fill="#ADFFD8"/>
<path fill-rule="evenodd" clip-rule="evenodd" d="M49.4932 55.5902C50.7074 54.1273 51.3465 51.8376 51.1548 49.675C51.0908 48.9117 50.8353 48.1485 50.5157 47.4488C49.5571 44.9682 46.4257 43.6325 43.4859 44.205C42.2078 44.4594 40.9297 45.0955 39.9072 45.9223C38.5651 47.0036 37.6704 48.4665 37.0313 50.0566C36.8396 50.5655 36.4562 50.4382 36.2006 49.8658C35.9449 49.2934 35.8171 48.1485 36.3923 47.1308C38.3734 43.3145 43.0386 41.152 47.3842 42.2969C48.6624 42.6149 49.8766 43.1874 50.9631 44.0778C52.0495 44.9682 52.8163 46.1768 53.2637 47.3852C54.2862 50.1202 54.1584 53.046 53.072 55.7174C52.369 57.3711 51.1548 58.7068 49.8766 59.7881C47.9594 61.4418 45.8505 62.5867 44.2528 64.1132C43.6138 64.6857 43.0386 65.3853 42.6551 66.0214C42.2717 66.721 42.0161 67.4206 41.7604 68.2475C41.6326 68.6292 41.5687 69.0108 41.377 69.3924C40.8019 70.8553 40.2906 71.1733 39.3959 71.1097C39.2042 71.1097 38.9485 71.1097 38.7568 71.0461C38.1177 70.8553 37.926 70.092 38.1177 69.0744C38.3095 68.3111 38.4372 67.5479 38.6929 66.721C38.9485 65.8941 39.3959 64.8765 39.971 63.986C41.1853 62.2687 42.6551 61.1238 44.0611 60.0425C46.17 58.516 48.1512 57.1803 49.3015 55.5902H49.4932Z" fill="#1B1B1B"/>
<path fill-rule="evenodd" clip-rule="evenodd" d="M39.203 77.5972C39.203 77.6607 39.203 77.7243 39.203 77.7878C39.0752 79.1239 38.0526 79.5688 36.8384 79.4417C35.1769 79.251 34.5378 77.4065 35.4324 76.1348C36.7106 74.29 39.203 75.6257 39.203 77.5972Z" fill="#1B1B1B"/>
<path fill-rule="evenodd" clip-rule="evenodd" d="M88.2151 117.159C91.6665 118.368 95.3093 119.067 99.0157 119.131C100.358 119.131 101.7 119.131 103.042 118.94L104.831 118.749C105.406 118.686 105.981 118.559 106.556 118.432L108.282 118.113C108.857 117.986 109.433 117.795 110.008 117.668L111.988 117.096C112.244 116.905 112.372 117.223 112.628 117.351L113.075 117.732L113.714 118.305C114.161 118.622 114.673 118.94 115.184 119.259C115.696 119.513 116.271 119.767 116.782 120.021C118.699 120.785 120.808 121.103 122.917 121.167C125.601 121.23 128.285 120.848 130.905 120.34C131.736 120.149 131.736 120.594 131.097 121.103C130.458 121.611 129.18 122.311 127.582 122.502C124.706 122.82 121.766 122.82 118.89 122.184C117.42 121.866 116.079 121.357 114.737 120.657C114.098 120.276 113.458 119.894 112.82 119.449L111.988 118.749C111.861 118.686 111.925 118.686 111.925 118.686L111.861 118.622C111.861 118.622 111.797 118.622 111.733 118.622C108.538 119.576 104.959 120.34 101.508 120.53C97.6736 120.721 93.775 120.276 90.0686 119.259C89.4936 119.067 88.9187 118.94 88.3429 118.749L86.6815 118.113C85.5315 117.732 84.5087 117.159 83.4223 116.651C80.2273 114.997 77.3509 112.898 74.7952 110.417C72.8773 108.446 71.0245 106.41 69.6181 104.121C69.2988 103.611 68.9795 103.103 68.6595 102.594C67.5731 100.622 67.3817 99.9224 67.5731 99.3497C67.6374 99.2226 67.6374 99.032 67.701 98.9684C67.8931 98.6507 68.5317 99.3497 69.2988 100.749C71.6631 104.82 74.7309 108.764 78.6295 111.816C81.4408 114.106 84.7001 115.951 88.2151 117.159Z" fill="#1B1B1B"/>
<path fill-rule="evenodd" clip-rule="evenodd" d="M45.9767 103.675L45.2737 103.612H45.2098L44.379 104.756C43.676 105.52 42.9092 106.346 42.0784 107.046C41.5032 107.555 40.8641 108.064 40.289 108.51C38.0522 110.099 35.6237 111.244 33.1314 112.262C32.045 112.707 30.8946 113.152 29.8082 113.597C28.4022 114.107 26.9963 114.679 25.4625 114.87C24.5039 114.997 25.3986 113.343 26.9324 112.898C29.8082 112.008 32.6201 110.99 35.3681 109.781C37.0297 109.018 38.6273 108 40.0333 106.856C40.4168 106.537 40.8002 106.219 41.1837 105.902C41.5671 105.583 41.9505 105.265 42.2701 104.884C42.5896 104.502 42.973 104.184 43.2926 103.802L44.3151 102.403L44.4429 102.276H44.6346H45.0181H45.5932L46.5518 102.34C47.1909 102.34 47.83 102.403 48.469 102.403C50.3862 102.403 52.3035 102.34 54.1568 102.021C55.6266 101.767 56.9687 101.259 58.2468 100.686L59.0776 100.24C60.1001 99.7319 60.4836 99.6048 60.9309 99.7955C60.9948 99.859 61.1226 99.859 61.1866 99.9226C61.4422 100.113 61.1226 100.622 60.3558 101.067C58.0551 102.53 55.1793 103.421 52.3035 103.675C50.1945 103.802 48.0856 103.802 45.9767 103.675Z" fill="#1B1B1B"/>
<path d="M92.9492 33.3287C92.9492 32.8198 93.3328 32.4382 93.7799 32.4382C96.1449 32.311 93.0135 35.8092 92.9492 33.3287Z" stroke="#1B1B1B" stroke-width="0.6"/>
<path d="M55.6289 116.651C55.6289 116.141 56.0123 115.76 56.4597 115.76C58.8242 115.697 55.6928 119.131 55.6289 116.651Z" stroke="#1B1B1B" stroke-width="0.6"/>
<path fill-rule="evenodd" clip-rule="evenodd" d="M115.507 26.2686C115.89 26.3958 116.146 26.7775 116.018 27.1591C115.571 29.1308 113.462 25.7597 115.507 26.2686Z" fill="#1B1B1B"/>
<path d="M105.374 99.2182C113.598 98.1469 119.421 90.8688 118.382 82.9627C117.342 75.0563 109.832 69.5157 101.608 70.5872C93.3845 71.6587 87.5605 78.9363 88.6007 86.8431C89.641 94.7492 97.1506 100.289 105.374 99.2182Z" fill="#FFF7B1"/>
<path d="M107.967 67.2935C108.03 67.1027 106.944 66.4667 104.707 66.1487C103.621 66.0214 102.214 65.9578 100.617 66.2759C99.0195 66.5939 97.2303 67.1663 95.4402 68.2476C93.7153 69.3289 91.9896 70.919 90.5839 72.8908C89.1775 74.8625 88.091 77.343 87.516 80.0144C86.9411 82.7493 87.0046 85.7385 87.9632 88.7284C88.4746 90.1909 89.1139 91.654 90.0082 92.9901C90.9032 94.3254 91.9896 95.5972 93.2674 96.6156C94.2903 97.506 95.4402 98.1415 96.591 98.7778C97.8052 99.3505 99.0195 99.7954 100.297 100.113C103.557 100.876 106.88 100.559 109.756 99.5412C112.632 98.46 115.188 96.7427 116.977 94.5797C117.936 93.5621 118.575 92.3539 119.214 91.2092C119.469 90.6365 119.725 90.0002 119.981 89.4282C120.173 88.792 120.429 88.2193 120.492 87.6473C121.067 85.2301 121.004 82.94 120.62 80.9049C120.236 78.8697 119.534 77.1523 118.766 75.7527C118 74.3537 117.105 73.2724 116.338 72.4455C114.804 70.8554 113.718 70.283 113.59 70.4102C113.462 70.601 114.293 71.3643 115.572 73.0816C116.786 74.7989 118.383 77.4701 118.894 81.1591C119.15 83.0035 119.086 85.0394 118.511 87.1381C118.383 87.6473 118.191 88.1557 118 88.7284C117.808 89.2368 117.552 89.746 117.296 90.2544C116.721 91.2727 116.082 92.2903 115.251 93.1808C113.654 95.0253 111.482 96.4877 108.989 97.3782C106.497 98.2051 103.621 98.46 100.872 97.7602C99.7224 97.506 98.6995 97.124 97.6774 96.6156C96.7188 96.1064 95.696 95.5337 94.8653 94.7711C93.7788 93.8806 92.8203 92.7987 92.0539 91.7176C91.2867 90.5729 90.7118 89.3647 90.2639 88.0922C89.4332 85.5479 89.3053 82.94 89.7532 80.5235C90.2003 78.1063 91.0946 75.9441 92.3089 74.0992C93.5231 72.2547 94.9931 70.8554 96.4631 69.7741C97.9967 68.6929 99.531 68.1204 100.937 67.7388C102.342 67.3572 103.621 67.23 104.643 67.23C106.752 67.23 107.902 67.548 107.967 67.2935Z" fill="#1B1B1B"/>
<path d="M109.698 79.6965C109.635 79.5059 109.379 79.378 108.867 79.4423C108.357 79.5059 107.653 79.7601 106.887 80.3328C106.184 80.9048 105.48 81.6681 104.842 82.5586C104.203 83.4491 103.563 84.4666 102.925 85.4842C102.797 85.6749 102.669 85.9298 102.541 86.1205C102.413 86.3111 102.285 86.5653 102.158 86.7567C101.646 87.5837 101.838 87.3287 101.774 87.3923C101.774 87.3923 101.774 87.3923 101.71 87.3923L101.583 87.3287C101.135 87.0745 100.752 86.8839 100.368 86.6932C99.6011 86.3111 98.8983 86.0569 98.259 85.8663C97.0447 85.4842 96.2783 85.5478 96.1505 85.8663C96.0226 86.184 96.5976 86.6297 97.6204 87.3287C98.1311 87.6472 98.7069 88.0921 99.4097 88.5377C99.729 88.7919 100.113 88.9825 100.432 89.2367C100.752 89.4282 101.071 89.6824 101.39 89.9366C101.774 90.1908 102.158 90.5093 102.605 90.7635C103.18 89.873 103.755 88.9825 104.33 88.0285C104.458 87.8379 104.586 87.5837 104.714 87.3923C104.842 87.2016 104.97 86.9474 105.098 86.7567C105.736 85.6749 106.312 84.6573 106.822 83.7668C107.334 82.8764 107.781 82.1773 108.229 81.6046C108.932 80.5235 109.762 80.1414 109.698 79.6965Z" fill="#1B1B1B"/>
<path d="M1.3707 32.502C1.56241 32.6292 1.81805 32.5656 2.13755 32.4383C2.45712 32.3112 2.96832 32.1839 3.41568 32.1839C3.86303 32.1839 4.24645 32.4383 4.50209 32.82C4.56602 33.0108 4.62995 33.2016 4.56602 33.5196C4.50209 33.8377 4.37431 34.2193 4.1826 34.6009C4.11867 34.7281 3.99089 34.919 3.92696 35.0461C3.7991 35.1734 3.73525 35.3006 3.60739 35.4914C3.41568 35.6822 3.28789 35.873 3.16003 36.0002L3.09618 36.0638C3.09618 36.0638 3.09618 36.0638 3.03225 36.0638C2.96832 36.0638 3.03225 36.1274 2.90447 35.9366C2.77661 35.8094 2.64883 35.6822 2.52097 35.4914C2.39319 35.3642 2.2654 35.1734 2.13755 35.0461C1.94583 34.7917 1.81805 34.5373 1.69019 34.2829C1.49848 33.8377 1.43455 33.456 1.43455 33.0744C1.56241 32.8836 1.56241 32.6292 1.3707 32.502C1.24284 32.3747 0.923345 32.4383 0.603775 32.7564C0.220351 33.0744 -0.0992192 33.8377 0.0286393 34.7917C0.0924928 35.2369 0.220351 35.7458 0.412063 36.191C0.539846 36.4455 0.603775 36.6363 0.731633 36.8271C0.859416 37.0179 0.987199 37.2723 1.17899 37.5267C1.30677 37.7175 1.75412 38.1628 2.13755 38.3536C2.5849 38.608 3.03225 38.6716 3.54353 38.5444C3.7991 38.4808 3.99089 38.4172 4.24645 38.2264C4.37431 38.1628 4.43824 38.0991 4.56602 37.972L4.69381 37.8447L4.82166 37.7812C5.07731 37.5267 5.26902 37.2723 5.46073 37.0815C5.58851 36.8907 5.78023 36.6363 5.90808 36.4455C6.03587 36.191 6.16372 36.0002 6.29151 35.7458C6.61108 35.1098 6.80279 34.4737 6.86664 33.7741C6.93057 33.0744 6.73886 32.2475 6.29151 31.6115C5.84415 30.9755 5.26902 30.6574 4.69381 30.4666C4.05474 30.2758 3.47961 30.3394 3.03225 30.4666C2.13755 30.721 1.62626 31.2934 1.3707 31.6751C1.17899 32.0567 1.24284 32.3747 1.3707 32.502Z" fill="#1B1B1B"/>
<path d="M123.375 137.64C123.567 137.767 123.822 137.704 124.142 137.576C124.461 137.449 124.973 137.322 125.42 137.322C125.868 137.322 126.25 137.576 126.506 137.958C126.57 138.149 126.634 138.34 126.57 138.658C126.506 138.976 126.378 139.357 126.187 139.739C126.122 139.867 125.995 140.057 125.931 140.184C125.803 140.311 125.74 140.438 125.612 140.63C125.42 140.821 125.292 141.011 125.164 141.138L125.1 141.202C125.1 141.202 125.1 141.202 125.036 141.202C124.973 141.202 125.036 141.265 124.908 141.075C124.781 140.948 124.653 140.821 124.525 140.63C124.398 140.502 124.27 140.311 124.142 140.184C123.95 139.93 123.822 139.676 123.695 139.421C123.503 138.976 123.439 138.594 123.439 138.213C123.503 138.086 123.503 137.767 123.375 137.64C123.247 137.513 122.928 137.576 122.608 137.895C122.225 138.213 121.905 138.976 122.033 139.93C122.097 140.375 122.225 140.884 122.416 141.329C122.544 141.584 122.608 141.775 122.735 141.965C122.863 142.156 122.991 142.411 123.183 142.665C123.311 142.856 123.758 143.301 124.142 143.492C124.589 143.746 125.036 143.81 125.547 143.683C125.803 143.619 125.995 143.556 126.25 143.365C126.378 143.301 126.442 143.238 126.57 143.11L126.698 142.983L126.826 142.919C127.081 142.665 127.273 142.411 127.465 142.219C127.592 142.029 127.785 141.775 127.912 141.584C128.04 141.329 128.167 141.138 128.295 140.884C128.615 140.248 128.807 139.612 128.871 138.912C128.935 138.213 128.743 137.386 128.295 136.749C127.848 136.114 127.273 135.795 126.698 135.605C126.059 135.414 125.484 135.478 125.036 135.605C124.142 135.859 123.63 136.432 123.375 136.813C123.183 137.259 123.183 137.576 123.375 137.64Z" fill="#A8A8A8"/>
<path d="M157.492 88.0922C157.683 88.2193 157.939 88.1558 158.258 88.0287C158.578 87.9016 159.089 87.7745 159.537 87.7745C159.984 87.7745 160.368 88.0287 160.623 88.41C160.687 88.6014 160.751 88.7921 160.687 89.1098C160.623 89.4283 160.495 89.8096 160.303 90.1909C160.24 90.3188 160.112 90.5094 160.048 90.6365C159.92 90.7636 159.856 90.8907 159.728 91.0814C159.537 91.2728 159.409 91.4635 159.281 91.5906L159.217 91.6541C159.217 91.6541 159.217 91.6541 159.153 91.6541C159.089 91.6541 159.153 91.7177 159.025 91.527C158.898 91.3999 158.77 91.2728 158.642 91.0814C158.514 90.9543 158.386 90.7636 158.258 90.6365C158.067 90.3823 157.939 90.1274 157.811 89.8732C157.62 89.4283 157.555 89.0463 157.555 88.665C157.683 88.4735 157.683 88.2193 157.492 88.0922C157.364 87.9651 157.044 88.0287 156.725 88.3464C156.341 88.665 156.022 89.4283 156.15 90.3823C156.213 90.8272 156.341 91.3364 156.533 91.7812C156.66 92.0354 156.725 92.2268 156.853 92.4175C156.98 92.6081 157.108 92.8623 157.3 93.1173C157.428 93.308 157.875 93.7528 158.258 93.9442C158.706 94.1984 159.153 94.262 159.665 94.1349C159.92 94.0713 160.112 94.0078 160.368 93.8164C160.495 93.7528 160.559 93.6893 160.687 93.5622L160.815 93.4351L160.943 93.3715C161.198 93.1173 161.39 92.8623 161.582 92.6717C161.71 92.481 161.901 92.2268 162.029 92.0354C162.157 91.7812 162.285 91.5906 162.413 91.3364C162.732 90.7001 162.924 90.0638 162.988 89.364C163.052 88.665 162.86 87.838 162.413 87.2018C161.965 86.5655 161.39 86.2477 160.815 86.0571C160.175 85.8664 159.6 85.93 159.153 86.0571C158.258 86.3113 157.747 86.884 157.492 87.2653C157.364 87.7109 157.364 87.9651 157.492 88.0922Z" fill="#1B1B1B"/>
<path d="M77.034 131.916C76.2668 131.597 75.7561 131.979 75.3725 132.616C75.3725 132.679 75.3725 132.679 75.3082 132.743C75.3082 132.806 75.3082 132.806 75.2447 132.87C74.989 133.57 75.1168 134.205 75.884 134.524C76.5868 134.841 77.1618 134.46 77.5454 133.824C77.5454 133.76 77.5454 133.76 77.6089 133.697C77.6089 133.633 77.6732 133.633 77.6732 133.57C77.8647 132.87 77.7368 132.17 77.034 131.916Z" fill="#A8A8A8"/>
<path d="M14.5373 108.764C13.9621 109.336 14.0899 109.972 14.5373 110.481L14.6012 110.545L14.6651 110.608C15.1763 111.054 15.7515 111.181 16.3906 110.608C16.9018 110.1 16.838 109.4 16.3906 108.891L16.3267 108.827L16.2627 108.764C15.7515 108.319 15.1124 108.191 14.5373 108.764Z" fill="#A8A8A8"/>
<path d="M45.4018 0C45.0184 0 44.6988 0.445232 44.6348 1.08127C44.571 1.71732 44.6349 2.67139 45.0184 3.68906C45.0822 3.81627 45.0822 3.87988 45.1461 4.00708C45.2101 4.07069 45.2101 4.1979 45.2739 4.3251C45.7213 5.27918 46.2965 6.04243 46.8077 6.42405C47.319 6.86929 47.8303 6.93289 48.1497 6.67847C48.725 6.16964 48.1497 4.89755 47.5107 3.37104L47.3829 3.05302L47.319 2.7986C46.616 1.27209 46.1686 0 45.4018 0Z" fill="#A8A8A8"/>
<path d="M85.5381 24.1061C84.9624 23.5336 84.0682 23.9153 83.1731 24.7421C83.1096 24.8057 83.1096 24.8057 83.0453 24.8694C82.9817 24.9329 82.9817 24.9329 82.9174 24.9965C82.0867 25.887 81.7031 26.7775 82.2789 27.3499C82.7896 27.8587 83.7481 27.5407 84.6431 26.7138C84.7067 26.6503 84.7067 26.6503 84.771 26.5867C84.8346 26.523 84.8345 26.523 84.8989 26.4594C85.7296 25.5689 86.1131 24.6149 85.5381 24.1061Z" fill="#A8A8A8"/>
<path d="M139.276 34.3463C138.701 33.7739 138.382 33.5831 138.254 33.6467C138.19 33.7739 138.382 34.0919 138.957 34.6644C139.468 35.1732 139.852 35.4276 139.98 35.364C140.043 35.2368 139.852 34.8552 139.276 34.3463Z" fill="#A8A8A8"/>
<path d="M123.943 13.8022C123.752 13.8022 123.56 14.6291 123.24 16.092C123.112 16.7916 122.921 17.6821 122.665 18.6998C122.409 19.7175 122.09 20.8624 121.515 21.9437C121.259 22.5161 120.876 23.0249 120.429 23.4702C119.981 23.9154 119.469 24.297 118.894 24.615C117.744 25.1875 116.147 25.3783 114.613 24.933C113.079 24.5514 111.61 23.5973 110.651 22.1981C110.203 21.4984 109.884 20.7351 109.884 19.9719C109.82 19.2086 110.012 18.3181 110.459 17.6821C110.778 17.1733 111.226 16.7281 111.801 16.4737C112.057 16.3464 112.312 16.3464 112.504 16.3464C112.696 16.3464 112.824 16.41 113.079 16.5373C113.334 16.7281 113.59 17.0461 113.846 17.3641C114.037 17.6821 114.23 18.0638 114.357 18.4454C114.613 19.2086 114.613 20.0991 114.485 20.9259C114.293 21.7528 114.037 22.4524 113.527 23.0885C113.079 23.7246 112.44 24.297 111.801 24.8059C110.459 25.7599 108.925 26.4595 107.455 27.032C105.985 27.6044 104.643 28.0497 103.365 28.4313C100.809 29.131 98.7004 29.4489 97.2304 29.7034C95.7604 29.9578 94.9297 30.085 94.9297 30.2758C94.9297 30.4667 95.7604 30.6575 97.2939 30.721C98.8275 30.7846 101.065 30.721 103.812 30.1486C105.155 29.8942 106.688 29.5126 108.222 28.9402C109.756 28.3677 111.482 27.7953 113.143 26.6504C113.974 26.0779 114.804 25.3783 115.444 24.4878C115.763 24.0426 116.083 23.5337 116.338 23.0249C116.594 22.5161 116.722 21.9437 116.849 21.3712C117.105 20.2263 117.105 19.0178 116.722 17.8094C116.53 17.2369 116.274 16.6008 115.955 16.092C115.572 15.5832 115.188 15.0108 114.549 14.5655C114.037 14.1839 113.334 13.9294 112.696 13.9294C112.057 13.9294 111.417 14.0567 110.906 14.2475C109.884 14.6927 108.989 15.4559 108.414 16.41C107.711 17.5549 107.455 18.8906 107.519 20.1627C107.583 21.4348 108.095 22.6432 108.733 23.5973C110.075 25.5691 112.12 26.6504 114.102 27.1592C115.124 27.4136 116.147 27.4136 117.105 27.2864C118.064 27.1592 119.022 26.9048 119.853 26.3959C120.684 25.8871 121.387 25.3146 121.898 24.6786C122.409 23.9789 122.857 23.3429 123.112 22.6432C123.688 21.3076 123.943 20.0355 124.071 18.8906C124.199 17.8094 124.263 16.8553 124.199 16.092C124.263 14.6291 124.135 13.8022 123.943 13.8022Z" fill="#1B1B1B"/>
</svg>
