<svg width="349" height="340" viewBox="0 0 349 340" fill="none" xmlns="http://www.w3.org/2000/svg">
<mask id="mask0_1109_19817" style="mask-type:luminance" maskUnits="userSpaceOnUse" x="32" y="74" width="283" height="266">
<path d="M226.694 74.8232L32.0059 187.227L120.149 339.896L314.838 227.492L226.694 74.8232Z" fill="white"/>
</mask>
<g mask="url(#mask0_1109_19817)">
<path d="M77.0106 189.045C76.9605 190.246 78.939 190.914 81.6804 191.249C81.8061 191.283 81.9319 191.317 82.1372 191.305C82.2629 191.339 82.3888 191.373 82.5941 191.36C85.3228 191.489 87.4897 191.197 87.5397 189.996C87.6359 188.876 85.6112 188.127 82.8699 187.792C82.7442 187.759 82.6185 187.725 82.4591 187.817C82.3334 187.783 82.2076 187.749 82.0023 187.761C79.3072 187.506 77.1067 187.924 77.0106 189.045Z" fill="#1B1B1B"/>
<path d="M78.971 165.225C78.0742 166.062 80.5353 169.221 83.9816 172.984C84.1995 173.177 84.2918 173.337 84.5098 173.531C84.7278 173.725 84.82 173.884 85.0381 174.078C88.564 177.794 91.5237 180.346 92.3869 179.635C93.2503 178.924 91.0615 175.5 87.6152 171.738C87.3973 171.544 87.305 171.384 87.087 171.191C86.8691 170.997 86.7768 170.837 86.5588 170.644C82.9406 166.767 79.742 164.353 78.971 165.225Z" fill="#1B1B1B"/>
<path d="M99.9738 148.092C98.775 148.038 97.8456 153.049 97.2226 159.693C97.2017 160.025 97.1809 160.356 97.16 160.688C97.1391 161.019 97.1182 161.351 97.0974 161.683C96.6001 168.361 96.6641 173.437 97.909 173.57C99.0281 173.67 100.037 168.613 100.66 161.969C100.681 161.637 100.702 161.306 100.723 160.974C100.744 160.643 100.765 160.311 100.785 159.979C101.203 153.347 101.093 148.191 99.9738 148.092Z" fill="#1B1B1B"/>
<path d="M107.774 200.85L107.782 200.847L107.791 200.844C150.31 186.949 192.769 172.768 234.976 158.52C235.751 158.258 236.723 157.891 237.688 157.526C238.375 157.266 239.059 157.007 239.665 156.789C240.425 156.516 241.077 156.301 241.55 156.184C241.629 156.165 241.698 156.149 241.758 156.137C243.354 158.407 244.331 161.101 245.11 163.959C245.455 165.224 245.756 166.5 246.058 167.78C246.115 168.022 246.172 168.264 246.23 168.507C246.559 169.897 246.899 171.285 247.299 172.615C247.161 172.735 246.939 172.893 246.621 173.078C245.857 173.519 244.714 174.007 243.367 174.425L243.359 174.428C203.214 187.274 168.445 198.4 112.535 216.301C111.231 216.695 110.043 216.926 109.195 216.994C108.911 217.017 108.689 217.02 108.527 217.011C107.401 212.621 105.589 208.432 103.135 204.519L102.446 202.487L107.774 200.85Z" fill="#ADFFD8" stroke="black" stroke-width="2"/>
<path d="M242.343 152.496C242.184 152.588 242.431 153.936 243.086 156.541C243.74 159.146 244.676 162.973 246.051 167.931C248.803 177.846 253.019 192.136 259 209.667C259.395 210.717 259.755 211.894 260.149 212.944C260.346 213.47 260.589 214.075 260.707 214.646C260.858 215.092 260.884 215.503 260.955 215.995C260.925 216.863 260.611 217.791 259.954 218.49C259.648 218.88 259.249 219.11 258.851 219.34C258.612 219.477 258.454 219.569 258.168 219.628L257.28 219.927C252.518 221.611 247.598 223.387 242.393 225.22C232.108 228.921 221.094 232.83 209.35 236.947C186.035 245.295 160.18 254.577 132.833 264.401C131.421 264.897 130.088 265.347 128.722 265.923L127.674 266.314C127.514 266.406 127.309 266.418 127.229 266.464C127.15 266.51 126.991 266.602 126.865 266.568C126.374 266.638 125.884 266.708 125.381 266.573C124.421 266.382 123.562 265.812 123.101 265.014C122.962 264.774 122.87 264.614 122.811 264.329L122.463 263.357L121.8 261.29C119.942 255.865 118.118 250.315 116.293 244.764C111.772 230.864 107.686 217.351 104.036 204.226C103.093 200.936 102.195 197.726 101.297 194.516C100.911 192.928 100.4 191.306 100.013 189.719C99.7576 188.908 99.6275 188.131 99.3717 187.32L99.0109 186.143C98.9061 185.778 98.7551 185.332 98.7424 185.126C98.5535 184.064 98.9347 182.885 99.6261 182.06C100.012 181.624 100.489 181.348 101.013 181.152L101.458 181.002L102.028 180.886L103.201 180.528C106.244 179.73 109.241 178.852 112.283 178.054C136.202 171.488 157.418 165.204 175.055 159.708C192.691 154.213 206.794 149.586 216.442 146.252C221.283 144.523 224.996 143.231 227.536 142.297C230.076 141.363 231.316 140.754 231.27 140.674C231.224 140.594 229.878 140.838 227.326 141.566C224.774 142.294 220.969 143.426 216.069 144.87C206.316 147.838 192.108 152.099 174.413 157.309C156.718 162.519 135.489 168.597 111.558 174.958C108.594 175.71 105.552 176.508 102.429 177.352L101.256 177.71L100.686 177.826C100.48 177.838 100.241 177.976 99.9563 178.034C98.9882 178.38 98.0788 179.012 97.3412 179.757C95.8662 181.248 95.1835 183.559 95.5613 185.685C95.6788 186.256 95.7836 186.622 95.8885 186.987L96.1696 188.21C96.4254 189.021 96.5556 189.798 96.8115 190.609C97.1974 192.197 97.7091 193.818 98.0951 195.406C98.9929 198.616 99.8108 201.872 100.755 205.162C104.404 218.287 108.456 231.926 112.978 245.826C114.849 251.456 116.627 256.927 118.531 262.433L119.194 264.5L119.588 265.55C119.739 265.996 119.97 266.395 120.246 266.874C121.295 268.506 122.98 269.77 124.854 270.073C125.814 270.264 126.761 270.25 127.696 270.03C127.901 270.018 128.14 269.88 128.425 269.822C128.71 269.764 128.789 269.718 128.948 269.626L129.996 269.234C131.409 268.738 132.742 268.288 134.108 267.713C161.489 257.763 187.218 248.447 210.567 239.974C222.218 235.697 233.186 231.708 243.425 227.926C248.584 226.014 253.504 224.237 258.219 222.474L259.108 222.174C259.473 222.07 259.791 221.886 260.11 221.702C260.827 221.288 261.417 220.841 261.916 220.233C262.913 219.018 263.44 217.542 263.511 216.01C263.507 215.266 263.377 214.49 263.167 213.758C262.97 213.233 262.727 212.629 262.53 212.103C262.089 210.972 261.775 209.876 261.38 208.825C255.161 191.431 250.58 177.246 247.43 167.561C245.895 162.695 244.674 158.926 243.815 156.333C243.001 153.82 242.469 152.53 242.343 152.496Z" fill="#1B1B1B"/>
<path d="M88.1493 255.047L82.4244 257.82L90.1272 271.161C101.876 289.304 112.987 307.814 123.541 326.646C124.971 329.123 128.002 330.143 130.437 328.843C168.881 307.714 207.324 286.583 245.767 265.453C248.203 264.154 248.994 260.927 247.518 258.37C233.806 234.438 219.265 211.09 203.927 188.202C202.338 185.818 199.161 185.096 196.864 186.635C161.347 210.443 125.071 233.304 88.1493 255.047Z" fill="#FFF7B1"/>
<path d="M83.0737 275.127C82.9144 275.219 83.6063 276.417 84.9441 278.735C86.2813 281.051 88.3446 284.441 91.0069 288.868C96.2862 297.644 103.871 310.414 112.904 326.61C113.503 327.648 114.057 328.607 114.576 329.692C114.853 330.171 115.176 330.731 115.499 331.289C115.868 331.929 116.317 332.522 116.924 333.023C118.061 334.072 119.582 334.684 121.146 334.634C121.888 334.632 122.663 334.504 123.472 334.249C123.836 334.145 124.234 333.915 124.473 333.777L125.27 333.317C129.695 330.869 134.326 328.408 139.15 325.73C148.764 320.499 159.015 314.9 169.903 308.934C191.6 297.046 215.605 283.825 241.17 269.811C242.444 269.076 243.764 268.42 245.038 267.684L245.994 267.133C246.153 267.041 246.312 266.949 246.471 266.857C246.711 266.719 246.87 266.627 247.108 266.489C247.939 265.903 248.596 265.204 249.036 264.311C250.008 262.685 250.293 260.604 249.723 258.696C249.571 258.251 249.42 257.805 249.143 257.326L248.59 256.367L247.483 254.45C244.577 249.416 241.671 244.384 238.64 239.317C231.067 226.752 223.611 214.759 216.069 203.349C214.203 200.485 212.337 197.621 210.437 194.883C209.528 193.49 208.618 192.099 207.628 190.753C207.134 190.079 206.719 189.36 206.224 188.687L205.545 187.695C205.36 187.375 205.176 187.056 204.773 186.543C203.393 184.889 201.231 183.901 199.177 184.021C198.151 184.081 197.056 184.394 196.134 184.82C195.895 184.957 195.657 185.095 195.497 185.187L195.02 185.463L193.963 186.393C191.349 188.115 188.733 189.838 186.165 191.641C165.608 205.32 147.005 217.232 131.369 227.111C115.733 236.991 103.144 244.792 94.4897 250.215C90.2024 252.903 86.8707 255.04 84.6076 256.453C82.3907 257.946 81.2424 258.715 81.3347 258.875C81.3808 258.955 82.6675 258.425 85.0227 257.172C87.3781 255.918 90.8481 254.021 95.3073 251.447C104.192 246.424 116.92 238.863 132.74 229.302C148.515 219.662 167.21 207.91 187.938 194.345C190.553 192.622 193.168 190.899 195.783 189.176L196.772 188.499L197.25 188.223L197.648 187.993C198.125 187.718 198.696 187.601 199.233 187.611C200.385 187.585 201.403 188.062 202.117 188.928C202.209 189.088 202.519 189.442 202.75 189.841L203.428 190.834C203.923 191.507 204.339 192.226 204.834 192.899C205.744 194.291 206.653 195.683 207.563 197.075C209.383 199.859 211.248 202.723 213.068 205.507C220.486 216.883 227.987 228.957 235.434 241.487C238.466 246.554 241.325 251.507 244.231 256.54L245.292 258.378L245.799 259.256C245.938 259.496 246.03 259.656 246.089 259.942C246.39 260.832 246.248 261.873 245.762 262.687C245.503 263.156 245.151 263.466 244.799 263.776C244.719 263.822 244.56 263.914 244.48 263.96C244.4 264.006 244.162 264.144 244.003 264.235L243.046 264.787C241.772 265.523 240.452 266.179 239.178 266.914C213.74 280.961 189.7 294.308 168.05 306.275C157.208 312.321 147.003 318.001 137.436 323.312C132.691 325.944 128.027 328.531 123.647 331.059L122.851 331.519C122.612 331.657 122.453 331.749 122.168 331.807C121.724 331.957 121.233 332.027 120.822 332.051C119.875 332.065 119.028 331.701 118.295 331.167C117.905 330.859 117.595 330.506 117.41 330.186C117.134 329.707 116.811 329.148 116.534 328.668C115.934 327.63 115.334 326.591 114.781 325.633C105.51 309.575 97.5603 296.909 91.9289 288.442C89.1536 284.187 86.8513 280.935 85.3549 278.71C84.0044 276.188 83.1533 275.081 83.0737 275.127Z" fill="#1B1B1B"/>
<path d="M83.0737 275.127C82.9144 275.219 83.6063 276.417 84.9441 278.735C86.2813 281.051 88.3446 284.441 91.0069 288.868C96.2862 297.644 103.871 310.414 112.904 326.61C113.503 327.648 114.057 328.607 114.576 329.692C114.853 330.171 115.176 330.731 115.499 331.289C115.868 331.929 116.317 332.522 116.924 333.023C118.061 334.072 119.582 334.684 121.146 334.634C121.888 334.632 122.663 334.504 123.472 334.249C123.836 334.145 124.234 333.915 124.473 333.777L125.27 333.317C129.695 330.869 134.326 328.408 139.15 325.73C148.764 320.499 159.015 314.9 169.903 308.934C191.6 297.046 215.605 283.825 241.17 269.811C242.444 269.076 243.764 268.42 245.038 267.684L245.994 267.133C246.153 267.041 246.312 266.949 246.471 266.857C246.711 266.719 246.87 266.627 247.108 266.489C247.939 265.903 248.596 265.204 249.036 264.311C250.008 262.685 250.293 260.604 249.723 258.696C249.571 258.251 249.42 257.805 249.143 257.326L248.59 256.367L247.483 254.45C244.577 249.416 241.671 244.384 238.64 239.317C231.067 226.752 223.611 214.759 216.069 203.349C214.203 200.485 212.337 197.621 210.437 194.883C209.528 193.49 208.618 192.099 207.628 190.753C207.134 190.079 206.719 189.36 206.224 188.687L205.545 187.695C205.36 187.375 205.176 187.056 204.773 186.543C203.393 184.889 201.231 183.901 199.177 184.021C198.151 184.081 197.056 184.394 196.134 184.82C195.895 184.957 195.657 185.095 195.497 185.187L195.02 185.463L194.031 186.141C191.415 187.864 188.801 189.586 186.231 191.389C165.608 205.32 147.005 217.232 131.449 227.066C115.813 236.945 103.223 244.746 94.5693 250.169C90.2821 252.857 86.9503 254.994 84.6873 256.407C82.4703 257.9 81.3221 258.669 81.4143 258.829C81.4604 258.909 82.7471 258.379 85.1024 257.126C87.4577 255.872 90.9278 253.975 95.3869 251.401C104.272 246.378 116.999 238.817 132.82 229.256C148.594 219.616 167.289 207.864 188.018 194.299C190.632 192.576 193.248 190.853 195.863 189.13L196.851 188.453L197.33 188.177L197.728 187.947C198.205 187.671 198.776 187.555 199.312 187.565C200.465 187.539 201.483 188.016 202.196 188.882C202.289 189.042 202.598 189.396 202.829 189.795L203.508 190.788C204.003 191.461 204.418 192.18 204.913 192.853C205.823 194.245 206.733 195.637 207.643 197.029C209.462 199.813 211.328 202.677 213.147 205.461C220.565 216.837 228.066 228.911 235.513 241.44C238.545 246.508 241.404 251.461 244.31 256.495L245.371 258.332L245.878 259.21C246.017 259.45 246.109 259.61 246.168 259.895C246.47 260.786 246.328 261.827 245.842 262.641C245.582 263.11 245.231 263.42 244.878 263.73C244.799 263.776 244.64 263.867 244.56 263.914C244.48 263.96 244.241 264.097 244.082 264.19L243.126 264.741C241.852 265.477 240.532 266.132 239.258 266.868C213.819 280.916 189.78 294.262 168.129 306.229C157.288 312.275 147.083 317.955 137.515 323.266C132.771 325.898 128.107 328.485 123.727 331.013L122.931 331.473C122.692 331.611 122.533 331.703 122.248 331.761C121.803 331.911 121.313 331.981 120.902 332.005C119.955 332.019 119.108 331.655 118.374 331.121C117.984 330.813 117.674 330.46 117.49 330.14C117.213 329.661 116.89 329.102 116.613 328.622C116.014 327.584 115.414 326.545 114.861 325.587C105.59 309.529 97.6399 296.863 92.0085 288.396C89.2332 284.141 86.9309 280.889 85.4345 278.665C84.0841 276.142 83.1533 275.081 83.0737 275.127Z" fill="#1B1B1B"/>
<path d="M130.49 304.845C129.891 303.807 127.623 304.477 124.949 305.914C124.79 306.006 124.71 306.052 124.551 306.144C124.392 306.236 124.312 306.282 124.153 306.374C121.525 307.891 119.686 309.486 120.285 310.524C120.839 311.483 123.153 310.893 125.826 309.455C125.985 309.363 126.065 309.317 126.224 309.225C126.383 309.134 126.463 309.088 126.622 308.996C129.329 307.433 131.044 305.805 130.49 304.845Z" fill="#1B1B1B"/>
<path d="M145.77 294.533C145.091 293.541 142.484 294.726 139.471 296.679C139.312 296.771 139.152 296.863 138.993 296.955C138.834 297.047 138.675 297.139 138.515 297.231C135.548 299.262 133.39 301.041 134.036 302.16C134.589 303.118 137.334 302.173 140.473 300.254C140.633 300.162 140.792 300.07 140.951 299.978C141.11 299.886 141.27 299.794 141.429 299.702C144.429 297.544 146.403 295.446 145.77 294.533Z" fill="#1B1B1B"/>
<path d="M163.187 284.797C162.587 283.758 159.808 284.829 156.623 286.668C156.464 286.76 156.305 286.852 156.145 286.944C155.986 287.036 155.827 287.128 155.668 287.22C152.495 289.264 150.258 291.089 150.903 292.207C151.457 293.166 154.282 292.175 157.467 290.336C157.626 290.244 157.785 290.152 157.945 290.06C158.104 289.968 158.263 289.876 158.422 289.784C161.549 287.66 163.694 285.675 163.187 284.797Z" fill="#1B1B1B"/>
<path d="M180.949 275.288C180.349 274.249 177.411 275.412 173.781 277.401C173.622 277.493 173.463 277.585 173.224 277.723C173.065 277.815 172.905 277.907 172.667 278.045C169.209 280.148 166.653 282.156 167.253 283.195C167.806 284.154 170.79 283.07 174.42 281.081C174.579 280.989 174.738 280.897 174.977 280.759C175.136 280.667 175.296 280.575 175.534 280.438C179.071 278.289 181.502 276.246 180.949 275.288Z" fill="#1B1B1B"/>
<path d="M99.144 272.986C105.141 269.949 110.816 266.354 116.087 262.245C117.541 261.086 119.667 261.457 120.749 262.963L125.088 269.191C126.124 270.618 125.76 272.745 124.293 273.699C119.268 277.133 114.23 280.36 108.975 283.394C107.303 284.36 105.245 283.737 104.436 281.968C102.98 279.079 101.24 276.25 99.3072 273.637" fill="#1B1B1B"/>
<path d="M109.443 279.609C109.9 279.664 110.357 279.72 110.801 279.57C112.146 279.326 113.11 278.237 113.617 277.092C114.024 276.325 114.949 274.618 114.157 273.798C113.629 273.251 112.418 272.992 111.676 272.994C109.55 272.623 106.244 273.148 105.871 275.812C105.54 277.814 107.49 279.351 109.443 279.609Z" fill="white"/>
<path d="M109.444 279.609C109.444 279.609 109.193 279.541 108.643 279.325C108.392 279.257 108.128 278.984 107.864 278.71C107.6 278.437 107.369 278.037 107.218 277.592C107.067 277.146 107.121 276.689 107.268 276.391C107.369 276.014 107.515 275.716 107.708 275.498C107.901 275.281 108.14 275.143 108.492 274.833C108.89 274.603 109.493 274.361 110.063 274.245C110.348 274.187 110.554 274.175 110.839 274.117C111.123 274.058 111.375 274.126 111.706 274.148C112.037 274.17 112.368 274.192 112.7 274.214C113.031 274.236 113.203 274.35 113.328 274.384L113.408 274.338C113.408 274.338 113.454 274.418 113.5 274.498C113.513 274.703 113.526 274.909 113.504 275.24C113.417 275.824 113.123 276.419 112.989 276.923C112.776 277.472 112.596 277.896 112.29 278.286C111.678 279.064 110.869 279.319 110.379 279.389C109.775 279.631 109.398 279.529 109.444 279.609C109.444 279.609 109.742 279.757 110.358 279.72C110.894 279.73 111.749 279.556 112.659 278.924C113.136 278.648 113.602 278.167 113.987 277.731C114.406 277.17 114.792 276.735 115.119 276.013C115.219 275.635 115.445 275.292 115.533 274.708C115.6 274.456 115.541 274.171 115.437 273.806C115.332 273.44 115.147 273.12 114.883 272.847C114.401 272.379 113.898 272.244 113.475 272.062C113.051 271.881 112.594 271.825 112.171 271.643C111.84 271.621 111.462 271.519 111.086 271.418C110.754 271.396 110.297 271.34 109.966 271.319C109.019 271.333 107.992 271.393 107.07 271.818C106.102 272.164 105.205 273.002 104.732 274.021C104.258 275.04 104.321 276.068 104.657 276.834C104.959 277.724 105.567 278.226 106.082 278.567C106.598 278.909 107.147 279.124 107.524 279.226C107.901 279.327 108.279 279.429 108.61 279.451C109.113 279.587 109.444 279.609 109.444 279.609Z" fill="white"/>
<path d="M247.404 161.078C257.739 155.111 261.429 142.155 255.646 132.139C249.864 122.124 236.798 118.841 226.463 124.808C216.129 130.775 212.439 143.731 218.221 153.747C224.004 163.762 237.069 167.045 247.404 161.078Z" fill="#E2E2E2"/>
<path d="M233.071 116.945C233.059 116.739 231.264 116.391 228.096 117.154C226.511 117.537 224.621 118.309 222.676 119.538C220.732 120.767 218.62 122.625 216.91 124.997C215.2 127.369 213.781 130.426 213.048 133.938C212.269 137.37 212.178 141.258 212.954 145.176C213.65 149.142 215.546 153.16 218.351 156.547C219.776 158.281 221.441 159.876 223.412 161.082C225.348 162.414 227.431 163.448 229.741 164.138C231.594 164.773 233.468 165.076 235.328 165.173C237.189 165.271 239.084 165.242 241 164.882C245.778 164.147 249.964 161.836 253.291 158.957C256.527 155.917 258.936 152.183 260.1 148.315C260.808 146.415 261.06 144.459 261.231 142.549C261.213 141.601 261.323 140.685 261.226 139.782C261.129 138.88 261.113 137.931 260.936 137.074C260.39 133.554 258.969 130.54 257.367 127.95C255.731 125.486 253.837 123.49 251.98 122.112C250.202 120.689 248.45 119.676 246.928 119.064C243.965 117.792 242.183 117.649 242.116 117.901C242.049 118.153 243.617 118.845 246.229 120.426C248.761 122.054 252.429 124.729 255.104 129.363C256.441 131.68 257.519 134.466 257.914 137.54C258.044 138.318 258.048 139.061 258.099 139.884C258.149 140.707 258.075 141.495 258.045 142.364C257.815 143.989 257.551 145.739 256.99 147.341C255.96 150.705 253.844 153.844 250.994 156.448C248.098 158.972 244.423 160.882 240.421 161.488C238.79 161.79 237.181 161.76 235.571 161.731C233.995 161.576 232.373 161.341 230.771 160.774C228.839 160.185 226.927 159.265 225.334 158.161C223.662 157.103 222.215 155.701 220.974 154.287C218.526 151.333 216.874 147.92 216.122 144.413C215.371 140.905 215.409 137.475 215.961 134.386C216.514 131.298 217.661 128.505 219.052 126.317C220.524 124.083 222.191 122.375 223.884 121.077C225.577 119.78 227.216 118.941 228.582 118.365C231.453 117.453 233.13 117.231 233.071 116.945Z" fill="#1B1B1B"/>
<path d="M68.5743 212.131C68.5156 211.845 67.6353 211.608 65.8792 211.876C64.2488 212.178 61.7216 213.318 59.7396 215.953C57.8373 218.543 56.6395 222.536 57.3949 226.787C57.7726 228.912 58.733 231.128 60.2507 233.021C61.7685 234.914 64.0028 236.393 66.4844 237.198C67.5365 237.549 68.576 237.694 69.5694 237.76C70.5628 237.826 71.6359 237.845 72.6501 237.579C75.2613 237.137 77.537 235.929 79.3766 234.335C81.1702 232.66 82.4481 230.644 83.0177 228.504C83.7129 226.399 83.746 224.249 83.3809 222.33C83.0158 220.41 82.2987 218.8 81.3889 217.408C79.5356 214.75 77.3139 213.476 75.6664 212.829C74.0652 212.263 73.1179 212.277 73.0509 212.529C72.9839 212.78 73.751 213.19 75.0003 214.066C76.2495 214.943 77.9474 216.412 79.2389 218.649C79.805 219.814 80.3377 221.104 80.4721 222.624C80.6862 224.098 80.456 225.723 79.9744 227.279C79.4131 228.881 78.4285 230.302 77.1461 231.575C75.7716 232.688 74.0198 233.699 72.138 233.934C71.3625 234.062 70.6206 234.064 69.8787 234.066C69.0907 233.989 68.3823 233.865 67.6279 233.662C65.8212 233.107 64.1486 232.049 63.0333 230.669C61.8384 229.335 61.0752 227.645 60.6892 226.057C59.9047 222.675 60.6164 219.495 61.9279 217.353C63.319 215.165 65.0582 213.948 66.3783 213.292C67.8242 212.67 68.6331 212.416 68.5743 212.131Z" fill="#1B1B1B"/>
<path d="M231.661 129.583C230.672 130.26 232.899 134.3 235.406 139.563C235.545 139.803 235.683 140.043 235.788 140.408C235.926 140.648 235.985 140.934 236.169 141.253C238.803 146.55 240.506 150.786 241.679 150.428C242.693 150.163 241.946 145.375 239.334 139.746C239.195 139.506 239.011 139.187 238.952 138.901C238.814 138.661 238.63 138.342 238.57 138.056C235.752 132.44 232.57 128.951 231.661 129.583Z" fill="#1B1B1B"/>
<path d="M246.681 135.185C246.16 134.101 241.923 135.588 236.55 138.051C236.312 138.189 236.073 138.327 235.787 138.385C235.549 138.523 235.264 138.581 235.025 138.718C229.744 141.342 225.934 143.754 226.455 144.838C226.929 145.843 231.212 144.435 236.585 141.972C236.824 141.834 237.063 141.696 237.348 141.638C237.586 141.501 237.872 141.442 238.111 141.305C243.345 138.602 247.155 136.189 246.681 135.185Z" fill="black"/>
<path d="M68.5908 228.525C68.4776 228.697 68.5364 228.983 68.7671 229.382C69.0773 229.736 69.4337 230.169 70.4062 230.566C70.8295 230.748 71.3661 230.758 71.9822 230.721C72.5187 230.731 73.0426 230.535 73.646 230.293C74.2496 230.051 74.807 229.73 75.3182 229.328C75.8631 228.8 76.6006 228.055 76.6506 226.854C76.7006 225.654 76.386 224.557 75.5937 223.736C75.2372 223.303 74.6755 222.882 74.0006 222.632C73.3257 222.383 72.6634 222.339 72.0934 222.455C71.5234 222.571 71.0792 222.721 70.7145 222.825C70.3499 222.929 70.0314 223.113 69.6668 223.217C69.3022 223.321 69.0632 223.459 68.6986 223.563L68.4933 223.575C68.4933 223.575 68.4933 223.575 68.3675 223.541C68.2418 223.507 68.183 223.222 68.0908 223.062C67.9063 222.742 67.835 222.251 67.9354 221.873C67.9563 221.542 68.1029 221.244 68.1699 220.992C68.3501 220.569 68.9997 220.407 69.49 220.336C69.9805 220.266 70.4709 220.196 70.6175 219.899C70.6845 219.647 70.5796 219.281 69.9383 218.906C69.5946 218.678 69.1711 218.497 68.6345 218.487C68.052 218.397 67.1969 218.571 66.5264 219.065C65.1057 220.098 64.4439 222.078 64.981 224.112C65.1781 224.637 65.3752 225.162 65.7777 225.675C66.1802 226.189 66.8342 226.77 67.5887 226.973C67.966 227.075 68.3767 227.051 68.7078 227.073C68.9132 227.061 69.1186 227.049 69.2778 226.957L69.6424 226.853C70.0867 226.703 70.6568 226.587 71.0549 226.357C71.2938 226.219 71.6584 226.115 71.8973 225.977C72.1823 225.919 72.3416 225.827 72.4673 225.861C72.6726 225.849 72.6726 225.849 72.7523 225.803C72.7523 225.803 72.878 225.837 72.9241 225.917C73.096 226.031 73.2009 226.396 73.247 226.476C73.247 226.476 73.2597 226.682 73.0669 226.9C72.7945 227.163 72.5221 227.427 72.2036 227.611C71.8851 227.795 71.5666 227.979 71.3277 228.117C71.0889 228.255 70.8038 228.313 70.5985 228.325C70.1081 228.395 69.605 228.259 69.1943 228.283C68.9428 228.215 68.7374 228.227 68.5908 228.525Z" fill="black"/>
<path d="M73.7674 231.608C74.2787 231.206 73.9767 230.315 73.4902 229.105C72.9576 227.814 72.1608 226.251 71.1335 224.287C71.0413 224.128 70.9029 223.888 70.8107 223.728C70.7184 223.568 70.58 223.329 70.4878 223.169C69.5065 221.285 68.4918 219.528 67.515 218.387C66.5381 217.247 65.7248 216.758 65.2136 217.16C64.7358 217.436 64.8324 218.338 65.2854 219.675C65.7383 221.011 66.4219 222.747 67.3697 224.756C67.462 224.916 67.6003 225.155 67.6926 225.315C67.7848 225.475 67.9232 225.715 68.0155 225.874C69.0428 227.838 70.2964 229.457 71.3529 230.552C72.3633 231.566 73.3358 231.963 73.7674 231.608Z" fill="black"/>
<path d="M75.3602 230.688C75.8715 230.287 75.5695 229.396 75.083 228.185C74.5504 226.895 73.7537 225.331 72.7263 223.368C72.634 223.208 72.4956 222.968 72.4034 222.809C72.3112 222.649 72.1728 222.409 72.0805 222.249C71.0993 220.366 70.0846 218.608 69.1077 217.468C68.1308 216.328 67.3176 215.839 66.8063 216.24C66.3286 216.516 66.4252 217.419 66.8781 218.755C67.3312 220.092 68.0147 221.827 68.9625 223.837C69.0547 223.996 69.193 224.236 69.2853 224.396C69.3776 224.556 69.516 224.795 69.6082 224.955C70.6356 226.918 71.8892 228.538 72.9456 229.632C73.956 230.647 74.9285 231.044 75.3602 230.688Z" fill="black"/>
</g>
<path d="M159.443 127.298C159.75 127.298 160.057 126.992 160.261 126.584C160.466 126.278 160.773 125.768 161.182 125.462C161.591 125.156 161.897 125.258 162.204 125.36C162.306 125.462 162.409 125.564 162.613 125.768C162.818 125.972 163.022 126.38 163.125 126.89C163.227 127.094 163.227 127.298 163.227 127.4C163.227 127.604 163.329 127.706 163.329 128.012V128.216V128.318H163.125C162.92 128.318 162.716 128.318 162.511 128.216C162.204 128.216 161.897 128.114 161.591 128.012C161.079 127.91 160.773 127.706 160.364 127.502C160.159 127.502 159.852 127.298 159.443 127.298C159.137 127.298 158.932 127.604 158.83 128.216C158.727 128.828 159.137 129.848 160.057 130.664C160.466 131.072 161.079 131.378 161.693 131.582C162 131.684 162.204 131.786 162.511 131.888L162.716 131.99L163.125 132.092C163.329 132.092 163.636 132.194 163.943 132.194C164.965 132.296 166.09 131.888 166.806 130.97C167.113 130.562 167.317 129.95 167.419 129.338C167.419 129.032 167.419 128.726 167.419 128.42V128.012V127.706C167.419 127.4 167.317 126.992 167.215 126.686C167.113 126.38 167.01 126.074 166.908 125.666C166.601 124.85 166.192 124.034 165.579 123.422C164.965 122.708 164.045 122.096 163.022 121.994C161.079 121.688 159.443 122.912 158.932 124.034C158.421 125.156 158.523 126.074 158.625 126.686C158.83 127.196 159.239 127.4 159.443 127.298Z" fill="black"/>
<path d="M130.814 60.8606C129.484 60.8606 128.973 63.2066 128.871 66.2666C128.871 66.3686 128.871 66.5726 128.871 66.6746C128.871 66.7766 128.871 66.9806 128.871 67.0826C128.973 70.1426 129.484 72.4885 130.814 72.4885C132.041 72.4885 132.654 70.1426 132.757 67.0826C132.757 66.9806 132.757 66.7766 132.757 66.6746C132.757 66.5726 132.757 66.3686 132.757 66.2666C132.654 63.2066 132.041 60.8606 130.814 60.8606Z" fill="black"/>
<path d="M178.233 197.528C177.006 198.038 176.699 198.854 176.903 199.67V199.771V199.874C177.312 200.69 178.028 201.098 179.255 200.588C180.38 200.18 180.789 199.262 180.585 198.446C180.585 198.446 180.585 198.344 180.482 198.344V198.242C180.176 197.426 179.357 197.018 178.233 197.528Z" fill="black"/>
<path d="M120.145 124.758C120.145 126.083 120.758 126.594 121.576 126.696H121.678H121.781C122.599 126.594 123.212 126.083 123.212 124.758C123.212 123.534 122.599 122.921 121.781 122.819H121.678H121.576C120.758 122.921 120.145 123.534 120.145 124.758Z" fill="black"/>
<path d="M55.0021 116.306C54.5931 116.816 54.5931 117.428 55.0021 118.142C55.4111 118.856 56.3313 119.57 57.4563 120.182L57.7629 120.284L58.0697 120.386C59.2968 120.794 60.4216 120.896 61.2397 120.794C62.0577 120.59 62.569 120.182 62.6713 119.468C62.7735 118.244 61.2397 117.53 59.5013 116.714L59.1945 116.612C57.3539 116 55.8202 115.388 55.0021 116.306Z" fill="black"/>
<path d="M91.5444 80.0591C90.2151 80.0591 89.7038 81.1811 89.6016 82.6091C89.6016 82.7111 89.6016 82.7111 89.6016 82.8131C89.6016 82.9151 89.6016 82.9151 89.6016 83.0171C89.7038 84.4451 90.2151 85.5671 91.5444 85.5671C92.7714 85.5671 93.385 84.4451 93.4872 83.0171C93.4872 82.9151 93.4872 82.9151 93.4872 82.8131C93.4872 82.7111 93.4872 82.7111 93.4872 82.6091C93.385 81.0791 92.7714 80.0591 91.5444 80.0591Z" fill="black"/>
<path d="M272.717 97.0589C271.388 97.0589 270.877 98.0789 270.774 99.3029C270.774 99.4049 270.774 99.4049 270.774 99.5069C270.774 99.6089 270.774 99.6089 270.774 99.7109C270.877 100.935 271.388 101.955 272.717 101.955C273.944 101.955 274.558 100.935 274.66 99.7109C274.66 99.6089 274.66 99.6089 274.66 99.5069C274.66 99.4049 274.66 99.4049 274.66 99.3029C274.558 98.0789 273.944 97.0589 272.717 97.0589Z" fill="black"/>
<path d="M194.502 93.0375C195.013 94.2613 195.831 94.5681 196.649 94.2613C196.649 94.2613 196.752 94.2613 196.752 94.1594H196.854C197.57 93.7519 197.979 93.0375 197.57 91.8137C197.161 90.6918 196.24 90.3862 195.422 90.5899C195.422 90.5899 195.32 90.5899 195.32 90.6918H195.218C194.4 91.0994 194.093 91.9156 194.502 93.0375Z" fill="black"/>
<path d="M294.761 130.638C295.17 131.863 296.704 131.965 298.545 131.353C298.647 131.353 298.749 131.251 298.852 131.251C298.954 131.251 299.056 131.149 299.158 131.149C300.897 130.435 302.022 129.415 301.613 128.191C301.204 127.069 299.67 126.967 297.829 127.476C297.727 127.476 297.625 127.578 297.522 127.578C297.42 127.578 297.318 127.681 297.216 127.681C295.477 128.395 294.352 129.415 294.761 130.638Z" fill="black"/>
<path d="M197.812 59.308C197.812 60.6339 198.833 61.1439 200.062 61.246C200.164 61.246 200.164 61.246 200.265 61.246C200.367 61.246 200.367 61.246 200.471 61.246C201.698 61.1439 202.719 60.6339 202.719 59.308C202.719 58.084 201.698 57.472 200.471 57.37C200.367 57.37 200.367 57.37 200.265 57.37C200.164 57.37 200.164 57.37 200.062 57.37C198.833 57.472 197.812 58.084 197.812 59.308Z" fill="#1B1B1B"/>
<path d="M285.275 230.69C286.604 230.69 287.116 229.67 287.218 228.446C287.218 228.344 287.218 228.344 287.218 228.241C287.218 228.139 287.218 228.139 287.218 228.037C287.116 226.813 286.604 225.793 285.275 225.793C284.048 225.793 283.434 226.813 283.332 228.037C283.332 228.139 283.332 228.139 283.332 228.241C283.332 228.344 283.332 228.344 283.332 228.446C283.434 229.67 284.048 230.69 285.275 230.69Z" fill="#1B1B1B"/>
<path d="M287.695 177.99C287.695 179.315 290.047 179.826 293.013 179.928C293.115 179.928 293.319 179.928 293.422 179.928C293.524 179.928 293.728 179.928 293.831 179.928C296.898 179.826 299.148 179.315 299.148 177.99C299.148 176.766 296.796 176.154 293.831 176.052C293.728 176.052 293.524 176.052 293.422 176.052C293.319 176.052 293.115 176.052 293.013 176.052C290.047 176.154 287.695 176.766 287.695 177.99Z" fill="#1B1B1B"/>
</svg>
