<svg width="348" height="284" viewBox="0 0 348 284" fill="none" xmlns="http://www.w3.org/2000/svg">
<mask id="mask0_1109_17967" style="mask-type:luminance" maskUnits="userSpaceOnUse" x="32" y="74" width="282" height="266">
<path d="M226.11 74.8263L32.0605 187.202L119.924 339.849L313.973 227.474L226.11 74.8263Z" fill="white"/>
</mask>
<g mask="url(#mask0_1109_17967)">
<path d="M76.9246 189.026C76.8747 190.227 78.847 190.895 81.5797 191.23C81.7049 191.264 81.8304 191.298 82.0351 191.286C82.1604 191.32 82.2858 191.354 82.4905 191.342C85.2105 191.471 87.3706 191.179 87.4203 189.978C87.5162 188.857 85.4979 188.109 82.7653 187.774C82.6399 187.74 82.5146 187.706 82.3558 187.798C82.2305 187.764 82.1051 187.73 81.9004 187.743C79.2138 187.488 77.0204 187.906 76.9246 189.026Z" fill="#1B1B1B"/>
<path d="M78.8782 165.211C77.9844 166.048 80.4375 169.207 83.8727 172.968C84.0899 173.162 84.1819 173.322 84.3992 173.515C84.6164 173.709 84.7084 173.869 84.9257 174.063C88.4402 177.778 91.3902 180.33 92.2506 179.619C93.1111 178.907 90.9294 175.485 87.4943 171.723C87.2771 171.529 87.1851 171.37 86.9678 171.176C86.7505 170.982 86.6586 170.822 86.4412 170.629C82.8348 166.753 79.6466 164.34 78.8782 165.211Z" fill="#1B1B1B"/>
<path d="M99.8114 148.081C98.6165 148.027 97.6904 153.037 97.0698 159.68C97.049 160.012 97.0282 160.343 97.0074 160.675C96.9866 161.006 96.9658 161.338 96.945 161.669C96.4497 168.346 96.5137 173.421 97.7546 173.555C98.87 173.654 99.8756 168.599 100.496 161.956C100.517 161.624 100.538 161.293 100.559 160.961C100.579 160.63 100.6 160.298 100.621 159.966C101.037 153.335 100.927 148.181 99.8114 148.081Z" fill="#1B1B1B"/>
<path d="M107.589 200.828L107.598 200.825L107.606 200.822C149.987 186.931 192.308 172.754 234.377 158.51C235.15 158.248 236.119 157.881 237.08 157.516C237.766 157.256 238.447 156.997 239.051 156.779C239.809 156.506 240.458 156.291 240.93 156.175C241.008 156.156 241.077 156.14 241.136 156.128C242.727 158.398 243.7 161.092 244.477 163.949C244.82 165.213 245.121 166.49 245.422 167.769C245.479 168.011 245.536 168.254 245.593 168.496C245.922 169.886 246.26 171.274 246.659 172.603C246.522 172.723 246.301 172.881 245.985 173.064C245.224 173.505 244.085 173.993 242.743 174.411L242.734 174.414C202.72 187.256 168.065 198.379 112.337 216.274C111.037 216.668 109.853 216.899 109.008 216.967C108.725 216.99 108.504 216.993 108.343 216.984C107.221 212.595 105.414 208.407 102.968 204.494L102.281 202.464L107.589 200.828Z" fill="#ADFFD8" stroke="black" stroke-width="2"/>
<path d="M241.717 152.487C241.558 152.578 241.805 153.926 242.457 156.531C243.11 159.135 244.043 162.962 245.414 167.919C248.157 177.832 252.36 192.12 258.322 209.649C258.716 210.699 259.075 211.876 259.468 212.925C259.664 213.451 259.906 214.056 260.024 214.627C260.175 215.072 260.2 215.484 260.271 215.976C260.241 216.844 259.929 217.771 259.273 218.47C258.968 218.86 258.571 219.09 258.174 219.32C257.936 219.457 257.778 219.549 257.493 219.607L256.608 219.907C251.862 221.59 246.958 223.365 241.77 225.198C231.519 228.898 220.541 232.806 208.836 236.922C185.596 245.268 159.826 254.547 132.569 264.368C131.161 264.864 129.832 265.313 128.471 265.889L127.426 266.281C127.267 266.372 127.063 266.384 126.983 266.43C126.904 266.476 126.745 266.568 126.62 266.534C126.131 266.604 125.642 266.674 125.141 266.539C124.184 266.348 123.327 265.778 122.868 264.98C122.73 264.74 122.638 264.581 122.579 264.295L122.232 263.324L121.572 261.257C119.719 255.833 117.901 250.283 116.082 244.733C111.574 230.835 107.501 217.325 103.863 204.201C102.922 200.912 102.027 197.703 101.132 194.493C100.747 192.906 100.237 191.284 99.8524 189.696C99.5973 188.885 99.4676 188.108 99.2126 187.298L98.8529 186.121C98.7484 185.756 98.5979 185.31 98.5853 185.105C98.397 184.042 98.7768 182.864 99.466 182.039C99.8502 181.603 100.326 181.327 100.849 181.131L101.291 180.982L101.86 180.866L103.029 180.508C106.062 179.71 109.049 178.832 112.082 178.034C135.923 171.47 157.069 165.188 174.648 159.694C192.227 154.201 206.284 149.575 215.9 146.243C220.725 144.514 224.426 143.222 226.958 142.289C229.49 141.355 230.726 140.746 230.68 140.666C230.634 140.586 229.292 140.83 226.748 141.558C224.204 142.286 220.412 143.417 215.528 144.861C205.807 147.827 191.646 152.088 174.008 157.296C156.371 162.504 135.212 168.58 111.358 174.939C108.405 175.691 105.372 176.488 102.26 177.332L101.09 177.69L100.522 177.806C100.317 177.818 100.079 177.956 99.7949 178.014C98.8299 178.36 97.9235 178.991 97.1884 179.736C95.7182 181.227 95.0379 183.538 95.4145 185.663C95.5316 186.234 95.6362 186.6 95.7408 186.965L96.021 188.187C96.276 188.998 96.4058 189.775 96.6609 190.586C97.0456 192.174 97.5557 193.795 97.9405 195.383C98.8355 198.592 99.651 201.848 100.592 205.137C104.23 218.26 108.27 231.897 112.777 245.795C114.642 251.424 116.415 256.894 118.314 262.399L118.974 264.466L119.367 265.516C119.518 265.961 119.748 266.361 120.023 266.84C121.068 268.472 122.748 269.736 124.615 270.038C125.572 270.23 126.517 270.216 127.448 269.996C127.653 269.984 127.891 269.845 128.175 269.787C128.459 269.729 128.538 269.683 128.697 269.591L129.741 269.2C131.149 268.704 132.478 268.254 133.839 267.679C161.131 257.732 186.776 248.419 210.048 239.948C221.661 235.672 232.593 231.684 242.798 227.904C247.941 225.992 252.845 224.216 257.545 222.454L258.431 222.154C258.794 222.05 259.112 221.866 259.429 221.682C260.144 221.268 260.732 220.821 261.229 220.213C262.223 218.998 262.748 217.522 262.819 215.99C262.815 215.247 262.685 214.471 262.476 213.74C262.28 213.214 262.037 212.61 261.841 212.084C261.402 210.953 261.088 209.857 260.695 208.807C254.495 191.415 249.928 177.233 246.788 167.549C245.258 162.684 244.041 158.915 243.184 156.323C242.373 153.811 241.842 152.52 241.717 152.487Z" fill="#1B1B1B"/>
<path d="M88.0259 255.013L82.3197 257.785L89.998 271.124C101.709 289.265 112.786 307.772 123.306 326.601C124.732 329.078 127.753 330.098 130.18 328.799C168.497 307.674 206.814 286.549 245.132 265.425C247.559 264.125 248.348 260.899 246.876 258.343C233.207 234.413 218.713 211.069 203.424 188.184C201.84 185.8 198.673 185.078 196.384 186.617C160.983 210.419 124.827 233.275 88.0259 255.013Z" fill="#FFF7B1"/>
<path d="M82.9714 275.089C82.8127 275.181 83.5023 276.379 84.8359 278.696C86.1688 281.012 88.2256 284.401 90.8794 288.828C96.142 297.603 103.703 310.371 112.707 326.565C113.304 327.603 113.856 328.562 114.374 329.646C114.65 330.126 114.972 330.685 115.294 331.244C115.662 331.883 116.109 332.476 116.715 332.977C117.847 334.026 119.364 334.638 120.922 334.588C121.662 334.586 122.435 334.458 123.241 334.203C123.604 334.099 124.001 333.87 124.239 333.732L125.033 333.272C129.444 330.824 134.06 328.364 138.868 325.686C148.45 320.457 158.668 314.859 169.52 308.894C191.146 297.01 215.072 283.792 240.554 269.781C241.823 269.046 243.139 268.391 244.409 267.655L245.361 267.104C245.52 267.012 245.679 266.92 245.837 266.828C246.076 266.69 246.234 266.598 246.472 266.461C247.3 265.875 247.955 265.176 248.393 264.282C249.362 262.657 249.646 260.576 249.078 258.669C248.926 258.223 248.776 257.778 248.5 257.298L247.948 256.34L246.845 254.423C243.948 249.39 241.052 244.358 238.03 239.292C230.481 226.729 223.049 214.737 215.531 203.329C213.671 200.465 211.811 197.601 209.917 194.864C209.011 193.472 208.104 192.08 207.117 190.734C206.624 190.061 206.211 189.342 205.717 188.669L205.04 187.677C204.856 187.357 204.672 187.038 204.271 186.525C202.896 184.872 200.74 183.883 198.693 184.004C197.67 184.064 196.579 184.376 195.66 184.802C195.422 184.939 195.184 185.077 195.025 185.169L194.549 185.445L193.496 186.374C190.89 188.096 188.283 189.819 185.723 191.621C165.235 205.297 146.692 217.206 131.108 227.084C115.523 236.961 102.975 244.76 94.3491 250.181C90.0759 252.869 86.7552 255.005 84.4995 256.418C82.2898 257.911 81.1454 258.68 81.2373 258.84C81.2832 258.92 82.5657 258.39 84.9133 257.137C87.2609 255.884 90.7196 253.987 95.1641 251.414C104.02 246.392 116.706 238.832 132.474 229.274C148.197 219.637 166.831 207.887 187.491 194.325C190.098 192.603 192.704 190.88 195.31 189.158L196.296 188.48L196.772 188.205L197.169 187.975C197.645 187.699 198.214 187.583 198.748 187.593C199.897 187.567 200.912 188.044 201.623 188.91C201.715 189.07 202.025 189.423 202.255 189.823L202.931 190.815C203.424 191.488 203.838 192.207 204.331 192.88C205.239 194.272 206.145 195.664 207.052 197.056C208.867 199.839 210.726 202.703 212.54 205.486C219.934 216.861 227.411 228.933 234.834 241.461C237.857 246.528 240.707 251.48 243.604 256.513L244.662 258.35L245.167 259.228C245.305 259.468 245.397 259.628 245.456 259.914C245.756 260.804 245.615 261.845 245.13 262.658C244.872 263.127 244.521 263.437 244.17 263.747C244.09 263.793 243.932 263.885 243.852 263.931C243.773 263.977 243.535 264.115 243.377 264.207L242.423 264.759C241.154 265.494 239.838 266.149 238.568 266.885C213.213 280.929 189.252 294.272 167.673 306.236C156.866 312.281 146.695 317.959 137.159 323.269C132.43 325.9 127.781 328.486 123.416 331.014L122.622 331.474C122.384 331.612 122.225 331.704 121.941 331.762C121.498 331.911 121.009 331.981 120.6 332.005C119.656 332.02 118.812 331.656 118.081 331.121C117.692 330.814 117.382 330.46 117.198 330.141C116.923 329.662 116.601 329.103 116.325 328.623C115.728 327.585 115.13 326.546 114.578 325.588C105.336 309.532 97.4119 296.868 91.7984 288.402C89.0319 284.148 86.737 280.896 85.2453 278.672C83.8992 276.15 83.0508 275.043 82.9714 275.089Z" fill="#1B1B1B"/>
<path d="M82.9714 275.089C82.8127 275.181 83.5023 276.379 84.8359 278.696C86.1688 281.012 88.2256 284.401 90.8794 288.828C96.142 297.603 103.703 310.371 112.707 326.565C113.304 327.603 113.856 328.562 114.374 329.646C114.65 330.126 114.972 330.685 115.294 331.244C115.662 331.883 116.109 332.476 116.715 332.977C117.847 334.026 119.364 334.638 120.922 334.588C121.662 334.586 122.435 334.458 123.241 334.203C123.604 334.099 124.001 333.87 124.239 333.732L125.033 333.272C129.444 330.824 134.06 328.364 138.868 325.686C148.45 320.457 158.668 314.859 169.52 308.894C191.146 297.01 215.072 283.792 240.554 269.781C241.823 269.046 243.139 268.391 244.409 267.655L245.361 267.104C245.52 267.012 245.679 266.92 245.837 266.828C246.076 266.69 246.234 266.598 246.472 266.461C247.3 265.875 247.955 265.176 248.393 264.282C249.362 262.657 249.646 260.576 249.078 258.669C248.926 258.223 248.776 257.778 248.5 257.298L247.948 256.34L246.845 254.423C243.948 249.39 241.052 244.358 238.03 239.292C230.481 226.729 223.049 214.737 215.531 203.329C213.671 200.465 211.811 197.601 209.917 194.864C209.011 193.472 208.104 192.08 207.117 190.734C206.624 190.061 206.211 189.342 205.717 188.669L205.04 187.677C204.856 187.357 204.672 187.038 204.271 186.525C202.896 184.872 200.74 183.883 198.693 184.004C197.67 184.064 196.579 184.376 195.66 184.802C195.422 184.939 195.184 185.077 195.025 185.169L194.549 185.445L193.563 186.122C190.956 187.845 188.35 189.567 185.79 191.37C165.235 205.297 146.692 217.206 131.187 227.038C115.602 236.915 103.054 244.714 94.4285 250.135C90.1553 252.823 86.8345 254.959 84.5789 256.372C82.3692 257.865 81.2247 258.634 81.3167 258.794C81.3626 258.874 82.6451 258.344 84.9927 257.091C87.3403 255.838 90.799 253.941 95.2434 251.368C104.099 246.346 116.785 238.786 132.554 229.228C148.276 219.591 166.91 207.841 187.57 194.279C190.176 192.557 192.783 190.834 195.39 189.112L196.375 188.435L196.852 188.159L197.249 187.929C197.725 187.653 198.293 187.537 198.828 187.547C199.977 187.521 200.992 187.998 201.703 188.864C201.795 189.024 202.103 189.378 202.333 189.777L203.01 190.769C203.504 191.442 203.918 192.161 204.411 192.834C205.317 194.226 206.225 195.618 207.132 197.01C208.945 199.794 210.806 202.657 212.619 205.441C220.013 216.815 227.49 228.887 234.914 241.415C237.936 246.482 240.786 251.434 243.683 256.467L244.74 258.305L245.246 259.183C245.384 259.422 245.476 259.582 245.535 259.868C245.835 260.758 245.694 261.799 245.21 262.612C244.951 263.082 244.6 263.391 244.249 263.701C244.17 263.747 244.011 263.839 243.932 263.885C243.852 263.931 243.614 264.069 243.455 264.161L242.503 264.712C241.233 265.448 239.917 266.103 238.647 266.839C213.292 280.883 189.331 294.226 167.752 306.19C156.946 312.235 146.775 317.913 137.238 323.223C132.509 325.855 127.86 328.44 123.495 330.968L122.701 331.428C122.463 331.566 122.305 331.658 122.02 331.716C121.578 331.866 121.089 331.936 120.679 331.96C119.735 331.974 118.891 331.61 118.16 331.076C117.771 330.768 117.462 330.414 117.278 330.095C117.002 329.616 116.68 329.057 116.404 328.577C115.807 327.539 115.209 326.5 114.657 325.542C105.416 309.486 97.4912 296.822 91.8778 288.356C89.1113 284.102 86.8164 280.85 85.3247 278.626C83.9785 276.104 83.0508 275.043 82.9714 275.089Z" fill="#1B1B1B"/>
<path d="M162.825 284.76C162.227 283.721 159.457 284.792 156.283 286.631C156.124 286.723 155.965 286.815 155.806 286.907C155.648 286.999 155.489 287.09 155.33 287.182C152.168 289.227 149.937 291.051 150.581 292.169C151.133 293.128 153.949 292.137 157.124 290.299C157.282 290.207 157.441 290.115 157.6 290.023C157.759 289.931 157.917 289.839 158.076 289.747C161.192 287.623 163.331 285.638 162.825 284.76Z" fill="#1B1B1B"/>
<path d="M180.523 275.253C179.925 274.215 176.997 275.378 173.379 277.366C173.22 277.458 173.062 277.55 172.824 277.688C172.665 277.78 172.506 277.872 172.268 278.01C168.822 280.112 166.274 282.12 166.872 283.159C167.424 284.117 170.398 283.034 174.016 281.046C174.174 280.954 174.333 280.862 174.571 280.724C174.73 280.632 174.889 280.54 175.127 280.402C178.652 278.254 181.075 276.212 180.523 275.253Z" fill="#1B1B1B"/>
<path d="M98.9868 272.952C104.964 269.915 110.62 266.321 115.875 262.213C117.324 261.054 119.443 261.425 120.521 262.931L124.846 269.158C125.879 270.585 125.516 272.712 124.054 273.665C119.046 277.098 114.024 280.325 108.786 283.358C107.12 284.323 105.068 283.701 104.262 281.932C102.811 279.044 101.076 276.214 99.1496 273.602" fill="#1B1B1B"/>
<path d="M109.256 279.574C109.711 279.629 110.166 279.685 110.609 279.535C111.95 279.291 112.911 278.202 113.417 277.058C113.822 276.291 114.744 274.584 113.955 273.764C113.428 273.216 112.221 272.958 111.481 272.96C109.362 272.588 106.066 273.113 105.695 275.778C105.365 277.779 107.308 279.316 109.256 279.574Z" fill="white"/>
<path d="M109.257 279.574C109.257 279.574 109.006 279.506 108.459 279.29C108.208 279.222 107.945 278.949 107.681 278.675C107.418 278.402 107.188 278.003 107.038 277.557C106.887 277.111 106.941 276.654 107.087 276.356C107.188 275.979 107.334 275.682 107.526 275.464C107.718 275.246 107.956 275.108 108.307 274.798C108.704 274.568 109.306 274.327 109.874 274.211C110.158 274.153 110.363 274.141 110.647 274.083C110.931 274.024 111.181 274.092 111.512 274.114C111.842 274.136 112.172 274.158 112.502 274.18C112.832 274.201 113.003 274.315 113.129 274.349L113.208 274.303C113.208 274.303 113.254 274.383 113.3 274.463C113.313 274.669 113.325 274.875 113.304 275.206C113.217 275.789 112.924 276.385 112.791 276.888C112.578 277.438 112.399 277.861 112.094 278.251C111.484 279.029 110.678 279.284 110.189 279.354C109.587 279.596 109.211 279.494 109.257 279.574C109.257 279.574 109.554 279.722 110.168 279.685C110.702 279.695 111.555 279.521 112.461 278.889C112.938 278.614 113.401 278.132 113.785 277.696C114.204 277.136 114.588 276.7 114.913 275.979C115.013 275.601 115.239 275.257 115.326 274.674C115.393 274.422 115.334 274.136 115.23 273.772C115.126 273.406 114.942 273.086 114.678 272.813C114.198 272.345 113.697 272.21 113.274 272.028C112.852 271.847 112.397 271.791 111.975 271.609C111.645 271.587 111.268 271.485 110.893 271.384C110.563 271.362 110.107 271.306 109.777 271.284C108.833 271.298 107.809 271.358 106.89 271.784C105.925 272.13 105.031 272.967 104.559 273.986C104.087 275.005 104.15 276.034 104.485 276.799C104.786 277.689 105.392 278.191 105.906 278.532C106.42 278.874 106.967 279.089 107.343 279.191C107.719 279.292 108.095 279.394 108.425 279.416C108.927 279.552 109.257 279.574 109.257 279.574Z" fill="white"/>
<path d="M246.763 161.065C257.064 155.1 260.741 142.146 254.977 132.132C249.213 122.118 236.19 118.836 225.889 124.801C215.589 130.766 211.911 143.72 217.675 153.734C223.439 163.748 236.462 167.031 246.763 161.065Z" fill="#E2E2E2"/>
<path d="M232.476 116.94C232.464 116.734 230.675 116.385 227.518 117.149C225.938 117.531 224.054 118.303 222.116 119.532C220.178 120.76 218.073 122.619 216.369 124.99C214.665 127.361 213.25 130.417 212.519 133.929C211.744 137.36 211.652 141.247 212.427 145.165C213.121 149.13 215.01 153.148 217.806 156.535C219.227 158.268 220.887 159.863 222.85 161.069C224.781 162.4 226.857 163.435 229.159 164.125C231.007 164.759 232.874 165.062 234.728 165.16C236.584 165.257 238.472 165.228 240.381 164.868C245.144 164.134 249.317 161.824 252.633 158.945C255.858 155.906 258.259 152.172 259.419 148.305C260.125 146.406 260.375 144.45 260.546 142.541C260.528 141.592 260.637 140.677 260.541 139.775C260.444 138.872 260.427 137.923 260.251 137.066C259.707 133.548 258.29 130.534 256.694 127.944C255.063 125.48 253.175 123.485 251.324 122.107C249.552 120.684 247.806 119.671 246.288 119.059C243.335 117.787 241.558 117.644 241.492 117.896C241.425 118.148 242.988 118.84 245.591 120.421C248.115 122.048 251.771 124.724 254.438 129.357C255.771 131.673 256.845 134.459 257.24 137.532C257.369 138.31 257.373 139.053 257.424 139.875C257.474 140.698 257.4 141.487 257.37 142.356C257.14 143.98 256.878 145.73 256.319 147.331C255.292 150.695 253.183 153.834 250.343 156.437C247.456 158.961 243.793 160.869 239.804 161.475C238.179 161.777 236.575 161.747 234.97 161.718C233.399 161.563 231.782 161.328 230.186 160.761C228.26 160.172 226.355 159.252 224.767 158.148C223.1 157.09 221.658 155.688 220.421 154.275C217.98 151.321 216.333 147.909 215.584 144.402C214.836 140.895 214.873 137.465 215.423 134.377C215.974 131.289 217.117 128.497 218.504 126.309C219.97 124.076 221.632 122.368 223.32 121.071C225.007 119.774 226.64 118.935 228.002 118.359C230.863 117.448 232.535 117.225 232.476 116.94Z" fill="#1B1B1B"/>
<path d="M68.5174 212.108C68.4589 211.822 67.5814 211.585 65.8311 211.853C64.206 212.155 61.6871 213.294 59.7117 215.929C57.8157 218.518 56.622 222.511 57.3751 226.761C57.7517 228.886 58.709 231.101 60.2219 232.994C61.7348 234.887 63.962 236.366 66.4355 237.17C67.4842 237.521 68.5203 237.667 69.5104 237.732C70.5006 237.798 71.5701 237.818 72.581 237.552C75.1837 237.11 77.4519 235.903 79.2855 234.308C81.0731 232.634 82.3468 230.618 82.9144 228.479C83.6073 226.374 83.6402 224.225 83.2761 222.305C82.9122 220.386 82.1973 218.776 81.2904 217.385C79.443 214.727 77.2285 213.453 75.5864 212.807C73.9903 212.24 73.0461 212.254 72.9794 212.506C72.9126 212.757 73.6773 213.167 74.9225 214.043C76.1677 214.92 77.8601 216.389 79.1475 218.626C79.7118 219.79 80.2428 221.08 80.3768 222.6C80.5903 224.074 80.361 225.698 79.8809 227.254C79.3216 228.856 78.3402 230.276 77.0621 231.549C75.6921 232.662 73.9461 233.673 72.0704 233.907C71.2975 234.035 70.558 234.037 69.8186 234.039C69.0331 233.962 68.327 233.838 67.575 233.635C65.7742 233.08 64.107 232.022 62.9953 230.642C61.8043 229.308 61.0435 227.619 60.6587 226.031C59.8765 222.65 60.5858 219.47 61.8929 217.329C63.2794 215.141 65.0128 213.924 66.3286 213.269C67.7698 212.647 68.576 212.393 68.5174 212.108Z" fill="#1B1B1B"/>
<path d="M231.071 129.575C230.085 130.253 232.306 134.292 234.805 139.554C234.943 139.794 235.081 140.033 235.185 140.399C235.323 140.639 235.381 140.924 235.565 141.244C238.19 146.54 239.888 150.775 241.058 150.417C242.068 150.151 241.323 145.364 238.719 139.737C238.581 139.497 238.398 139.178 238.339 138.892C238.201 138.652 238.017 138.333 237.958 138.048C235.149 132.432 231.978 128.944 231.071 129.575Z" fill="#1B1B1B"/>
<path d="M246.041 135.177C245.522 134.093 241.299 135.58 235.943 138.042C235.705 138.18 235.468 138.318 235.183 138.376C234.945 138.514 234.661 138.572 234.423 138.709C229.159 141.332 225.362 143.744 225.881 144.828C226.353 145.833 230.622 144.425 235.978 141.963C236.216 141.825 236.454 141.687 236.738 141.629C236.976 141.491 237.261 141.433 237.499 141.295C242.716 138.593 246.513 136.181 246.041 135.177Z" fill="black"/>
<path d="M68.534 228.499C68.4212 228.671 68.4798 228.957 68.7097 229.356C69.0189 229.709 69.3742 230.143 70.3436 230.54C70.7655 230.721 71.3003 230.731 71.9144 230.695C72.4492 230.705 72.9713 230.509 73.5728 230.267C74.1744 230.025 74.7299 229.704 75.2394 229.302C75.7825 228.775 76.5175 228.029 76.5673 226.829C76.6172 225.629 76.3035 224.532 75.5137 223.712C75.1584 223.278 74.5986 222.857 73.9258 222.608C73.2531 222.358 72.593 222.314 72.0249 222.43C71.4568 222.546 71.014 222.696 70.6505 222.8C70.2871 222.904 69.9696 223.088 69.6062 223.192C69.2428 223.296 69.0047 223.434 68.6413 223.538L68.4365 223.55C68.4365 223.55 68.4365 223.55 68.3112 223.516C68.1859 223.482 68.1273 223.196 68.0354 223.037C67.8515 222.717 67.7803 222.226 67.8804 221.848C67.9012 221.517 68.0474 221.219 68.1142 220.968C68.2937 220.544 68.9412 220.382 69.4299 220.312C69.9188 220.242 70.4076 220.172 70.5537 219.874C70.6204 219.623 70.5159 219.257 69.8766 218.882C69.534 218.654 69.1119 218.473 68.5771 218.463C67.9965 218.373 67.1442 218.547 66.4759 219.041C65.0599 220.074 64.4004 222.053 64.9358 224.086C65.1322 224.611 65.3288 225.137 65.7299 225.65C66.1311 226.163 66.783 226.744 67.5351 226.948C67.9112 227.049 68.3206 227.025 68.6506 227.047C68.8553 227.035 69.06 227.023 69.2187 226.931L69.5821 226.827C70.0249 226.677 70.5931 226.561 70.99 226.331C71.228 226.194 71.5915 226.089 71.8295 225.952C72.1137 225.894 72.2724 225.802 72.3976 225.836C72.6024 225.824 72.6024 225.824 72.6818 225.778C72.6818 225.778 72.807 225.812 72.853 225.891C73.0244 226.005 73.1289 226.371 73.1749 226.451C73.1749 226.451 73.1875 226.656 72.9954 226.874C72.7239 227.138 72.4524 227.401 72.135 227.585C71.8175 227.769 71.5001 227.953 71.2619 228.091C71.0239 228.229 70.7398 228.287 70.5351 228.299C70.0463 228.369 69.5449 228.233 69.1355 228.257C68.8848 228.189 68.6801 228.201 68.534 228.499Z" fill="black"/>
<path d="M73.6903 231.581C74.1999 231.18 73.8988 230.289 73.4139 229.079C72.883 227.789 72.0887 226.225 71.0647 224.262C70.9728 224.103 70.8349 223.863 70.7429 223.703C70.651 223.543 70.513 223.304 70.4211 223.144C69.4429 221.261 68.4315 219.504 67.4578 218.364C66.4841 217.223 65.6735 216.734 65.164 217.136C64.6878 217.412 64.7841 218.314 65.2357 219.65C65.6872 220.987 66.3686 222.722 67.3134 224.731C67.4053 224.891 67.5432 225.13 67.6352 225.29C67.7272 225.45 67.8651 225.689 67.957 225.849C68.981 227.812 70.2306 229.431 71.2837 230.526C72.2908 231.54 73.2601 231.937 73.6903 231.581Z" fill="black"/>
<path d="M75.2821 230.662C75.7916 230.261 75.4906 229.37 75.0057 228.16C74.4747 226.87 73.6806 225.306 72.6565 223.343C72.5646 223.183 72.4266 222.944 72.3347 222.784C72.2427 222.624 72.1048 222.385 72.0129 222.225C71.0348 220.342 70.0233 218.584 69.0496 217.444C68.0759 216.304 67.2653 215.815 66.7557 216.217C66.2796 216.493 66.3759 217.395 66.8274 218.731C67.2791 220.067 67.9604 221.803 68.9052 223.812C68.9971 223.971 69.135 224.211 69.227 224.371C69.3189 224.531 69.4569 224.77 69.5488 224.93C70.5729 226.893 71.8224 228.512 72.8754 229.606C73.8825 230.621 74.8519 231.018 75.2821 230.662Z" fill="black"/>
</g>
<path d="M159.092 127.292C159.398 127.292 159.704 126.986 159.907 126.578C160.111 126.272 160.417 125.762 160.825 125.456C161.233 125.15 161.538 125.252 161.844 125.354C161.945 125.456 162.048 125.558 162.251 125.762C162.456 125.966 162.659 126.374 162.762 126.884C162.863 127.088 162.863 127.292 162.863 127.394C162.863 127.598 162.965 127.7 162.965 128.006L162.965 128.21L162.965 128.312L162.762 128.312C162.557 128.312 162.354 128.312 162.15 128.21C161.844 128.21 161.538 128.108 161.233 128.006C160.722 127.904 160.417 127.7 160.01 127.496C159.805 127.496 159.499 127.292 159.092 127.292C158.787 127.292 158.582 127.598 158.481 128.21C158.378 128.821 158.787 129.841 159.704 130.657C160.111 131.065 160.722 131.371 161.334 131.575C161.64 131.677 161.844 131.779 162.15 131.881L162.354 131.983L162.762 132.085C162.965 132.085 163.271 132.187 163.577 132.187C164.596 132.289 165.717 131.881 166.431 130.963C166.737 130.555 166.94 129.943 167.042 129.331C167.042 129.025 167.042 128.72 167.042 128.414L167.042 128.006L167.042 127.7C167.042 127.394 166.94 126.986 166.838 126.68C166.737 126.374 166.634 126.068 166.532 125.66C166.226 124.844 165.819 124.028 165.208 123.416C164.596 122.703 163.679 122.091 162.659 121.989C160.722 121.683 159.092 122.907 158.582 124.028C158.073 125.15 158.175 126.068 158.276 126.68C158.481 127.19 158.888 127.394 159.092 127.292Z" fill="black"/>
<path d="M146.64 69C145.314 69 144.805 71.3455 144.703 74.4049C144.703 74.5069 144.703 74.7109 144.703 74.8129C144.703 74.9148 144.703 75.1188 144.703 75.2208C144.805 78.2802 145.314 80.6257 146.64 80.6257C147.863 80.6257 148.474 78.2802 148.577 75.2208C148.577 75.1188 148.577 74.9148 148.577 74.8129C148.577 74.7109 148.577 74.5069 148.577 74.4049C148.474 71.3455 147.863 69 146.64 69Z" fill="black"/>
<path d="M177.821 197.508C176.598 198.018 176.292 198.835 176.495 199.65L176.495 199.752L176.495 199.855C176.903 200.67 177.617 201.078 178.84 200.568C179.961 200.16 180.369 199.242 180.166 198.426C180.166 198.426 180.166 198.324 180.063 198.324L180.063 198.222C179.758 197.406 178.941 196.998 177.821 197.508Z" fill="black"/>
<path d="M119.918 124.752C119.918 126.078 120.529 126.588 121.345 126.69L121.447 126.69L121.549 126.69C122.364 126.588 122.976 126.078 122.976 124.752C122.976 123.528 122.364 122.916 121.549 122.814L121.447 122.814L121.345 122.814C120.529 122.916 119.918 123.528 119.918 124.752Z" fill="black"/>
<path d="M54.9854 116.302C54.5778 116.812 54.5778 117.424 54.9854 118.138C55.3931 118.852 56.3104 119.566 57.4317 120.178L57.7373 120.28L58.0432 120.382C59.2663 120.79 60.3874 120.892 61.2028 120.79C62.0182 120.586 62.5278 120.178 62.6298 119.464C62.7316 118.24 61.2028 117.526 59.4701 116.71L59.1643 116.608C57.3297 115.996 55.8009 115.384 54.9854 116.302Z" fill="black"/>
<path d="M91.4111 80.0614C90.0861 80.0614 89.5765 81.1832 89.4746 82.6109C89.4746 82.7129 89.4746 82.7129 89.4746 82.8149C89.4746 82.9169 89.4746 82.9169 89.4746 83.0189C89.5765 84.4466 90.0861 85.5684 91.4111 85.5684C92.6342 85.5684 93.2458 84.4466 93.3477 83.0189C93.3477 82.9169 93.3477 82.9169 93.3477 82.8149C93.3477 82.7129 93.3477 82.7129 93.3477 82.6109C93.2458 81.0812 92.6342 80.0614 91.4111 80.0614Z" fill="black"/>
<path d="M271.999 97.0579C270.675 97.0579 270.165 98.0779 270.063 99.3019C270.063 99.4039 270.063 99.4039 270.063 99.5059C270.063 99.6079 270.063 99.6079 270.063 99.7099C270.165 100.934 270.675 101.954 271.999 101.954C273.222 101.954 273.834 100.934 273.936 99.7099C273.936 99.6079 273.936 99.6079 273.936 99.5059C273.936 99.4039 273.936 99.4039 273.936 99.3019C273.834 98.0779 273.222 97.0579 271.999 97.0579Z" fill="black"/>
<path d="M293.967 130.632C294.374 131.857 295.903 131.958 297.738 131.346C297.84 131.346 297.942 131.244 298.044 131.244C298.146 131.244 298.248 131.142 298.349 131.142C300.083 130.428 301.204 129.408 300.796 128.184C300.389 127.062 298.86 126.96 297.025 127.47C296.923 127.47 296.821 127.572 296.719 127.572C296.617 127.572 296.515 127.675 296.414 127.675C294.68 128.388 293.559 129.408 293.967 130.632Z" fill="black"/>
<path d="M199.527 70.938C199.527 72.2639 200.545 72.7739 201.77 72.8759C201.871 72.8759 201.871 72.8759 201.973 72.8759C202.075 72.8759 202.075 72.8759 202.177 72.8759C203.4 72.7739 204.419 72.2639 204.419 70.938C204.419 69.714 203.4 69.102 202.177 69C202.075 69 202.075 69 201.973 69C201.871 69 201.871 69 201.77 69C200.545 69.102 199.527 69.714 199.527 70.938Z" fill="#1B1B1B"/>
<path d="M284.515 230.664C285.84 230.664 286.349 229.644 286.451 228.421C286.451 228.319 286.451 228.319 286.451 228.216C286.451 228.114 286.451 228.114 286.451 228.012C286.349 226.788 285.84 225.768 284.515 225.768C283.292 225.768 282.68 226.788 282.578 228.012C282.578 228.114 282.578 228.114 282.578 228.216C282.578 228.319 282.578 228.319 282.578 228.421C282.68 229.644 283.292 230.664 284.515 230.664Z" fill="#1B1B1B"/>
<path d="M286.924 177.974C286.924 179.299 289.268 179.81 292.224 179.912C292.326 179.912 292.53 179.912 292.632 179.912C292.734 179.912 292.937 179.912 293.039 179.912C296.097 179.81 298.339 179.299 298.339 177.974C298.339 176.75 295.995 176.138 293.039 176.036C292.937 176.036 292.734 176.036 292.632 176.036C292.53 176.036 292.326 176.036 292.224 176.036C289.268 176.138 286.924 176.75 286.924 177.974Z" fill="#1B1B1B"/>
</svg>
