<svg width="278" height="359" viewBox="0 0 278 359" fill="none" xmlns="http://www.w3.org/2000/svg">
<path fill-rule="evenodd" clip-rule="evenodd" d="M45.75 323L47.3901 336.535C47.4682 337.189 47.7285 337.784 48.145 338.26C48.5616 338.736 49.0822 339.033 49.655 339.123L61.5 340.997L49.655 342.871C49.0822 342.96 48.5616 343.257 48.145 343.733C47.7285 344.209 47.4682 344.804 47.3901 345.459L45.75 358.993L44.1099 345.459C44.0318 344.804 43.7715 344.209 43.355 343.733C42.9384 343.257 42.4178 342.96 41.845 342.871L30 340.997L41.845 339.123C42.4178 339.033 42.9384 338.736 43.355 338.26C43.7715 337.784 44.0318 337.189 44.1099 336.535L45.75 323Z" fill="#295956"/>
<g clip-path="url(#clip0_224_74)">
<mask id="mask0_224_74" style="mask-type:luminance" maskUnits="userSpaceOnUse" x="0" y="0" width="278" height="264">
<path d="M278 0H0V264H278V0Z" fill="white"/>
</mask>
<g mask="url(#mask0_224_74)">
<path d="M153.907 91.4653C154.239 91.4653 154.572 91.1335 154.793 90.6911C155.015 90.3593 155.347 89.8063 155.79 89.4745C156.233 89.1427 156.566 89.2533 156.898 89.3639C157.009 89.4745 157.12 89.5851 157.341 89.8063C157.564 90.0275 157.785 90.4699 157.895 91.0229C158.007 91.2441 158.007 91.4653 158.007 91.5759C158.007 91.7971 158.117 91.9077 158.117 92.2395V92.4607V92.5713H157.895C157.674 92.5713 157.452 92.5713 157.231 92.4607C156.898 92.4607 156.566 92.3501 156.233 92.2395C155.679 92.1289 155.347 91.9077 154.903 91.6865C154.572 91.6865 154.239 91.3547 153.907 91.4653C153.574 91.4653 153.353 91.7971 153.242 92.4607C153.131 93.1243 153.574 94.2303 154.572 95.1151C155.015 95.5575 155.679 95.8892 156.345 96.1104C156.676 96.221 156.898 96.3316 157.231 96.4422L157.452 96.5528L157.895 96.6634C158.117 96.6634 158.45 96.774 158.781 96.774C159.89 96.8846 161.109 96.4422 161.885 95.4469C162.216 95.0045 162.438 94.3409 162.549 93.6773C162.549 93.3455 162.549 93.0137 162.549 92.6819V92.2395V91.9077C162.549 91.5759 162.438 91.1335 162.328 90.8017C162.216 90.4699 162.106 90.1381 161.995 89.6957C161.663 88.8109 161.219 87.9262 160.554 87.2626C159.89 86.4884 158.893 85.8248 157.785 85.7142C155.679 85.3824 153.907 86.7096 153.353 87.9262C152.798 89.1427 152.91 90.1381 153.02 90.8017C153.242 91.2441 153.574 91.4653 153.907 91.4653Z" fill="#1B1B1B"/>
<path d="M157.453 36.94C157.786 36.94 158.118 36.6082 158.339 36.1658C158.562 35.834 158.894 35.281 159.337 34.9492C159.781 34.6174 160.113 34.728 160.445 34.8386C160.556 34.9492 160.667 35.0598 160.888 35.281C161.11 35.5022 161.331 35.9446 161.443 36.4976C161.553 36.7188 161.553 36.94 161.553 37.0506C161.553 37.2718 161.664 37.3824 161.664 37.7142V37.9353V38.046H161.443C161.221 38.046 161 38.0459 160.777 37.9353C160.445 37.9353 160.113 37.8248 159.781 37.7142C159.226 37.6036 158.894 37.3824 158.451 37.1612C158.118 37.1612 157.786 36.8294 157.453 36.94C157.122 36.94 156.899 37.2718 156.789 37.9353C156.678 38.5989 157.122 39.7049 158.118 40.5897C158.562 41.0321 159.226 41.3639 159.891 41.5851C160.224 41.6957 160.445 41.8063 160.777 41.9169L161 42.0275L161.443 42.1381C161.664 42.1381 161.996 42.2487 162.329 42.2487C163.436 42.3593 164.655 41.9169 165.431 40.9215C165.764 40.4791 165.985 39.8155 166.095 39.1519C166.095 38.8201 166.095 38.4883 166.095 38.1565V37.7142V37.3824C166.095 37.0506 165.985 36.6082 165.874 36.2764C165.764 35.9446 165.652 35.6128 165.542 35.1704C165.209 34.2856 164.766 33.4008 164.102 32.7372C163.436 31.963 162.44 31.2994 161.331 31.1888C159.226 30.8571 157.453 32.1842 156.899 33.4008C156.346 34.6174 156.456 35.6128 156.567 36.2764C156.789 36.7188 157.122 36.94 157.453 36.94Z" fill="black"/>
<path d="M109.143 97.8803C109.254 98.1015 109.364 98.3227 109.586 98.4333C110.14 98.9863 110.805 99.3181 111.469 99.4287C111.913 99.5393 112.799 99.7605 112.91 99.3181C113.021 98.9863 112.688 98.4333 112.467 98.1015C111.913 97.1061 110.805 95.7788 109.586 95.8895C108.699 96.0001 108.699 96.9955 109.143 97.8803Z" fill="white"/>
<path d="M156.01 260.792C200.221 260.792 236.12 249.29 236.12 236.129C236.12 222.967 200.331 212.35 156.121 212.24C111.911 212.24 76.012 222.746 76.012 235.908C75.9011 249.069 111.69 260.682 156.01 260.792Z" fill="#E2E9E3"/>
<path d="M72.5768 246.525C72.6876 246.304 71.8012 245.641 70.3608 244.202C69.5852 243.429 68.6988 242.544 67.9232 241.327C67.1475 240.111 66.4828 238.562 66.5935 236.793C66.7044 235.023 67.7016 233.254 69.3635 231.705C71.0256 230.046 73.1308 228.608 75.5684 227.391C80.4437 224.848 86.6486 222.636 93.5182 220.867C107.368 217.327 124.653 214.894 143.933 214.341C153.572 214.009 163.766 214.231 174.292 215.115C184.819 216 195.787 217.549 206.646 220.313C211.079 221.419 215.289 222.746 219.388 224.516C223.377 226.175 227.367 228.276 230.469 231.042C231.022 231.484 231.355 231.926 231.798 232.369C232.019 232.59 232.131 232.811 232.352 233.032C232.574 233.254 232.685 233.475 232.795 233.806C233.46 234.802 233.792 235.797 233.904 236.793C234.125 238.784 233.017 240.884 231.355 242.654C229.693 244.424 227.588 245.972 225.261 247.189C223.045 248.516 220.607 249.511 218.169 250.507C213.294 252.387 208.419 253.825 203.433 255.041C198.558 256.258 193.682 257.143 188.918 257.806C169.86 260.571 152.465 260.792 138.06 260.13C123.656 259.465 112.133 257.918 104.266 256.589C96.3991 255.262 92.0777 254.267 91.967 254.6C91.8562 254.931 96.0666 256.479 103.823 258.359C111.69 260.24 123.213 262.23 137.839 263.225C152.353 264.221 169.971 264.331 189.472 261.678C194.347 261.013 199.333 260.13 204.319 258.912C209.416 257.695 214.513 256.368 219.61 254.267C222.158 253.271 224.706 252.165 227.144 250.728C229.582 249.29 232.019 247.631 234.235 245.419C235.344 244.313 236.23 242.986 237.006 241.438C237.782 239.89 238.113 238.12 237.892 236.35C237.782 234.581 237.116 232.811 236.23 231.484C236.009 231.152 235.787 230.82 235.566 230.488C235.344 230.157 235.123 229.825 234.79 229.493C234.235 228.94 233.681 228.276 233.128 227.834C229.36 224.406 225.039 222.304 220.828 220.534C216.507 218.765 212.075 217.327 207.533 216.11C196.231 213.235 185.151 211.686 174.403 210.913C163.656 210.138 153.351 210.028 143.49 210.359C123.877 211.134 106.482 213.898 92.4102 217.88C85.319 219.871 79.1141 222.304 74.0172 225.179C71.4688 226.618 69.2528 228.276 67.48 230.267C65.7072 232.148 64.4883 234.581 64.4883 236.793C64.4883 239.115 65.4855 240.884 66.4828 242.212C67.48 243.539 68.5879 244.313 69.3635 244.977C71.358 246.304 72.4659 246.747 72.5768 246.525Z" fill="#1B1B1B"/>
<path d="M86.4249 78.8572C86.0925 78.8572 85.4276 81.9539 85.6493 87.7051C85.8709 90.5806 86.314 94.1199 87.4221 98.1014C88.53 102.083 90.0812 106.618 92.7405 111.152C93.9593 113.475 95.6213 115.687 97.505 118.009C99.3885 120.221 101.715 122.323 104.375 124.092C107.034 125.862 110.358 127.299 114.014 127.41C117.671 127.632 121.549 126.526 124.651 124.092C127.753 121.769 129.97 118.451 131.521 114.912C133.072 111.373 133.959 107.502 134.402 103.631C134.845 99.7604 134.735 95.6682 134.291 91.6866C133.737 87.7051 132.85 83.6129 131.521 79.6314C130.413 76.4239 128.972 73.4378 127.422 70.5622C125.759 67.6866 123.875 64.9217 121.659 62.2673C118.89 59.06 115.566 56.2949 111.688 54.4147C107.809 52.5345 103.488 51.871 99.2778 52.424C95.0673 53.0875 91.4109 54.8571 88.3084 57.2903C85.3168 59.7234 82.7684 62.7097 81.1064 66.0277C79.3336 69.235 78.3364 72.7742 77.7823 76.0921C77.2283 79.4102 77.2283 82.7281 77.3392 85.8249C77.5608 88.9216 78.0039 91.9078 78.558 94.7835C78.8904 96.2212 79.2227 97.5484 79.5552 98.8756C79.9983 100.203 80.3308 101.53 80.7739 102.746C82.5469 107.724 85.206 111.816 87.7544 115.023C90.4137 118.23 93.1837 120.553 95.6213 122.212C100.497 125.42 103.821 125.972 103.821 125.641C103.931 125.309 101.051 124.203 96.7294 120.774C94.6241 119.005 92.1865 116.682 89.8596 113.475C87.5328 110.267 85.3168 106.396 83.7656 101.641C83.3225 100.535 83.1008 99.2074 82.6576 97.9908C82.3251 96.6636 82.1036 95.447 81.882 94.0093C81.4388 91.3548 80.9956 88.4792 80.8848 85.6037C80.6632 79.742 81.4388 73.4378 84.5412 67.7972C86.0925 65.0323 88.1977 62.4885 90.8568 60.387C93.4053 58.3963 96.6185 56.8479 99.9426 56.4055C103.267 55.9631 106.812 56.5161 109.915 58.0645C113.128 59.6128 116.009 61.9355 118.557 64.9217C120.552 67.2442 122.325 69.788 123.765 72.4424C125.316 75.0967 126.535 77.9724 127.643 80.8479C128.862 84.4977 129.858 88.258 130.302 92.0184C130.745 95.7788 130.857 99.4286 130.524 103.078C130.191 106.618 129.415 110.046 128.086 113.143C126.756 116.24 124.873 119.005 122.546 120.774C120.219 122.654 117.338 123.539 114.458 123.429C111.577 123.318 108.917 122.212 106.48 120.774C104.042 119.336 102.048 117.457 100.164 115.465C98.3913 113.475 96.8401 111.373 95.5105 109.272C92.8513 105.069 91.1893 100.866 89.9705 97.106C88.7516 93.3456 88.0868 90.0276 87.6437 87.2627C86.6465 81.9539 86.7572 78.8572 86.4249 78.8572Z" fill="#1B1B1B"/>
<path d="M182.6 257.143C184.151 256.591 182.378 255.485 182.157 254.267C177.724 233.917 162.212 215.226 158.334 194.766C158.334 194.766 153.57 200.406 146.257 203.06C138.833 205.714 130.523 202.175 130.523 202.175C130.856 212.461 137.283 221.53 141.382 230.931C144.373 237.788 146.811 249.955 147.476 257.474C147.365 257.474 163.431 264.221 182.6 257.143Z" fill="white"/>
<path d="M183.043 257.918C184.706 257.143 183.819 255.816 183.154 254.6C182.711 253.714 182.6 252.498 182.268 251.502C181.935 250.396 181.714 249.29 181.381 248.295C180.052 243.981 178.279 239.668 176.284 235.576C172.296 226.949 167.531 218.544 163.874 209.696C161.881 204.829 160.107 199.853 159.11 194.654C158.999 194.102 158.113 193.881 157.67 194.323C154.678 197.862 150.467 200.738 146.146 202.286C141.271 204.056 135.398 203.502 130.634 201.511C130.191 201.29 129.527 201.844 129.637 202.286C129.97 210.47 133.848 217.77 137.393 224.848C139.166 228.276 140.828 231.705 142.047 235.245C143.155 238.673 144.041 242.212 144.706 245.751C145.482 249.622 146.146 253.604 146.479 257.585C146.479 258.028 146.7 258.249 147.143 258.359C150.467 259.797 154.235 260.461 157.78 260.903C166.202 261.898 174.844 260.903 182.821 258.028C183.819 257.697 183.375 256.037 182.378 256.479C174.512 259.355 166.09 260.351 157.78 259.244C154.345 258.801 150.8 258.138 147.586 256.812C147.808 257.032 148.029 257.364 148.252 257.585C147.586 250.617 146.368 243.65 144.374 236.903C142.158 229.493 138.169 223.079 135.066 216.11C133.072 211.687 131.52 207.153 131.41 202.286C131.077 202.507 130.745 202.839 130.413 203.06C135.398 205.051 141.715 205.714 146.812 203.835C151.354 202.175 155.897 199.189 159.11 195.429C158.667 195.318 158.224 195.208 157.67 195.097C161.105 212.571 171.853 227.392 178.167 243.871C179.054 246.193 179.83 248.516 180.495 250.95C180.828 252.055 181.049 253.273 181.381 254.379C181.492 254.82 181.602 255.152 181.824 255.485C181.935 255.705 182.6 256.368 182.268 256.479C181.159 256.922 182.045 258.359 183.043 257.918Z" fill="#1B1B1B"/>
<path d="M130.972 202.729C130.639 202.618 130.418 202.286 130.529 202.065C130.972 200.848 132.966 197.641 141.498 195.318C152.245 192.332 157.121 192.554 158.782 194.323C160.334 195.982 146.817 207.705 130.972 202.729Z" fill="#1B1B1B"/>
<path d="M138.726 201.511C138.726 201.511 140.942 203.06 145.263 201.29C149.474 199.521 150.914 196.756 150.914 196.756L145.374 190.23L137.84 192.885L137.285 194.323L138.726 201.511Z" fill="white"/>
<path d="M133.406 161.032C133.738 160.59 132.076 158.93 128.974 156.166C127.423 154.949 125.65 153.29 123.876 151.3C122.99 150.304 122.215 149.198 121.55 147.982C121.44 147.649 121.217 147.318 121.107 147.097C121.107 146.986 121.107 146.986 121.107 146.876C121.107 146.765 121.107 146.655 121.217 146.655C121.329 146.655 121.329 146.655 121.44 146.765L121.661 146.876L121.993 147.097C122.215 147.207 122.547 147.428 122.769 147.539C123.876 148.203 125.096 148.977 126.315 149.861C128.753 151.521 131.522 153.069 134.293 154.618C134.736 154.839 135.179 155.17 135.622 155.391L136.84 156.276C137.173 156.608 137.505 156.94 137.838 157.272C138.171 157.603 138.502 158.046 138.724 158.378C139.389 159.373 139.943 160.479 140.275 161.585C140.608 162.802 140.83 164.018 141.051 165.235C141.384 167.778 141.384 170.323 141.384 172.756C141.384 173.973 141.384 175.189 141.384 176.295C141.384 176.847 141.384 177.511 141.494 178.065C141.494 178.617 141.606 179.282 141.716 179.834C142.049 182.157 142.603 184.148 143.267 186.028C144.596 189.678 146.148 192.221 147.477 193.881C148.696 195.539 149.693 196.203 150.026 195.981C150.248 195.76 149.805 194.765 149.029 192.885C148.253 191.005 147.145 188.461 146.258 185.033C145.815 183.373 145.484 181.494 145.372 179.392C145.372 178.838 145.262 178.397 145.262 177.843C145.262 177.291 145.262 176.847 145.262 176.185C145.262 175.079 145.372 173.862 145.372 172.646C145.484 170.213 145.484 167.557 145.262 164.682C145.151 163.244 144.818 161.806 144.486 160.258C144.043 158.709 143.378 157.272 142.38 155.834C142.049 155.281 141.494 154.728 141.163 154.285C140.718 153.843 140.165 153.401 139.721 152.848C139.168 152.406 138.724 152.073 138.171 151.631C137.616 151.3 137.062 150.967 136.509 150.636C133.627 149.088 131.079 147.649 128.641 146.101C127.423 145.327 126.204 144.553 124.875 143.889C124.542 143.668 124.209 143.558 123.876 143.337L123.323 143.115L122.547 142.783C122.215 142.673 121.883 142.673 121.661 142.562L121.217 142.452C121.107 142.452 120.885 142.452 120.774 142.452C120.221 142.452 119.667 142.562 119.112 142.673C118.448 142.894 117.894 143.447 117.562 144.11C117.229 144.774 117.118 145.437 117.229 146.101C117.339 146.765 117.562 147.539 117.894 148.203C118.115 148.755 118.337 149.088 118.558 149.419C119.555 150.967 120.553 152.184 121.661 153.179C123.766 155.281 125.871 156.83 127.755 157.824C131.079 160.258 133.074 161.364 133.406 161.032Z" fill="#1B1B1B"/>
<path d="M126.868 180.498C125.651 181.383 128.31 185.807 132.188 191.226C132.409 191.448 132.631 191.779 132.741 192C132.962 192.221 133.185 192.554 133.295 192.775C133.85 193.438 134.293 194.102 134.736 194.654C134.957 194.987 135.179 195.208 135.511 195.539C135.511 195.539 135.623 195.539 135.623 195.871C135.844 196.314 135.954 196.866 136.176 197.42C136.287 197.972 136.509 198.526 136.619 198.968C137.173 200.959 137.616 202.175 138.392 202.175C139.057 202.175 139.611 200.848 139.722 198.636C139.722 198.083 139.832 197.53 139.722 196.756C139.722 196.093 139.611 195.318 139.389 194.433C139.278 193.991 139.057 193.438 138.614 192.775C138.392 192.442 138.171 192.111 137.949 191.89C137.506 191.226 137.063 190.563 136.619 189.899C136.397 189.678 136.176 189.346 136.066 189.124C135.844 188.903 135.733 188.572 135.511 188.351C131.522 183.263 127.977 179.724 126.868 180.498Z" fill="#1B1B1B"/>
<path d="M116.566 168.774C116.234 168.553 115.901 168.663 115.347 169.217C114.904 169.659 114.461 170.655 114.461 171.981C114.461 173.308 115.015 174.746 115.901 175.852C116.788 177.07 118.007 178.176 119.114 179.059C119.447 179.282 119.779 179.503 120.112 179.724L120.444 179.834L120.887 179.945C121.109 180.055 121.442 180.165 121.663 180.276C122.328 180.498 122.992 180.498 123.658 180.498C124.322 180.386 124.877 180.276 125.32 179.945C126.317 179.392 126.87 178.286 126.87 177.291C126.87 176.847 126.649 176.295 126.539 175.741C126.317 175.189 126.096 174.746 125.873 174.304C125.652 173.862 125.43 173.64 125.209 173.419C124.987 173.198 124.877 172.977 124.654 172.756C123.104 171.207 121.663 170.986 121.331 171.54C120.998 172.092 121.552 173.087 122.217 174.525C122.328 174.746 122.328 174.858 122.438 175.079C122.549 175.3 122.661 175.52 122.549 175.631C122.549 175.852 122.549 175.852 122.438 175.852C122.328 175.964 122.106 175.852 122.217 175.741H122.106C121.995 175.631 121.885 175.631 121.663 175.41C120.555 174.635 119.557 173.862 118.893 173.087C118.117 172.423 117.785 171.761 117.453 171.207C117.231 170.655 117.12 170.101 117.009 169.548C117.009 169.328 116.898 168.884 116.566 168.774Z" fill="#1B1B1B"/>
<path d="M124.211 165.678C124.765 165.235 123.879 163.356 121.775 160.479C121.22 159.815 120.666 159.042 119.89 158.267C119.557 157.825 119.114 157.493 118.671 157.051C118.45 156.83 118.228 156.608 117.896 156.387C117.564 156.055 117.009 155.945 116.566 155.613C115.569 155.281 114.35 155.281 113.464 155.945C113.021 156.276 112.577 156.609 112.245 157.161C112.134 157.382 111.913 157.603 111.802 157.936C111.691 158.267 111.58 158.378 111.58 158.599C111.359 159.373 111.137 160.038 111.026 160.811C111.026 161.144 110.915 161.475 110.915 161.917C110.915 162.25 110.805 162.691 110.805 163.023C110.805 163.466 110.805 163.908 110.915 164.35C111.026 164.572 111.026 164.793 111.137 165.014L111.359 165.566C111.802 166.341 112.245 166.895 112.688 167.336C113.132 167.778 113.575 168.222 114.018 168.663C115.015 169.548 116.012 170.323 116.898 171.096C117.121 171.319 117.342 171.429 117.564 171.65L117.896 171.981C118.007 172.092 118.228 172.202 118.34 172.313C118.893 172.756 119.447 173.087 120.112 173.308C121.22 173.862 122.439 174.304 123.768 174.414C124.101 174.414 124.434 174.525 124.765 174.414C125.098 174.414 125.43 174.304 125.874 174.304C126.649 174.083 127.425 173.641 127.979 173.087C128.2 172.646 128.533 172.313 128.643 171.871C128.755 171.65 128.755 171.429 128.755 171.207C128.755 170.986 128.755 170.765 128.755 170.544C128.755 170.102 128.643 169.659 128.422 169.328C128.312 168.996 128.2 168.774 127.979 168.553C127.425 167.668 126.87 167.005 126.317 166.562C125.32 165.678 124.544 165.345 124.211 165.678C123.99 165.899 124.211 166.672 124.655 167.778C124.877 168.332 125.208 168.996 125.43 169.659C125.43 169.88 125.541 169.99 125.541 170.213C125.541 170.323 125.541 170.434 125.541 170.434C125.541 170.544 125.43 170.765 125.32 170.765C125.208 170.765 125.098 170.875 124.987 170.765C124.987 170.765 124.877 170.765 124.655 170.765C124.544 170.765 124.322 170.765 124.211 170.654C123.547 170.434 122.661 170.102 121.885 169.659C121.442 169.438 121.109 169.107 120.777 168.884C120.666 168.774 120.556 168.774 120.556 168.663L120.223 168.442C120.001 168.222 119.78 168.001 119.557 167.778C118.671 167.005 117.674 166.23 116.898 165.456C116.455 165.124 116.123 164.683 115.791 164.35C115.458 164.018 115.237 163.687 115.015 163.354C115.126 162.138 115.237 160.811 115.569 159.926C115.569 159.815 115.68 159.705 115.68 159.705C115.68 159.705 115.68 159.705 115.68 159.594C115.68 159.484 115.791 159.484 115.791 159.484C115.791 159.484 115.791 159.484 115.902 159.484C116.123 159.594 116.234 159.705 116.455 159.815C116.788 160.038 117.231 160.369 117.564 160.7C118.34 161.254 119.004 161.917 119.669 162.47C122.106 164.793 123.768 166.009 124.211 165.678Z" fill="#1B1B1B"/>
<path d="M127.423 158.378C127.977 157.936 127.09 156.055 124.985 153.179C124.431 152.516 123.876 151.742 123.102 150.967C122.769 150.525 122.326 150.194 121.883 149.751C121.661 149.53 121.44 149.309 121.107 149.088C120.774 148.755 120.221 148.645 119.777 148.313C118.781 147.982 117.562 147.982 116.675 148.645C116.232 148.977 115.788 149.309 115.456 149.861C115.345 150.083 115.124 150.304 115.013 150.636C114.902 150.967 114.791 151.078 114.791 151.3C114.57 152.073 114.348 152.737 114.237 153.512C114.237 153.843 114.126 154.175 114.126 154.618C114.126 154.949 114.016 155.391 114.016 155.724C114.016 156.166 114.016 156.608 114.126 157.051C114.237 157.272 114.237 157.493 114.348 157.714L114.57 158.267C115.013 159.042 115.456 159.594 115.899 160.036C116.343 160.479 116.786 160.921 117.229 161.364C118.337 162.359 119.555 163.244 120.553 164.129C120.885 164.35 121.107 164.571 121.328 164.793C121.661 165.014 121.993 165.235 122.326 165.456C122.99 165.899 123.655 166.12 124.32 166.451C125.65 167.005 127.09 167.336 128.641 167.115C130.636 166.895 132.076 165.235 131.965 163.687C131.965 163.354 131.855 162.912 131.744 162.581C131.633 162.248 131.522 161.917 131.412 161.696C131.189 161.254 130.968 160.811 130.636 160.59C130.082 159.926 129.639 159.484 129.196 159.152C128.309 158.267 127.644 158.046 127.423 158.378C127.201 158.599 127.311 159.152 127.755 160.148C127.977 160.59 128.198 161.142 128.42 161.696C128.641 162.248 128.863 163.023 128.753 163.133C128.641 163.354 128.309 163.465 128.198 163.465C127.644 163.465 126.758 163.244 125.761 162.691C125.318 162.47 124.874 162.138 124.431 161.917C124.209 161.806 123.988 161.585 123.766 161.475C123.545 161.254 123.323 161.032 123.102 160.811C122.104 159.926 120.996 159.042 119.998 158.157C119.555 157.824 119.224 157.382 118.891 157.051C118.558 156.718 118.337 156.387 118.115 156.055C118.226 154.839 118.337 153.512 118.669 152.627C118.669 152.516 118.781 152.406 118.781 152.406C118.781 152.406 118.781 152.406 118.781 152.295C118.781 152.184 118.891 152.184 118.891 152.184C118.891 152.184 118.891 152.184 119.002 152.184C119.224 152.295 119.334 152.406 119.555 152.516C119.888 152.737 120.331 153.069 120.664 153.401C121.44 153.954 122.104 154.618 122.769 155.17C125.318 157.382 126.98 158.709 127.423 158.378Z" fill="#1B1B1B"/>
<path d="M113.461 124.314L121.772 145.438L128.973 148.867L122.879 121.659C122.879 121.659 120.22 124.535 113.461 124.314Z" fill="#1B1B1B"/>
<path d="M125.652 155.17L135.069 179.613L136.067 180.055L132.41 160.258L125.652 155.17Z" fill="#1B1B1B"/>
<path d="M248.749 163.908L274.345 160.479C274.345 160.479 278.334 184.479 276.449 192.775C259.719 195.872 246.977 197.53 246.977 197.53C246.977 197.53 254.843 188.019 249.968 167.668" fill="#ADFFD8"/>
<path d="M250.083 167.668C249.972 167.668 249.972 168.442 250.193 169.88C250.305 170.544 250.415 171.429 250.526 172.535C250.637 173.531 250.858 174.747 250.858 176.074C251.081 178.728 251.081 181.936 250.526 185.585C250.193 187.355 249.862 189.346 249.196 191.226C248.864 192.221 248.532 193.106 248.089 194.102C247.977 194.323 247.867 194.544 247.756 194.766L247.534 195.097V195.208C247.534 195.318 247.424 195.318 247.424 195.429L247.091 195.76L246.648 196.424C246.537 196.645 246.315 196.866 246.094 197.199C245.651 197.751 245.318 198.194 244.875 198.747C245.54 198.636 246.537 198.526 247.313 198.415C248.089 198.305 248.864 198.194 249.75 198.083C250.636 197.972 251.634 197.862 252.521 197.641C254.404 197.309 256.399 197.088 258.392 196.756C262.382 196.093 266.593 195.429 270.914 194.654C272.464 194.323 274.016 194.102 275.456 193.881C275.678 193.881 276.675 193.66 277.339 193.548L277.672 191.669C277.783 190.894 277.783 190.12 277.894 189.236C278.115 185.254 277.783 181.494 277.562 177.843C277.229 174.193 276.786 170.765 276.342 167.447C276.121 165.789 275.899 164.239 275.678 162.691C275.567 161.696 275.346 160.7 275.235 159.705V159.484V159.373C275.235 159.373 275.235 159.263 275.123 159.263L274.57 159.373L273.573 159.484C273.13 159.594 272.687 159.594 272.354 159.705C269.473 160.148 266.814 160.479 264.376 160.921C254.626 162.36 248.753 163.466 248.753 163.797C248.753 164.129 254.736 163.577 264.487 162.47C266.924 162.138 269.583 161.806 272.464 161.475C272.797 161.475 273.13 161.364 273.461 161.364H273.573V161.475V161.806C273.573 162.138 273.683 162.581 273.683 162.912C273.904 164.462 274.127 166.009 274.349 167.668C274.792 170.875 275.123 174.414 275.456 177.955C275.678 181.494 276.01 185.254 275.789 189.014C275.678 189.788 275.678 190.563 275.567 191.226C275.456 191.779 275.567 191.558 275.456 191.558C275.456 191.558 275.567 191.558 275.123 191.669C273.573 191.89 272.132 192.221 270.581 192.442C266.26 193.217 262.049 193.881 258.061 194.544C254.847 195.097 251.745 195.539 248.864 195.982C248.864 195.982 248.975 195.871 248.975 195.76L249.196 195.208C249.307 194.987 249.418 194.654 249.529 194.433C249.972 193.438 250.415 192.332 250.748 191.336C251.412 189.236 251.745 187.245 251.967 185.364C252.41 181.604 252.298 178.286 251.855 175.52C251.745 174.193 251.412 172.977 251.302 171.981C251.081 170.986 250.858 170.102 250.636 169.438C250.415 168.332 250.193 167.668 250.083 167.668Z" fill="#1B1B1B"/>
<path d="M168.42 156.276C168.42 156.276 175.511 138.913 201.328 136.701C219.056 156.83 219.056 156.83 219.056 156.83C219.056 156.83 187.367 167.557 190.58 179.059C168.641 166.451 168.309 160.148 168.309 160.148" fill="#FFF7B1"/>
<path d="M168.423 160.036C168.311 160.036 168.311 160.921 168.976 162.138C169.642 163.466 170.86 165.124 172.744 167.005C174.627 168.884 177.065 170.986 180.057 173.087C181.607 174.193 183.159 175.299 184.932 176.405C185.818 176.959 186.704 177.511 187.591 178.065C188.146 178.397 190.472 179.834 192.134 180.719C192.024 180.165 191.912 179.503 191.801 178.949C191.691 178.397 191.691 177.843 191.579 177.291V176.847C191.579 176.737 191.579 176.737 191.579 176.626L191.691 176.295C191.691 176.074 191.801 175.741 191.912 175.52C192.245 174.525 192.798 173.529 193.574 172.535C195.014 170.654 197.009 168.995 199.225 167.557C203.658 164.571 208.754 162.027 214.294 159.815C215.07 159.484 215.956 159.152 216.732 158.82L217.951 158.378L220.056 157.603L221.164 157.161L217.065 152.516C214.183 149.198 211.302 145.991 208.533 142.894C207.203 141.346 205.874 139.908 204.544 138.359C203.879 137.585 203.213 136.811 202.549 136.147L202.106 135.595L201.996 135.484H201.884H201.552L200.554 135.595C200.111 135.705 199.557 135.705 199.114 135.816C195.347 136.258 191.801 137.253 188.589 138.249C187.813 138.58 187.037 138.913 186.261 139.244C185.929 139.355 185.485 139.576 185.154 139.686C184.821 139.908 184.489 140.019 184.045 140.24C183.38 140.571 182.716 140.903 182.05 141.346C181.386 141.788 180.833 142.12 180.167 142.562C179.835 142.783 179.614 142.894 179.281 143.115C178.948 143.337 178.727 143.558 178.505 143.779C177.951 144.221 177.398 144.553 176.955 144.995C176.067 145.88 175.07 146.655 174.294 147.428C172.744 148.977 171.525 150.636 170.639 151.852C168.976 154.507 168.423 156.166 168.533 156.276C168.644 156.387 169.42 154.839 171.303 152.406C172.301 151.189 173.408 149.751 175.07 148.313C175.846 147.539 176.732 146.876 177.729 146.101C178.284 145.77 178.727 145.327 179.281 144.995C179.502 144.774 179.835 144.664 180.057 144.443C180.389 144.221 180.61 144.11 180.943 143.889C181.497 143.558 182.162 143.226 182.716 142.783C183.38 142.452 184.045 142.12 184.711 141.788C185.042 141.677 185.375 141.456 185.708 141.346C186.04 141.235 186.372 141.014 186.815 140.903C187.591 140.571 188.256 140.35 189.032 140.019C192.134 139.023 195.457 138.138 199.225 137.807C199.668 137.807 200.111 137.696 200.554 137.585H200.998C201.663 138.249 202.217 139.023 202.882 139.686C204.211 141.125 205.541 142.673 206.87 144.221C209.529 147.318 212.411 150.525 215.292 153.843L216.842 155.613L217.286 156.166L216.953 156.276L215.735 156.719C214.959 157.051 214.073 157.382 213.297 157.714C207.646 160.036 202.439 162.581 197.895 165.788C195.679 167.447 193.464 169.107 191.912 171.317C191.136 172.423 190.361 173.529 190.029 174.858C189.918 175.189 189.807 175.52 189.807 175.853L189.696 176.405C189.696 176.516 189.696 176.626 189.696 176.626V176.737V176.959V177.07C190.139 177.401 187.37 175.741 185.818 174.747C184.045 173.752 182.494 172.646 180.943 171.65C177.951 169.659 175.513 167.668 173.63 166.009C171.746 164.239 170.416 162.802 169.642 161.696C168.755 160.7 168.533 160.036 168.423 160.036Z" fill="#1B1B1B"/>
<path d="M214.289 83.7236C214.289 83.7236 235.009 92.7928 248.748 77.3089C252.848 88.9217 263.485 91.908 269.578 93.1246C249.302 110.046 240.771 116.572 240.771 116.572C240.771 116.572 226.699 109.825 216.617 89.6959" fill="#ADFFD8"/>
<path d="M216.506 89.6959C216.395 89.8065 216.949 91.3549 218.501 94.2304C219.941 96.9955 222.379 100.977 226.146 105.401C228.03 107.613 230.245 109.936 232.904 112.148C234.234 113.254 235.675 114.359 237.115 115.465C237.891 116.018 238.667 116.461 239.553 117.014L240.66 117.567C240.883 117.788 240.993 117.457 241.215 117.345L241.769 116.903C242.212 116.572 242.545 116.24 242.988 115.908C248.971 111.042 255.619 105.733 262.599 100.092C264.04 98.9863 265.37 97.7697 266.81 96.6637C267.586 96 268.362 95.3364 269.248 94.6728C269.912 94.1198 270.688 93.5668 271.353 93.0138L271.907 92.5714L272.017 92.4608C272.017 92.4608 272.017 92.4608 272.128 92.4608H272.017L271.685 92.3502L270.355 92.0184L268.693 91.6867L267.475 91.3549C266.92 91.2443 266.367 91.1337 265.924 90.9125C264.927 90.5807 263.818 90.2489 262.932 89.9171C260.937 89.1429 259.164 88.1475 257.502 86.9309C255.841 85.8249 254.4 84.3872 253.293 82.8388C252.627 82.0646 252.184 81.2904 251.63 80.5162C251.408 80.0738 251.187 79.6314 250.965 79.2995C250.855 79.0783 250.744 78.8571 250.632 78.6359L250.301 77.7513L249.746 76.5346L249.525 75.871L249.415 75.5392L249.303 75.4286C249.303 75.4286 249.192 75.4286 249.192 75.5392C248.528 76.2028 247.863 76.8664 247.309 77.4195C246.977 77.7511 246.644 78.0829 246.311 78.4147C245.98 78.7465 245.647 79.0783 245.314 79.2995C244.65 79.8526 243.985 80.4056 243.321 80.848C242.655 81.2904 241.879 81.7328 241.215 82.1752C238.334 83.7236 235.342 84.719 232.573 85.0507C229.802 85.4931 227.254 85.4931 225.038 85.3825C223.93 85.3825 222.932 85.1613 221.936 85.0507C221.049 84.8296 220.163 84.719 219.387 84.6084C216.285 83.9448 214.623 83.3918 214.623 83.613C214.512 83.7236 216.063 84.6084 219.165 85.4931C219.941 85.7143 220.827 85.9355 221.713 86.1567C222.711 86.2673 223.708 86.5991 224.927 86.5991C227.254 86.9309 229.913 86.9309 232.794 86.5991C235.675 86.2673 238.888 85.3825 241.99 83.7236C242.766 83.2812 243.542 82.8388 244.318 82.3964C245.093 81.8434 245.758 81.2904 246.533 80.7374C246.977 80.5162 247.309 80.1844 247.642 79.8526C247.973 79.5208 248.306 79.1889 248.639 78.9677L248.749 78.8571C248.749 78.8571 248.749 78.9677 248.86 78.9677L249.082 79.4102C249.192 79.6314 249.303 79.8526 249.415 80.0738C249.636 80.5162 249.858 80.9586 250.079 81.401C250.632 82.2858 251.187 83.1706 251.851 83.9448C253.181 85.6037 254.733 87.1521 256.505 88.4793C258.278 89.8065 260.273 90.8019 262.378 91.6867C263.375 92.129 264.484 92.4608 265.591 92.7926C266.145 93.0138 266.699 93.1244 267.253 93.235L267.696 93.3456L265.924 94.7834C264.484 95.8894 263.154 96.9955 261.713 98.2121C254.733 103.963 248.196 109.272 242.212 114.138C241.879 114.47 241.547 114.691 241.215 115.023C241.104 115.134 241.215 115.134 240.993 115.023C240.217 114.581 239.443 114.138 238.667 113.585C237.226 112.59 235.786 111.595 234.567 110.489C232.018 108.387 229.802 106.175 227.809 104.074C224.041 99.871 221.492 96.1107 219.72 93.4562C217.504 91.1337 216.618 89.5853 216.506 89.6959Z" fill="#1B1B1B"/>
<path d="M40.9977 162.802L61.0528 157.825C61.0528 157.825 45.4298 187.466 40.9977 174.193C36.5657 160.921 36.7874 155.945 36.7874 155.945L1.10938 156.83C1.10938 156.83 2.10659 183.816 20.0563 182.046C38.0062 180.277 41.1086 178.397 41.1086 178.397" fill="#ADFFD8"/>
<path d="M40.9988 178.397C40.8879 178.286 39.0044 178.949 35.3479 179.503C31.6915 180.055 26.2622 180.719 19.6142 181.271C16.4009 181.494 12.7444 180.609 9.97446 178.065C7.20444 175.52 5.21002 171.65 3.99121 167.447C3.3264 165.345 2.8832 163.133 2.55079 160.811C2.43999 160.258 2.43999 159.594 2.3292 159.042C2.21839 158.488 2.21839 157.603 2.21839 157.824H2.43999C3.10481 157.824 3.6588 157.824 4.32361 157.824C9.30966 157.714 14.5174 157.603 19.8358 157.382C21.941 157.272 24.157 157.272 26.2622 157.161C28.3675 157.051 30.4727 157.051 32.6887 156.94C33.4643 156.94 34.1292 156.94 34.9048 156.83C35.2371 156.83 35.5695 156.83 36.0127 156.83L36.1236 157.824C36.2343 158.488 36.3451 159.152 36.3451 159.705C36.5667 160.921 36.7883 162.248 37.1207 163.354C37.6748 165.789 38.3395 168.111 39.0044 170.434C39.3367 171.54 39.6692 172.646 40.1123 173.752C40.4448 174.858 40.8879 176.074 41.8852 177.18C42.3284 177.732 42.9932 178.176 43.7688 178.397C44.1012 178.507 44.5444 178.507 44.8768 178.507C45.2093 178.397 45.5416 178.397 45.874 178.286C47.2037 177.843 48.2008 177.18 48.9765 176.516C50.7493 175.079 52.0789 173.419 53.4085 171.761C54.6273 170.101 55.8461 168.553 56.8434 166.895C57.8406 165.345 58.8378 163.687 59.7241 162.248C60.1674 161.364 60.6106 160.59 61.0538 159.815C61.3862 159.152 61.7186 158.599 62.0509 157.936L62.4942 157.051L62.7158 156.608C62.605 156.608 62.3834 156.719 62.2726 156.719C61.6078 156.83 60.943 157.051 60.389 157.161C59.835 157.272 59.1702 157.493 58.6162 157.603C57.8406 157.824 57.1757 157.936 56.511 158.157C55.1813 158.488 53.8517 158.93 52.6329 159.152C50.1952 159.815 48.2008 160.369 46.428 160.921C43.104 161.917 41.2204 162.47 41.3312 162.691C41.3312 162.802 43.2148 162.47 46.6496 161.806C48.4224 161.475 50.4168 160.921 52.9654 160.369C54.1841 160.036 55.5138 159.815 56.8434 159.484C57.5081 159.373 58.2838 159.152 58.9485 158.93C59.1702 158.93 59.5025 158.82 59.7241 158.709H59.835V158.82L59.7241 159.042L59.5025 159.373C59.1702 160.036 58.7269 160.7 58.2838 161.364C57.3973 162.802 56.4001 164.35 55.4029 165.899C54.4057 167.447 53.1869 168.995 51.968 170.544C50.7493 172.092 49.4196 173.641 47.7577 174.858C46.9821 175.52 46.0956 176.074 45.32 176.295C44.4337 176.516 43.8796 176.406 43.2148 175.741C42.8824 175.41 42.6609 174.968 42.4392 174.525C42.2176 174.083 42.1068 173.641 41.8852 172.977C41.5528 171.871 41.2204 170.765 40.8879 169.659C40.2232 167.447 39.5584 165.124 39.0044 162.802C38.7828 161.585 38.4504 160.479 38.3395 159.263C38.2288 158.709 38.1179 158.046 38.1179 157.493C38.1179 157.161 38.0072 156.94 38.0072 156.497C38.0072 155.834 38.0072 155.17 38.0072 154.507C36.2343 154.507 34.4615 154.618 32.5779 154.618C30.4727 154.728 28.2566 154.728 26.1514 154.839C24.0463 154.949 21.941 154.949 19.7249 155.06C14.4065 155.17 9.19887 155.391 4.21282 155.502C3.548 155.502 2.994 155.502 2.3292 155.613H1.55359H0.667177H0.223972H0.00236994C-0.108431 155.613 0.00236994 155.724 0.00236994 155.834V156.719C0.113171 158.157 0.113171 158.378 0.223972 159.042C0.334773 159.705 0.334773 160.258 0.445574 160.811C0.777978 163.244 1.33198 165.566 1.9968 167.778C3.3264 172.202 5.43162 176.295 8.64486 179.17C10.1961 180.609 12.0797 181.604 13.9633 182.157C15.8469 182.71 17.7305 182.821 19.5033 182.6C26.2622 181.936 31.6915 181.051 35.3479 180.165C39.226 179.613 41.1096 178.618 40.9988 178.397Z" fill="#1B1B1B"/>
<path d="M263.929 169.107C263.929 168.663 261.936 168.442 259.387 168.442C259.277 168.442 259.165 168.442 259.055 168.442C258.944 168.442 258.834 168.442 258.722 168.442C256.173 168.442 254.18 168.663 254.18 169.107C254.18 169.548 256.173 169.659 258.722 169.769C258.834 169.769 258.944 169.769 259.055 169.769C259.165 169.769 259.277 169.769 259.387 169.769C261.936 169.659 263.929 169.438 263.929 169.107Z" fill="#1B1B1B"/>
<path d="M270.027 173.308C269.917 172.866 267.258 173.308 263.712 173.529C263.49 173.529 263.38 173.529 263.159 173.529C262.937 173.529 262.826 173.529 262.604 173.529C259.059 173.752 256.4 173.641 256.289 174.083C256.289 174.414 259.059 174.968 262.604 174.858C262.826 174.858 262.937 174.858 263.159 174.858C263.38 174.858 263.49 174.858 263.712 174.858C267.48 174.525 270.139 173.641 270.027 173.308Z" fill="#1B1B1B"/>
<path d="M204.098 146.543C204.43 146.212 203.655 145.216 202.546 144.11C202.436 144.11 202.436 144 202.324 144L202.214 143.889C201.106 142.783 200.108 142.119 199.777 142.452C199.444 142.783 200.22 143.668 201.327 144.885C201.438 144.885 201.438 144.995 201.55 144.995L201.66 145.106C202.767 146.101 203.876 146.876 204.098 146.543Z" fill="#1B1B1B"/>
<path d="M205.096 154.064C205.428 153.733 203.766 151.631 201.439 148.866C201.328 148.755 201.218 148.645 201.107 148.424C200.995 148.313 200.885 148.203 200.774 147.982C198.447 145.327 196.453 143.337 196.121 143.668C195.788 143.889 197.45 146.101 199.778 148.866C199.888 148.977 199.999 149.088 200.109 149.309C200.221 149.419 200.331 149.53 200.442 149.751C202.768 152.406 204.763 154.285 205.096 154.064Z" fill="#1B1B1B"/>
<path d="M177.286 159.705C178.394 158.82 178.284 157.714 177.618 156.719L177.508 156.608L177.397 156.497C176.622 155.613 175.513 155.17 174.406 156.055C173.408 156.83 173.408 158.046 174.073 159.042L174.184 159.152L174.294 159.263C175.18 160.148 176.289 160.479 177.286 159.705Z" fill="#1B1B1B"/>
<path d="M19.8352 163.354C19.7244 162.912 17.176 163.133 13.7411 163.244C13.5196 163.244 13.4087 163.244 13.1871 163.244C12.9655 163.244 12.8547 163.244 12.6331 163.244C9.19829 163.466 6.53906 163.466 6.53906 163.908C6.53906 164.35 9.19829 164.572 12.6331 164.46C12.8547 164.46 12.9655 164.46 13.1871 164.46C13.4087 164.46 13.5196 164.46 13.7411 164.46C17.2868 164.239 19.8352 163.687 19.8352 163.354Z" fill="#1B1B1B"/>
<path d="M27.8127 167.557C27.702 167.115 24.0455 167.778 19.1703 168.111C18.9487 168.111 18.727 168.111 18.3947 168.111C18.1731 168.111 17.9514 168.111 17.6191 168.111C12.7438 168.442 8.97656 168.221 8.97656 168.663C8.97656 168.995 12.7438 169.659 17.7298 169.438C17.9514 169.438 18.1731 169.438 18.5054 169.438C18.727 169.438 18.9487 169.438 19.281 169.438C24.1563 168.995 27.9236 167.889 27.8127 167.557Z" fill="#1B1B1B"/>
<path d="M46.5391 165.124C46.5391 166.562 46.9822 167.115 47.6471 167.226H47.7578H47.8687C48.5335 167.115 48.9767 166.562 48.9767 165.124C48.9767 163.797 48.5335 163.133 47.8687 163.023H47.7578H47.6471C47.0931 163.133 46.5391 163.797 46.5391 165.124Z" fill="#1B1B1B"/>
<path d="M258.504 92.2396C258.504 91.7972 255.733 91.576 252.521 89.917C252.41 89.8064 252.188 89.8064 252.077 89.6958L251.634 89.4746C248.532 87.8157 246.648 85.6037 246.315 85.9355C245.983 86.1567 247.646 88.7005 250.969 90.5806C251.191 90.6912 251.302 90.8018 251.524 90.8018C251.745 90.9124 251.855 91.023 252.077 91.023C255.512 92.682 258.614 92.5714 258.504 92.2396Z" fill="#1B1B1B"/>
<path d="M251.188 95.3364C251.299 94.894 249.083 94.1198 246.867 92.2396L246.534 91.9078L246.202 91.576C243.986 89.5852 242.767 87.5945 242.434 87.8157C242.103 87.9263 242.989 90.3594 245.426 92.5714L245.758 92.9032L246.091 93.235C248.64 95.2258 251.188 95.7787 251.188 95.3364Z" fill="#1B1B1B"/>
<path d="M196.672 51.2074C197.004 51.2074 197.337 50.8756 197.558 50.4332C197.78 50.1014 198.113 49.5484 198.556 49.2166C198.999 48.8848 199.331 48.9954 199.664 49.106C199.774 49.2166 199.886 49.3272 200.107 49.5484C200.329 49.7696 200.55 50.212 200.662 50.765C200.772 50.9862 200.772 51.2074 200.772 51.318C200.772 51.5392 200.883 51.6498 200.883 51.9816V52.2028V52.3134H200.662C200.439 52.3134 200.218 52.3134 199.996 52.2028C199.663 52.2028 199.331 52.0922 198.999 51.9816C198.444 51.871 198.113 51.6498 197.67 51.4286C197.448 51.4286 197.115 51.2074 196.672 51.2074C196.34 51.2074 196.118 51.5392 196.008 52.2028C195.896 52.8664 196.34 53.9723 197.337 54.8571C197.78 55.2995 198.444 55.6313 199.11 55.8525C199.442 55.9631 199.663 56.0737 199.996 56.1843L200.218 56.2949L200.662 56.4055C200.883 56.4055 201.215 56.5161 201.548 56.5161C202.655 56.6267 203.874 56.1843 204.65 55.1889C204.983 54.7465 205.204 54.0829 205.314 53.4194C205.314 53.0876 205.314 52.7558 205.314 52.424V51.9816V51.6498C205.314 51.318 205.204 50.8756 205.093 50.5438C204.983 50.212 204.871 49.8802 204.761 49.4378C204.428 48.553 203.985 47.6682 203.321 47.0046C202.655 46.2305 201.658 45.5669 200.55 45.4563C198.444 45.1245 196.672 46.4517 196.118 47.6682C195.564 48.8848 195.675 49.8802 195.785 50.5438C196.008 51.0968 196.451 51.318 196.672 51.2074Z" fill="black"/>
<path d="M211.519 0C210.078 0 209.525 2.54377 209.414 5.86175C209.414 5.97235 209.414 6.19354 209.414 6.30415C209.414 6.41475 209.414 6.63595 209.414 6.74655C209.525 10.0645 210.078 12.6083 211.519 12.6083C212.849 12.6083 213.513 10.0645 213.625 6.74655C213.625 6.63595 213.625 6.41475 213.625 6.30415C213.625 6.19354 213.625 5.97235 213.625 5.86175C213.513 2.54377 212.849 0 211.519 0Z" fill="black"/>
<path d="M158.449 133.05C157.12 133.604 156.787 134.489 157.008 135.373V135.483V135.595C157.451 136.479 158.227 136.922 159.557 136.368C160.776 135.926 161.219 134.931 160.998 134.046C160.998 134.046 160.998 133.935 160.886 133.935V133.825C160.555 132.94 159.667 132.498 158.449 133.05Z" fill="black"/>
<path d="M100.055 175.964C100.055 177.401 100.719 177.955 101.606 178.065H101.717H101.827C102.714 177.955 103.379 177.401 103.379 175.964C103.379 174.637 102.714 173.973 101.827 173.862H101.717H101.606C100.719 173.973 100.055 174.637 100.055 175.964Z" fill="black"/>
<path d="M32.0238 90.0276C31.5806 90.5806 31.5806 91.2442 32.0238 92.0184C32.467 92.7925 33.4641 93.5667 34.683 94.2303L35.0154 94.3409L35.3478 94.4515C36.6774 94.8939 37.8962 95.0045 38.7827 94.8939C39.669 94.6727 40.223 94.2303 40.3339 93.4561C40.4446 92.129 38.7827 91.3548 36.899 90.47L36.5666 90.3594C34.5722 89.6958 32.9102 89.0322 32.0238 90.0276Z" fill="black"/>
<path d="M49.1989 34.728C47.7585 34.728 47.2045 35.9446 47.0938 37.493C47.0938 37.6036 47.0938 37.6036 47.0938 37.7142C47.0938 37.8248 47.0938 37.8248 47.0938 37.9354C47.2045 39.4838 47.7585 40.7004 49.1989 40.7004C50.5285 40.7004 51.1934 39.4838 51.3041 37.9354C51.3041 37.8248 51.3041 37.8248 51.3041 37.7142C51.3041 37.6036 51.3041 37.6036 51.3041 37.493C51.1934 35.834 50.5285 34.728 49.1989 34.728Z" fill="black"/>
<path d="M260.828 24.1105C259.388 24.1105 258.834 25.2165 258.723 26.5438C258.723 26.6544 258.723 26.6544 258.723 26.765C258.723 26.8756 258.723 26.8756 258.723 26.9862C258.834 28.3134 259.388 29.4194 260.828 29.4194C262.158 29.4194 262.823 28.3134 262.933 26.9862C262.933 26.8756 262.933 26.8756 262.933 26.765C262.933 26.6544 262.933 26.6544 262.933 26.5438C262.823 25.2165 262.158 24.1105 260.828 24.1105Z" fill="black"/>
<path d="M131.191 18.8018C129.751 18.8018 129.198 18.9124 129.086 19.1336C129.198 19.3548 129.751 19.4654 131.191 19.4654C132.521 19.4654 133.186 19.3548 133.297 19.1336C133.186 18.9124 132.521 18.8018 131.191 18.8018Z" fill="black"/>
<path d="M258.172 136.368C258.726 137.695 259.612 138.028 260.498 137.695C260.498 137.695 260.61 137.695 260.61 137.585H260.72C261.496 137.143 261.939 136.368 261.496 135.041C261.053 133.825 260.055 133.493 259.169 133.714C259.169 133.714 259.058 133.714 259.058 133.825H258.948C258.061 134.267 257.729 135.152 258.172 136.368Z" fill="black"/>
<path d="M216.505 193.769C216.948 195.097 218.611 195.208 220.605 194.544C220.716 194.544 220.826 194.433 220.938 194.433C221.049 194.433 221.159 194.323 221.27 194.323C223.154 193.548 224.373 192.442 223.93 191.115C223.487 189.899 221.824 189.788 219.83 190.341C219.719 190.341 219.609 190.451 219.497 190.451C219.386 190.451 219.276 190.563 219.165 190.563C217.281 191.336 216.062 192.442 216.505 193.769Z" fill="black"/>
<path d="M123.211 27.4287C123.211 28.8664 124.318 29.4194 125.649 29.53C125.759 29.53 125.759 29.53 125.87 29.53C125.98 29.53 125.98 29.53 126.092 29.53C127.422 29.4194 128.529 28.8664 128.529 27.4287C128.529 26.1014 127.422 25.4378 126.092 25.3272C125.98 25.3272 125.98 25.3272 125.87 25.3272C125.759 25.3272 125.759 25.3272 125.649 25.3272C124.318 25.4378 123.211 26.1014 123.211 27.4287Z" fill="#1B1B1B"/>
<path d="M78.8943 161.475C80.3347 161.475 80.8887 160.369 80.9994 159.042C80.9994 158.931 80.9994 158.931 80.9994 158.82C80.9994 158.709 80.9994 158.709 80.9994 158.599C80.8887 157.272 80.3347 156.166 78.8943 156.166C77.5647 156.166 76.8998 157.272 76.7891 158.599C76.7891 158.709 76.7891 158.709 76.7891 158.82C76.7891 158.931 76.7891 158.931 76.7891 159.042C76.8998 160.369 77.5647 161.475 78.8943 161.475Z" fill="#1B1B1B"/>
<path d="M41.2188 212.24C41.2188 213.677 43.7672 214.231 46.9804 214.341C47.0912 214.341 47.3128 214.341 47.4236 214.341C47.5345 214.341 47.7561 214.341 47.8668 214.341C51.1908 214.231 53.6285 213.677 53.6285 212.24C53.6285 210.913 51.0801 210.249 47.8668 210.138C47.7561 210.138 47.5345 210.138 47.4236 210.138C47.3128 210.138 47.0912 210.138 46.9804 210.138C43.7672 210.249 41.2188 210.913 41.2188 212.24Z" fill="#1B1B1B"/>
</g>
<path d="M99.5 80.5C99.5 77.7047 101.264 76.8662 103.889 76.3889C108.146 75.6149 108.301 81.0665 108.278 84.1111C108.266 85.6328 105.225 95.4741 106.722 96.3889C107.497 96.8622 110.62 98 110.5 98" stroke="black" stroke-width="3" stroke-linecap="round"/>
<path d="M116 100C117.957 102.202 113.732 100.692 116.5 100" stroke="black" stroke-width="3" stroke-linecap="round"/>
</g>
<defs>
<clipPath id="clip0_224_74">
<rect width="278" height="264" fill="white"/>
</clipPath>
</defs>
</svg>
