<svg width="357" height="346" viewBox="0 0 357 346" fill="none" xmlns="http://www.w3.org/2000/svg">
<path fill-rule="evenodd" clip-rule="evenodd" d="M257 0L259.187 18.0462C259.291 18.9188 259.638 19.712 260.193 20.3466C260.749 20.9812 261.443 21.3778 262.207 21.4968L278 23.9955L262.207 26.4942C261.443 26.6132 260.749 27.0098 260.193 27.6444C259.638 28.279 259.291 29.0722 259.187 29.9448L257 47.991L254.813 29.9448C254.709 29.0722 254.362 28.279 253.807 27.6444C253.251 27.0098 252.557 26.6132 251.793 26.4942L236 23.9955L251.793 21.4968C252.557 21.3778 253.251 20.9812 253.807 20.3466C254.362 19.712 254.709 18.9188 254.813 18.0462L257 0Z" fill="#295956"/>
<path fill-rule="evenodd" clip-rule="evenodd" d="M257 0L259.187 18.0462C259.291 18.9188 259.638 19.712 260.193 20.3466C260.749 20.9812 261.443 21.3778 262.207 21.4968L278 23.9955L262.207 26.4942C261.443 26.6132 260.749 27.0098 260.193 27.6444C259.638 28.279 259.291 29.0722 259.187 29.9448L257 47.991L254.813 29.9448C254.709 29.0722 254.362 28.279 253.807 27.6444C253.251 27.0098 252.557 26.6132 251.793 26.4942L236 23.9955L251.793 21.4968C252.557 21.3778 253.251 20.9812 253.807 20.3466C254.362 19.712 254.709 18.9188 254.813 18.0462L257 0Z" fill="#295956"/>
<mask id="mask0_224_75" style="mask-type:luminance" maskUnits="userSpaceOnUse" x="0" y="125" width="357" height="221">
<path d="M356.562 125H0V346H356.562V125Z" fill="white"/>
</mask>
<g mask="url(#mask0_224_75)">
<path d="M356.562 345.68C356.669 345.36 352.187 344.398 344.186 343.011C342.158 342.691 339.918 342.264 337.464 341.836C335.01 341.516 332.343 341.089 329.356 340.662C323.594 339.915 316.979 338.953 309.618 338.1C302.256 337.245 294.148 336.391 285.399 335.644C281.024 335.217 276.544 334.896 271.849 334.469C267.155 334.149 262.353 333.829 257.446 333.402C254.992 333.189 252.431 333.082 249.87 332.868C247.31 332.762 244.75 332.547 242.189 332.442C236.961 332.12 231.626 331.907 226.186 331.587C220.744 331.373 215.196 331.16 209.541 330.946C206.767 330.84 203.887 330.733 201.006 330.626C198.125 330.52 195.244 330.52 192.365 330.413C187.67 330.306 183.083 330.199 178.388 330.199C173.799 330.199 169.106 330.199 164.411 330.199C161.53 330.199 158.65 330.199 155.769 330.199C152.889 330.199 150.008 330.306 147.234 330.306C141.579 330.413 136.031 330.52 130.59 330.626C125.149 330.84 119.814 331.053 114.586 331.16C112.026 331.267 109.358 331.373 106.905 331.48C104.344 331.587 101.89 331.8 99.3295 331.907C94.4217 332.227 89.5139 332.442 84.8195 332.762C80.125 333.082 75.6441 333.509 71.2696 333.829C69.1359 334.042 66.8953 334.149 64.8682 334.362C62.7344 334.469 60.7072 334.683 58.6802 334.896C54.6258 335.324 50.785 335.751 47.0508 336.071C39.6891 336.818 33.0742 337.78 27.313 338.527C24.4322 338.953 21.765 339.274 19.2044 339.7C16.7505 340.128 14.51 340.555 12.4829 340.875C4.37434 342.477 0 343.438 0 343.865C0.106691 344.185 4.48103 343.758 12.5896 342.797C14.6166 342.584 16.8572 342.264 19.3111 341.943C21.765 341.729 24.4322 341.409 27.4196 341.089C33.181 340.555 39.7958 339.7 47.1575 339.167C50.785 338.847 54.7326 338.527 58.6802 338.206C60.7072 337.993 62.7344 337.886 64.8682 337.78C67.0021 337.673 69.1359 337.458 71.2696 337.353C75.6441 337.031 80.125 336.818 84.8195 336.498C89.5139 336.284 94.3149 336.071 99.2227 335.858C101.677 335.751 104.237 335.644 106.691 335.537C109.252 335.431 111.812 335.431 114.373 335.324C119.601 335.217 124.936 335.004 130.376 334.896C135.818 334.789 141.366 334.789 147.021 334.683C149.795 334.683 152.675 334.576 155.555 334.576C158.436 334.576 161.317 334.576 164.197 334.576C168.892 334.576 173.479 334.576 178.068 334.576C182.655 334.683 187.243 334.789 191.937 334.789C194.818 334.789 197.698 334.896 200.579 334.896C203.46 334.896 206.234 335.111 209.115 335.111C214.77 335.324 220.318 335.431 225.758 335.644C231.2 335.858 236.534 336.178 241.656 336.391C244.216 336.498 246.776 336.605 249.337 336.711C251.898 336.818 254.352 337.031 256.805 337.138C261.713 337.458 266.515 337.673 271.209 337.993C275.904 338.313 280.384 338.633 284.758 338.953C293.507 339.594 301.509 340.342 308.871 340.982C316.233 341.622 322.848 342.369 328.609 342.904C331.49 343.224 334.157 343.438 336.717 343.758C339.171 344.078 341.412 344.291 343.439 344.505C352.08 345.68 356.562 346 356.562 345.68Z" fill="#1B1B1B"/>
<path d="M34.5676 324.647C33.5006 323.793 30.7266 326.142 28.3795 330.306C28.2727 330.52 28.1661 330.733 28.0594 330.946C27.9527 331.16 27.846 331.373 27.7394 331.587C25.7122 335.858 25.2855 339.594 26.5657 339.915C27.846 340.235 29.3397 337.245 31.3668 333.402C31.4735 333.189 31.5802 332.975 31.6868 332.868C31.7936 332.655 31.9003 332.442 32.0069 332.334C33.9274 328.384 35.5278 325.395 34.5676 324.647Z" fill="#1B1B1B"/>
<path d="M18.5653 313.224C18.1386 313.758 18.7787 314.932 19.8456 316.853C20.9125 318.775 22.1928 321.444 23.153 324.647C23.2597 324.967 23.3664 325.288 23.4731 325.608C23.5797 325.929 23.6865 326.249 23.6865 326.569C24.5399 329.878 24.9668 332.975 25.5002 335.217C26.0336 337.458 26.5671 338.847 27.3139 338.74C27.954 338.74 28.3809 337.245 28.4875 334.896C28.5943 332.547 28.4875 329.238 27.6341 325.502C27.5273 325.182 27.4207 324.754 27.3139 324.434C27.2073 324.113 27.1006 323.687 26.9938 323.366C25.8203 319.736 23.8998 316.747 22.1928 314.932C20.4857 313.224 18.992 312.689 18.5653 313.224Z" fill="#1B1B1B"/>
<path d="M36.0616 335.111C36.0616 334.469 35.4215 333.936 34.568 333.722C33.6078 333.509 32.3274 333.722 31.0471 334.149L30.6204 334.363L30.1936 334.576C28.9133 335.217 27.9531 336.071 27.4196 336.925C26.8862 337.78 26.8862 338.42 27.4196 338.953C28.3798 339.915 29.9803 339.167 32.0073 338.313L32.3274 338.206L32.6475 338.1C34.3546 337.138 36.0616 336.391 36.0616 335.111Z" fill="#1B1B1B"/>
<path d="M17.8189 333.616C17.9255 334.363 18.5657 334.683 19.3125 335.004C20.0594 335.324 21.0196 335.644 22.0864 336.285L22.4065 336.391L22.7266 336.605C23.7935 337.138 24.5403 337.886 25.1805 338.313C25.8207 338.74 26.4609 339.06 27.2076 338.847C27.7411 338.633 28.0612 337.886 27.7411 336.711C27.4211 335.537 26.4609 334.149 24.9672 333.189C24.8604 333.082 24.6471 332.975 24.5403 332.868C24.327 332.762 24.2203 332.655 24.007 332.655C22.2998 331.907 20.5927 331.8 19.5259 332.12C18.1388 332.334 17.6055 332.975 17.8189 333.616Z" fill="#1B1B1B"/>
<path d="M281.454 322.726C280.387 321.871 277.613 324.22 275.266 328.384C275.159 328.598 275.052 328.811 274.946 329.024C274.839 329.238 274.732 329.451 274.626 329.665C272.598 333.936 272.172 337.673 273.453 337.993C274.732 338.313 276.227 335.324 278.253 331.48C278.36 331.267 278.466 331.053 278.573 330.946C278.68 330.733 278.786 330.52 278.893 330.413C280.814 326.462 282.415 323.58 281.454 322.726Z" fill="#1B1B1B"/>
<path d="M265.446 311.302C265.02 311.836 265.66 313.009 266.726 314.931C267.794 316.853 269.074 319.522 270.033 322.726C270.14 323.046 270.247 323.366 270.353 323.686C270.46 324.007 270.568 324.327 270.568 324.647C271.421 327.957 271.848 331.053 272.381 333.295C272.914 335.537 273.447 336.925 274.195 336.818C274.835 336.818 275.262 335.324 275.368 332.975C275.475 330.626 275.368 327.316 274.515 323.58C274.408 323.26 274.302 322.833 274.195 322.512C274.088 322.191 273.982 321.765 273.875 321.444C272.701 317.815 270.781 314.825 269.074 313.011C267.366 311.302 265.873 310.768 265.446 311.302Z" fill="#1B1B1B"/>
<path d="M282.946 333.189C282.946 332.547 282.306 332.014 281.452 331.8C280.492 331.587 279.212 331.8 277.931 332.227L277.505 332.442L277.078 332.655C275.798 333.295 274.837 334.149 274.304 335.004C273.771 335.858 273.771 336.498 274.304 337.031C275.264 337.993 276.865 337.245 278.892 336.391L279.212 336.284L279.532 336.178C281.345 335.217 282.946 334.469 282.946 333.189Z" fill="#1B1B1B"/>
<path d="M264.703 331.694C264.809 332.442 265.449 332.762 266.196 333.082C266.944 333.402 267.903 333.722 268.97 334.363L269.29 334.469L269.61 334.683C270.678 335.217 271.424 335.964 272.064 336.391C272.704 336.818 273.345 337.138 274.092 336.925C274.625 336.711 274.945 335.964 274.625 334.789C274.305 333.615 273.345 332.227 271.851 331.267C271.744 331.16 271.531 331.053 271.424 330.946C271.211 330.84 271.104 330.733 270.891 330.733C269.183 329.985 267.477 329.878 266.409 330.199C265.129 330.413 264.596 331.053 264.703 331.694Z" fill="#1B1B1B"/>
<path d="M16.431 325.288C15.8976 326.569 16.7511 327.529 18.0314 328.171C18.138 328.171 18.138 328.277 18.2448 328.277C18.3515 328.277 18.3515 328.384 18.4582 328.384C19.8451 328.918 21.1254 328.811 21.6589 327.529C22.1924 326.355 21.3388 325.288 20.0586 324.647C19.9518 324.647 19.9518 324.54 19.8451 324.54C19.7385 324.54 19.7385 324.434 19.6317 324.434C18.2448 323.9 16.8578 324.113 16.431 325.288Z" fill="#1B1B1B"/>
<path d="M160.465 215.962C160.785 215.962 160.892 215.108 161.533 214.574C161.853 214.254 162.173 214.147 162.6 214.254C162.813 214.361 162.919 214.468 163.133 214.681C163.346 214.895 163.453 215.215 163.559 215.642C163.559 215.749 163.666 215.962 163.666 216.069C163.666 216.176 163.666 216.39 163.773 216.496C163.773 216.71 163.773 216.923 163.773 217.03C163.773 217.137 163.773 217.137 163.773 217.137C163.773 217.137 163.773 217.137 163.559 217.137C163.239 217.137 162.813 217.03 162.6 217.03C162.28 217.03 162.066 216.923 161.853 216.817C161.426 216.603 161.213 216.39 161 216.176C160.785 216.176 160.572 215.962 160.465 215.962C160.359 215.962 160.145 216.176 160.145 216.603C160.145 217.03 160.359 217.671 161 218.204C161.32 218.418 161.64 218.632 162.066 218.845C162.493 218.952 162.813 219.059 163.346 219.165C163.559 219.165 163.986 219.165 164.414 219.059C164.84 218.952 165.16 218.738 165.374 218.311C165.48 218.098 165.587 217.884 165.587 217.671C165.587 217.457 165.694 217.244 165.694 217.03C165.694 216.71 165.694 216.496 165.694 216.176C165.694 215.962 165.587 215.749 165.587 215.535C165.587 215.322 165.48 215.108 165.374 214.895C165.16 214.361 164.947 213.827 164.52 213.4C164.094 212.973 163.559 212.546 162.919 212.439C161.64 212.226 160.572 212.973 160.252 213.72C159.825 214.468 159.932 215.108 160.039 215.429C160.145 215.856 160.252 216.069 160.465 215.962Z" fill="#1B1B1B"/>
<path d="M162.811 179.449C163.451 179.343 163.877 178.595 164.517 178.488C164.624 178.488 164.732 178.489 164.732 178.595C164.732 178.595 164.732 178.809 164.732 178.488C164.732 178.488 164.732 178.489 164.624 178.702C164.517 178.809 164.624 178.809 164.624 178.809C164.732 178.915 164.838 179.129 164.838 179.449C164.838 179.556 164.945 179.663 164.945 179.77C164.945 179.876 164.945 179.983 164.945 180.09C164.945 180.303 164.945 180.41 165.052 180.624L165.372 180.731C165.478 180.731 165.585 180.731 165.691 180.837C165.905 180.837 166.118 180.944 166.225 181.051C166.438 181.158 166.225 181.051 166.225 180.944C166.118 180.731 166.011 180.41 166.011 179.983C166.011 179.983 166.011 179.983 165.905 179.983C165.798 179.983 165.585 179.983 165.265 179.983C164.945 179.983 164.732 179.983 164.517 179.983C164.304 179.983 164.197 179.983 163.984 179.983C163.664 179.663 163.237 179.343 162.811 179.449C162.384 179.556 162.064 179.876 162.171 180.731C162.171 181.158 162.491 181.691 162.917 182.225C163.344 182.652 163.984 183.079 164.624 183.293C164.838 183.4 165.158 183.506 165.585 183.613C166.011 183.613 166.545 183.827 167.398 183.4C167.826 183.186 168.359 182.759 168.679 182.332C168.999 181.798 168.999 181.478 169.106 181.158C169.212 180.517 169.106 180.09 169.106 179.77C169.106 179.556 168.999 179.236 168.999 179.022C168.999 178.809 168.892 178.488 168.786 178.275C168.572 177.634 168.252 176.994 167.718 176.46C167.185 175.926 166.438 175.392 165.478 175.179C163.771 174.859 162.384 176.033 161.958 176.887C161.53 177.848 161.638 178.595 161.851 179.022C162.171 179.343 162.491 179.449 162.811 179.449Z" fill="#A8A8A8"/>
<path d="M223.837 264.647L241.015 262.298C241.015 262.298 243.682 278.418 242.401 283.971C231.199 286.106 222.664 287.173 222.664 287.173C222.664 287.173 227.892 280.767 224.691 267.102" fill="#ADFFD8"/>
<path d="M224.797 267.102C224.69 267.102 225.224 269.131 225.437 272.76C225.65 274.575 225.65 276.711 225.33 279.166C225.117 280.34 224.904 281.729 224.477 283.009C224.264 283.651 224.051 284.291 223.731 285.038C223.624 285.358 223.411 285.678 223.196 285.999L222.983 286.213C222.876 286.32 222.77 286.533 222.663 286.64C222.45 286.96 222.236 287.28 221.916 287.6C222.77 287.493 223.731 287.387 224.584 287.28C225.224 287.173 225.864 287.067 226.505 287.067C227.785 286.853 229.064 286.64 230.452 286.533C233.119 286.106 235.893 285.678 238.774 285.145C239.841 284.931 240.801 284.824 241.868 284.611L242.295 284.504H242.615C242.721 284.504 242.828 284.504 242.935 284.398L243.148 283.329C243.255 282.796 243.255 282.262 243.255 281.729C243.361 279.06 243.148 276.604 243.041 274.148C242.828 271.693 242.508 269.451 242.295 267.209C242.188 266.14 241.975 265.073 241.868 264.006C241.762 263.472 241.655 262.831 241.547 262.298C241.547 262.191 241.547 261.977 241.441 261.977H241.121L240.587 262.084C240.374 262.084 240.054 262.191 239.841 262.191C237.92 262.511 236.107 262.724 234.506 262.938C231.199 263.365 228.638 263.793 226.825 264.113C225.01 264.433 224.051 264.646 224.051 264.646C224.051 264.753 225.01 264.646 226.825 264.433C228.638 264.22 231.305 263.899 234.506 263.472C236.107 263.258 237.92 263.045 239.841 262.831C240.054 262.831 240.374 262.724 240.587 262.724H240.801C240.907 263.151 240.907 263.578 241.014 264.006C241.121 265.073 241.334 266.14 241.441 267.209C241.762 269.451 241.975 271.693 242.188 274.148C242.401 276.604 242.508 279.06 242.401 281.622C242.401 282.155 242.401 282.689 242.295 283.116L242.188 283.544L241.762 283.651C240.801 283.864 239.734 283.971 238.666 284.184C235.787 284.718 233.013 285.145 230.345 285.571C229.064 285.785 227.678 285.999 226.398 286.213C225.437 286.32 224.477 286.533 223.624 286.64V286.533L223.837 286.213C224.051 285.893 224.157 285.572 224.371 285.145C224.69 284.504 224.904 283.757 225.117 283.116C225.544 281.729 225.757 280.447 225.97 279.166C226.29 276.604 226.185 274.362 225.97 272.547C225.757 270.731 225.544 269.344 225.224 268.383C224.904 267.636 224.797 267.102 224.797 267.102Z" fill="#1B1B1B"/>
<path d="M170.173 259.522C170.173 259.522 174.868 247.884 192.259 246.389C204.102 259.949 204.102 259.949 204.102 259.949C204.102 259.949 182.87 267.102 185.003 274.896C170.387 266.462 170.066 262.191 170.066 262.191" fill="#FFF7B1"/>
<path d="M170.173 261.977C170.066 261.977 170.281 263.258 171.561 264.86C172.841 266.568 175.081 268.596 178.175 270.732C179.67 271.8 181.483 272.974 183.297 274.042C183.937 274.469 184.683 274.896 185.323 275.322H185.43V275.216V275.002L185.323 274.575C185.323 274.255 185.217 274.042 185.217 273.722C185.217 273.402 185.217 273.187 185.217 272.867C185.323 271.8 185.964 270.732 186.711 269.771C188.311 267.956 190.445 266.355 192.792 265.073C195.14 263.685 197.699 262.511 200.474 261.337C201.008 261.123 201.541 260.909 202.074 260.696L202.928 260.376L203.889 260.056L204.635 259.842L202.181 257.066C200.26 254.824 198.34 252.689 196.526 250.66C195.566 249.593 194.712 248.632 193.859 247.671C193.432 247.137 193.006 246.711 192.579 246.176L192.366 245.856C192.259 245.642 192.046 245.856 191.939 245.749L191.405 245.856C191.085 245.856 190.765 245.963 190.445 245.963C187.884 246.283 185.644 246.924 183.51 247.564C181.483 248.418 179.563 249.273 177.962 250.34C174.761 252.369 172.734 254.718 171.561 256.426C170.387 258.134 170.066 259.308 170.066 259.308C170.173 259.308 170.601 258.347 171.881 256.639C173.162 255.038 175.188 252.796 178.282 250.874C179.776 249.806 181.696 249.058 183.723 248.311C185.858 247.671 188.097 247.031 190.552 246.817C190.871 246.817 191.191 246.711 191.511 246.711H191.939L192.046 246.817C192.472 247.351 192.899 247.778 193.326 248.311C194.179 249.273 195.033 250.34 195.993 251.407C197.806 253.436 199.727 255.678 201.648 257.813L203.354 259.735L201.861 260.269C201.328 260.482 200.795 260.696 200.26 260.909C197.486 262.084 194.925 263.258 192.472 264.646C190.125 266.034 187.884 267.636 186.178 269.558C185.323 270.518 184.683 271.693 184.577 272.974C184.47 273.294 184.577 273.615 184.577 273.935V274.042C184.257 273.828 184.043 273.722 183.723 273.507C181.803 272.44 180.096 271.266 178.602 270.198C175.508 268.063 173.267 266.142 171.881 264.54C171.241 263.793 170.814 263.151 170.494 262.618C170.281 262.298 170.173 261.977 170.173 261.977Z" fill="#1B1B1B"/>
<path d="M234.079 268.063C234.079 267.636 232.798 267.422 230.985 267.422C230.879 267.422 230.772 267.422 230.772 267.422C230.665 267.422 230.559 267.422 230.559 267.422C228.851 267.422 227.465 267.636 227.465 268.063C227.465 268.489 228.744 268.596 230.559 268.704C230.665 268.704 230.772 268.704 230.772 268.704C230.879 268.704 230.985 268.704 230.985 268.704C232.693 268.596 234.079 268.383 234.079 268.063Z" fill="#1B1B1B"/>
<path d="M238.136 270.945C238.03 270.518 236.217 270.838 233.869 270.945H233.549H233.229C230.882 271.053 229.068 271.053 229.068 271.48C229.068 271.8 230.882 272.227 233.336 272.12H233.656H233.976C236.43 271.906 238.243 271.266 238.136 270.945Z" fill="#1B1B1B"/>
<path d="M124.721 213.293L135.497 211.799C135.497 211.799 137.204 221.941 136.351 225.464C129.309 226.746 123.975 227.493 123.975 227.493C123.975 227.493 127.282 223.436 125.255 214.895" fill="#ADFFD8"/>
<path d="M125.253 214.895C125.146 214.895 125.466 216.176 125.573 218.418C125.679 219.486 125.679 220.873 125.466 222.475C125.359 223.222 125.146 224.076 124.933 224.824C124.826 225.251 124.613 225.678 124.398 225.998C124.398 226.105 124.292 226.212 124.292 226.318C124.185 226.425 124.185 226.425 124.078 226.745C123.865 227.066 123.545 227.6 123.119 228.027C126.426 227.493 130.053 226.959 134.002 226.318C134.641 226.212 135.281 226.105 135.921 225.998C136.028 225.998 136.348 225.891 136.668 225.891L136.776 225.144C136.882 224.824 136.882 224.503 136.882 224.076C136.989 220.767 136.561 217.671 136.241 214.895C136.135 214.254 136.028 213.507 135.921 212.866C135.815 212.439 135.815 212.012 135.708 211.692C135.708 211.585 135.708 211.478 135.601 211.478H135.388L134.961 211.585L134.428 211.692C133.254 211.905 132.081 212.012 131.014 212.226C126.959 212.866 124.398 213.293 124.398 213.4C124.398 213.507 125.039 213.4 126.213 213.293C127.386 213.187 128.987 212.973 131.121 212.759C132.187 212.653 133.254 212.546 134.535 212.332H134.961H135.068C135.068 212.546 135.175 212.759 135.175 213.08C135.281 213.72 135.388 214.361 135.388 215.108C135.708 217.884 136.135 220.98 135.921 224.183C135.921 224.503 135.921 224.824 135.815 225.144V225.358H135.601C134.961 225.464 134.322 225.571 133.682 225.678C130.373 226.212 127.279 226.745 124.506 227.173V227.066L124.613 226.852C124.719 226.745 124.719 226.639 124.719 226.532C124.933 226.105 125.039 225.678 125.253 225.251C125.573 224.397 125.679 223.543 125.786 222.688C125.999 221.087 125.893 219.699 125.786 218.525C125.679 217.35 125.466 216.496 125.253 215.962C125.466 215.108 125.359 214.788 125.253 214.895Z" fill="#1B1B1B"/>
<path d="M131.125 215.429C131.125 215.001 130.272 214.788 129.204 214.788C129.097 214.788 129.097 214.788 128.991 214.788C128.884 214.788 128.884 214.788 128.777 214.788C127.711 214.788 126.857 215.001 126.857 215.429C126.857 215.856 127.711 215.962 128.777 216.069C128.884 216.069 128.884 216.069 128.991 216.069C129.097 216.069 129.097 216.069 129.204 216.069C130.272 215.962 131.125 215.856 131.125 215.429Z" fill="#1B1B1B"/>
<path d="M133.684 217.243C133.577 216.816 132.403 216.923 131.016 217.03H130.803H130.59C129.095 217.137 128.029 217.137 127.922 217.564C127.922 217.991 129.095 218.311 130.59 218.204H130.803H131.016C132.724 218.098 133.79 217.564 133.684 217.243Z" fill="#1B1B1B"/>
<path d="M194.073 253.009C194.393 252.689 193.966 252.049 193.22 251.302L193.112 251.194L193.006 251.087C192.259 250.34 191.512 249.913 191.299 250.233C190.979 250.553 191.512 251.194 192.152 251.942L192.259 252.049L192.366 252.155C193.006 252.796 193.753 253.222 194.073 253.009Z" fill="#1B1B1B"/>
<path d="M194.711 258.027C195.032 257.707 193.964 256.212 192.365 254.397C192.258 254.291 192.258 254.184 192.151 254.077C192.045 253.969 192.045 253.864 191.938 253.756C190.337 251.942 189.057 250.66 188.736 250.98C188.416 251.194 189.484 252.796 191.084 254.611C191.19 254.717 191.19 254.824 191.297 254.931C191.404 255.038 191.404 255.144 191.51 255.251C193.005 256.96 194.391 258.24 194.711 258.027Z" fill="#1B1B1B"/>
<path d="M176.147 261.764C176.467 261.551 176.253 260.909 175.72 260.269C175.72 260.269 175.72 260.162 175.614 260.162C175.614 260.162 175.614 260.056 175.506 260.056C174.973 259.415 174.439 258.988 174.119 259.309C173.799 259.522 174.013 260.162 174.546 260.803C174.546 260.803 174.546 260.909 174.653 260.909C174.653 260.909 174.653 261.016 174.759 261.016C175.293 261.657 175.827 261.978 176.147 261.764Z" fill="#1B1B1B"/>
<path d="M106.264 263.9L119.708 260.589C119.708 260.589 109.251 280.447 106.264 271.586C103.277 262.618 103.383 259.309 103.383 259.309L79.4844 259.949C79.4844 259.949 80.1246 277.992 92.1807 276.924C104.237 275.856 106.264 274.469 106.264 274.469" fill="#ADFFD8"/>
<path d="M106.263 274.362C106.263 274.362 105.943 274.469 105.303 274.682C104.663 274.896 103.703 275.109 102.529 275.323C100.075 275.749 96.4476 276.284 91.9666 276.604C89.726 276.818 87.2721 276.177 85.3517 274.469C83.4313 272.76 82.0442 270.091 81.1907 267.209C80.764 265.82 80.4439 264.22 80.2305 262.725C80.2305 262.298 80.1238 261.978 80.1238 261.551C80.1238 261.123 80.0172 260.803 80.0172 260.376C80.0172 260.376 79.9104 260.376 80.4439 260.376C80.8706 260.376 81.2974 260.376 81.7242 260.376C85.0316 260.269 88.5524 260.162 92.0732 260.056C93.5669 260.056 94.9539 259.949 96.3409 259.949C97.7278 259.949 99.2215 259.842 100.609 259.842C101.462 259.842 102.316 259.842 103.062 259.735V259.949L103.169 260.589C103.169 261.016 103.276 261.444 103.382 261.871C103.489 262.725 103.703 263.578 103.916 264.326C104.236 265.927 104.77 267.529 105.196 269.024C105.41 269.771 105.623 270.518 105.943 271.266C106.156 272.013 106.477 272.76 107.01 273.402C107.33 273.722 107.65 273.935 108.077 274.149C108.29 274.149 108.504 274.255 108.717 274.255C108.93 274.255 109.144 274.255 109.357 274.149C110.104 273.935 110.744 273.507 111.384 272.974C113.625 271.053 115.118 268.704 116.613 266.675C117.359 265.607 117.892 264.54 118.532 263.578C118.852 263.045 119.067 262.618 119.387 262.084C119.6 261.764 119.707 261.444 119.92 261.123L120.24 260.482L120.347 260.162C120.24 260.162 120.133 260.162 120.027 260.269C117.786 260.803 115.758 261.337 113.945 261.871C112.345 262.298 110.958 262.725 109.784 262.938C108.717 263.258 107.864 263.472 107.223 263.685C106.583 263.9 106.37 264.006 106.37 264.006C106.37 264.006 106.69 264.006 107.33 263.9C107.97 263.793 108.824 263.578 109.997 263.365C112.238 262.831 115.332 262.084 119.28 261.123C119.493 261.016 118.639 262.298 118.106 263.258C117.466 264.22 116.826 265.287 116.186 266.355C114.798 268.383 113.198 270.732 111.064 272.547C110.531 272.974 109.891 273.402 109.357 273.507C108.717 273.722 108.184 273.507 107.757 273.08C107.33 272.547 107.01 271.906 106.797 271.158C106.583 270.411 106.37 269.664 106.05 268.917C105.623 267.422 105.196 265.82 104.77 264.22C104.556 263.472 104.449 262.618 104.343 261.764C104.236 261.337 104.236 260.909 104.129 260.589L104.023 259.949V259.842V259.629V258.988C102.956 258.988 101.889 259.095 100.715 259.095C99.2215 259.095 97.8346 259.202 96.4476 259.202C95.0605 259.202 93.5669 259.309 92.1799 259.309C88.6591 259.415 85.1383 259.522 81.8309 259.629C81.4041 259.629 80.9774 259.629 80.5505 259.629H79.8037H79.4837H79.377V259.735V260.269C79.4837 261.231 79.4837 261.978 79.6971 262.725C79.9104 264.326 80.2305 265.82 80.7639 267.316C81.7242 270.198 83.1112 272.974 85.1383 274.789C87.2721 276.711 89.9394 277.244 92.2867 277.031C96.7676 276.604 100.395 276.071 102.849 275.536C104.983 275.002 106.263 274.469 106.263 274.362Z" fill="#1B1B1B"/>
<path d="M92.0729 264.22C91.9661 263.793 90.2591 263.9 88.0185 264.006H87.6985H87.3784C85.1379 264.113 83.3242 264.22 83.3242 264.647C83.3242 265.073 85.1379 265.287 87.3784 265.18H87.6985H88.0185C90.3658 264.967 92.0729 264.54 92.0729 264.22Z" fill="#1B1B1B"/>
<path d="M97.4099 266.995C97.3032 266.569 94.8493 266.995 91.6485 267.209C91.4352 267.209 91.3285 267.209 91.115 267.209C90.9017 267.209 90.7951 267.209 90.5817 267.209C87.3809 267.422 84.8203 267.316 84.8203 267.742C84.8203 268.063 87.381 268.596 90.6883 268.383C90.9017 268.383 91.0084 268.383 91.2218 268.383C91.4352 268.383 91.5419 268.383 91.7553 268.383C94.956 268.169 97.5165 267.422 97.4099 266.995Z" fill="#1B1B1B"/>
<path d="M109.998 265.394C109.998 265.82 110.318 266.034 110.745 266.034C110.745 266.034 110.745 266.034 110.852 266.034C110.852 266.034 110.852 266.034 110.958 266.034C111.385 266.034 111.705 265.82 111.705 265.394C111.705 264.967 111.385 264.86 110.958 264.753C110.958 264.753 110.958 264.753 110.852 264.753C110.852 264.753 110.852 264.753 110.745 264.753C110.318 264.86 109.998 265.073 109.998 265.394Z" fill="#1B1B1B"/>
<path d="M189.057 189.058C189.697 188.951 190.124 188.204 190.765 188.097C190.871 188.097 190.978 188.097 190.978 188.204C190.978 188.204 190.978 188.417 190.978 188.097C190.978 188.097 190.978 188.097 190.871 188.311C190.765 188.417 190.871 188.417 190.871 188.417C190.978 188.524 191.085 188.738 191.085 189.058C191.085 189.165 191.191 189.272 191.191 189.378C191.191 189.485 191.191 189.592 191.191 189.699C191.191 189.912 191.191 190.019 191.298 190.232L191.618 190.339C191.725 190.339 191.831 190.339 191.938 190.446C192.151 190.446 192.365 190.553 192.471 190.659C192.685 190.766 192.471 190.659 192.471 190.553C192.365 190.339 192.258 190.019 192.258 189.592C192.258 189.592 192.258 189.592 192.151 189.592C192.045 189.592 191.831 189.592 191.511 189.592C191.191 189.592 190.978 189.592 190.765 189.592C190.552 189.592 190.445 189.592 190.232 189.592C189.911 189.272 189.484 188.951 189.057 189.058C188.631 189.165 188.311 189.485 188.417 190.339C188.417 190.766 188.737 191.3 189.164 191.834C189.591 192.261 190.232 192.688 190.871 192.902C191.085 193.008 191.405 193.115 191.831 193.222C192.258 193.222 192.791 193.435 193.646 193.008C194.072 192.795 194.605 192.368 194.925 191.941C195.245 191.407 195.245 191.087 195.352 190.766C195.459 190.126 195.352 189.699 195.352 189.378C195.352 189.165 195.245 188.845 195.245 188.631C195.245 188.417 195.139 188.097 195.032 187.884C194.819 187.243 194.499 186.603 193.966 186.069C193.431 185.535 192.685 185.001 191.725 184.788C190.017 184.467 188.631 185.642 188.204 186.496C187.777 187.457 187.884 188.204 188.097 188.631C188.417 188.951 188.737 189.058 189.057 189.058Z" fill="#A8A8A8"/>
<path d="M163.452 243.827C162.172 244.362 161.745 245.002 161.959 245.643V245.749V245.856C162.278 246.391 162.918 246.604 164.306 246.176C165.479 245.749 165.906 245.002 165.799 244.362V244.255V244.147C165.479 243.614 164.626 243.4 163.452 243.827Z" fill="#A8A8A8"/>
<path d="M124.402 272.653C124.402 274.042 124.83 274.575 125.47 274.682H125.577H125.683C126.217 274.575 126.75 274.042 126.75 272.653C126.75 271.373 126.323 270.731 125.683 270.625H125.577H125.47C124.83 270.731 124.402 271.373 124.402 272.653Z" fill="#A8A8A8"/>
<path d="M78.9519 215.002C77.9916 215.962 78.7384 217.457 80.5522 218.418L80.8723 218.525L81.1923 218.631C83.1129 219.272 84.7132 218.738 84.7132 217.35C84.8199 216.069 83.8597 215.322 82.686 214.788L82.4726 214.681H82.1527C80.979 214.254 79.8054 214.041 78.9519 215.002Z" fill="#A8A8A8"/>
<path d="M90.367 177.848C88.9799 177.848 88.4466 178.595 88.3398 179.663V179.77V179.876C88.4466 180.944 88.9799 181.691 90.367 181.691C91.6473 181.691 92.2874 180.944 92.3942 179.876V179.77V179.663C92.2874 178.702 91.6473 177.848 90.367 177.848Z" fill="#A8A8A8"/>
<path d="M231.945 170.801C230.558 170.801 230.024 171.549 229.918 172.403V172.51V172.616C230.024 173.577 230.558 174.218 231.945 174.218C233.225 174.218 233.865 173.471 233.972 172.616V172.51V172.403C233.972 171.549 233.225 170.801 231.945 170.801Z" fill="#A8A8A8"/>
<path d="M145.206 167.278C143.82 167.278 143.287 167.385 143.18 167.492C143.287 167.599 143.82 167.705 145.206 167.705C146.487 167.705 147.127 167.599 147.234 167.492C147.127 167.385 146.487 167.278 145.206 167.278Z" fill="#A8A8A8"/>
<path d="M230.241 246.176C230.774 247.458 231.414 247.778 232.055 247.671H232.161H232.268C232.801 247.351 233.015 246.604 232.481 245.322C232.055 244.147 231.307 243.721 230.667 243.827H230.561H230.454C229.921 244.147 229.707 245.002 230.241 246.176Z" fill="#A8A8A8"/>
<path d="M202.289 284.611C202.715 285.893 203.888 286.106 205.276 285.785C205.383 285.785 205.383 285.785 205.489 285.678C205.596 285.678 205.596 285.678 205.703 285.572C206.983 285.038 207.729 284.184 207.302 282.796C206.876 281.622 205.703 281.302 204.315 281.622C204.208 281.622 204.208 281.622 204.102 281.729C203.995 281.729 203.995 281.729 203.888 281.835C202.609 282.369 201.861 283.437 202.289 284.611Z" fill="#A8A8A8"/>
<path d="M139.873 173.044C139.873 174.431 140.619 174.965 141.474 175.072H141.58H141.687C142.647 174.965 143.287 174.431 143.287 173.044C143.287 171.762 142.54 171.122 141.687 171.015H141.58H141.474C140.619 171.122 139.873 171.762 139.873 173.044Z" fill="#1B1B1B"/>
<path d="M143.926 247.458C145.313 247.458 145.846 246.711 145.953 245.856V245.749V245.642C145.846 244.682 145.313 244.042 143.926 244.042C142.646 244.042 142.006 244.789 141.898 245.642V245.749V245.856C142.006 246.711 142.646 247.458 143.926 247.458Z" fill="#1B1B1B"/>
<path d="M85.0332 296.996C85.0332 298.384 86.7403 298.918 88.874 299.024C88.9808 299.024 89.0874 299.024 89.1941 299.024C89.3008 299.024 89.4075 299.024 89.5141 299.024C91.7547 298.918 93.3551 298.384 93.3551 296.996C93.3551 295.715 91.648 295.074 89.5141 294.967C89.4075 294.967 89.3008 294.967 89.1941 294.967C89.0874 294.967 88.9808 294.967 88.874 294.967C86.7403 295.074 85.0332 295.822 85.0332 296.996Z" fill="#1B1B1B"/>
<path d="M211.994 145.499C211.994 145.499 237.814 123.932 262.14 146.887C260.539 138.132 256.272 133.648 256.272 133.648L239.734 127.776L226.931 129.164L211.888 136.317L204.207 142.723L211.994 145.499Z" fill="#FFF7B1"/>
<path d="M284.053 209.038C287.784 203.306 264.828 181.731 232.782 160.848C200.735 139.965 171.732 127.683 168.003 133.415C164.273 139.147 187.227 160.722 219.275 181.605C251.321 202.487 280.323 214.769 284.053 209.038Z" fill="#E2E9E3"/>
<path d="M251.778 188.005C253.449 185.436 243.277 175.841 229.056 166.574C214.835 157.307 201.951 151.878 200.28 154.447C198.607 157.016 208.78 166.612 223 175.878C237.222 185.145 250.106 190.575 251.778 188.005Z" fill="white"/>
<path d="M162.703 136.744C162.81 136.637 162.383 135.783 161.636 134.288C161.316 133.541 160.889 132.58 160.676 131.406C160.569 130.872 160.569 130.231 160.782 129.804C160.996 129.377 161.316 129.057 162.062 128.95C163.343 128.63 165.156 128.843 167.077 129.164C168.998 129.591 171.024 130.231 173.265 130.979C177.64 132.473 182.547 134.609 187.882 137.171C198.551 142.296 211.033 149.235 224.584 157.776C231.305 162.047 238.24 166.745 245.389 171.869C252.43 176.994 259.685 182.652 266.62 188.845C269.394 191.3 272.061 193.862 274.622 196.531C277.076 199.201 279.53 201.976 281.236 204.966C281.77 205.82 282.196 206.781 282.304 207.528C282.304 207.742 282.304 207.848 282.304 208.062C282.304 208.169 282.304 208.275 282.304 208.382C282.304 208.382 282.303 208.489 282.196 208.489C282.196 208.489 282.196 208.489 282.196 208.596C282.196 208.596 282.09 208.596 282.09 208.702C281.77 208.916 280.81 209.129 279.85 209.129C278.889 209.129 277.822 209.023 276.756 208.809C272.488 208.062 268.327 206.567 264.38 204.966C256.378 201.763 248.803 198.026 241.867 194.183C227.891 186.602 215.835 178.915 206.02 172.189C196.203 165.463 188.629 159.698 183.4 155.641C178.173 151.584 175.399 149.342 175.079 149.556C174.866 149.769 177.319 152.438 182.227 156.922C187.135 161.406 194.603 167.492 204.312 174.538C214.021 181.585 225.97 189.592 240.054 197.385C247.095 201.336 254.671 205.179 262.992 208.489C267.154 210.09 271.421 211.692 276.223 212.546C277.396 212.759 278.676 212.866 279.957 212.866C281.236 212.866 282.731 212.759 284.437 211.799C285.29 211.265 285.931 210.304 286.251 209.343C286.358 208.916 286.465 208.382 286.465 207.955C286.465 207.528 286.465 207.101 286.358 206.674C286.145 205.073 285.505 203.898 284.864 202.724C282.837 199.094 280.277 196.211 277.609 193.435C274.942 190.659 272.274 188.097 269.394 185.535C262.246 179.236 254.991 173.577 247.842 168.453C240.694 163.328 233.546 158.63 226.717 154.36C213.061 145.926 200.258 139.199 189.269 134.288C183.72 131.833 178.707 129.911 174.118 128.523C171.772 127.883 169.638 127.349 167.61 127.029C165.584 126.708 163.556 126.601 161.742 127.135C160.782 127.456 159.929 128.203 159.609 129.164C159.289 130.125 159.502 130.979 159.716 131.619C160.142 133.007 160.782 133.861 161.209 134.609C161.956 136.21 162.596 136.851 162.703 136.744Z" fill="#1B1B1B"/>
<path d="M257.98 177.741C258.301 177.848 259.155 176.887 260.328 174.752C260.861 173.684 261.609 172.403 262.249 170.908C262.995 169.307 263.742 167.705 264.596 165.57C266.196 161.406 266.943 155.961 266.303 149.876C265.876 146.886 265.023 143.79 263.635 140.694C262.249 137.598 260.221 134.715 257.554 132.153L256.7 131.406L255.847 130.765C255.207 130.338 254.673 129.911 254.14 129.484C252.86 128.737 251.687 127.989 250.299 127.456C246.992 126.068 243.471 125.32 240.164 125.107C236.856 125 233.656 125.32 230.668 125.961C224.8 127.349 219.999 129.698 216.265 132.153C212.637 134.609 209.97 136.957 208.369 138.772C206.769 140.587 206.129 141.762 206.343 141.975C206.556 142.189 207.622 141.441 209.543 140.054C211.356 138.666 214.131 136.637 217.758 134.715C221.386 132.687 225.973 130.765 231.308 129.698C233.976 129.271 236.856 128.95 239.737 129.164C242.618 129.377 245.712 130.018 248.485 131.299C249.659 131.726 250.619 132.367 251.792 133.007C252.327 133.328 252.753 133.755 253.286 134.075L254.033 134.609L254.673 135.249C256.914 137.278 258.728 139.84 260.008 142.402C261.289 145.071 262.035 147.741 262.569 150.41C263.422 155.748 262.889 160.766 261.715 164.609C261.182 166.531 260.541 168.453 260.008 170.054C259.475 171.656 259.048 173.043 258.728 174.111C257.98 176.246 257.66 177.527 257.98 177.741Z" fill="#1B1B1B"/>
<path opacity="0.72" d="M200.26 154.467L134.965 194.076L248.378 254.611L251.899 187.99L200.26 154.467Z" fill="white"/>
<path d="M182.441 198.453C182.441 198.453 196.311 204.539 205.486 194.183C208.26 201.976 215.408 204.005 219.462 204.752C205.913 216.069 200.152 220.446 200.152 220.446C200.152 220.446 190.763 215.962 183.935 202.403" fill="#ADFFD8"/>
<path d="M183.936 202.403C183.936 202.403 184.042 202.724 184.256 203.151C184.469 203.685 184.789 204.432 185.323 205.286C186.39 207.101 187.99 209.77 190.551 212.759C191.831 214.254 193.325 215.749 195.032 217.243C195.885 217.991 196.845 218.738 197.913 219.379C198.446 219.699 198.979 220.019 199.513 220.34L199.726 220.446L200.046 220.66C200.153 220.767 200.259 220.66 200.366 220.553L200.58 220.34L201.327 219.699C205.274 216.496 209.756 212.866 214.45 209.023C215.409 208.275 216.37 207.528 217.224 206.781L218.61 205.606L219.784 204.645L220.104 204.325L220.211 204.218H220.104H219.891L219.038 204.005L218.29 203.791L217.757 203.685C217.437 203.578 217.01 203.471 216.69 203.364C215.944 203.151 215.303 202.937 214.663 202.617C213.383 202.083 212.102 201.443 210.929 200.588C209.756 199.841 208.795 198.88 208.048 197.813C207.195 196.745 206.554 195.677 206.127 194.503L205.914 193.862L205.701 193.435L205.594 193.222V193.115C205.594 193.115 205.594 193.115 205.487 193.115C205.167 193.435 204.741 193.755 204.421 194.183C203.994 194.61 203.568 195.037 203.14 195.464C202.713 195.784 202.18 196.211 201.753 196.531C201.327 196.852 200.794 197.065 200.259 197.385C198.339 198.453 196.312 199.094 194.391 199.307C192.471 199.521 190.764 199.627 189.271 199.414C187.776 199.307 186.497 199.094 185.43 198.88C183.403 198.453 182.336 198.026 182.229 198.026C182.229 198.026 182.443 198.24 182.976 198.453C183.509 198.667 184.256 198.987 185.323 199.2C186.39 199.521 187.67 199.734 189.164 199.948C190.657 200.161 192.471 200.161 194.391 199.948C196.312 199.734 198.446 199.094 200.474 198.026C201.007 197.706 201.54 197.492 201.967 197.172C202.393 196.852 202.927 196.425 203.46 196.104C203.994 195.784 204.421 195.25 204.848 194.823L205.167 194.503L205.274 194.823C205.807 195.998 206.447 197.279 207.302 198.346C208.155 199.414 209.221 200.482 210.396 201.336C211.569 202.19 212.85 202.937 214.236 203.471C214.876 203.791 215.623 204.005 216.37 204.218C216.69 204.325 217.117 204.432 217.437 204.539L218.29 204.752L217.97 204.966L216.584 206.14C215.623 206.887 214.77 207.635 213.81 208.382C209.115 212.226 204.741 215.855 200.794 219.058L200.046 219.699L199.939 219.806L199.726 219.699C199.193 219.379 198.659 219.058 198.126 218.738C197.165 218.098 196.205 217.35 195.352 216.603C193.645 215.215 192.151 213.72 190.87 212.226C188.311 209.343 186.603 206.781 185.537 204.966C184.576 203.471 184.042 202.403 183.936 202.403Z" fill="#1B1B1B"/>
<path d="M211.035 204.112C211.035 203.684 209.22 203.471 207.087 202.403L206.767 202.297L206.447 202.083C204.42 201.015 203.14 199.627 202.819 199.841C202.499 200.054 203.567 201.869 205.806 203.151L206.126 203.364L206.447 203.578C208.901 204.645 211.035 204.539 211.035 204.112Z" fill="#1B1B1B"/>
<path d="M206.127 206.247C206.234 205.82 204.846 205.286 203.353 204.005L203.14 203.791L202.927 203.578C201.432 202.296 200.686 201.015 200.259 201.122C199.939 201.229 200.472 202.937 202.072 204.432L202.286 204.645L202.499 204.859C204.313 206.354 206.021 206.567 206.127 206.247Z" fill="#1B1B1B"/>
<path d="M216.795 172.403L227.144 171.015C227.144 171.015 228.744 180.731 227.997 184.04C221.276 185.321 216.154 185.962 216.154 185.962C216.154 185.962 219.355 182.118 217.328 173.898" fill="#ADFFD8"/>
<path d="M217.33 173.898C217.224 173.898 217.544 175.179 217.65 177.314C217.757 178.382 217.757 179.663 217.544 181.157C217.437 181.905 217.33 182.652 217.01 183.399C216.904 183.827 216.689 184.147 216.584 184.574C216.584 184.681 216.476 184.787 216.476 184.894C216.476 185.001 216.369 185.108 216.263 185.321C216.049 185.641 215.729 186.069 215.41 186.496C218.504 185.962 222.131 185.428 225.866 184.787C226.506 184.681 227.146 184.574 227.679 184.467C227.786 184.467 228.106 184.36 228.426 184.36L228.532 183.613C228.639 183.293 228.639 182.972 228.639 182.652C228.746 179.449 228.319 176.46 227.999 173.898C227.892 173.257 227.786 172.616 227.679 171.976C227.572 171.549 227.572 171.228 227.466 170.801C227.466 170.695 227.466 170.588 227.466 170.588H227.252L226.826 170.695L226.293 170.801C225.118 171.015 224.052 171.122 223.092 171.228C219.144 171.869 216.797 172.189 216.797 172.403C216.797 172.51 217.437 172.403 218.504 172.296C219.57 172.189 221.171 171.976 223.198 171.762C224.158 171.655 225.225 171.549 226.399 171.335H226.826H226.932C226.932 171.549 227.039 171.762 227.039 171.976C227.146 172.616 227.252 173.257 227.252 173.898C227.572 176.567 227.892 179.449 227.786 182.545C227.786 182.866 227.786 183.186 227.679 183.399V183.613H227.466C226.826 183.72 226.292 183.827 225.652 183.933C222.451 184.467 219.57 185.001 216.904 185.428V185.321L217.01 185.108C217.01 185.001 217.117 184.894 217.117 184.787C217.33 184.36 217.437 183.933 217.544 183.506C217.757 182.652 217.97 181.905 218.077 181.051C218.29 179.556 218.184 178.168 218.077 177.1C217.97 176.033 217.757 175.179 217.544 174.645C217.437 174.218 217.33 173.898 217.33 173.898Z" fill="#1B1B1B"/>
<path d="M222.877 174.431C222.877 174.004 222.131 173.791 221.064 173.791H220.958H220.851C219.783 173.791 219.037 174.004 219.037 174.431C219.037 174.858 219.783 174.965 220.851 175.072H220.958H221.064C222.024 175.072 222.877 174.858 222.877 174.431Z" fill="#1B1B1B"/>
<path d="M225.334 176.246C225.227 175.819 224.16 175.926 222.773 176.033H222.559H222.346C220.96 176.14 219.892 176.14 219.785 176.566C219.785 176.994 220.853 177.314 222.346 177.207H222.559H222.773C224.374 176.994 225.44 176.566 225.334 176.246Z" fill="#1B1B1B"/>
<path d="M143.924 316.533C143.817 315.786 140.936 315.573 136.028 315.786C133.574 315.893 130.693 316 127.494 316.213C124.933 316.427 122.052 316.64 118.958 316.854C118.958 316.854 118.851 316.96 119.065 316.64C119.491 316.107 119.918 315.573 120.345 314.932C121.411 313.438 122.372 312.049 123.332 310.662C125.146 307.885 126.533 305.323 127.599 303.082C129.733 298.597 130.48 295.715 129.84 295.394C129.2 295.074 127.599 297.636 125.039 301.587C123.759 303.615 122.159 305.964 120.238 308.526C119.278 309.807 118.317 311.195 117.251 312.476C116.611 313.224 116.397 313.651 115.116 315.145C114.156 316.32 112.77 317.922 111.489 319.416L109.355 321.871L110.743 321.765C112.236 321.658 113.73 321.445 115.223 321.338C116.824 321.124 118.53 321.018 120.025 320.804C120.984 320.697 121.839 320.591 122.692 320.484C124.505 320.271 126.106 320.056 127.814 319.843C131.014 319.416 133.895 318.989 136.241 318.669C141.15 317.922 144.03 317.174 143.924 316.533Z" fill="#1B1B1B"/>
<path d="M130.696 333.829C132.084 333.936 132.937 328.491 133.257 321.338C133.257 321.018 133.257 320.591 133.257 320.269C133.257 319.949 133.257 319.522 133.257 319.202C133.47 312.156 133.15 306.604 131.764 306.604C130.483 306.498 129.63 311.942 129.203 319.096C129.203 319.416 129.203 319.843 129.203 320.164C129.203 320.484 129.203 320.911 129.203 321.231C128.99 328.277 129.416 333.722 130.696 333.829Z" fill="#1B1B1B"/>
<path d="M207.94 316.533C207.834 315.786 204.953 315.573 200.046 315.786C197.592 315.893 194.711 316 191.51 316.213C188.95 316.427 186.069 316.64 182.975 316.854C182.975 316.854 182.868 316.96 183.082 316.64C183.508 316.107 183.935 315.573 184.362 314.932C185.429 313.438 186.389 312.049 187.35 310.662C189.163 307.885 190.55 305.323 191.617 303.082C193.751 298.597 194.498 295.715 193.858 295.394C193.217 295.074 191.617 297.636 189.056 301.587C187.776 303.615 186.176 305.964 184.256 308.526C183.295 309.807 182.335 311.195 181.268 312.476C180.627 313.224 180.414 313.651 179.134 315.145C178.174 316.32 176.787 317.922 175.507 319.416L173.373 321.871L174.759 321.765C176.254 321.658 177.747 321.445 179.241 321.338C180.841 321.124 182.548 321.018 184.041 320.804C185.002 320.697 185.856 320.591 186.709 320.484C188.523 320.271 190.123 320.056 191.83 319.843C195.031 319.416 197.912 318.989 200.259 318.669C205.166 317.922 207.94 317.174 207.94 316.533Z" fill="#1B1B1B"/>
<path d="M194.712 333.829C196.099 333.936 196.953 328.491 197.273 321.338C197.273 321.018 197.273 320.591 197.273 320.269C197.273 319.949 197.273 319.522 197.273 319.202C197.486 312.156 197.166 306.604 195.779 306.604C194.499 306.498 193.646 311.942 193.218 319.096C193.218 319.416 193.218 319.843 193.218 320.164C193.218 320.484 193.218 320.911 193.218 321.231C193.005 328.277 193.431 333.722 194.712 333.829Z" fill="#1B1B1B"/>
<path d="M146.166 309.167C146.486 309.273 146.913 308.313 147.446 306.604C147.661 305.751 147.981 304.682 148.3 303.509C148.62 302.334 148.94 301.053 149.687 300.198C150.007 299.771 150.54 299.344 150.968 299.131C151.395 298.918 151.821 298.918 152.461 299.131C153.849 299.451 155.342 300.412 156.515 301.693C158.969 304.362 160.463 308.633 160.89 313.224C160.997 314.185 160.997 315.038 160.997 316C160.997 316.96 160.997 317.815 160.89 318.775C160.783 319.949 160.57 321.018 160.357 322.192C160.142 323.26 159.822 324.434 159.502 325.182C159.182 325.929 158.756 326.249 158.223 326.462C157.689 326.676 156.943 326.676 156.195 326.569C154.809 326.249 153.634 325.074 152.674 323.687C151.714 322.298 150.968 320.804 150.327 319.416C147.661 313.971 147.981 310.234 147.233 310.127C146.913 310.127 146.486 310.982 146.273 312.904C146.166 314.718 146.486 317.494 147.553 320.591C148.087 322.192 148.727 323.793 149.794 325.609C150.327 326.462 150.968 327.423 151.821 328.278C152.674 329.131 153.849 329.878 155.128 330.306C156.408 330.733 157.903 330.84 159.502 330.306C160.25 330.093 160.997 329.558 161.637 329.025C162.276 328.384 162.703 327.744 163.023 327.103C163.664 325.715 163.984 324.54 164.304 323.366C164.624 322.085 164.837 320.804 164.944 319.523C165.051 318.455 165.051 317.387 165.051 316.32C165.051 315.253 165.051 314.185 164.944 313.117C164.411 307.885 162.596 302.867 159.182 299.451C157.476 297.743 155.342 296.569 153.101 296.142C152.568 296.035 151.928 296.035 151.288 296.035C150.647 296.142 150.007 296.355 149.474 296.569C148.407 297.209 147.661 297.956 147.126 298.811C146.06 300.518 145.953 302.12 145.846 303.402C145.74 304.682 145.633 305.751 145.633 306.604C145.74 308.1 145.846 309.06 146.166 309.167Z" fill="#1B1B1B"/>
<path d="M275.799 214.254C275.478 214.895 276.439 215.962 278.572 216.71C279.64 217.03 281.133 217.243 282.734 217.03C284.333 216.816 286.148 215.962 287.641 214.574C287.961 214.254 288.175 213.934 288.388 213.613C288.602 213.293 288.815 212.973 289.028 212.546C289.562 211.585 289.882 210.624 289.882 209.663C289.988 208.702 289.882 207.742 289.668 206.994C289.242 205.393 288.708 204.218 288.067 203.364C286.788 201.656 285.828 200.802 285.188 201.122C284.653 201.442 284.76 202.724 285.294 204.539C285.614 205.499 285.828 206.567 285.934 207.635C286.041 208.702 285.934 209.663 285.401 210.517C285.294 210.731 285.188 210.838 285.081 211.051C284.973 211.265 284.76 211.371 284.653 211.585C283.054 213.293 280.813 213.614 279 213.72C277.399 213.827 276.119 213.613 275.799 214.254Z" fill="#1B1B1B"/>
</g>
</svg>
