<svg width="278" height="264" viewBox="0 0 278 264" fill="none" xmlns="http://www.w3.org/2000/svg">
<g clip-path="url(#clip0_1109_19858)">
<mask id="mask0_1109_19858" style="mask-type:luminance" maskUnits="userSpaceOnUse" x="0" y="0" width="278" height="264">
<path d="M278 0H0V264H278V0Z" fill="white"/>
</mask>
<g mask="url(#mask0_1109_19858)">
<path d="M153.904 91.4653C154.236 91.4653 154.569 91.1335 154.79 90.6911C155.012 90.3593 155.344 89.8063 155.787 89.4745C156.23 89.1427 156.563 89.2533 156.895 89.3639C157.006 89.4745 157.117 89.5851 157.338 89.8063C157.561 90.0275 157.782 90.4699 157.892 91.0229C158.004 91.2441 158.004 91.4653 158.004 91.5759C158.004 91.7971 158.114 91.9077 158.114 92.2395V92.4607V92.5713H157.892C157.671 92.5713 157.449 92.5713 157.228 92.4607C156.895 92.4607 156.563 92.3501 156.23 92.2395C155.676 92.1289 155.344 91.9077 154.9 91.6865C154.569 91.6865 154.236 91.3547 153.904 91.4653C153.571 91.4653 153.35 91.7971 153.239 92.4607C153.128 93.1243 153.571 94.2303 154.569 95.1151C155.012 95.5575 155.676 95.8892 156.342 96.1104C156.673 96.221 156.895 96.3316 157.228 96.4422L157.449 96.5528L157.892 96.6634C158.114 96.6634 158.447 96.774 158.778 96.774C159.887 96.8846 161.106 96.4422 161.882 95.4469C162.213 95.0045 162.436 94.3409 162.546 93.6773C162.546 93.3455 162.546 93.0137 162.546 92.6819V92.2395V91.9077C162.546 91.5759 162.436 91.1335 162.325 90.8017C162.213 90.4699 162.103 90.1381 161.992 89.6957C161.66 88.8109 161.216 87.9262 160.551 87.2626C159.887 86.4884 158.89 85.8248 157.782 85.7142C155.676 85.3824 153.904 86.7096 153.35 87.9262C152.795 89.1427 152.907 90.1381 153.017 90.8017C153.239 91.2441 153.571 91.4653 153.904 91.4653Z" fill="#1B1B1B"/>
<path d="M157.448 36.94C157.781 36.94 158.113 36.6082 158.334 36.1658C158.557 35.834 158.889 35.281 159.333 34.9492C159.776 34.6174 160.108 34.728 160.44 34.8386C160.552 34.9492 160.662 35.0598 160.883 35.281C161.105 35.5022 161.326 35.9446 161.438 36.4976C161.548 36.7188 161.548 36.94 161.548 37.0506C161.548 37.2718 161.659 37.3824 161.659 37.7142V37.9353V38.046H161.438C161.216 38.046 160.995 38.0459 160.773 37.9353C160.44 37.9353 160.108 37.8248 159.776 37.7142C159.221 37.6036 158.889 37.3824 158.446 37.1612C158.114 37.1612 157.781 36.8294 157.448 36.94C157.117 36.94 156.894 37.2718 156.784 37.9353C156.673 38.5989 157.117 39.7049 158.114 40.5897C158.557 41.0321 159.221 41.3639 159.886 41.5851C160.219 41.6957 160.44 41.8063 160.773 41.9169L160.995 42.0275L161.438 42.1381C161.659 42.1381 161.992 42.2487 162.324 42.2487C163.432 42.3593 164.651 41.9169 165.426 40.9215C165.759 40.4791 165.98 39.8155 166.091 39.1519C166.091 38.8201 166.091 38.4883 166.091 38.1565V37.7142V37.3824C166.091 37.0506 165.98 36.6082 165.87 36.2764C165.759 35.9446 165.647 35.6128 165.537 35.1704C165.204 34.2856 164.761 33.4008 164.097 32.7372C163.432 31.963 162.435 31.2994 161.326 31.1888C159.221 30.8571 157.448 32.1842 156.894 33.4008C156.341 34.6174 156.451 35.6128 156.562 36.2764C156.784 36.7188 157.117 36.94 157.448 36.94Z" fill="black"/>
<path d="M109.14 97.8803C109.251 98.1015 109.361 98.3227 109.583 98.4333C110.137 98.9863 110.802 99.3181 111.467 99.4287C111.91 99.5393 112.796 99.7605 112.907 99.3181C113.018 98.9863 112.685 98.4333 112.464 98.1015C111.91 97.1061 110.802 95.7788 109.583 95.8895C108.697 96.0001 108.697 96.9955 109.14 97.8803Z" fill="white"/>
<path d="M156.008 260.792C200.219 260.792 236.118 249.29 236.118 236.129C236.118 222.967 200.329 212.35 156.119 212.24C111.909 212.24 76.01 222.746 76.01 235.908C75.8992 249.069 111.688 260.682 156.008 260.792Z" fill="#E2E9E3"/>
<path d="M72.5748 246.525C72.6857 246.304 71.7992 245.641 70.3589 244.202C69.5833 243.429 68.6968 242.544 67.9212 241.327C67.1456 240.111 66.4808 238.562 66.5916 236.793C66.7024 235.023 67.6996 233.254 69.3616 231.705C71.0236 230.046 73.1289 228.608 75.5664 227.391C80.4418 224.848 86.6467 222.636 93.5163 220.867C107.366 217.327 124.651 214.894 143.931 214.341C153.57 214.009 163.764 214.231 174.29 215.115C184.817 216 195.785 217.549 206.644 220.313C211.077 221.419 215.287 222.746 219.386 224.516C223.375 226.175 227.365 228.276 230.467 231.042C231.02 231.484 231.353 231.926 231.796 232.369C232.017 232.59 232.129 232.811 232.35 233.032C232.572 233.254 232.683 233.475 232.793 233.806C233.458 234.802 233.79 235.797 233.902 236.793C234.123 238.784 233.015 240.884 231.353 242.654C229.691 244.424 227.586 245.972 225.259 247.189C223.043 248.516 220.605 249.511 218.167 250.507C213.292 252.387 208.418 253.825 203.431 255.041C198.556 256.258 193.68 257.143 188.916 257.806C169.858 260.571 152.463 260.792 138.058 260.13C123.654 259.465 112.131 257.918 104.264 256.589C96.3971 255.262 92.0758 254.267 91.9651 254.6C91.8542 254.931 96.0647 256.479 103.821 258.359C111.688 260.24 123.211 262.23 137.837 263.225C152.351 264.221 169.969 264.331 189.47 261.678C194.345 261.013 199.331 260.13 204.317 258.912C209.414 257.695 214.511 256.368 219.608 254.267C222.156 253.271 224.704 252.165 227.142 250.728C229.58 249.29 232.017 247.631 234.233 245.419C235.342 244.313 236.228 242.986 237.004 241.438C237.78 239.89 238.111 238.12 237.89 236.35C237.78 234.581 237.114 232.811 236.228 231.484C236.007 231.152 235.785 230.82 235.564 230.488C235.342 230.157 235.121 229.825 234.788 229.493C234.233 228.94 233.679 228.276 233.126 227.834C229.358 224.406 225.037 222.304 220.826 220.534C216.505 218.765 212.073 217.327 207.531 216.11C196.229 213.235 185.149 211.686 174.401 210.913C163.654 210.138 153.349 210.028 143.488 210.359C123.875 211.134 106.48 213.898 92.4082 217.88C85.317 219.871 79.1121 222.304 74.0152 225.179C71.4668 226.618 69.2508 228.276 67.478 230.267C65.7052 232.148 64.4863 234.581 64.4863 236.793C64.4863 239.115 65.4835 240.884 66.4808 242.212C67.478 243.539 68.586 244.313 69.3616 244.977C71.3561 246.304 72.464 246.747 72.5748 246.525Z" fill="#1B1B1B"/>
<path d="M86.4259 78.8572C86.0934 78.8572 85.4286 81.9539 85.6503 87.7051C85.8718 90.5806 86.315 94.1199 87.4231 98.1014C88.531 102.083 90.0822 106.618 92.7415 111.152C93.9603 113.475 95.6223 115.687 97.506 118.009C99.3895 120.221 101.716 122.323 104.376 124.092C107.035 125.862 110.359 127.299 114.015 127.41C117.672 127.632 121.55 126.526 124.652 124.092C127.754 121.769 129.971 118.451 131.522 114.912C133.073 111.373 133.96 107.502 134.403 103.631C134.846 99.7604 134.736 95.6682 134.292 91.6866C133.738 87.7051 132.851 83.6129 131.522 79.6314C130.414 76.4239 128.973 73.4378 127.423 70.5622C125.76 67.6866 123.876 64.9217 121.66 62.2673C118.891 59.06 115.567 56.2949 111.689 54.4147C107.81 52.5345 103.489 51.871 99.2788 52.424C95.0683 53.0875 91.4118 54.8571 88.3094 57.2903C85.3178 59.7234 82.7694 62.7097 81.1074 66.0277C79.3345 69.235 78.3373 72.7742 77.7833 76.0921C77.2293 79.4102 77.2293 82.7281 77.3402 85.8249C77.5617 88.9216 78.0049 91.9078 78.5589 94.7835C78.8914 96.2212 79.2237 97.5484 79.5561 98.8756C79.9993 100.203 80.3317 101.53 80.7749 102.746C82.5478 107.724 85.207 111.816 87.7554 115.023C90.4147 118.23 93.1846 120.553 95.6223 122.212C100.498 125.42 103.822 125.972 103.822 125.641C103.932 125.309 101.052 124.203 96.7304 120.774C94.6251 119.005 92.1875 116.682 89.8606 113.475C87.5338 110.267 85.3178 106.396 83.7666 101.641C83.3234 100.535 83.1017 99.2074 82.6586 97.9908C82.3261 96.6636 82.1045 95.447 81.883 94.0093C81.4398 91.3548 80.9966 88.4792 80.8858 85.6037C80.6642 79.742 81.4398 73.4378 84.5422 67.7972C86.0934 65.0323 88.1987 62.4885 90.8578 60.387C93.4062 58.3963 96.6195 56.8479 99.9435 56.4055C103.268 55.9631 106.813 56.5161 109.916 58.0645C113.129 59.6128 116.01 61.9355 118.558 64.9217C120.553 67.2442 122.326 69.788 123.766 72.4424C125.317 75.0967 126.536 77.9724 127.644 80.8479C128.863 84.4977 129.859 88.258 130.303 92.0184C130.746 95.7788 130.857 99.4286 130.525 103.078C130.192 106.618 129.416 110.046 128.087 113.143C126.757 116.24 124.874 119.005 122.547 120.774C120.22 122.654 117.339 123.539 114.458 123.429C111.578 123.318 108.918 122.212 106.481 120.774C104.043 119.336 102.049 117.457 100.165 115.465C98.3923 113.475 96.8411 111.373 95.5115 109.272C92.8523 105.069 91.1903 100.866 89.9715 97.106C88.7526 93.3456 88.0878 90.0276 87.6446 87.2627C86.6475 81.9539 86.7582 78.8572 86.4259 78.8572Z" fill="#1B1B1B"/>
<path d="M182.601 257.143C184.152 256.591 182.379 255.485 182.158 254.267C177.725 233.917 162.213 215.226 158.335 194.766C158.335 194.766 153.571 200.406 146.258 203.06C138.834 205.714 130.524 202.175 130.524 202.175C130.857 212.461 137.284 221.53 141.383 230.931C144.374 237.788 146.812 249.955 147.477 257.474C147.366 257.474 163.432 264.221 182.601 257.143Z" fill="white"/>
<path d="M183.044 257.918C184.707 257.143 183.82 255.816 183.155 254.6C182.712 253.714 182.601 252.498 182.269 251.502C181.936 250.396 181.715 249.29 181.382 248.295C180.053 243.981 178.28 239.668 176.285 235.576C172.297 226.949 167.532 218.544 163.875 209.696C161.882 204.829 160.108 199.853 159.111 194.654C159 194.102 158.114 193.881 157.671 194.323C154.679 197.862 150.468 200.738 146.147 202.286C141.272 204.056 135.399 203.502 130.635 201.511C130.192 201.29 129.528 201.844 129.638 202.286C129.971 210.47 133.849 217.77 137.394 224.848C139.167 228.276 140.829 231.705 142.048 235.245C143.156 238.673 144.042 242.212 144.707 245.751C145.483 249.622 146.147 253.604 146.48 257.585C146.48 258.028 146.701 258.249 147.144 258.359C150.468 259.797 154.236 260.461 157.781 260.903C166.203 261.898 174.845 260.903 182.822 258.028C183.82 257.697 183.376 256.037 182.379 256.479C174.513 259.355 166.091 260.351 157.781 259.244C154.346 258.801 150.801 258.138 147.587 256.812C147.809 257.032 148.03 257.364 148.253 257.585C147.587 250.617 146.369 243.65 144.375 236.903C142.159 229.493 138.17 223.079 135.067 216.11C133.073 211.687 131.521 207.153 131.411 202.286C131.078 202.507 130.746 202.839 130.414 203.06C135.399 205.051 141.715 205.714 146.813 203.835C151.355 202.175 155.898 199.189 159.111 195.429C158.668 195.318 158.224 195.208 157.671 195.097C161.106 212.571 171.853 227.392 178.168 243.871C179.055 246.193 179.831 248.516 180.496 250.95C180.829 252.055 181.05 253.273 181.382 254.379C181.493 254.82 181.603 255.152 181.825 255.485C181.936 255.705 182.601 256.368 182.269 256.479C181.16 256.922 182.046 258.359 183.044 257.918Z" fill="#1B1B1B"/>
<path d="M130.968 202.729C130.635 202.618 130.414 202.286 130.525 202.065C130.968 200.848 132.962 197.641 141.494 195.318C152.241 192.332 157.117 192.554 158.778 194.323C160.33 195.982 146.813 207.705 130.968 202.729Z" fill="#1B1B1B"/>
<path d="M138.723 201.511C138.723 201.511 140.939 203.06 145.26 201.29C149.471 199.521 150.911 196.756 150.911 196.756L145.371 190.23L137.837 192.885L137.282 194.323L138.723 201.511Z" fill="white"/>
<path d="M133.405 161.032C133.737 160.59 132.075 158.93 128.973 156.166C127.422 154.949 125.649 153.29 123.876 151.3C122.989 150.304 122.214 149.198 121.549 147.982C121.439 147.649 121.216 147.318 121.106 147.097C121.106 146.986 121.106 146.986 121.106 146.876C121.106 146.765 121.106 146.655 121.216 146.655C121.328 146.655 121.328 146.655 121.439 146.765L121.66 146.876L121.992 147.097C122.214 147.207 122.546 147.428 122.768 147.539C123.876 148.203 125.095 148.977 126.314 149.861C128.752 151.521 131.521 153.069 134.292 154.618C134.735 154.839 135.178 155.17 135.621 155.391L136.839 156.276C137.172 156.608 137.504 156.94 137.837 157.272C138.17 157.603 138.501 158.046 138.724 158.378C139.388 159.373 139.943 160.479 140.274 161.585C140.607 162.802 140.829 164.018 141.05 165.235C141.383 167.778 141.383 170.323 141.383 172.756C141.383 173.973 141.383 175.189 141.383 176.295C141.383 176.847 141.383 177.511 141.493 178.065C141.493 178.617 141.605 179.282 141.715 179.834C142.048 182.157 142.602 184.148 143.266 186.028C144.595 189.678 146.147 192.221 147.476 193.881C148.695 195.539 149.692 196.203 150.025 195.981C150.247 195.76 149.804 194.765 149.028 192.885C148.252 191.005 147.144 188.461 146.257 185.033C145.814 183.373 145.483 181.494 145.371 179.392C145.371 178.838 145.261 178.397 145.261 177.843C145.261 177.291 145.261 176.847 145.261 176.185C145.261 175.079 145.371 173.862 145.371 172.646C145.483 170.213 145.483 167.557 145.261 164.682C145.15 163.244 144.817 161.806 144.485 160.258C144.042 158.709 143.377 157.272 142.379 155.834C142.048 155.281 141.493 154.728 141.162 154.285C140.717 153.843 140.164 153.401 139.72 152.848C139.167 152.406 138.724 152.073 138.17 151.631C137.615 151.3 137.061 150.967 136.508 150.636C133.626 149.088 131.078 147.649 128.64 146.101C127.422 145.327 126.203 144.553 124.874 143.889C124.541 143.668 124.208 143.558 123.876 143.337L123.322 143.115L122.546 142.783C122.214 142.673 121.882 142.673 121.66 142.562L121.216 142.452C121.106 142.452 120.884 142.452 120.773 142.452C120.22 142.452 119.666 142.562 119.111 142.673C118.447 142.894 117.893 143.447 117.561 144.11C117.228 144.774 117.117 145.437 117.228 146.101C117.338 146.765 117.561 147.539 117.893 148.203C118.114 148.755 118.336 149.088 118.557 149.419C119.554 150.967 120.552 152.184 121.66 153.179C123.765 155.281 125.87 156.83 127.754 157.824C131.078 160.258 133.073 161.364 133.405 161.032Z" fill="#1B1B1B"/>
<path d="M126.867 180.498C125.65 181.383 128.309 185.807 132.187 191.226C132.408 191.448 132.63 191.779 132.74 192C132.961 192.221 133.184 192.554 133.294 192.775C133.849 193.438 134.292 194.102 134.735 194.654C134.956 194.987 135.178 195.208 135.51 195.539C135.51 195.539 135.622 195.539 135.622 195.871C135.843 196.314 135.953 196.866 136.175 197.42C136.286 197.972 136.508 198.526 136.618 198.968C137.172 200.959 137.615 202.175 138.391 202.175C139.056 202.175 139.61 200.848 139.721 198.636C139.721 198.083 139.831 197.53 139.721 196.756C139.721 196.093 139.61 195.318 139.388 194.433C139.277 193.991 139.056 193.438 138.613 192.775C138.391 192.442 138.17 192.111 137.948 191.89C137.505 191.226 137.062 190.563 136.618 189.899C136.396 189.678 136.175 189.346 136.065 189.124C135.843 188.903 135.732 188.572 135.51 188.351C131.521 183.263 127.976 179.724 126.867 180.498Z" fill="#1B1B1B"/>
<path d="M116.563 168.774C116.231 168.553 115.898 168.663 115.344 169.217C114.901 169.659 114.458 170.655 114.458 171.981C114.458 173.308 115.012 174.746 115.898 175.852C116.785 177.07 118.004 178.176 119.111 179.059C119.444 179.282 119.777 179.503 120.109 179.724L120.441 179.834L120.884 179.945C121.106 180.055 121.439 180.165 121.66 180.276C122.325 180.498 122.989 180.498 123.655 180.498C124.319 180.386 124.874 180.276 125.317 179.945C126.314 179.392 126.867 178.286 126.867 177.291C126.867 176.847 126.646 176.295 126.536 175.741C126.314 175.189 126.093 174.746 125.87 174.304C125.649 173.862 125.427 173.64 125.206 173.419C124.984 173.198 124.874 172.977 124.651 172.756C123.101 171.207 121.66 170.986 121.328 171.54C120.996 172.092 121.549 173.087 122.215 174.525C122.325 174.746 122.325 174.858 122.436 175.079C122.546 175.3 122.658 175.52 122.546 175.631C122.546 175.852 122.546 175.852 122.436 175.852C122.325 175.964 122.103 175.852 122.215 175.741H122.103C121.992 175.631 121.882 175.631 121.66 175.41C120.552 174.635 119.554 173.862 118.89 173.087C118.114 172.423 117.782 171.761 117.45 171.207C117.228 170.655 117.118 170.101 117.006 169.548C117.006 169.328 116.895 168.884 116.563 168.774Z" fill="#1B1B1B"/>
<path d="M124.208 165.678C124.762 165.235 123.876 163.356 121.772 160.479C121.217 159.815 120.663 159.042 119.887 158.267C119.555 157.825 119.111 157.493 118.668 157.051C118.447 156.83 118.225 156.608 117.894 156.387C117.561 156.055 117.006 155.945 116.563 155.613C115.566 155.281 114.347 155.281 113.461 155.945C113.018 156.276 112.575 156.609 112.242 157.161C112.131 157.382 111.91 157.603 111.799 157.936C111.688 158.267 111.577 158.378 111.577 158.599C111.356 159.373 111.134 160.038 111.023 160.811C111.023 161.144 110.912 161.475 110.912 161.917C110.912 162.25 110.802 162.691 110.802 163.023C110.802 163.466 110.802 163.908 110.912 164.35C111.023 164.572 111.023 164.793 111.134 165.014L111.356 165.566C111.799 166.341 112.242 166.895 112.685 167.336C113.129 167.778 113.572 168.222 114.015 168.663C115.012 169.548 116.009 170.323 116.896 171.096C117.118 171.319 117.339 171.429 117.561 171.65L117.894 171.981C118.004 172.092 118.225 172.202 118.337 172.313C118.89 172.756 119.444 173.087 120.109 173.308C121.217 173.862 122.436 174.304 123.765 174.414C124.098 174.414 124.431 174.525 124.762 174.414C125.095 174.414 125.427 174.304 125.871 174.304C126.646 174.083 127.422 173.641 127.976 173.087C128.197 172.646 128.53 172.313 128.64 171.871C128.752 171.65 128.752 171.429 128.752 171.207C128.752 170.986 128.752 170.765 128.752 170.544C128.752 170.102 128.64 169.659 128.419 169.328C128.309 168.996 128.197 168.774 127.976 168.553C127.422 167.668 126.867 167.005 126.314 166.562C125.317 165.678 124.541 165.345 124.208 165.678C123.987 165.899 124.208 166.672 124.652 167.778C124.874 168.332 125.205 168.996 125.427 169.659C125.427 169.88 125.538 169.99 125.538 170.213C125.538 170.323 125.538 170.434 125.538 170.434C125.538 170.544 125.427 170.765 125.317 170.765C125.205 170.765 125.095 170.875 124.984 170.765C124.984 170.765 124.874 170.765 124.652 170.765C124.541 170.765 124.319 170.765 124.208 170.654C123.544 170.434 122.658 170.102 121.882 169.659C121.439 169.438 121.106 169.107 120.774 168.884C120.663 168.774 120.553 168.774 120.553 168.663L120.22 168.442C119.998 168.222 119.777 168.001 119.555 167.778C118.668 167.005 117.671 166.23 116.896 165.456C116.452 165.124 116.12 164.683 115.788 164.35C115.455 164.018 115.234 163.687 115.012 163.354C115.123 162.138 115.234 160.811 115.566 159.926C115.566 159.815 115.677 159.705 115.677 159.705C115.677 159.705 115.677 159.705 115.677 159.594C115.677 159.484 115.788 159.484 115.788 159.484C115.788 159.484 115.788 159.484 115.899 159.484C116.12 159.594 116.231 159.705 116.452 159.815C116.785 160.038 117.228 160.369 117.561 160.7C118.337 161.254 119.001 161.917 119.666 162.47C122.103 164.793 123.765 166.009 124.208 165.678Z" fill="#1B1B1B"/>
<path d="M127.422 158.378C127.976 157.936 127.089 156.055 124.984 153.179C124.43 152.516 123.876 151.742 123.101 150.967C122.768 150.525 122.325 150.194 121.882 149.751C121.66 149.53 121.439 149.309 121.106 149.088C120.773 148.755 120.22 148.645 119.776 148.313C118.78 147.982 117.561 147.982 116.674 148.645C116.231 148.977 115.787 149.309 115.455 149.861C115.344 150.083 115.123 150.304 115.012 150.636C114.901 150.967 114.79 151.078 114.79 151.3C114.569 152.073 114.347 152.737 114.236 153.512C114.236 153.843 114.125 154.175 114.125 154.618C114.125 154.949 114.015 155.391 114.015 155.724C114.015 156.166 114.015 156.608 114.125 157.051C114.236 157.272 114.236 157.493 114.347 157.714L114.569 158.267C115.012 159.042 115.455 159.594 115.898 160.036C116.342 160.479 116.785 160.921 117.228 161.364C118.336 162.359 119.554 163.244 120.552 164.129C120.884 164.35 121.106 164.571 121.327 164.793C121.66 165.014 121.992 165.235 122.325 165.456C122.989 165.899 123.654 166.12 124.319 166.451C125.649 167.005 127.089 167.336 128.64 167.115C130.635 166.895 132.075 165.235 131.964 163.687C131.964 163.354 131.854 162.912 131.743 162.581C131.632 162.248 131.521 161.917 131.411 161.696C131.188 161.254 130.967 160.811 130.635 160.59C130.081 159.926 129.638 159.484 129.195 159.152C128.308 158.267 127.643 158.046 127.422 158.378C127.2 158.599 127.31 159.152 127.754 160.148C127.976 160.59 128.197 161.142 128.419 161.696C128.64 162.248 128.862 163.023 128.752 163.133C128.64 163.354 128.308 163.465 128.197 163.465C127.643 163.465 126.757 163.244 125.76 162.691C125.317 162.47 124.874 162.138 124.43 161.917C124.208 161.806 123.987 161.585 123.765 161.475C123.544 161.254 123.322 161.032 123.101 160.811C122.103 159.926 120.995 159.042 119.997 158.157C119.554 157.824 119.223 157.382 118.89 157.051C118.557 156.718 118.336 156.387 118.114 156.055C118.225 154.839 118.336 153.512 118.668 152.627C118.668 152.516 118.78 152.406 118.78 152.406C118.78 152.406 118.78 152.406 118.78 152.295C118.78 152.184 118.89 152.184 118.89 152.184C118.89 152.184 118.89 152.184 119.001 152.184C119.223 152.295 119.333 152.406 119.554 152.516C119.887 152.737 120.33 153.069 120.663 153.401C121.439 153.954 122.103 154.618 122.768 155.17C125.317 157.382 126.979 158.709 127.422 158.378Z" fill="#1B1B1B"/>
<path d="M113.461 124.314L121.772 145.438L128.973 148.867L122.879 121.659C122.879 121.659 120.22 124.535 113.461 124.314Z" fill="#1B1B1B"/>
<path d="M125.649 155.17L135.067 179.613L136.065 180.055L132.407 160.258L125.649 155.17Z" fill="#1B1B1B"/>
<path d="M248.749 163.908L274.345 160.479C274.345 160.479 278.334 184.479 276.449 192.775C259.719 195.872 246.977 197.53 246.977 197.53C246.977 197.53 254.843 188.019 249.968 167.668" fill="#ADFFD8"/>
<path d="M250.079 167.668C249.968 167.668 249.968 168.442 250.189 169.88C250.301 170.544 250.411 171.429 250.522 172.535C250.633 173.531 250.854 174.747 250.854 176.074C251.077 178.728 251.077 181.936 250.522 185.585C250.189 187.355 249.858 189.346 249.192 191.226C248.86 192.221 248.528 193.106 248.085 194.102C247.973 194.323 247.863 194.544 247.752 194.766L247.53 195.097V195.208C247.53 195.318 247.42 195.318 247.42 195.429L247.087 195.76L246.644 196.424C246.533 196.645 246.311 196.866 246.09 197.199C245.647 197.751 245.314 198.194 244.871 198.747C245.536 198.636 246.533 198.526 247.309 198.415C248.085 198.305 248.86 198.194 249.746 198.083C250.632 197.972 251.63 197.862 252.517 197.641C254.4 197.309 256.395 197.088 258.388 196.756C262.378 196.093 266.589 195.429 270.91 194.654C272.461 194.323 274.012 194.102 275.452 193.881C275.674 193.881 276.671 193.66 277.335 193.548L277.668 191.669C277.779 190.894 277.779 190.12 277.89 189.236C278.111 185.254 277.779 181.494 277.558 177.843C277.225 174.193 276.782 170.765 276.339 167.447C276.118 165.789 275.895 164.239 275.674 162.691C275.563 161.696 275.342 160.7 275.231 159.705V159.484V159.373C275.231 159.373 275.231 159.263 275.12 159.263L274.566 159.373L273.569 159.484C273.126 159.594 272.683 159.594 272.35 159.705C269.469 160.148 266.81 160.479 264.372 160.921C254.622 162.36 248.749 163.466 248.749 163.797C248.749 164.129 254.733 163.577 264.483 162.47C266.92 162.138 269.579 161.806 272.461 161.475C272.793 161.475 273.126 161.364 273.457 161.364H273.569V161.475V161.806C273.569 162.138 273.68 162.581 273.68 162.912C273.901 164.462 274.123 166.009 274.345 167.668C274.788 170.875 275.12 174.414 275.452 177.955C275.674 181.494 276.006 185.254 275.785 189.014C275.674 189.788 275.674 190.563 275.563 191.226C275.452 191.779 275.563 191.558 275.452 191.558C275.452 191.558 275.563 191.558 275.12 191.669C273.569 191.89 272.128 192.221 270.577 192.442C266.256 193.217 262.045 193.881 258.057 194.544C254.843 195.097 251.741 195.539 248.86 195.982C248.86 195.982 248.971 195.871 248.971 195.76L249.192 195.208C249.303 194.987 249.414 194.654 249.525 194.433C249.968 193.438 250.411 192.332 250.744 191.336C251.408 189.236 251.741 187.245 251.963 185.364C252.406 181.604 252.294 178.286 251.851 175.52C251.741 174.193 251.408 172.977 251.298 171.981C251.077 170.986 250.854 170.102 250.632 169.438C250.411 168.332 250.189 167.668 250.079 167.668Z" fill="#1B1B1B"/>
<path d="M168.418 156.276C168.418 156.276 175.509 138.913 201.326 136.701C219.054 156.83 219.054 156.83 219.054 156.83C219.054 156.83 187.365 167.557 190.578 179.059C168.639 166.451 168.307 160.148 168.307 160.148" fill="#FFF7B1"/>
<path d="M168.419 160.036C168.307 160.036 168.307 160.921 168.972 162.138C169.638 163.466 170.856 165.124 172.74 167.005C174.623 168.884 177.061 170.986 180.053 173.087C181.603 174.193 183.155 175.299 184.928 176.405C185.814 176.959 186.7 177.511 187.587 178.065C188.142 178.397 190.468 179.834 192.13 180.719C192.02 180.165 191.908 179.503 191.798 178.949C191.687 178.397 191.687 177.843 191.575 177.291V176.847C191.575 176.737 191.575 176.737 191.575 176.626L191.687 176.295C191.687 176.074 191.798 175.741 191.908 175.52C192.241 174.525 192.794 173.529 193.57 172.535C195.01 170.654 197.005 168.995 199.221 167.557C203.654 164.571 208.75 162.027 214.29 159.815C215.066 159.484 215.952 159.152 216.728 158.82L217.947 158.378L220.052 157.603L221.16 157.161L217.061 152.516C214.179 149.198 211.298 145.991 208.529 142.894C207.199 141.346 205.87 139.908 204.54 138.359C203.875 137.585 203.209 136.811 202.545 136.147L202.102 135.595L201.992 135.484H201.88H201.548L200.55 135.595C200.107 135.705 199.554 135.705 199.11 135.816C195.343 136.258 191.798 137.253 188.585 138.249C187.809 138.58 187.033 138.913 186.257 139.244C185.925 139.355 185.481 139.576 185.15 139.686C184.817 139.908 184.485 140.019 184.041 140.24C183.376 140.571 182.712 140.903 182.047 141.346C181.382 141.788 180.829 142.12 180.163 142.562C179.831 142.783 179.61 142.894 179.277 143.115C178.944 143.337 178.723 143.558 178.501 143.779C177.948 144.221 177.394 144.553 176.951 144.995C176.063 145.88 175.066 146.655 174.29 147.428C172.74 148.977 171.521 150.636 170.635 151.852C168.972 154.507 168.419 156.166 168.529 156.276C168.64 156.387 169.416 154.839 171.299 152.406C172.297 151.189 173.404 149.751 175.066 148.313C175.842 147.539 176.729 146.876 177.725 146.101C178.28 145.77 178.723 145.327 179.277 144.995C179.498 144.774 179.831 144.664 180.053 144.443C180.386 144.221 180.607 144.11 180.939 143.889C181.493 143.558 182.158 143.226 182.712 142.783C183.376 142.452 184.041 142.12 184.707 141.788C185.038 141.677 185.371 141.456 185.704 141.346C186.036 141.235 186.368 141.014 186.811 140.903C187.587 140.571 188.252 140.35 189.028 140.019C192.13 139.023 195.453 138.138 199.221 137.807C199.664 137.807 200.107 137.696 200.55 137.585H200.994C201.659 138.249 202.213 139.023 202.878 139.686C204.207 141.125 205.537 142.673 206.867 144.221C209.526 147.318 212.407 150.525 215.288 153.843L216.838 155.613L217.282 156.166L216.949 156.276L215.731 156.719C214.955 157.051 214.069 157.382 213.293 157.714C207.642 160.036 202.435 162.581 197.891 165.788C195.676 167.447 193.46 169.107 191.908 171.317C191.132 172.423 190.357 173.529 190.025 174.858C189.914 175.189 189.803 175.52 189.803 175.853L189.692 176.405C189.692 176.516 189.692 176.626 189.692 176.626V176.737V176.959V177.07C190.135 177.401 187.366 175.741 185.814 174.747C184.041 173.752 182.49 172.646 180.939 171.65C177.948 169.659 175.51 167.668 173.626 166.009C171.742 164.239 170.412 162.802 169.638 161.696C168.751 160.7 168.529 160.036 168.419 160.036Z" fill="#1B1B1B"/>
<path d="M214.29 83.7236C214.29 83.7236 235.01 92.7928 248.749 77.3089C252.849 88.9217 263.486 91.908 269.579 93.1246C249.303 110.046 240.772 116.572 240.772 116.572C240.772 116.572 226.7 109.825 216.618 89.6959" fill="#ADFFD8"/>
<path d="M216.506 89.6959C216.395 89.8065 216.949 91.3549 218.501 94.2304C219.941 96.9955 222.379 100.977 226.146 105.401C228.03 107.613 230.245 109.936 232.904 112.148C234.234 113.254 235.675 114.359 237.115 115.465C237.891 116.018 238.667 116.461 239.553 117.014L240.66 117.567C240.883 117.788 240.993 117.457 241.215 117.345L241.769 116.903C242.212 116.572 242.545 116.24 242.988 115.908C248.971 111.042 255.619 105.733 262.599 100.092C264.04 98.9863 265.37 97.7697 266.81 96.6637C267.586 96 268.362 95.3364 269.248 94.6728C269.912 94.1198 270.688 93.5668 271.353 93.0138L271.907 92.5714L272.017 92.4608C272.017 92.4608 272.017 92.4608 272.128 92.4608H272.017L271.685 92.3502L270.355 92.0184L268.693 91.6867L267.475 91.3549C266.92 91.2443 266.367 91.1337 265.924 90.9125C264.927 90.5807 263.818 90.2489 262.932 89.9171C260.937 89.1429 259.164 88.1475 257.502 86.9309C255.841 85.8249 254.4 84.3872 253.293 82.8388C252.627 82.0646 252.184 81.2904 251.63 80.5162C251.408 80.0738 251.187 79.6314 250.965 79.2995C250.855 79.0783 250.744 78.8571 250.632 78.6359L250.301 77.7513L249.746 76.5346L249.525 75.871L249.415 75.5392L249.303 75.4286C249.303 75.4286 249.192 75.4286 249.192 75.5392C248.528 76.2028 247.863 76.8664 247.309 77.4195C246.977 77.7511 246.644 78.0829 246.311 78.4147C245.98 78.7465 245.647 79.0783 245.314 79.2995C244.65 79.8526 243.985 80.4056 243.321 80.848C242.655 81.2904 241.879 81.7328 241.215 82.1752C238.334 83.7236 235.342 84.719 232.573 85.0507C229.802 85.4931 227.254 85.4931 225.038 85.3825C223.93 85.3825 222.932 85.1613 221.936 85.0507C221.049 84.8296 220.163 84.719 219.387 84.6084C216.285 83.9448 214.623 83.3918 214.623 83.613C214.512 83.7236 216.063 84.6084 219.165 85.4931C219.941 85.7143 220.827 85.9355 221.713 86.1567C222.711 86.2673 223.708 86.5991 224.927 86.5991C227.254 86.9309 229.913 86.9309 232.794 86.5991C235.675 86.2673 238.888 85.3825 241.99 83.7236C242.766 83.2812 243.542 82.8388 244.318 82.3964C245.093 81.8434 245.758 81.2904 246.533 80.7374C246.977 80.5162 247.309 80.1844 247.642 79.8526C247.973 79.5208 248.306 79.1889 248.639 78.9677L248.749 78.8571C248.749 78.8571 248.749 78.9677 248.86 78.9677L249.082 79.4102C249.192 79.6314 249.303 79.8526 249.415 80.0738C249.636 80.5162 249.858 80.9586 250.079 81.401C250.632 82.2858 251.187 83.1706 251.851 83.9448C253.181 85.6037 254.733 87.1521 256.505 88.4793C258.278 89.8065 260.273 90.8019 262.378 91.6867C263.375 92.129 264.484 92.4608 265.591 92.7926C266.145 93.0138 266.699 93.1244 267.253 93.235L267.696 93.3456L265.924 94.7834C264.484 95.8894 263.154 96.9955 261.713 98.2121C254.733 103.963 248.196 109.272 242.212 114.138C241.879 114.47 241.547 114.691 241.215 115.023C241.104 115.134 241.215 115.134 240.993 115.023C240.217 114.581 239.443 114.138 238.667 113.585C237.226 112.59 235.786 111.595 234.567 110.489C232.018 108.387 229.802 106.175 227.809 104.074C224.041 99.871 221.492 96.1107 219.72 93.4562C217.504 91.1337 216.618 89.5853 216.506 89.6959Z" fill="#1B1B1B"/>
<path d="M40.9968 162.802L61.0519 157.825C61.0519 157.825 45.4288 187.466 40.9968 174.193C36.5647 160.921 36.7864 155.945 36.7864 155.945L1.1084 156.83C1.1084 156.83 2.10561 183.816 20.0554 182.046C38.0052 180.277 41.1076 178.397 41.1076 178.397" fill="#ADFFD8"/>
<path d="M40.9968 178.397C40.886 178.286 39.0024 178.949 35.346 179.503C31.6895 180.055 26.2603 180.719 19.6122 181.271C16.399 181.494 12.7425 180.609 9.97251 178.065C7.20249 175.52 5.20807 171.65 3.98925 167.447C3.32445 165.345 2.88124 163.133 2.54884 160.811C2.43804 160.258 2.43804 159.594 2.32724 159.042C2.21644 158.488 2.21644 157.603 2.21644 157.824H2.43804C3.10285 157.824 3.65685 157.824 4.32166 157.824C9.30771 157.714 14.5154 157.603 19.8338 157.382C21.9391 157.272 24.155 157.272 26.2603 157.161C28.3655 157.051 30.4708 157.051 32.6867 156.94C33.4623 156.94 34.1272 156.94 34.9028 156.83C35.2351 156.83 35.5676 156.83 36.0107 156.83L36.1216 157.824C36.2323 158.488 36.3432 159.152 36.3432 159.705C36.5648 160.921 36.7864 162.248 37.1188 163.354C37.6728 165.789 38.3376 168.111 39.0024 170.434C39.3348 171.54 39.6672 172.646 40.1104 173.752C40.4428 174.858 40.886 176.074 41.8833 177.18C42.3265 177.732 42.9912 178.176 43.7668 178.397C44.0993 178.507 44.5424 178.507 44.8749 178.507C45.2073 178.397 45.5396 178.397 45.8721 178.286C47.2017 177.843 48.1989 177.18 48.9745 176.516C50.7473 175.079 52.0769 173.419 53.4066 171.761C54.6253 170.101 55.8441 168.553 56.8414 166.895C57.8386 165.345 58.8358 163.687 59.7222 162.248C60.1655 161.364 60.6086 160.59 61.0518 159.815C61.3842 159.152 61.7167 158.599 62.049 157.936L62.4923 157.051L62.7139 156.608C62.603 156.608 62.3814 156.719 62.2707 156.719C61.6058 156.83 60.9411 157.051 60.387 157.161C59.833 157.272 59.1683 157.493 58.6142 157.603C57.8386 157.824 57.1738 157.936 56.509 158.157C55.1794 158.488 53.8497 158.93 52.631 159.152C50.1933 159.815 48.1989 160.369 46.4261 160.921C43.1021 161.917 41.2184 162.47 41.3293 162.691C41.3293 162.802 43.2128 162.47 46.6477 161.806C48.4205 161.475 50.4149 160.921 52.9634 160.369C54.1822 160.036 55.5118 159.815 56.8414 159.484C57.5062 159.373 58.2818 159.152 58.9466 158.93C59.1683 158.93 59.5006 158.82 59.7222 158.709H59.833V158.82L59.7222 159.042L59.5006 159.373C59.1683 160.036 58.725 160.7 58.2818 161.364C57.3953 162.802 56.3982 164.35 55.401 165.899C54.4038 167.447 53.185 168.995 51.9661 170.544C50.7473 172.092 49.4177 173.641 47.7557 174.858C46.9801 175.52 46.0937 176.074 45.318 176.295C44.4317 176.516 43.8777 176.406 43.2128 175.741C42.8805 175.41 42.6589 174.968 42.4372 174.525C42.2156 174.083 42.1049 173.641 41.8833 172.977C41.5509 171.871 41.2184 170.765 40.886 169.659C40.2212 167.447 39.5565 165.124 39.0024 162.802C38.7809 161.585 38.4484 160.479 38.3376 159.263C38.2268 158.709 38.116 158.046 38.116 157.493C38.116 157.161 38.0052 156.94 38.0052 156.497C38.0052 155.834 38.0052 155.17 38.0052 154.507C36.2323 154.507 34.4595 154.618 32.576 154.618C30.4708 154.728 28.2547 154.728 26.1494 154.839C24.0443 154.949 21.9391 154.949 19.723 155.06C14.4046 155.17 9.19691 155.391 4.21086 155.502C3.54605 155.502 2.99205 155.502 2.32724 155.613H1.55164H0.665224H0.222019H0.000416815C-0.110384 155.613 0.000416815 155.724 0.000416815 155.834V156.719C0.111218 158.157 0.111218 158.378 0.222019 159.042C0.33282 159.705 0.33282 160.258 0.443621 160.811C0.776025 163.244 1.33003 165.566 1.99484 167.778C3.32445 172.202 5.42967 176.295 8.6429 179.17C10.1941 180.609 12.0777 181.604 13.9614 182.157C15.8449 182.71 17.7286 182.821 19.5014 182.6C26.2603 181.936 31.6895 181.051 35.346 180.165C39.224 179.613 41.1077 178.618 40.9968 178.397Z" fill="#1B1B1B"/>
<path d="M263.928 169.107C263.928 168.663 261.935 168.442 259.386 168.442C259.276 168.442 259.164 168.442 259.054 168.442C258.943 168.442 258.833 168.442 258.721 168.442C256.172 168.442 254.179 168.663 254.179 169.107C254.179 169.548 256.172 169.659 258.721 169.769C258.833 169.769 258.943 169.769 259.054 169.769C259.164 169.769 259.276 169.769 259.386 169.769C261.935 169.659 263.928 169.438 263.928 169.107Z" fill="#1B1B1B"/>
<path d="M270.023 173.308C269.912 172.866 267.253 173.308 263.708 173.529C263.485 173.529 263.375 173.529 263.154 173.529C262.932 173.529 262.821 173.529 262.599 173.529C259.054 173.752 256.395 173.641 256.284 174.083C256.284 174.414 259.054 174.968 262.599 174.858C262.821 174.858 262.932 174.858 263.154 174.858C263.375 174.858 263.485 174.858 263.708 174.858C267.475 174.525 270.134 173.641 270.023 173.308Z" fill="#1B1B1B"/>
<path d="M204.096 146.543C204.428 146.212 203.653 145.216 202.545 144.11C202.434 144.11 202.434 144 202.322 144L202.212 143.889C201.105 142.783 200.107 142.119 199.775 142.452C199.442 142.783 200.218 143.668 201.326 144.885C201.436 144.885 201.436 144.995 201.548 144.995L201.658 145.106C202.766 146.101 203.874 146.876 204.096 146.543Z" fill="#1B1B1B"/>
<path d="M205.094 154.064C205.426 153.733 203.764 151.631 201.437 148.866C201.326 148.755 201.216 148.645 201.105 148.424C200.993 148.313 200.883 148.203 200.772 147.982C198.445 145.327 196.451 143.337 196.119 143.668C195.786 143.889 197.448 146.101 199.776 148.866C199.886 148.977 199.997 149.088 200.107 149.309C200.219 149.419 200.329 149.53 200.44 149.751C202.766 152.406 204.761 154.285 205.094 154.064Z" fill="#1B1B1B"/>
<path d="M177.282 159.705C178.39 158.82 178.28 157.714 177.615 156.719L177.504 156.608L177.394 156.497C176.618 155.613 175.509 155.17 174.402 156.055C173.404 156.83 173.404 158.046 174.069 159.042L174.18 159.152L174.29 159.263C175.177 160.148 176.285 160.479 177.282 159.705Z" fill="#1B1B1B"/>
<path d="M19.8342 163.354C19.7235 162.912 17.175 163.133 13.7402 163.244C13.5186 163.244 13.4077 163.244 13.1861 163.244C12.9646 163.244 12.8537 163.244 12.6321 163.244C9.19731 163.466 6.53809 163.466 6.53809 163.908C6.53809 164.35 9.19731 164.572 12.6321 164.46C12.8537 164.46 12.9646 164.46 13.1861 164.46C13.4077 164.46 13.5186 164.46 13.7402 164.46C17.2858 164.239 19.8342 163.687 19.8342 163.354Z" fill="#1B1B1B"/>
<path d="M27.8117 167.557C27.701 167.115 24.0446 167.778 19.1693 168.111C18.9477 168.111 18.726 168.111 18.3937 168.111C18.1721 168.111 17.9504 168.111 17.6181 168.111C12.7429 168.442 8.97559 168.221 8.97559 168.663C8.97559 168.995 12.7429 169.659 17.7288 169.438C17.9504 169.438 18.1721 169.438 18.5044 169.438C18.726 169.438 18.9477 169.438 19.2801 169.438C24.1553 168.995 27.9226 167.889 27.8117 167.557Z" fill="#1B1B1B"/>
<path d="M46.5371 165.124C46.5371 166.562 46.9803 167.115 47.6452 167.226H47.7559H47.8667C48.5315 167.115 48.9748 166.562 48.9748 165.124C48.9748 163.797 48.5315 163.133 47.8667 163.023H47.7559H47.6452C47.0911 163.133 46.5371 163.797 46.5371 165.124Z" fill="#1B1B1B"/>
<path d="M258.5 92.2396C258.5 91.7972 255.729 91.576 252.517 89.917C252.406 89.8064 252.184 89.8064 252.073 89.6958L251.63 89.4746C248.528 87.8157 246.644 85.6037 246.311 85.9355C245.98 86.1567 247.642 88.7005 250.965 90.5806C251.187 90.6912 251.298 90.8018 251.52 90.8018C251.741 90.9124 251.851 91.023 252.073 91.023C255.508 92.682 258.611 92.5714 258.5 92.2396Z" fill="#1B1B1B"/>
<path d="M251.187 95.3364C251.298 94.894 249.082 94.1198 246.866 92.2396L246.533 91.9078L246.201 91.576C243.985 89.5852 242.766 87.5945 242.433 87.8157C242.102 87.9263 242.988 90.3594 245.425 92.5714L245.757 92.9032L246.09 93.235C248.639 95.2258 251.187 95.7787 251.187 95.3364Z" fill="#1B1B1B"/>
<path d="M196.672 51.2074C197.004 51.2074 197.337 50.8756 197.558 50.4332C197.78 50.1014 198.113 49.5484 198.556 49.2166C198.999 48.8848 199.331 48.9954 199.664 49.106C199.774 49.2166 199.886 49.3272 200.107 49.5484C200.329 49.7696 200.55 50.212 200.662 50.765C200.772 50.9862 200.772 51.2074 200.772 51.318C200.772 51.5392 200.883 51.6498 200.883 51.9816V52.2028V52.3134H200.662C200.439 52.3134 200.218 52.3134 199.996 52.2028C199.663 52.2028 199.331 52.0922 198.999 51.9816C198.444 51.871 198.113 51.6498 197.67 51.4286C197.448 51.4286 197.115 51.2074 196.672 51.2074C196.34 51.2074 196.118 51.5392 196.008 52.2028C195.896 52.8664 196.34 53.9723 197.337 54.8571C197.78 55.2995 198.444 55.6313 199.11 55.8525C199.442 55.9631 199.663 56.0737 199.996 56.1843L200.218 56.2949L200.662 56.4055C200.883 56.4055 201.215 56.5161 201.548 56.5161C202.655 56.6267 203.874 56.1843 204.65 55.1889C204.983 54.7465 205.204 54.0829 205.314 53.4194C205.314 53.0876 205.314 52.7558 205.314 52.424V51.9816V51.6498C205.314 51.318 205.204 50.8756 205.093 50.5438C204.983 50.212 204.871 49.8802 204.761 49.4378C204.428 48.553 203.985 47.6682 203.321 47.0046C202.655 46.2305 201.658 45.5669 200.55 45.4563C198.444 45.1245 196.672 46.4517 196.118 47.6682C195.564 48.8848 195.675 49.8802 195.785 50.5438C196.008 51.0968 196.451 51.318 196.672 51.2074Z" fill="black"/>
<path d="M211.52 0C210.079 0 209.526 2.54377 209.415 5.86175C209.415 5.97235 209.415 6.19354 209.415 6.30415C209.415 6.41475 209.415 6.63595 209.415 6.74655C209.526 10.0645 210.079 12.6083 211.52 12.6083C212.85 12.6083 213.514 10.0645 213.626 6.74655C213.626 6.63595 213.626 6.41475 213.626 6.30415C213.626 6.19354 213.626 5.97235 213.626 5.86175C213.514 2.54377 212.85 0 211.52 0Z" fill="black"/>
<path d="M158.447 133.05C157.117 133.604 156.784 134.489 157.005 135.373V135.483V135.595C157.449 136.479 158.224 136.922 159.554 136.368C160.773 135.926 161.216 134.931 160.995 134.046C160.995 134.046 160.995 133.935 160.883 133.935V133.825C160.552 132.94 159.664 132.498 158.447 133.05Z" fill="black"/>
<path d="M100.054 175.964C100.054 177.401 100.718 177.955 101.605 178.065H101.716H101.827C102.713 177.955 103.378 177.401 103.378 175.964C103.378 174.637 102.713 173.973 101.827 173.862H101.716H101.605C100.718 173.973 100.054 174.637 100.054 175.964Z" fill="black"/>
<path d="M32.0218 90.0276C31.5787 90.5806 31.5787 91.2442 32.0218 92.0184C32.465 92.7925 33.4622 93.5667 34.6811 94.2303L35.0134 94.3409L35.3458 94.4515C36.6755 94.8939 37.8943 95.0045 38.7807 94.8939C39.6671 94.6727 40.2211 94.2303 40.3319 93.4561C40.4427 92.129 38.7807 91.3548 36.8971 90.47L36.5646 90.3594C34.5702 89.6958 32.9083 89.0322 32.0218 90.0276Z" fill="black"/>
<path d="M49.1959 34.728C47.7556 34.728 47.2016 35.9446 47.0908 37.493C47.0908 37.6036 47.0908 37.6036 47.0908 37.7142C47.0908 37.8248 47.0908 37.8248 47.0908 37.9354C47.2016 39.4838 47.7556 40.7004 49.1959 40.7004C50.5256 40.7004 51.1904 39.4838 51.3012 37.9354C51.3012 37.8248 51.3012 37.8248 51.3012 37.7142C51.3012 37.6036 51.3012 37.6036 51.3012 37.493C51.1904 35.834 50.5256 34.728 49.1959 34.728Z" fill="black"/>
<path d="M260.826 24.1105C259.386 24.1105 258.832 25.2165 258.721 26.5438C258.721 26.6544 258.721 26.6544 258.721 26.765C258.721 26.8756 258.721 26.8756 258.721 26.9862C258.832 28.3134 259.386 29.4194 260.826 29.4194C262.156 29.4194 262.821 28.3134 262.931 26.9862C262.931 26.8756 262.931 26.8756 262.931 26.765C262.931 26.6544 262.931 26.6544 262.931 26.5438C262.821 25.2165 262.156 24.1105 260.826 24.1105Z" fill="black"/>
<path d="M131.188 18.8018C129.748 18.8018 129.195 18.9124 129.083 19.1336C129.195 19.3548 129.748 19.4654 131.188 19.4654C132.518 19.4654 133.183 19.3548 133.294 19.1336C133.183 18.9124 132.518 18.8018 131.188 18.8018Z" fill="black"/>
<path d="M258.167 136.368C258.721 137.695 259.607 138.028 260.493 137.695C260.493 137.695 260.605 137.695 260.605 137.585H260.716C261.491 137.143 261.935 136.368 261.491 135.041C261.048 133.825 260.05 133.493 259.164 133.714C259.164 133.714 259.053 133.714 259.053 133.825H258.943C258.057 134.267 257.724 135.152 258.167 136.368Z" fill="black"/>
<path d="M216.505 193.769C216.948 195.097 218.611 195.208 220.605 194.544C220.716 194.544 220.826 194.433 220.938 194.433C221.049 194.433 221.159 194.323 221.27 194.323C223.154 193.548 224.373 192.442 223.93 191.115C223.487 189.899 221.824 189.788 219.83 190.341C219.719 190.341 219.609 190.451 219.497 190.451C219.386 190.451 219.276 190.563 219.165 190.563C217.281 191.336 216.062 192.442 216.505 193.769Z" fill="black"/>
<path d="M123.212 27.4287C123.212 28.8664 124.319 29.4194 125.65 29.53C125.76 29.53 125.76 29.53 125.871 29.53C125.981 29.53 125.981 29.53 126.093 29.53C127.423 29.4194 128.53 28.8664 128.53 27.4287C128.53 26.1014 127.423 25.4378 126.093 25.3272C125.981 25.3272 125.981 25.3272 125.871 25.3272C125.76 25.3272 125.76 25.3272 125.65 25.3272C124.319 25.4378 123.212 26.1014 123.212 27.4287Z" fill="#1B1B1B"/>
<path d="M78.8914 161.475C80.3317 161.475 80.8858 160.369 80.9965 159.042C80.9965 158.931 80.9965 158.931 80.9965 158.82C80.9965 158.709 80.9965 158.709 80.9965 158.599C80.8858 157.272 80.3317 156.166 78.8914 156.166C77.5617 156.166 76.8969 157.272 76.7861 158.599C76.7861 158.709 76.7861 158.709 76.7861 158.82C76.7861 158.931 76.7861 158.931 76.7861 159.042C76.8969 160.369 77.5617 161.475 78.8914 161.475Z" fill="#1B1B1B"/>
<path d="M41.2188 212.24C41.2188 213.677 43.7672 214.231 46.9804 214.341C47.0912 214.341 47.3128 214.341 47.4236 214.341C47.5345 214.341 47.7561 214.341 47.8668 214.341C51.1908 214.231 53.6285 213.677 53.6285 212.24C53.6285 210.913 51.0801 210.249 47.8668 210.138C47.7561 210.138 47.5345 210.138 47.4236 210.138C47.3128 210.138 47.0912 210.138 46.9804 210.138C43.7672 210.249 41.2188 210.913 41.2188 212.24Z" fill="#1B1B1B"/>
</g>
<path d="M110.611 77.7033C106.506 76.0239 101.126 74.3113 99.2858 79.832C97.4643 85.2965 104.803 86.0717 108.482 86.133C113.021 86.2087 116.741 86.8246 116.741 92.4341C116.741 96.3242 111.917 101.791 108.312 102.993" stroke="#070707" stroke-width="2" stroke-linecap="round"/>
<path d="M102.831 73L115.859 104.42" stroke="black" stroke-width="2"/>
</g>
<defs>
<clipPath id="clip0_1109_19858">
<rect width="278" height="264" fill="white"/>
</clipPath>
</defs>
</svg>
