<svg width="251" height="222" viewBox="0 0 251 222" fill="none" xmlns="http://www.w3.org/2000/svg">
<path fill-rule="evenodd" clip-rule="evenodd" d="M9.39752 64.7406C15.1053 53.2812 23.962 43.6828 34.7871 37.0226C38.8218 34.574 43.0534 32.7131 47.4818 31.3419C63.0305 26.4447 80.2521 27.4242 95.0135 33.9864C101.607 36.7288 107.709 40.8424 112.924 45.6416C119.616 51.8121 125.127 59.6475 127.685 68.4624C128.572 71.2048 127.291 71.1069 125.421 69.344C124.438 68.4624 123.356 67.0912 122.371 65.5241C121.092 63.9571 119.911 62.0961 118.632 60.0393C114.104 52.7915 107.806 46.621 100.524 42.0177C93.1437 37.4144 84.7789 34.476 76.0205 33.1049C74.7412 32.811 73.3635 32.811 72.0842 32.7131C70.7064 32.6152 69.4271 32.4193 68.0494 32.5172C65.3924 32.6152 62.6369 32.6152 59.9798 33.1049C54.5673 33.6926 49.3517 35.4556 44.2344 37.3164C41.4789 38.4918 38.8218 39.7651 36.3616 41.3321C35.0823 42.1157 33.9014 42.9972 32.7205 43.8786L30.7523 45.054L29.0793 46.5232C24.5525 50.4409 20.5177 54.9462 17.2702 59.9414C15.2036 62.9777 13.5306 66.3077 12.0546 69.6378C10.6768 73.0657 9.49585 76.5917 8.61021 80.1176C6.05161 90.9894 6.44515 102.645 9.98795 113.223C12.8418 121.45 17.3686 128.795 23.2731 134.77C23.8636 135.456 24.5525 136.043 25.2413 136.729C25.9302 137.316 26.6191 138.003 27.3079 138.59C32.622 143.095 34.4919 144.368 35.0823 146.23C35.1807 146.621 35.4759 147.111 35.4759 147.503C35.5744 148.09 34.8855 148.09 33.5078 147.699C32.8189 147.503 32.0316 147.111 31.1459 146.621C30.2602 146.132 29.1778 145.446 28.0952 144.662C21.5019 140.059 15.5972 133.791 11.2672 126.445C9.10219 122.821 7.33091 118.903 5.85473 114.79C4.47699 110.676 3.4929 106.464 3.00092 102.155C2.2136 95.7887 2.31205 89.3244 3.39446 82.9581C4.47698 76.5917 6.44515 70.4213 9.29908 64.6427L9.39752 64.7406Z" fill="#0A4020"/>
<path fill-rule="evenodd" clip-rule="evenodd" d="M67.4443 160.334C64.1967 164.154 60.2603 166.994 56.1271 169.345C54.651 170.128 53.1749 171.108 51.6004 171.695C50.4194 172.283 49.1401 172.674 47.8608 173.164L45.9911 173.85L45.007 174.144L43.826 174.535C41.8578 175.123 39.8897 175.71 38.0198 176.004C36.3469 176.299 33.8867 177.082 33.8867 176.397C34.6739 175.221 35.5597 173.85 36.2485 172.772L37.2326 171.108L37.8231 169.638C38.0198 169.148 38.2167 168.659 38.315 168.267L38.5119 167.385C38.8071 166.21 39.0039 165.034 39.0039 163.761C39.2992 160.627 38.9056 157.493 39.0039 154.261C39.0039 153.282 40.1849 153.184 41.3657 153.967C42.5467 154.751 43.826 156.318 43.9244 158.375C44.0228 161.118 43.826 163.86 43.334 166.602C43.1371 167.287 43.0387 167.974 42.8419 168.659L42.5467 169.541C42.5467 169.541 42.5467 169.541 42.4483 169.541C42.3498 169.638 42.2515 169.736 42.0546 169.932L41.8578 170.226C41.8578 170.323 41.8578 170.323 41.8578 170.323C41.9563 170.421 41.9563 170.421 42.1531 170.421C42.3498 170.421 42.6452 170.421 42.9404 170.323L43.2356 170.226L43.6292 170.128C43.826 170.03 44.1212 169.932 44.3181 169.834L45.6958 169.345C47.5656 168.561 49.4353 167.777 51.2067 166.896C55.143 164.936 58.8826 162.587 62.0317 159.549C62.5237 159.158 62.9174 158.571 63.4095 158.08C63.8031 157.591 64.2951 157.102 64.6888 156.611L66.1648 154.457L66.5585 153.771L66.6569 153.673H66.8537H67.2474L68.7236 153.771L70.5933 153.869C71.0854 153.869 71.6758 153.967 72.1679 153.967C73.2503 153.967 74.2344 153.967 75.3169 153.967C77.3835 153.869 79.4502 153.771 81.5168 153.38C84.6658 152.89 87.7165 151.91 90.6687 150.833C91.3576 150.539 91.9482 150.344 92.637 150.05C95.0972 149.168 95.8845 149.07 96.8686 149.951C97.0653 150.148 97.3607 150.344 97.5574 150.539C98.1479 151.224 97.459 152.4 95.6877 153.38C90.3735 156.22 83.9769 157.787 77.5803 158.277C75.2185 158.473 72.7583 158.473 70.3965 158.375H69.6092H69.4124C69.314 158.375 69.1172 158.375 69.1172 158.375L69.0188 158.473L68.7236 158.864C68.3299 159.452 67.9362 159.942 67.4443 160.334Z" fill="#0A4020"/>
<path fill-rule="evenodd" clip-rule="evenodd" d="M134.768 78.7463C130.832 80.4113 127.092 82.6641 123.648 85.1126C120.203 87.7572 117.054 90.5975 114.299 93.9276C111.643 97.2576 109.182 100.784 107.312 104.701C105.54 108.521 104.064 112.635 103.179 116.846C101.9 123.017 101.801 129.383 102.588 135.554C104.163 146.425 109.28 157.003 117.35 164.741C125.223 172.674 135.949 177.669 147.069 179.04C151.99 179.628 157.107 179.53 162.028 178.844C163.307 178.648 164.487 178.453 165.767 178.159C166.948 177.864 168.227 177.669 169.408 177.277L171.179 176.788L172.558 176.395L173.246 176.2L173.64 176.102C173.739 176.102 173.837 176.2 173.935 176.298L175.903 177.963C176.297 178.355 176.888 178.648 177.379 178.942C180.922 181.195 185.154 182.077 189.484 182.469C191.649 182.566 193.814 182.566 195.979 182.371L196.963 182.273L197.652 182.175L198.34 182.077L198.636 181.978C198.734 181.978 198.734 181.978 198.833 181.978L198.734 181.88C198.439 181.587 198.242 181.293 197.947 180.999L197.553 180.509L197.16 179.922C196.963 179.726 196.864 179.433 196.667 179.236C195.487 177.375 194.601 175.319 194.01 173.164C193.518 171.303 193.715 170.323 194.01 170.128C194.404 169.932 194.897 170.519 195.683 171.597C196.471 172.674 197.455 174.143 198.833 175.808C199.128 176.2 199.522 176.69 199.915 177.082C200.112 177.277 200.309 177.473 200.506 177.767L200.801 178.061C200.899 178.257 201.195 178.551 201.392 178.746C202.965 180.607 205.525 182.86 207.787 185.211C207.296 185.407 206.607 185.505 205.918 185.7C205.229 185.896 204.541 185.994 203.852 186.191C203.162 186.386 202.376 186.484 201.588 186.68C200.801 186.778 199.915 186.974 199.128 187.072L197.947 187.267L196.766 187.365C196.373 187.365 195.88 187.463 195.487 187.463C194.601 187.463 193.715 187.561 192.83 187.561C191.058 187.561 189.287 187.463 187.417 187.267C183.874 186.876 180.234 185.994 176.789 184.231C175.903 183.84 175.116 183.251 174.328 182.762C173.935 182.469 173.542 182.273 173.148 181.978L172.558 181.489C172.558 181.489 172.558 181.489 172.458 181.391L170.097 182.077C168.424 182.469 166.653 182.86 164.98 183.154C163.208 183.349 161.535 183.644 159.765 183.84C152.777 184.427 145.593 183.938 138.802 182.077C132.013 180.215 125.518 177.082 120.007 172.772C116.661 170.225 113.61 167.287 110.855 164.056C108.1 160.823 105.737 157.199 103.769 153.379C99.7346 145.739 97.7664 137.121 97.668 128.6C97.668 123.898 98.2584 119.197 99.2425 114.692C100.325 110.186 101.9 105.681 104.064 101.567C105.049 99.4124 106.427 97.5514 107.607 95.4946C108.985 93.6337 110.362 91.6749 111.937 90.0099C114.989 86.4838 118.53 83.4476 122.369 80.7053C131.718 74.143 143.035 70.2253 154.549 69.7355C156.713 69.5397 158.878 69.7355 161.044 69.8335C162.126 69.8335 163.208 70.0293 164.291 70.2253C165.374 70.4211 166.456 70.4211 167.539 70.715C169.605 71.2047 171.77 71.5965 173.837 72.38C174.821 72.7718 175.903 73.0656 176.888 73.4574L179.84 74.7306L181.316 75.4162L182.693 76.1998L185.547 77.7669L188.205 79.5299C189.09 80.1175 189.976 80.7053 190.861 81.3908L193.421 83.4476C194.207 84.1332 194.994 84.9168 195.782 85.7004C197.357 87.1694 198.734 88.8345 200.112 90.4016C204.344 95.5926 207.591 101.469 209.756 107.738C211.921 114.006 212.806 120.666 212.414 127.326C212.217 130.264 211.921 133.105 211.232 136.043C209.953 141.43 208.378 144.761 207.099 146.915C205.82 149.07 204.737 150.147 203.655 150.833C203.162 151.126 202.572 151.617 202.179 151.715C201.489 151.91 201.588 150.931 202.277 149.168C202.965 147.404 204.049 144.662 205.328 141.136C207.099 135.945 208.083 130.362 208.083 124.78C207.984 119.197 207.099 113.614 205.229 108.227C203.359 102.938 200.604 97.8452 196.963 93.3399C193.421 88.8345 188.991 85.0148 184.169 81.9785C180.529 79.7257 176.691 77.7669 172.558 76.5916C170.589 75.808 168.424 75.5142 166.357 75.0244C165.275 74.8286 164.193 74.7306 163.208 74.6328L161.634 74.4368C161.142 74.4368 160.551 74.4368 160.059 74.3389C151.498 73.6533 142.739 75.4162 134.768 78.7463Z" fill="#0A4020"/>
<circle cx="68.6304" cy="78.0431" r="24.2202" fill="#ADFFD8"/>
<path fill-rule="evenodd" clip-rule="evenodd" d="M76.2161 85.6024C78.0858 83.3496 79.0699 79.8237 78.7747 76.4936C78.6762 75.3182 78.2827 74.143 77.7906 73.0656C76.3144 69.2457 71.4924 67.1889 66.9655 68.0705C64.9974 68.4623 63.0292 69.4417 61.4547 70.7149C59.3881 72.38 58.0103 74.6326 57.0263 77.0812C56.731 77.8648 56.1406 77.6689 55.7469 76.7874C55.3533 75.906 55.1564 74.143 56.0422 72.5758C59.0929 66.6992 66.2767 63.3692 72.9685 65.1322C74.9368 65.6218 76.8065 66.5034 78.4794 67.8745C80.1524 69.2457 81.3333 71.1067 82.0221 72.9676C83.5968 77.1792 83.3999 81.6845 81.7269 85.7982C80.6445 88.3447 78.7747 90.4015 76.8065 92.0665C73.8542 94.6131 70.6067 96.376 68.1465 98.7267C67.1624 99.6082 66.2767 100.686 65.6862 101.665C65.0958 102.742 64.7022 103.82 64.3085 105.093C64.1117 105.681 64.0133 106.268 63.7181 106.856C62.8324 109.109 62.0451 109.598 60.6674 109.5C60.3722 109.5 59.9785 109.5 59.6833 109.403C58.6992 109.109 58.404 107.933 58.6992 106.366C58.9944 105.191 59.1912 104.016 59.5848 102.742C59.9785 101.469 60.6674 99.9021 61.553 98.5308C63.4229 95.8864 65.6862 94.1234 67.8513 92.4583C71.0988 90.1077 74.1495 88.0509 75.9209 85.6024H76.2161Z" fill="#0A4020"/>
<path fill-rule="evenodd" clip-rule="evenodd" d="M60.3675 119.49C60.3675 119.588 60.3675 119.686 60.3675 119.784C60.1707 121.841 58.5961 122.526 56.7264 122.331C54.1678 122.037 53.1837 119.197 54.5613 117.238C56.5296 114.398 60.3675 116.455 60.3675 119.49Z" fill="#0A4020"/>
<path fill-rule="evenodd" clip-rule="evenodd" d="M135.84 180.411C141.155 182.273 146.764 183.349 152.472 183.447C154.538 183.447 156.605 183.447 158.672 183.154L161.427 182.86C162.312 182.762 163.198 182.566 164.083 182.371L166.741 181.88C167.626 181.684 168.513 181.391 169.398 181.195L172.448 180.313C172.842 180.02 173.039 180.509 173.432 180.706L174.121 181.293L175.105 182.175C175.794 182.664 176.581 183.154 177.369 183.644C178.156 184.035 179.042 184.427 179.829 184.818C182.782 185.994 186.028 186.484 189.276 186.582C193.41 186.68 197.542 186.092 201.578 185.309C202.857 185.015 202.857 185.7 201.873 186.484C200.889 187.267 198.92 188.345 196.46 188.638C192.032 189.129 187.505 189.129 183.076 188.149C180.813 187.66 178.747 186.876 176.68 185.798C175.696 185.211 174.712 184.623 173.728 183.938L172.448 182.86C172.252 182.762 172.35 182.762 172.35 182.762L172.252 182.664C172.252 182.664 172.153 182.664 172.055 182.664C167.134 184.133 161.624 185.309 156.309 185.602C150.405 185.896 144.401 185.211 138.694 183.644C137.809 183.349 136.923 183.154 136.037 182.86L133.478 181.88C131.708 181.293 130.132 180.411 128.459 179.628C123.54 177.081 119.11 173.85 115.175 170.03C112.222 166.994 109.368 163.859 107.203 160.333C106.711 159.549 106.219 158.766 105.727 157.982C104.054 154.946 103.759 153.869 104.054 152.987C104.153 152.791 104.153 152.497 104.251 152.4C104.546 151.91 105.53 152.987 106.711 155.142C110.352 161.411 115.076 167.483 121.079 172.184C125.408 175.71 130.427 178.551 135.84 180.411Z" fill="#0A4020"/>
<path fill-rule="evenodd" clip-rule="evenodd" d="M70.797 159.647L69.7145 159.549H69.6161L68.3367 161.312C67.2542 162.488 66.0734 163.761 64.7941 164.839C63.9083 165.623 62.9242 166.406 62.0386 167.092C58.5942 169.539 54.8547 171.303 51.0168 172.87C49.3438 173.555 47.5724 174.241 45.8995 174.926C43.7344 175.71 41.5695 176.592 39.2076 176.886C37.7315 177.082 39.1092 174.535 41.471 173.85C45.8995 172.479 50.2295 170.911 54.461 169.05C57.0197 167.875 59.4799 166.308 61.6449 164.545C62.2354 164.055 62.8258 163.565 63.4163 163.076C64.0068 162.585 64.5972 162.096 65.0893 161.509C65.5813 160.921 66.1717 160.431 66.6638 159.843L68.2383 157.689L68.4352 157.493H68.7304H69.3208H70.2065L71.6827 157.591C72.6667 157.591 73.6508 157.689 74.6349 157.689C77.5872 157.689 80.5395 157.591 83.3933 157.101C85.6567 156.709 87.7233 155.926 89.6915 155.044L90.9709 154.358C92.5454 153.575 93.1359 153.38 93.8247 153.673C93.9232 153.771 94.1199 153.771 94.2184 153.869C94.612 154.162 94.1199 154.946 92.9391 155.631C89.3963 157.885 84.9679 159.256 80.5395 159.647C77.292 159.843 74.0445 159.843 70.797 159.647Z" fill="#0A4020"/>
<path d="M143.129 51.3223C143.129 50.5387 143.72 49.9511 144.408 49.9511C148.05 49.7551 143.228 55.142 143.129 51.3223Z" stroke="#0A4020" stroke-width="0.6"/>
<path d="M85.6641 179.628C85.6641 178.844 86.2545 178.257 86.9434 178.257C90.5845 178.159 85.7625 183.448 85.6641 179.628Z" stroke="#0A4020" stroke-width="0.6"/>
<path fill-rule="evenodd" clip-rule="evenodd" d="M177.867 40.4506C178.458 40.6464 178.852 41.2342 178.655 41.8218C177.966 44.8581 174.718 39.667 177.867 40.4506Z" fill="#0A4020"/>
<path d="M162.265 152.784C174.928 151.135 183.895 139.927 182.295 127.753C180.693 115.578 169.129 107.046 156.465 108.696C143.802 110.346 134.833 121.553 136.435 133.728C138.037 145.903 149.601 154.434 162.265 152.784Z" fill="#FFF7B1"/>
<path d="M166.257 103.624C166.355 103.33 164.682 102.351 161.238 101.861C159.565 101.665 157.399 101.567 154.94 102.057C152.479 102.547 149.724 103.428 146.968 105.093C144.311 106.758 141.654 109.207 139.489 112.243C137.324 115.279 135.651 119.099 134.765 123.213C133.88 127.424 133.978 132.027 135.454 136.631C136.241 138.883 137.226 141.136 138.603 143.194C139.981 145.25 141.654 147.208 143.622 148.776C145.197 150.148 146.968 151.126 148.74 152.106C150.609 152.988 152.479 153.673 154.447 154.162C159.466 155.338 164.584 154.848 169.012 153.282C173.44 151.617 177.377 148.972 180.132 145.641C181.608 144.074 182.592 142.214 183.577 140.451C183.969 139.569 184.363 138.59 184.757 137.709C185.053 136.729 185.447 135.847 185.545 134.966C186.43 131.244 186.332 127.718 185.741 124.584C185.151 121.45 184.069 118.805 182.887 116.65C181.707 114.496 180.329 112.831 179.148 111.558C176.786 109.109 175.113 108.227 174.916 108.423C174.719 108.717 175.999 109.892 177.967 112.537C179.837 115.181 182.297 119.295 183.084 124.975C183.478 127.816 183.38 130.951 182.493 134.182C182.297 134.966 182.002 135.749 181.707 136.631C181.411 137.414 181.017 138.198 180.624 138.981C179.738 140.549 178.754 142.116 177.475 143.487C175.015 146.328 171.669 148.58 167.831 149.951C163.993 151.224 159.565 151.617 155.332 150.539C153.562 150.148 151.986 149.559 150.413 148.776C148.936 147.992 147.361 147.11 146.082 145.936C144.409 144.565 142.933 142.899 141.753 141.234C140.572 139.472 139.686 137.611 138.997 135.651C137.717 131.734 137.521 127.718 138.21 123.997C138.899 120.274 140.276 116.945 142.146 114.104C144.015 111.264 146.279 109.109 148.543 107.444C150.904 105.779 153.267 104.897 155.431 104.31C157.596 103.722 159.565 103.526 161.139 103.526C164.387 103.526 166.158 104.016 166.257 103.624Z" fill="#0A4020"/>
<path d="M168.924 122.723C168.826 122.43 168.433 122.233 167.645 122.332C166.859 122.43 165.775 122.821 164.595 123.703C163.513 124.584 162.429 125.759 161.446 127.131C160.462 128.502 159.477 130.069 158.494 131.636C158.297 131.929 158.1 132.322 157.903 132.615C157.706 132.909 157.509 133.3 157.312 133.595C156.525 134.869 156.821 134.476 156.722 134.574C156.722 134.574 156.722 134.574 156.624 134.574L156.427 134.476C155.737 134.084 155.148 133.791 154.557 133.497C153.376 132.909 152.294 132.518 151.309 132.224C149.439 131.636 148.259 131.733 148.062 132.224C147.865 132.713 148.751 133.399 150.326 134.476C151.112 134.966 151.999 135.651 153.081 136.338C153.573 136.729 154.163 137.023 154.655 137.414C155.148 137.709 155.64 138.1 156.131 138.492C156.722 138.883 157.312 139.374 158.001 139.765C158.886 138.394 159.773 137.023 160.658 135.554C160.855 135.26 161.052 134.869 161.249 134.574C161.446 134.28 161.643 133.889 161.84 133.595C162.823 131.929 163.71 130.362 164.496 128.991C165.283 127.62 165.972 126.543 166.662 125.661C167.744 123.997 169.023 123.408 168.924 122.723Z" fill="#0A4020"/>
<path d="M2.11071 50.0491C2.40593 50.245 2.79958 50.1471 3.29157 49.9512C3.78367 49.7553 4.57086 49.5594 5.25973 49.5594C5.94861 49.5594 6.53903 49.9512 6.93269 50.5388C7.03113 50.8326 7.12958 51.1265 7.03113 51.6162C6.93269 52.106 6.73592 52.6936 6.44071 53.2812C6.34226 53.4772 6.14549 53.771 6.04705 53.9668C5.85016 54.1628 5.75184 54.3586 5.55495 54.6524C5.25974 54.9463 5.06296 55.2401 4.86608 55.436L4.76775 55.5339C4.76775 55.5339 4.76775 55.5339 4.66931 55.5339C4.57086 55.5339 4.66931 55.6319 4.47254 55.3381C4.27565 55.1422 4.07888 54.9463 3.88199 54.6524C3.68522 54.4566 3.48845 54.1628 3.29157 53.9668C2.99635 53.575 2.79958 53.1833 2.6027 52.7916C2.30748 52.106 2.20904 51.5182 2.20904 50.9306C2.40593 50.6368 2.40593 50.245 2.11071 50.0491C1.91383 49.8532 1.42184 49.9512 0.929741 50.4409C0.339314 50.9306 -0.152786 52.106 0.0441011 53.575C0.142428 54.2607 0.339314 55.0442 0.634528 55.7298C0.831298 56.1216 0.929741 56.4155 1.12663 56.7093C1.3234 57.0031 1.52017 57.3949 1.8155 57.7867C2.01227 58.0805 2.70114 58.7661 3.29157 59.0599C3.98044 59.4517 4.66931 59.5496 5.45662 59.3537C5.85016 59.2558 6.14549 59.1579 6.53903 58.8641C6.73592 58.7661 6.83436 58.6681 7.03113 58.4723L7.2279 58.2763L7.42479 58.1785C7.81845 57.7867 8.11366 57.3949 8.40887 57.1011C8.60564 56.8073 8.90086 56.4155 9.09774 56.1216C9.29452 55.7298 9.4914 55.436 9.68817 55.0442C10.1803 54.0648 10.4755 53.0854 10.5738 52.008C10.6723 50.9306 10.377 49.6573 9.68817 48.6779C8.9993 47.6985 8.11366 47.2087 7.2279 46.9149C6.24382 46.6211 5.35818 46.7191 4.66931 46.9149C3.29157 47.3067 2.50425 48.1882 2.11071 48.7759C1.8155 49.3635 1.91383 49.8532 2.11071 50.0491Z" fill="#0A4020"/>
<path d="M189.982 211.949C190.278 212.145 190.67 212.047 191.163 211.851C191.655 211.655 192.442 211.46 193.131 211.46C193.821 211.46 194.41 211.851 194.804 212.44C194.903 212.733 195.001 213.027 194.903 213.516C194.804 214.006 194.607 214.594 194.312 215.182C194.213 215.378 194.016 215.671 193.918 215.867C193.722 216.063 193.624 216.258 193.427 216.553C193.131 216.847 192.934 217.14 192.737 217.336L192.639 217.434C192.639 217.434 192.639 217.434 192.54 217.434C192.442 217.434 192.54 217.532 192.343 217.238C192.148 217.042 191.951 216.847 191.754 216.553C191.557 216.356 191.36 216.063 191.163 215.867C190.867 215.476 190.67 215.084 190.475 214.691C190.179 214.006 190.081 213.418 190.081 212.831C190.179 212.635 190.179 212.145 189.982 211.949C189.785 211.753 189.293 211.851 188.802 212.342C188.211 212.831 187.718 214.006 187.915 215.476C188.014 216.161 188.211 216.945 188.506 217.63C188.703 218.022 188.802 218.316 188.997 218.609C189.194 218.903 189.391 219.296 189.687 219.687C189.884 219.981 190.573 220.667 191.163 220.96C191.852 221.352 192.54 221.45 193.328 221.254C193.722 221.156 194.016 221.058 194.41 220.765C194.607 220.667 194.706 220.569 194.903 220.372L195.1 220.176L195.297 220.078C195.689 219.687 195.985 219.296 196.28 219.001C196.477 218.707 196.773 218.316 196.97 218.022C197.167 217.63 197.362 217.336 197.559 216.945C198.052 215.965 198.347 214.985 198.446 213.909C198.544 212.831 198.249 211.558 197.559 210.578C196.871 209.599 195.985 209.109 195.1 208.815C194.115 208.522 193.23 208.619 192.54 208.815C191.163 209.207 190.376 210.089 189.982 210.676C189.687 211.362 189.687 211.851 189.982 211.949Z" fill="#A8A8A8"/>
<path d="M242.517 135.652C242.812 135.847 243.206 135.749 243.697 135.554C244.19 135.358 244.976 135.162 245.666 135.162C246.355 135.162 246.945 135.554 247.339 136.141C247.437 136.436 247.536 136.729 247.437 137.218C247.339 137.709 247.142 138.296 246.846 138.883C246.748 139.08 246.552 139.374 246.453 139.569C246.256 139.765 246.158 139.961 245.961 140.254C245.666 140.549 245.469 140.843 245.272 141.039L245.173 141.136C245.173 141.136 245.173 141.136 245.075 141.136C244.976 141.136 245.075 141.234 244.879 140.941C244.682 140.745 244.485 140.549 244.288 140.254C244.091 140.059 243.894 139.765 243.697 139.569C243.403 139.178 243.206 138.785 243.009 138.394C242.714 137.709 242.615 137.121 242.615 136.533C242.812 136.239 242.812 135.847 242.517 135.652C242.32 135.456 241.827 135.554 241.336 136.043C240.745 136.533 240.253 137.709 240.45 139.178C240.548 139.863 240.745 140.647 241.041 141.332C241.237 141.724 241.336 142.018 241.533 142.312C241.73 142.605 241.926 142.997 242.221 143.39C242.418 143.683 243.107 144.368 243.697 144.663C244.387 145.054 245.075 145.152 245.863 144.956C246.256 144.859 246.552 144.761 246.945 144.466C247.142 144.368 247.24 144.27 247.437 144.075L247.634 143.879L247.831 143.781C248.225 143.39 248.519 142.997 248.815 142.703C249.012 142.41 249.307 142.018 249.504 141.724C249.701 141.332 249.897 141.039 250.094 140.647C250.586 139.667 250.882 138.688 250.98 137.61C251.079 136.533 250.783 135.26 250.094 134.28C249.406 133.301 248.519 132.811 247.634 132.518C246.649 132.224 245.764 132.322 245.075 132.518C243.697 132.909 242.91 133.791 242.517 134.378C242.32 135.064 242.32 135.456 242.517 135.652Z" fill="#0A4020"/>
<path d="M118.623 203.135C117.442 202.644 116.655 203.233 116.065 204.212C116.065 204.31 116.065 204.31 115.966 204.408C115.966 204.506 115.966 204.506 115.868 204.604C115.474 205.681 115.671 206.66 116.852 207.151C117.935 207.64 118.82 207.053 119.411 206.073C119.411 205.975 119.411 205.975 119.509 205.877C119.509 205.779 119.608 205.779 119.608 205.681C119.902 204.604 119.705 203.526 118.623 203.135Z" fill="#A8A8A8"/>
<path d="M22.3857 167.483C21.5001 168.365 21.6968 169.343 22.3857 170.127L22.4841 170.225L22.5826 170.323C23.3698 171.009 24.2555 171.205 25.2396 170.323C26.0268 169.54 25.9285 168.463 25.2396 167.679L25.1412 167.581L25.0427 167.483C24.2555 166.798 23.2713 166.601 22.3857 167.483Z" fill="#A8A8A8"/>
<path d="M69.9134 0C69.323 0 68.8309 0.685604 68.7324 1.66503C68.6341 2.64447 68.7324 4.11362 69.323 5.68072C69.4213 5.8766 69.4213 5.97455 69.5197 6.17043C69.6182 6.26837 69.6182 6.46426 69.7165 6.66014C70.4054 8.1293 71.2911 9.30462 72.0783 9.89228C72.8657 10.5779 73.653 10.6758 74.145 10.284C75.0307 9.50051 74.145 7.54164 73.1609 5.19099L72.9641 4.70128L72.8657 4.30951C71.7831 1.95887 71.0943 0 69.9134 0Z" fill="#A8A8A8"/>
<path d="M131.716 37.1205C130.829 36.239 129.452 36.8267 128.074 38.0999C127.976 38.1979 127.976 38.1979 127.877 38.2959C127.779 38.3937 127.779 38.3937 127.68 38.4917C126.401 39.8629 125.81 41.2341 126.697 42.1156C127.483 42.8992 128.959 42.4094 130.338 41.1362C130.435 41.0383 130.435 41.0383 130.534 40.9403C130.632 40.8423 130.632 40.8424 130.731 40.7444C132.01 39.3732 132.601 37.9041 131.716 37.1205Z" fill="#A8A8A8"/>
<path d="M214.467 52.8892C213.582 52.0078 213.09 51.714 212.893 51.812C212.794 52.0078 213.09 52.4976 213.976 53.379C214.763 54.1626 215.354 54.5543 215.551 54.4564C215.648 54.2605 215.354 53.6728 214.467 52.8892Z" fill="#A8A8A8"/>
<path d="M190.857 21.2538C190.562 21.2538 190.267 22.5271 189.774 24.7799C189.577 25.8572 189.283 27.2284 188.889 28.7955C188.495 30.3626 188.004 32.1256 187.118 33.7906C186.724 34.6721 186.134 35.4557 185.445 36.1413C184.756 36.8269 183.968 37.4145 183.083 37.9042C181.312 38.7857 178.851 39.0795 176.49 38.3939C174.127 37.8063 171.865 36.3371 170.389 34.1824C169.699 33.105 169.207 31.9297 169.207 30.7544C169.108 29.579 169.404 28.2078 170.093 27.2284C170.584 26.4449 171.274 25.7593 172.159 25.3675C172.553 25.1715 172.947 25.1715 173.242 25.1715C173.538 25.1715 173.735 25.2695 174.127 25.4655C174.521 25.7593 174.915 26.2489 175.308 26.7387C175.603 27.2284 175.899 27.8161 176.096 28.4037C176.49 29.579 176.49 30.9502 176.293 32.2235C175.997 33.4968 175.603 34.5741 174.817 35.5535C174.127 36.5331 173.144 37.4145 172.159 38.1981C170.093 39.6672 167.731 40.7446 165.468 41.626C163.204 42.5076 161.137 43.1932 159.17 43.7808C155.233 44.8582 151.986 45.3479 149.722 45.7397C147.459 46.1315 146.18 46.3273 146.18 46.6211C146.18 46.9151 147.459 47.2089 149.82 47.3067C152.182 47.4047 155.627 47.3067 159.858 46.4253C161.925 46.0335 164.286 45.4459 166.649 44.5644C169.01 43.6829 171.668 42.8014 174.226 41.0384C175.505 40.157 176.785 39.0795 177.769 37.7083C178.261 37.0227 178.753 36.2391 179.146 35.4557C179.54 34.6721 179.737 33.7906 179.934 32.9091C180.327 31.1462 180.327 29.2852 179.737 27.4243C179.442 26.5428 179.048 25.5633 178.556 24.7799C177.966 23.9963 177.375 23.1148 176.391 22.4292C175.603 21.8415 174.521 21.4497 173.538 21.4497C172.553 21.4497 171.569 21.6456 170.781 21.9395C169.207 22.6251 167.829 23.8003 166.944 25.2695C165.861 27.0325 165.468 29.0894 165.565 31.0482C165.664 33.0071 166.452 34.8679 167.435 36.3371C169.502 39.3734 172.651 41.0384 175.702 41.822C177.276 42.2138 178.851 42.2138 180.327 42.0178C181.803 41.822 183.279 41.4302 184.559 40.6466C185.838 39.8631 186.921 38.9816 187.708 38.0021C188.495 36.9247 189.184 35.9453 189.577 34.8679C190.464 32.8112 190.857 30.8522 191.054 29.0894C191.25 27.4243 191.349 25.9551 191.25 24.7799C191.349 22.5271 191.153 21.2538 190.857 21.2538Z" fill="#0A4020"/>
</svg>
