<svg width="300" height="145" viewBox="0 0 300 145" fill="none" xmlns="http://www.w3.org/2000/svg">
<rect width="300" height="144.984" fill="white"/>
<g opacity="0.491605">
<path d="M99.366 104.981V113.197H103.5V114.38H98.092V104.981H99.366Z" fill="black"/>
<path d="M111.617 114.38H105.884V104.981H111.617V106.151H107.158V109.089H111.175V110.22H107.158V113.197H111.617V114.38Z" fill="black"/>
<path d="M114.853 114.38H113.527L116.959 104.981H118.376L121.821 114.38H120.482L119.637 112.04H115.685L114.853 114.38ZM117.505 107.009L116.075 110.935H119.26L117.817 107.009C117.752 106.827 117.687 106.606 117.661 106.463C117.635 106.593 117.57 106.814 117.505 107.009Z" fill="black"/>
<path d="M125.345 114.38H124.071V104.981H127.62C129.635 104.981 130.831 106.047 130.831 107.802C130.831 109.102 130.181 110.038 129.011 110.415L130.922 114.38H129.505L127.75 110.662H125.345V114.38ZM125.345 106.125V109.531H127.633C128.816 109.531 129.492 108.894 129.492 107.815C129.492 106.723 128.79 106.125 127.62 106.125H125.345Z" fill="black"/>
<path d="M134.85 114.38H133.576V104.981H134.85L139.66 112.248V104.981H140.934V114.38H139.66L134.85 107.113V114.38Z" fill="black"/>
<path d="M149.926 114.38H148.678V104.981H149.926L153.163 112.885L156.4 104.981H157.674V114.38H156.426V110.662C156.426 108.907 156.439 108.27 156.504 107.607L153.761 114.38H152.565L149.835 107.633C149.9 108.088 149.926 109.05 149.926 110.363V114.38Z" fill="black"/>
<path d="M169.339 109.674C169.339 112.534 167.467 114.536 164.802 114.536C162.15 114.536 160.304 112.534 160.304 109.674C160.304 106.827 162.163 104.812 164.815 104.812C167.48 104.812 169.339 106.814 169.339 109.674ZM168 109.674C168 107.49 166.726 106.047 164.815 106.047C162.904 106.047 161.643 107.49 161.643 109.674C161.643 111.858 162.904 113.314 164.815 113.314C166.726 113.314 168 111.845 168 109.674Z" fill="black"/>
<path d="M173.242 114.38H171.968V104.981H175.517C177.532 104.981 178.728 106.047 178.728 107.802C178.728 109.102 178.078 110.038 176.908 110.415L178.819 114.38H177.402L175.647 110.662H173.242V114.38ZM173.242 106.125V109.531H175.53C176.713 109.531 177.389 108.894 177.389 107.815C177.389 106.723 176.687 106.125 175.517 106.125H173.242Z" fill="black"/>
<path d="M187.207 114.38H181.474V104.981H187.207V106.151H182.748V109.089H186.765V110.22H182.748V113.197H187.207V114.38Z" fill="black"/>
</g>
<path d="M95.84 36.2073C95.84 33.7273 97.84 32.0473 100.82 32.0473C103.58 32.0473 105.36 33.5873 105.52 36.0873H103.54C103.44 34.6473 102.42 33.8073 100.8 33.8073C98.98 33.8073 97.8 34.7273 97.8 36.1473C97.8 37.3073 98.46 38.0073 99.82 38.3273L102.2 38.8873C104.56 39.4273 105.76 40.7073 105.76 42.7473C105.76 45.3473 103.74 47.0073 100.66 47.0073C97.72 47.0073 95.76 45.4673 95.64 42.9873H97.64C97.68 44.3673 98.84 45.2473 100.66 45.2473C102.58 45.2473 103.8 44.3473 103.8 42.9073C103.8 41.7673 103.18 41.0473 101.8 40.7273L99.42 40.1873C97.06 39.6473 95.84 38.2873 95.84 36.2073Z" fill="black"/>
<path d="M110.763 47.0073C108.663 47.0073 107.423 45.8273 107.423 44.0473C107.423 42.2473 108.763 41.1273 111.063 40.9473L114.143 40.7073V40.4273C114.143 38.7873 113.163 38.2073 111.843 38.2073C110.263 38.2073 109.363 38.9073 109.363 40.0873H107.723C107.723 38.0473 109.403 36.7073 111.923 36.7073C114.343 36.7073 115.983 37.9873 115.983 40.6273V46.7673H114.383L114.183 45.1873C113.683 46.3073 112.343 47.0073 110.763 47.0073ZM111.303 45.5473C113.083 45.5473 114.163 44.3873 114.163 42.5473V42.0273L111.663 42.2273C110.003 42.3873 109.323 43.0273 109.323 43.9873C109.323 45.0273 110.083 45.5473 111.303 45.5473Z" fill="black"/>
<path d="M120.936 46.7673L116.996 36.9873H118.996L121.136 42.4473C121.476 43.3673 121.756 44.1873 121.916 44.7873C122.076 44.1473 122.396 43.3073 122.736 42.4473L124.916 36.9873H126.876L122.796 46.7673H120.936Z" fill="black"/>
<path d="M132.142 47.0073C129.262 47.0073 127.282 44.9273 127.282 41.8873C127.282 38.8273 129.222 36.7073 132.062 36.7073C134.842 36.7073 136.662 38.6273 136.662 41.5273V42.2273L129.102 42.2473C129.242 44.3073 130.322 45.4473 132.182 45.4473C133.642 45.4473 134.602 44.8473 134.922 43.7273H136.682C136.202 45.8273 134.562 47.0073 132.142 47.0073ZM132.062 38.2873C130.422 38.2873 129.382 39.2673 129.142 40.9873H134.782C134.782 39.3673 133.722 38.2873 132.062 38.2873Z" fill="black"/>
<path d="M150.991 36.9873H152.851V46.7673H151.171L150.971 45.2873C150.411 46.3073 149.111 47.0073 147.671 47.0073C145.391 47.0073 144.111 45.4673 144.111 43.0673V36.9873H145.991V42.4473C145.991 44.5473 146.891 45.3473 148.331 45.3473C150.051 45.3473 150.991 44.2473 150.991 42.1473V36.9873Z" fill="black"/>
<path d="M155.579 51.1473V36.9873H157.279L157.419 38.7473C158.079 37.4073 159.399 36.7073 160.959 36.7073C163.759 36.7073 165.499 38.8073 165.499 41.8073C165.499 44.7873 163.859 47.0273 160.959 47.0273C159.399 47.0273 158.099 46.3673 157.459 45.1673V51.1473H155.579ZM157.479 41.8873C157.479 43.8873 158.639 45.3273 160.559 45.3273C162.479 45.3273 163.619 43.8873 163.619 41.8873C163.619 39.8673 162.479 38.4273 160.559 38.4273C158.639 38.4273 157.479 39.8473 157.479 41.8873Z" fill="black"/>
<path d="M175.8 46.7673H173.92V38.5673H172V36.9873H173.92V33.9273H175.8V36.9873H177.72V38.5673H175.8V46.7673Z" fill="black"/>
<path d="M178.669 41.8673C178.669 38.8473 180.829 36.7273 183.769 36.7273C186.689 36.7273 188.849 38.8473 188.849 41.8673C188.849 44.8873 186.689 47.0073 183.769 47.0073C180.829 47.0073 178.669 44.8873 178.669 41.8673ZM180.569 41.8673C180.569 43.9073 181.869 45.3273 183.769 45.3273C185.649 45.3273 186.969 43.9073 186.969 41.8673C186.969 39.8273 185.649 38.4073 183.769 38.4073C181.869 38.4073 180.569 39.8273 180.569 41.8673Z" fill="black"/>
<path d="M200.879 47.0073C197.919 47.0073 195.999 45.1273 195.999 42.2473H197.939C197.939 44.1073 199.079 45.2473 200.919 45.2473C202.879 45.2473 204.139 43.9473 204.139 41.9873C204.139 40.1273 202.959 38.7473 200.939 38.7473C199.719 38.7473 198.599 39.3273 197.939 40.1473L196.279 39.7273L198.039 32.3073H205.279V34.1073H199.459L198.499 37.9473C199.259 37.3673 200.219 37.0673 201.299 37.0673C204.239 37.0673 206.139 39.1273 206.139 41.9073C206.139 44.9073 203.999 47.0073 200.879 47.0073Z" fill="black"/>
<path d="M207.835 39.5473C207.835 35.0673 210.155 32.0273 213.795 32.0273C217.415 32.0273 219.735 35.0673 219.735 39.5473C219.735 44.0473 217.515 47.0273 213.795 47.0273C210.055 47.0273 207.835 44.0473 207.835 39.5473ZM209.775 39.5473C209.775 43.1073 211.255 45.2673 213.795 45.2673C216.335 45.2673 217.795 43.1073 217.795 39.5473C217.795 35.9473 216.335 33.7873 213.795 33.7873C211.255 33.7873 209.775 35.9473 209.775 39.5473Z" fill="black"/>
<path d="M228.863 35.7273C228.863 37.8673 227.343 39.4073 225.203 39.4073C223.083 39.4073 221.563 37.8673 221.563 35.7273C221.563 33.5673 223.083 32.0273 225.203 32.0273C227.343 32.0273 228.863 33.5673 228.863 35.7273ZM236.483 32.3273L225.503 46.7673H223.583L234.563 32.3273H236.483ZM227.323 35.7273C227.323 34.4273 226.463 33.5273 225.203 33.5273C223.963 33.5273 223.103 34.4273 223.103 35.7273C223.103 37.0073 223.963 37.9073 225.203 37.9073C226.443 37.9073 227.323 37.0073 227.323 35.7273ZM238.543 43.3473C238.543 45.4873 237.003 47.0273 234.883 47.0273C232.763 47.0273 231.223 45.4873 231.223 43.3473C231.223 41.1873 232.763 39.6673 234.883 39.6673C237.003 39.6673 238.543 41.1873 238.543 43.3473ZM236.983 43.3473C236.983 42.0473 236.143 41.1473 234.883 41.1473C233.643 41.1473 232.783 42.0473 232.783 43.3473C232.783 44.6273 233.643 45.5273 234.883 45.5273C236.123 45.5273 236.983 44.6273 236.983 43.3473Z" fill="black"/>
<path d="M247.104 34.6673C246.424 34.6673 245.864 34.1073 245.864 33.4273C245.864 32.7273 246.424 32.1873 247.104 32.1873C247.784 32.1873 248.344 32.7273 248.344 33.4273C248.344 34.1073 247.784 34.6673 247.104 34.6673ZM246.184 46.7673V36.9873H248.064V46.7673H246.184Z" fill="black"/>
<path d="M252.674 46.7673H250.794V36.9873H252.494L252.694 38.4873C253.314 37.3673 254.554 36.7073 255.934 36.7073C258.514 36.7073 259.694 38.2873 259.694 40.7873V46.7673H257.814V41.2073C257.814 39.2273 256.894 38.4273 255.454 38.4273C253.694 38.4273 252.674 39.6873 252.674 41.5873V46.7673Z" fill="black"/>
<path d="M100.1 68.8873L95.2 60.3073H97.4L100.62 66.0873C100.82 66.4273 100.94 66.7073 101.1 67.0473C101.28 66.6873 101.32 66.5673 101.58 66.0873L104.78 60.3073H106.92L102.06 68.8873V74.7673H100.1V68.8873Z" fill="black"/>
<path d="M110.736 75.0073C107.856 75.0073 105.876 72.9273 105.876 69.8873C105.876 66.8273 107.816 64.7073 110.656 64.7073C113.436 64.7073 115.256 66.6273 115.256 69.5273V70.2273L107.696 70.2473C107.836 72.3073 108.916 73.4473 110.776 73.4473C112.236 73.4473 113.196 72.8473 113.516 71.7273H115.276C114.796 73.8273 113.156 75.0073 110.736 75.0073ZM110.656 66.2873C109.016 66.2873 107.976 67.2673 107.736 68.9873H113.376C113.376 67.3673 112.316 66.2873 110.656 66.2873Z" fill="black"/>
<path d="M120.118 75.0073C118.018 75.0073 116.778 73.8273 116.778 72.0473C116.778 70.2473 118.118 69.1273 120.418 68.9473L123.498 68.7073V68.4273C123.498 66.7873 122.518 66.2073 121.198 66.2073C119.618 66.2073 118.718 66.9073 118.718 68.0873H117.078C117.078 66.0473 118.758 64.7073 121.278 64.7073C123.698 64.7073 125.338 65.9873 125.338 68.6273V74.7673H123.738L123.538 73.1873C123.038 74.3073 121.698 75.0073 120.118 75.0073ZM120.658 73.5473C122.438 73.5473 123.518 72.3873 123.518 70.5473V70.0273L121.018 70.2273C119.358 70.3873 118.678 71.0273 118.678 71.9873C118.678 73.0273 119.438 73.5473 120.658 73.5473Z" fill="black"/>
<path d="M133.542 64.9073V66.6273H132.702C130.922 66.6273 129.822 67.7073 129.822 69.5873V74.7673H127.942V65.0073H129.702L129.822 66.4873C130.222 65.4673 131.202 64.7873 132.542 64.7873C132.882 64.7873 133.162 64.8273 133.542 64.9073Z" fill="black"/>
<path d="M137.225 74.7673H135.345V60.0473H137.225V74.7673Z" fill="black"/>
<path d="M139.053 79.1473V77.6073H140.313C141.213 77.6073 141.933 77.4673 142.393 76.2273L142.733 75.2873L138.793 64.9873H140.773L143.613 72.8673L146.513 64.9873H148.453L143.833 76.9673C143.173 78.6473 142.193 79.3473 140.693 79.3473C140.073 79.3473 139.553 79.2673 139.053 79.1473Z" fill="black"/>
<path d="M155.422 79.1473V64.9873H157.122L157.262 66.7473C157.922 65.4073 159.242 64.7073 160.802 64.7073C163.602 64.7073 165.342 66.8073 165.342 69.8073C165.342 72.7873 163.702 75.0273 160.802 75.0273C159.242 75.0273 157.942 74.3673 157.302 73.1673V79.1473H155.422ZM157.322 69.8873C157.322 71.8873 158.482 73.3273 160.402 73.3273C162.322 73.3273 163.462 71.8873 163.462 69.8873C163.462 67.8673 162.322 66.4273 160.402 66.4273C158.482 66.4273 157.322 67.8473 157.322 69.8873Z" fill="black"/>
<path d="M169.335 74.7673H167.455V60.0473H169.335V74.7673Z" fill="black"/>
<path d="M174.962 75.0073C172.862 75.0073 171.622 73.8273 171.622 72.0473C171.622 70.2473 172.962 69.1273 175.262 68.9473L178.342 68.7073V68.4273C178.342 66.7873 177.362 66.2073 176.042 66.2073C174.462 66.2073 173.562 66.9073 173.562 68.0873H171.922C171.922 66.0473 173.602 64.7073 176.122 64.7073C178.542 64.7073 180.182 65.9873 180.182 68.6273V74.7673H178.582L178.382 73.1873C177.882 74.3073 176.542 75.0073 174.962 75.0073ZM175.502 73.5473C177.282 73.5473 178.362 72.3873 178.362 70.5473V70.0273L175.862 70.2273C174.202 70.3873 173.522 71.0273 173.522 71.9873C173.522 73.0273 174.282 73.5473 175.502 73.5473Z" fill="black"/>
<path d="M184.666 74.7673H182.786V64.9873H184.486L184.686 66.4873C185.306 65.3673 186.546 64.7073 187.926 64.7073C190.506 64.7073 191.686 66.2873 191.686 68.7873V74.7673H189.806V69.2073C189.806 67.2273 188.886 66.4273 187.446 66.4273C185.686 66.4273 184.666 67.6873 184.666 69.5873V74.7673Z" fill="black"/>
<path d="M195.69 75.0073C194.91 75.0073 194.25 74.3673 194.25 73.6073C194.25 72.8273 194.91 72.1873 195.69 72.1873C196.45 72.1873 197.11 72.8273 197.11 73.6073C197.11 74.3673 196.45 75.0073 195.69 75.0073Z" fill="black"/>
<ellipse cx="51" cy="52.7073" rx="22" ry="22.3052" fill="#CFFF45"/>
<path d="M42 54.6138L48.8 59.7932L59.8888 44.9949" stroke="black" stroke-width="2" stroke-linecap="round"/>
</svg>
