<svg width="641" height="197" viewBox="0 0 641 197" fill="none" xmlns="http://www.w3.org/2000/svg">
<path d="M416 15C416 6.71573 422.716 0 431 0H626C634.284 0 641 6.71573 641 15V196H416V15Z" fill="white"/>
<path d="M451.679 37.71V36.216C449.177 36.036 447.575 34.578 447.521 32.382H449.825C449.843 33.408 450.509 34.056 451.679 34.2V30.366L451.103 30.24C448.835 29.754 447.701 28.494 447.701 26.514C447.701 24.408 449.285 22.896 451.679 22.644V21.114H453.065V22.644C455.333 22.878 456.737 24.3 456.809 26.46H454.577C454.541 25.488 454.001 24.858 453.065 24.66V28.53L453.677 28.674C455.981 29.178 457.025 30.294 457.025 32.202C457.025 34.398 455.477 35.91 453.065 36.18V37.71H451.679ZM451.607 28.206L451.679 28.224V24.642C450.599 24.822 449.951 25.47 449.951 26.442C449.951 27.396 450.455 27.954 451.607 28.206ZM453.191 30.69L453.065 30.654V34.164C454.145 33.948 454.793 33.318 454.793 32.4C454.793 31.482 454.271 30.924 453.191 30.69Z" fill="black"/>
<path d="M457.778 22.842H467.228V24.966L462.458 36H460.064L464.924 24.966H457.778V22.842Z" fill="black"/>
<path d="M469.542 35.208C469.542 36.702 468.462 37.89 467.004 38.07V37.188C467.814 37.044 468.426 36.558 468.426 35.928C468.282 36 468.12 36.036 467.904 36.036C467.202 36.036 466.626 35.514 466.626 34.794C466.626 33.93 467.184 33.354 467.994 33.354C468.894 33.354 469.542 34.092 469.542 35.208Z" fill="black"/>
<path d="M472.429 24.912H469.549V22.842H474.643V36H472.429V24.912Z" fill="black"/>
<path d="M486.063 35.982L476.937 36V34.272L481.239 30.636C483.021 29.124 483.615 28.26 483.615 27C483.615 25.506 482.805 24.66 481.419 24.66C479.979 24.66 479.079 25.668 479.061 27.36H476.775C476.793 24.48 478.629 22.608 481.419 22.608C484.227 22.608 485.973 24.21 485.973 26.874C485.973 28.71 484.965 30.096 482.967 31.806L480.591 33.84H486.063V35.982Z" fill="black"/>
<path d="M487.482 29.448C487.482 25.362 489.678 22.59 493.044 22.59C496.41 22.59 498.624 25.362 498.624 29.448C498.624 33.516 496.536 36.234 493.044 36.234C489.552 36.234 487.482 33.516 487.482 29.448ZM489.75 29.448C489.75 32.49 490.974 34.2 493.044 34.2C495.132 34.2 496.356 32.49 496.356 29.448C496.356 26.334 495.132 24.624 493.044 24.624C490.974 24.624 489.75 26.334 489.75 29.448Z" fill="black"/>
<path d="M502.748 36H500.57V22.608H502.748V30.834L506.204 27.108H508.958L505.574 30.636L508.886 36H506.366L504.044 32.256L502.748 33.606V36Z" fill="black"/>
<path d="M450 73C450 70.2386 452.239 68 455 68C457.761 68 460 70.2386 460 73V197H450V73Z" fill="#AFF2F9"/>
<path d="M526 99.0605C526 96.2991 528.239 94.0605 531 94.0605C533.761 94.0605 536 96.2991 536 99.0605V197H526V99.0605Z" fill="#AFF2F9"/>
<path d="M488 135.546C488 132.784 490.239 130.546 493 130.546C495.761 130.546 498 132.784 498 135.546V197H488V135.546Z" fill="#AFF2F9"/>
<path d="M564 138.151C564 135.39 566.239 133.151 569 133.151C571.761 133.151 574 135.39 574 138.151V197H564V138.151Z" fill="#AFF2F9"/>
<path d="M602 73C602 70.2386 604.239 68 607 68C609.761 68 612 70.2386 612 73V197H602V73Z" fill="#AFF2F9"/>
<path d="M0 15C0 6.71573 6.71573 0 15 0H365C373.284 0 380 6.71573 380 15V196H0V15Z" fill="white"/>
<path d="M38.3197 90.0399V87.3839C33.8717 87.0639 31.0237 84.4719 30.9277 80.5679H35.0237C35.0557 82.3919 36.2397 83.5439 38.3197 83.7999V76.9839L37.2957 76.7599C33.2637 75.8959 31.2477 73.6559 31.2477 70.1359C31.2477 66.3919 34.0637 63.7039 38.3197 63.2559V60.5359H40.7837V63.2559C44.8157 63.6719 47.3117 66.1999 47.4397 70.0399H43.4717C43.4077 68.3119 42.4477 67.1919 40.7837 66.8399V73.7199L41.8717 73.9759C45.9677 74.8719 47.8237 76.8559 47.8237 80.2479C47.8237 84.1519 45.0717 86.8399 40.7837 87.3199V90.0399H38.3197ZM38.1917 73.1439L38.3197 73.1759V66.8079C36.3997 67.1279 35.2477 68.2799 35.2477 70.0079C35.2477 71.7039 36.1437 72.6959 38.1917 73.1439ZM41.0077 77.5599L40.7837 77.4959V83.7359C42.7037 83.3519 43.8557 82.2319 43.8557 80.5999C43.8557 78.9679 42.9277 77.9759 41.0077 77.5599Z" fill="black"/>
<path d="M57.2252 75.4159H54.3772V72.7599L60.3932 67.2239H50.6652V63.6079H65.5132V66.8719L59.8172 72.1199C63.4012 72.8239 66.1852 75.4479 66.1852 79.5759C66.1852 84.3759 62.4412 87.4159 57.7052 87.4159C53.1292 87.4159 49.5772 84.5999 49.5772 79.5439H53.6092C53.6092 82.2319 55.2732 83.7679 57.7692 83.7679C60.3292 83.7679 62.0252 82.1039 62.0252 79.5119C62.0252 77.1439 60.4892 75.4159 57.2252 75.4159Z" fill="black"/>
<path d="M74.1067 85.5919C74.1067 88.2479 72.1867 90.3599 69.5947 90.6799V89.1119C71.0347 88.8559 72.1227 87.9919 72.1227 86.8719C71.8667 86.9999 71.5787 87.0639 71.1947 87.0639C69.9467 87.0639 68.9227 86.1359 68.9227 84.8559C68.9227 83.3199 69.9147 82.2959 71.3547 82.2959C72.9547 82.2959 74.1067 83.6079 74.1067 85.5919Z" fill="black"/>
<path d="M85.1272 87.3839C80.2312 87.3839 76.9992 84.2479 76.9992 79.5119H81.0632C81.0632 82.1679 82.6312 83.7359 85.2232 83.7359C87.9752 83.7359 89.7352 81.9439 89.7352 79.0959C89.7352 76.3759 88.1032 74.5199 85.2872 74.5199C83.4952 74.5199 81.8632 75.4159 81.0312 76.6319L77.4152 75.8639L80.2952 63.6079H92.4872V67.3839H83.2392L81.9912 72.2479C83.1112 71.5119 84.5192 71.0959 86.1192 71.0959C90.7912 71.0959 93.8952 74.2639 93.8952 78.8719C93.8952 83.9279 90.3432 87.3839 85.1272 87.3839Z" fill="black"/>
<path d="M94.88 63.6079H111.68V67.3839L103.2 86.9999H98.944L107.584 67.3839H94.88V63.6079Z" fill="black"/>
<path d="M112.844 75.3519C112.844 68.0879 116.748 63.1599 122.732 63.1599C128.716 63.1599 132.652 68.0879 132.652 75.3519C132.652 82.5839 128.94 87.4159 122.732 87.4159C116.524 87.4159 112.844 82.5839 112.844 75.3519ZM116.876 75.3519C116.876 80.7599 119.052 83.7999 122.732 83.7999C126.444 83.7999 128.62 80.7599 128.62 75.3519C128.62 69.8159 126.444 66.7759 122.732 66.7759C119.052 66.7759 116.876 69.8159 116.876 75.3519Z" fill="black"/>
<path d="M137.515 87.3839C136.107 87.3839 134.923 86.2319 134.923 84.8559C134.923 83.4479 136.107 82.2959 137.515 82.2959C138.923 82.2959 140.107 83.4479 140.107 84.8559C140.107 86.2319 138.923 87.3839 137.515 87.3839Z" fill="black"/>
<path d="M142.407 75.3519C142.407 68.0879 146.311 63.1599 152.295 63.1599C158.279 63.1599 162.215 68.0879 162.215 75.3519C162.215 82.5839 158.503 87.4159 152.295 87.4159C146.087 87.4159 142.407 82.5839 142.407 75.3519ZM146.439 75.3519C146.439 80.7599 148.615 83.7999 152.295 83.7999C156.007 83.7999 158.183 80.7599 158.183 75.3519C158.183 69.8159 156.007 66.7759 152.295 66.7759C148.615 66.7759 146.439 69.8159 146.439 75.3519Z" fill="black"/>
<path d="M164.969 75.3519C164.969 68.0879 168.873 63.1599 174.857 63.1599C180.841 63.1599 184.777 68.0879 184.777 75.3519C184.777 82.5839 181.065 87.4159 174.857 87.4159C168.649 87.4159 164.969 82.5839 164.969 75.3519ZM169.001 75.3519C169.001 80.7599 171.177 83.7999 174.857 83.7999C178.569 83.7999 180.745 80.7599 180.745 75.3519C180.745 69.8159 178.569 66.7759 174.857 66.7759C171.177 66.7759 169.001 69.8159 169.001 75.3519Z" fill="black"/>
<path d="M33.7562 25.496C33.7562 23.264 35.5562 21.752 38.2382 21.752C40.7222 21.752 42.3242 23.138 42.4682 25.388H40.6862C40.5962 24.092 39.6782 23.336 38.2202 23.336C36.5822 23.336 35.5202 24.164 35.5202 25.442C35.5202 26.486 36.1142 27.116 37.3382 27.404L39.4802 27.908C41.6042 28.394 42.6842 29.546 42.6842 31.382C42.6842 33.722 40.8662 35.216 38.0942 35.216C35.4482 35.216 33.6842 33.83 33.5762 31.598H35.3762C35.4122 32.84 36.4562 33.632 38.0942 33.632C39.8222 33.632 40.9202 32.822 40.9202 31.526C40.9202 30.5 40.3622 29.852 39.1202 29.564L36.9782 29.078C34.8542 28.592 33.7562 27.368 33.7562 25.496Z" fill="black" fill-opacity="0.3"/>
<path d="M47.1868 35.216C45.2968 35.216 44.1808 34.154 44.1808 32.552C44.1808 30.932 45.3868 29.924 47.4568 29.762L50.2288 29.546V29.294C50.2288 27.818 49.3468 27.296 48.1588 27.296C46.7368 27.296 45.9268 27.926 45.9268 28.988H44.4508C44.4508 27.152 45.9628 25.946 48.2308 25.946C50.4088 25.946 51.8848 27.098 51.8848 29.474V35H50.4448L50.2648 33.578C49.8148 34.586 48.6088 35.216 47.1868 35.216ZM47.6728 33.902C49.2748 33.902 50.2468 32.858 50.2468 31.202V30.734L47.9968 30.914C46.5028 31.058 45.8908 31.634 45.8908 32.498C45.8908 33.434 46.5748 33.902 47.6728 33.902Z" fill="black" fill-opacity="0.3"/>
<path d="M56.3425 35L52.7965 26.198H54.5965L56.5225 31.112C56.8285 31.94 57.0805 32.678 57.2245 33.218C57.3685 32.642 57.6565 31.886 57.9625 31.112L59.9245 26.198H61.6885L58.0165 35H56.3425Z" fill="black" fill-opacity="0.3"/>
<path d="M63.8627 24.11C63.2507 24.11 62.7467 23.606 62.7467 22.994C62.7467 22.364 63.2507 21.878 63.8627 21.878C64.4747 21.878 64.9787 22.364 64.9787 22.994C64.9787 23.606 64.4747 24.11 63.8627 24.11ZM63.0347 35V26.198H64.7267V35H63.0347Z" fill="black" fill-opacity="0.3"/>
<path d="M68.8752 35H67.1832V26.198H68.7132L68.8932 27.548C69.4512 26.54 70.5672 25.946 71.8092 25.946C74.1312 25.946 75.1932 27.368 75.1932 29.618V35H73.5012V29.996C73.5012 28.214 72.6732 27.494 71.3772 27.494C69.7932 27.494 68.8752 28.628 68.8752 30.338V35Z" fill="black" fill-opacity="0.3"/>
<path d="M76.9787 30.374C76.9787 27.89 78.5807 25.946 81.1367 25.946C82.5587 25.946 83.6567 26.594 84.2147 27.692L84.3407 26.198H85.8527V34.64C85.8527 37.412 84.1427 39.176 81.4427 39.176C79.0487 39.176 77.4107 37.826 77.0867 35.594H78.7787C78.9947 36.89 79.9667 37.646 81.4427 37.646C83.0987 37.646 84.1787 36.566 84.1787 34.892V33.128C83.6027 34.154 82.4507 34.766 81.0647 34.766C78.5627 34.766 76.9787 32.84 76.9787 30.374ZM78.6707 30.338C78.6707 31.994 79.6967 33.29 81.3527 33.29C83.0627 33.29 84.1067 32.066 84.1067 30.338C84.1067 28.646 83.0987 27.422 81.3707 27.422C79.6787 27.422 78.6707 28.718 78.6707 30.338Z" fill="black" fill-opacity="0.3"/>
<path d="M87.5745 32.444H89.1945C89.1945 33.344 89.8785 33.884 90.9945 33.884C92.1825 33.884 92.8665 33.398 92.8665 32.588C92.8665 31.994 92.5785 31.634 91.6605 31.4L90.1125 31.04C88.5465 30.662 87.8085 29.888 87.8085 28.592C87.8085 26.972 89.1765 25.946 91.1205 25.946C93.0465 25.946 94.3065 27.026 94.3425 28.7H92.7225C92.6865 27.818 92.0925 27.26 91.0665 27.26C90.0045 27.26 89.4105 27.728 89.4105 28.538C89.4105 29.132 89.8425 29.528 90.7065 29.744L92.2545 30.122C93.7485 30.482 94.4865 31.166 94.4865 32.48C94.4865 34.154 93.0465 35.216 90.9585 35.216C88.8885 35.216 87.5745 34.118 87.5745 32.444Z" fill="black" fill-opacity="0.3"/>
<path fill-rule="evenodd" clip-rule="evenodd" d="M342 64H280C273.925 64 269 68.9249 269 75C269 81.0751 273.925 86 280 86H342C348.075 86 353 81.0751 353 75C353 68.9249 348.075 64 342 64ZM280 63C273.373 63 268 68.3726 268 75C268 81.6274 273.373 87 280 87H342C348.627 87 354 81.6274 354 75C354 68.3726 348.627 63 342 63H280Z" fill="#D6D6D6"/>
<path d="M285.193 78.9999L282.211 68.9759H283.261L285.291 75.8639C285.431 76.3539 285.557 76.8579 285.683 77.5159C285.851 76.7879 285.991 76.3539 286.145 75.8639L288.329 68.9759H289.379L291.563 75.8639C291.717 76.3679 291.857 76.8719 292.011 77.5159C292.165 76.7459 292.291 76.2559 292.403 75.8779L294.475 68.9759H295.497L292.487 78.9999H291.535L288.847 70.4879L286.159 78.9999H285.193Z" fill="black" fill-opacity="0.5"/>
<path d="M297.184 70.3619C296.792 70.3619 296.47 70.0399 296.47 69.6479C296.47 69.2559 296.792 68.9199 297.184 68.9199C297.576 68.9199 297.912 69.2559 297.912 69.6479C297.912 70.0399 297.576 70.3619 297.184 70.3619ZM296.708 78.9999V72.2239H297.674V78.9999H296.708Z" fill="black" fill-opacity="0.5"/>
<path d="M301.243 78.9999H300.291V73.0359H298.933V72.2239H300.291V70.0819H301.243V72.2239H302.601V73.0359H301.243V78.9999Z" fill="black" fill-opacity="0.5"/>
<path d="M304.825 78.9859H303.859V68.7939H304.825V73.3999C305.259 72.5879 306.085 72.0419 307.219 72.0419C308.997 72.0419 309.795 73.1479 309.795 74.8559V78.9999H308.829V75.0659C308.829 73.4839 308.087 72.9239 307.037 72.9239C305.581 72.9239 304.825 74.0019 304.825 75.3039V78.9859Z" fill="black" fill-opacity="0.5"/>
<path d="M314.38 79.1679C312.406 79.1679 311.244 77.6559 311.244 75.6259C311.244 73.5819 312.406 72.0419 314.422 72.0419C315.542 72.0419 316.438 72.5319 316.914 73.5119V68.7939H317.88V78.9999H317.04L316.942 77.6139C316.466 78.6639 315.514 79.1679 314.38 79.1679ZM314.548 78.2859C316.032 78.2859 316.9 77.1659 316.9 75.5979C316.9 74.0439 316.032 72.9099 314.548 72.9099C313.078 72.9099 312.224 74.0439 312.224 75.5979C312.224 77.1659 313.078 78.2859 314.548 78.2859Z" fill="black" fill-opacity="0.5"/>
<path d="M323.438 72.1399V73.0079H322.906C321.66 73.0079 320.862 73.8479 320.862 75.1359V78.9999H319.896V72.2239H320.806L320.876 73.2739C321.142 72.5459 321.856 72.0699 322.808 72.0699C323.018 72.0699 323.2 72.0839 323.438 72.1399Z" fill="black" fill-opacity="0.5"/>
<path d="M326.394 79.1679C324.952 79.1679 324.098 78.3559 324.098 77.1659C324.098 75.9199 325.05 75.1359 326.632 75.0099L328.872 74.8279V74.6039C328.872 73.2739 328.074 72.8539 327.08 72.8539C325.904 72.8539 325.204 73.3859 325.204 74.2959H324.322C324.322 72.9239 325.442 72.0419 327.108 72.0419C328.676 72.0419 329.824 72.8259 329.824 74.6179V78.9999H329.012L328.886 77.8099C328.466 78.6639 327.542 79.1679 326.394 79.1679ZM326.618 78.3839C328.046 78.3839 328.872 77.3899 328.872 75.9199V75.5559L326.87 75.7099C325.596 75.8219 325.078 76.3819 325.078 77.1379C325.078 77.9639 325.694 78.3839 326.618 78.3839Z" fill="black" fill-opacity="0.5"/>
<path d="M332.986 78.9999L330.746 72.2239H331.74L333.07 76.3119C333.224 76.7599 333.35 77.2219 333.49 77.7679C333.602 77.2219 333.826 76.5359 333.896 76.3119L335.24 72.2239H336.234L337.564 76.3119C337.69 76.6759 337.858 77.2639 337.984 77.7679C338.124 77.2079 338.152 77.0399 338.39 76.3119L339.734 72.2239H340.742L338.446 78.9999H337.508L336.108 74.7439C335.94 74.2399 335.828 73.8199 335.744 73.4139C335.646 73.7779 335.534 74.1839 335.352 74.7439L333.952 78.9999H332.986Z" fill="black" fill-opacity="0.5"/>
<path d="M30 138.5C30 126.074 40.0736 116 52.5 116H331.5C343.926 116 354 126.074 354 138.5C354 150.926 343.926 161 331.5 161H52.5C40.0736 161 30 150.926 30 138.5Z" fill="#F4F4F4"/>
<path d="M54.2757 144H52.5117V130.986H57.4257C60.2157 130.986 61.8717 132.462 61.8717 134.892C61.8717 136.692 60.9717 137.988 59.3517 138.51L61.9977 144H60.0357L57.6057 138.852H54.2757V144ZM54.2757 132.57V137.286H57.4437C59.0817 137.286 60.0177 136.404 60.0177 134.91C60.0177 133.398 59.0457 132.57 57.4257 132.57H54.2757Z" fill="black" fill-opacity="0.4"/>
<path d="M67.1662 144.216C64.5742 144.216 62.7922 142.344 62.7922 139.608C62.7922 136.854 64.5383 134.946 67.0943 134.946C69.5963 134.946 71.2342 136.674 71.2342 139.284V139.914L64.4303 139.932C64.5563 141.786 65.5283 142.812 67.2023 142.812C68.5163 142.812 69.3803 142.272 69.6683 141.264H71.2523C70.8203 143.154 69.3442 144.216 67.1662 144.216ZM67.0943 136.368C65.6183 136.368 64.6823 137.25 64.4663 138.798H69.5423C69.5423 137.34 68.5883 136.368 67.0943 136.368Z" fill="black" fill-opacity="0.4"/>
<path d="M72.5481 139.536C72.5481 136.836 74.1321 134.946 76.6521 134.946C78.0381 134.946 79.2441 135.576 79.8201 136.782L79.9641 135.198H81.4761V147.942H79.8021V142.56C79.2081 143.64 78.0381 144.234 76.6341 144.234C74.0421 144.234 72.5481 142.218 72.5481 139.536ZM74.2581 139.608C74.2581 141.408 75.2661 142.704 76.9941 142.704C78.7221 142.704 79.7841 141.408 79.7841 139.608C79.7841 137.772 78.7221 136.494 76.9941 136.494C75.2661 136.494 74.2581 137.79 74.2581 139.608Z" fill="black" fill-opacity="0.4"/>
<path d="M90.0011 135.198H91.6751V144H90.1631L89.9831 142.668C89.4791 143.586 88.3091 144.216 87.0131 144.216C84.9611 144.216 83.8091 142.83 83.8091 140.67V135.198H85.5011V140.112C85.5011 142.002 86.3111 142.722 87.6071 142.722C89.1551 142.722 90.0011 141.732 90.0011 139.842V135.198Z" fill="black" fill-opacity="0.4"/>
<path d="M97.7522 144.216C95.1602 144.216 93.3782 142.344 93.3782 139.608C93.3782 136.854 95.1242 134.946 97.6802 134.946C100.182 134.946 101.82 136.674 101.82 139.284V139.914L95.0162 139.932C95.1422 141.786 96.1142 142.812 97.7882 142.812C99.1022 142.812 99.9662 142.272 100.254 141.264H101.838C101.406 143.154 99.9302 144.216 97.7522 144.216ZM97.6802 136.368C96.2042 136.368 95.2682 137.25 95.0522 138.798H100.128C100.128 137.34 99.1742 136.368 97.6802 136.368Z" fill="black" fill-opacity="0.4"/>
<path d="M102.99 141.444H104.61C104.61 142.344 105.294 142.884 106.41 142.884C107.598 142.884 108.282 142.398 108.282 141.588C108.282 140.994 107.994 140.634 107.076 140.4L105.528 140.04C103.962 139.662 103.224 138.888 103.224 137.592C103.224 135.972 104.592 134.946 106.536 134.946C108.462 134.946 109.722 136.026 109.758 137.7H108.138C108.102 136.818 107.508 136.26 106.482 136.26C105.42 136.26 104.826 136.728 104.826 137.538C104.826 138.132 105.258 138.528 106.122 138.744L107.67 139.122C109.164 139.482 109.902 140.166 109.902 141.48C109.902 143.154 108.462 144.216 106.374 144.216C104.304 144.216 102.99 143.118 102.99 141.444Z" fill="black" fill-opacity="0.4"/>
<path d="M114.262 144H112.57V136.62H110.842V135.198H112.57V132.444H114.262V135.198H115.99V136.62H114.262V144Z" fill="black" fill-opacity="0.4"/>
<path d="M121.495 135.198H122.791V133.794C122.791 131.634 123.979 130.752 125.581 130.752C125.905 130.752 126.283 130.77 126.625 130.824V132.282H125.869C124.771 132.282 124.483 132.84 124.483 133.794V135.198H126.571V136.62H124.483V144H122.791V136.62H121.495V135.198Z" fill="black" fill-opacity="0.4"/>
<path d="M127.304 139.59C127.304 136.872 129.248 134.964 131.894 134.964C134.522 134.964 136.466 136.872 136.466 139.59C136.466 142.308 134.522 144.216 131.894 144.216C129.248 144.216 127.304 142.308 127.304 139.59ZM129.014 139.59C129.014 141.426 130.184 142.704 131.894 142.704C133.586 142.704 134.774 141.426 134.774 139.59C134.774 137.754 133.586 136.476 131.894 136.476C130.184 136.476 129.014 137.754 129.014 139.59Z" fill="black" fill-opacity="0.4"/>
<path d="M143.379 135.126V136.674H142.623C141.021 136.674 140.031 137.646 140.031 139.338V144H138.339V135.216H139.923L140.031 136.548C140.391 135.63 141.273 135.018 142.479 135.018C142.785 135.018 143.037 135.054 143.379 135.126Z" fill="black" fill-opacity="0.4"/>
<path d="M152.462 144.216C150.572 144.216 149.456 143.154 149.456 141.552C149.456 139.932 150.662 138.924 152.732 138.762L155.504 138.546V138.294C155.504 136.818 154.622 136.296 153.434 136.296C152.012 136.296 151.202 136.926 151.202 137.988H149.726C149.726 136.152 151.238 134.946 153.506 134.946C155.684 134.946 157.16 136.098 157.16 138.474V144H155.72L155.54 142.578C155.09 143.586 153.884 144.216 152.462 144.216ZM152.948 142.902C154.55 142.902 155.522 141.858 155.522 140.202V139.734L153.272 139.914C151.778 140.058 151.166 140.634 151.166 141.498C151.166 142.434 151.85 142.902 152.948 142.902Z" fill="black" fill-opacity="0.4"/>
<path d="M166.153 144H164.461V130.752H166.153V144Z" fill="black" fill-opacity="0.4"/>
<path d="M168.068 139.59C168.068 136.872 170.012 134.964 172.658 134.964C175.286 134.964 177.23 136.872 177.23 139.59C177.23 142.308 175.286 144.216 172.658 144.216C170.012 144.216 168.068 142.308 168.068 139.59ZM169.778 139.59C169.778 141.426 170.948 142.704 172.658 142.704C174.35 142.704 175.538 141.426 175.538 139.59C175.538 137.754 174.35 136.476 172.658 136.476C170.948 136.476 169.778 137.754 169.778 139.59Z" fill="black" fill-opacity="0.4"/>
<path d="M181.677 144.216C179.787 144.216 178.671 143.154 178.671 141.552C178.671 139.932 179.877 138.924 181.947 138.762L184.719 138.546V138.294C184.719 136.818 183.837 136.296 182.649 136.296C181.227 136.296 180.417 136.926 180.417 137.988H178.941C178.941 136.152 180.453 134.946 182.721 134.946C184.899 134.946 186.375 136.098 186.375 138.474V144H184.935L184.755 142.578C184.305 143.586 183.099 144.216 181.677 144.216ZM182.163 142.902C183.765 142.902 184.737 141.858 184.737 140.202V139.734L182.487 139.914C180.993 140.058 180.381 140.634 180.381 141.498C180.381 142.434 181.065 142.902 182.163 142.902Z" fill="black" fill-opacity="0.4"/>
<path d="M190.41 144H188.718V135.198H190.248L190.428 136.548C190.986 135.54 192.102 134.946 193.344 134.946C195.666 134.946 196.728 136.368 196.728 138.618V144H195.036V138.996C195.036 137.214 194.208 136.494 192.912 136.494C191.328 136.494 190.41 137.628 190.41 139.338V144Z" fill="black" fill-opacity="0.4"/>
<path fill-rule="evenodd" clip-rule="evenodd" d="M315.75 138.446C315.75 138.032 316.086 137.696 316.5 137.696H339.353C339.767 137.696 340.103 138.032 340.103 138.446C340.103 138.861 339.767 139.196 339.353 139.196H316.5C316.086 139.196 315.75 138.861 315.75 138.446Z" fill="black"/>
<path fill-rule="evenodd" clip-rule="evenodd" d="M333.853 133.006C334.129 132.697 334.604 132.67 334.912 132.947L341.096 138.479L334.938 144.539C334.643 144.83 334.168 144.826 333.878 144.531C333.587 144.235 333.591 143.76 333.886 143.47L338.904 138.531L333.912 134.065C333.603 133.788 333.577 133.314 333.853 133.006Z" fill="black"/>
</svg>
