<svg width="386" height="251" viewBox="0 0 386 251" fill="none" xmlns="http://www.w3.org/2000/svg">
<rect width="386" height="250.701" rx="19" fill="#29594B"/>
<mask id="mask0_1109_20338" style="mask-type:alpha" maskUnits="userSpaceOnUse" x="0" y="0" width="386" height="251">
<rect width="386" height="250.701" rx="19" fill="black"/>
</mask>
<g mask="url(#mask0_1109_20338)">
<g filter="url(#filter0_f_1109_20338)">
<path fill-rule="evenodd" clip-rule="evenodd" d="M-201.771 82.0947C-223.403 125.804 -266.203 168.817 -245.079 216.265C-224.043 263.513 -157.693 270.723 -107.938 292.858C-60.623 313.907 -13.9072 353.146 33.5228 340.206C81.2604 327.182 100.473 276.846 114.069 232.289C125.713 194.131 117.001 154.162 102.33 114.713C86.7369 72.7844 69.0187 29.9373 29.257 4.236C-16.3306 -25.2311 -74.1962 -47.1898 -122.803 -30.8089C-170.511 -14.7307 -180.653 39.4231 -201.771 82.0947Z" fill="url(#paint0_linear_1109_20338)"/>
</g>
<g style="mix-blend-mode:screen" filter="url(#filter1_f_1109_20338)">
<path fill-rule="evenodd" clip-rule="evenodd" d="M67.5786 143.609C-2.23486 172.511 -61.4188 221.205 -95.0258 288.664C-129.96 358.786 -146.853 441.277 -116.581 513.269C-87.0505 583.497 -16.3901 626.481 56.5921 649.236C121.292 669.409 189.999 657.085 251.374 627.992C307.474 601.399 349.184 554.746 374.821 498.388C400.501 441.938 404.639 380.873 391.257 320.494C375.05 247.374 358.622 164.125 292.757 128.131C224.318 90.7299 139.882 113.678 67.5786 143.609Z" fill="url(#paint1_linear_1109_20338)"/>
</g>
<g style="mix-blend-mode:lighten" filter="url(#filter2_f_1109_20338)">
<path fill-rule="evenodd" clip-rule="evenodd" d="M452.79 164.785C485.766 168.26 519.399 173.556 542.695 195.74C565.849 217.79 568.757 249.566 573.931 280.145C580.666 319.951 605.473 366.557 576.653 396.43C547.748 426.392 495.72 408.827 452.79 405.715C414.907 402.969 374.77 403.785 346.682 379.762C317.571 354.863 307.152 317.101 305.977 280.145C304.759 241.869 308.871 198.974 340.15 174.396C370.205 150.78 413.842 160.681 452.79 164.785Z" fill="url(#paint2_linear_1109_20338)"/>
</g>
<g filter="url(#filter3_bii_1109_20338)">
<rect width="386" height="250.701" rx="19" fill="url(#paint3_linear_1109_20338)" fill-opacity="0.04"/>
<rect x="0.4" y="0.4" width="385.2" height="249.901" rx="18.6" stroke="url(#paint4_linear_1109_20338)" stroke-width="0.8"/>
</g>
</g>
<g style="mix-blend-mode:luminosity" opacity="0.7">
<path d="M45.0389 143.234L32.9336 143.258V140.965L38.6401 136.142C41.0038 134.137 41.7917 132.991 41.7917 131.319C41.7917 129.338 40.7173 128.216 38.8788 128.216C36.9687 128.216 35.7749 129.553 35.751 131.797H32.7188C32.7426 127.977 35.178 125.494 38.8788 125.494C42.6035 125.494 44.9195 127.619 44.9195 131.152C44.9195 133.588 43.5825 135.426 40.9322 137.694L37.7805 140.392H45.0389V143.234Z" fill="#151515"/>
<path d="M54.2322 134.614H52.1072V132.633L56.5959 128.502H49.3375V125.804H60.4161V128.239L56.1661 132.155C58.8403 132.68 60.9175 134.638 60.9175 137.718C60.9175 141.3 58.124 143.568 54.5903 143.568C51.176 143.568 48.5257 141.467 48.5257 137.694H51.5341C51.5341 139.7 52.7757 140.846 54.6381 140.846C56.5482 140.846 57.8136 139.605 57.8136 137.671C57.8136 135.904 56.6675 134.614 54.2322 134.614Z" fill="#151515"/>
<path d="M64.6343 138.315C64.6343 136.238 65.8043 134.567 67.6189 133.874C66.0908 133.182 65.2551 131.869 65.2551 130.173C65.2551 127.404 67.7144 125.494 71.3197 125.494C74.9011 125.494 77.3126 127.38 77.3126 130.221C77.3126 131.916 76.4531 133.23 74.9011 133.874C76.7396 134.519 77.9334 136.214 77.9334 138.315C77.9334 141.467 75.3309 143.544 71.2719 143.544C67.2368 143.544 64.6343 141.491 64.6343 138.315ZM68.0248 130.436C68.0248 131.893 69.2902 132.824 71.2719 132.824C73.2298 132.824 74.4714 131.916 74.4714 130.46C74.4714 129.003 73.2298 128.096 71.2719 128.096C69.2902 128.096 68.0248 129.003 68.0248 130.436ZM67.6189 138.1C67.6189 139.796 69.0276 140.846 71.2958 140.846C73.5163 140.846 74.925 139.796 74.925 138.1C74.925 136.405 73.5163 135.355 71.2719 135.355C69.0276 135.355 67.6189 136.405 67.6189 138.1Z" fill="#151515"/>
<path d="M84.4268 130.937L88.1992 125.804H91.6852L87.5068 131.367C87.9366 131.248 88.3902 131.176 88.82 131.176C92.4253 131.176 94.8607 133.707 94.8607 137.241C94.8607 140.965 92.0911 143.568 88.3664 143.568C84.5939 143.568 81.7765 140.798 81.7765 137.217C81.7765 135.116 82.4689 133.588 84.4268 130.937ZM84.9043 137.241C84.9043 139.366 86.313 140.846 88.3664 140.846C90.3481 140.846 91.7807 139.366 91.7807 137.241C91.7807 135.14 90.372 133.683 88.3664 133.683C86.2891 133.683 84.9043 135.14 84.9043 137.241Z" fill="#151515"/>
<path d="M106.305 125.804H118.84V128.621L112.513 143.258H109.337L115.784 128.621H106.305V125.804Z" fill="#151515"/>
<path d="M134.109 143.234L122.003 143.258V140.965L127.71 136.142C130.074 134.137 130.861 132.991 130.861 131.319C130.861 129.338 129.787 128.216 127.949 128.216C126.038 128.216 124.845 129.553 124.821 131.797H121.788C121.812 127.977 124.248 125.494 127.949 125.494C131.673 125.494 133.989 127.619 133.989 131.152C133.989 133.588 132.652 135.426 130.002 137.694L126.85 140.392H134.109V143.234Z" fill="#151515"/>
<path d="M141.75 128.55H137.93V125.804H144.687V143.258H141.75V128.55Z" fill="#151515"/>
<path d="M149.648 134.567C149.648 129.147 152.56 125.47 157.025 125.47C161.49 125.47 164.427 129.147 164.427 134.567C164.427 139.963 161.657 143.568 157.025 143.568C152.393 143.568 149.648 139.963 149.648 134.567ZM152.656 134.567C152.656 138.602 154.28 140.87 157.025 140.87C159.795 140.87 161.419 138.602 161.419 134.567C161.419 130.436 159.795 128.168 157.025 128.168C154.28 128.168 152.656 130.436 152.656 134.567Z" fill="#151515"/>
<path d="M176.897 134.567C176.897 129.147 179.81 125.47 184.275 125.47C188.74 125.47 191.676 129.147 191.676 134.567C191.676 139.963 188.907 143.568 184.275 143.568C179.643 143.568 176.897 139.963 176.897 134.567ZM179.905 134.567C179.905 138.602 181.529 140.87 184.275 140.87C187.044 140.87 188.668 138.602 188.668 134.567C188.668 130.436 187.044 128.168 184.275 128.168C181.529 128.168 179.905 130.436 179.905 134.567Z" fill="#151515"/>
<path d="M205.988 138.124L202.216 143.258H198.73L202.908 137.694C202.478 137.814 202.025 137.885 201.595 137.885C197.99 137.885 195.554 135.355 195.554 131.821C195.554 128.096 198.324 125.494 202.049 125.494C205.821 125.494 208.638 128.263 208.638 131.845C208.638 133.946 207.946 135.474 205.988 138.124ZM205.511 131.821C205.511 129.696 204.102 128.216 202.049 128.216C200.043 128.216 198.634 129.696 198.634 131.821C198.634 133.922 200.043 135.378 202.049 135.378C204.126 135.378 205.511 133.922 205.511 131.821Z" fill="#151515"/>
<path d="M225.518 139.939H223.393V143.258H220.504V139.939H211.646V137.265L219.549 125.804H223.393V137.265H225.518V139.939ZM214.893 137.265H220.504V129.099L214.893 137.265Z" fill="#151515"/>
<path d="M229.429 134.567C229.429 129.147 232.342 125.47 236.807 125.47C241.272 125.47 244.209 129.147 244.209 134.567C244.209 139.963 241.439 143.568 236.807 143.568C232.175 143.568 229.429 139.963 229.429 134.567ZM232.438 134.567C232.438 138.602 234.061 140.87 236.807 140.87C239.577 140.87 241.2 138.602 241.2 134.567C241.2 130.436 239.577 128.168 236.807 128.168C234.061 128.168 232.438 130.436 232.438 134.567Z" fill="#151515"/>
<path d="M261.836 134.614H259.711V132.633L264.2 128.502H256.942V125.804H268.02V128.239L263.77 132.155C266.444 132.68 268.522 134.638 268.522 137.718C268.522 141.3 265.728 143.568 262.194 143.568C258.78 143.568 256.13 141.467 256.13 137.694H259.138C259.138 139.7 260.38 140.846 262.242 140.846C264.152 140.846 265.418 139.605 265.418 137.671C265.418 135.904 264.272 134.614 261.836 134.614Z" fill="#151515"/>
<path d="M284.136 143.234L272.031 143.258V140.965L277.737 136.142C280.101 134.137 280.889 132.991 280.889 131.319C280.889 129.338 279.814 128.216 277.976 128.216C276.066 128.216 274.872 129.553 274.848 131.797H271.816C271.84 127.977 274.275 125.494 277.976 125.494C281.701 125.494 284.017 127.619 284.017 131.152C284.017 133.588 282.68 135.426 280.029 137.694L276.878 140.392H284.136V143.234Z" fill="#151515"/>
<path d="M291.777 128.55H287.957V125.804H294.714V143.258H291.777V128.55Z" fill="#151515"/>
<path d="M299.675 134.567C299.675 129.147 302.588 125.47 307.053 125.47C311.517 125.47 314.454 129.147 314.454 134.567C314.454 139.963 311.685 143.568 307.053 143.568C302.421 143.568 299.675 139.963 299.675 134.567ZM302.683 134.567C302.683 138.602 304.307 140.87 307.053 140.87C309.822 140.87 311.446 138.602 311.446 134.567C311.446 130.436 309.822 128.168 307.053 128.168C304.307 128.168 302.683 130.436 302.683 134.567Z" fill="#151515"/>
<path d="M35.0984 102.469H33.0689L38.3217 88.0835H40.4905L45.7632 102.469H43.7138L42.4205 98.8875H36.3718L35.0984 102.469ZM39.1574 91.1874L36.9687 97.1963H41.8435L39.6349 91.1874C39.5354 90.9089 39.4359 90.5706 39.3962 90.3517C39.3564 90.5507 39.2569 90.889 39.1574 91.1874Z" fill="black"/>
<path d="M49.2274 102.469H47.3571V92.7394H49.0483L49.2473 94.2316C49.8641 93.1174 51.0977 92.4608 52.4706 92.4608C55.0373 92.4608 56.2112 94.0327 56.2112 96.5198V102.469H54.3409V96.9376C54.3409 94.9678 53.4256 94.1719 51.9931 94.1719C50.2421 94.1719 49.2274 95.4255 49.2274 97.3157V102.469Z" fill="black"/>
<path d="M61.647 102.708C59.5578 102.708 58.3242 101.534 58.3242 99.763C58.3242 97.9723 59.6573 96.858 61.9454 96.679L65.0095 96.4402V96.1616C65.0095 94.5301 64.0346 93.9531 62.7214 93.9531C61.1495 93.9531 60.2542 94.6495 60.2542 95.8234H58.6226C58.6226 93.7939 60.294 92.4608 62.801 92.4608C65.2085 92.4608 66.84 93.7342 66.84 96.3606V102.469H65.2483L65.0493 100.897C64.5519 102.011 63.2188 102.708 61.647 102.708ZM62.1842 101.255C63.955 101.255 65.0294 100.101 65.0294 98.2707V97.7534L62.5423 97.9524C60.8909 98.1115 60.2144 98.7482 60.2144 99.7033C60.2144 100.738 60.9705 101.255 62.1842 101.255Z" fill="black"/>
<path d="M71.2279 102.469L68.0444 92.7394H69.9744L71.5861 97.7932C71.8049 98.5095 72.0039 99.2457 72.183 100.101C72.3422 99.2457 72.6008 98.4299 72.8197 97.7932L74.4512 92.7394H76.3613L77.973 97.7932C78.1322 98.2707 78.4505 99.4048 78.6097 100.101C78.7689 99.3252 78.9479 98.6488 79.2265 97.7932L80.858 92.7394H82.8079L79.4852 102.469H77.7143L76.0231 97.256C75.7047 96.281 75.5058 95.5249 75.4063 94.9877C75.3068 95.4652 75.1277 96.1019 74.7696 97.2759L73.0784 102.469H71.2279Z" fill="black"/>
<path d="M86.8095 102.708C84.7204 102.708 83.4868 101.534 83.4868 99.763C83.4868 97.9723 84.8199 96.858 87.108 96.679L90.1721 96.4402V96.1616C90.1721 94.5301 89.1972 93.9531 87.884 93.9531C86.3121 93.9531 85.4168 94.6495 85.4168 95.8234H83.7852C83.7852 93.7939 85.4566 92.4608 87.9636 92.4608C90.3711 92.4608 92.0026 93.7342 92.0026 96.3606V102.469H90.4109L90.2119 100.897C89.7145 102.011 88.3814 102.708 86.8095 102.708ZM87.3468 101.255C89.1176 101.255 90.192 100.101 90.192 98.2707V97.7534L87.7049 97.9524C86.0535 98.1115 85.377 98.7482 85.377 99.7033C85.377 100.738 86.1331 101.255 87.3468 101.255Z" fill="black"/>
<path d="M100.164 92.6598V94.3709H99.3283C97.5575 94.3709 96.4631 95.4453 96.4631 97.3157V102.469H94.5928V92.7593H96.3437L96.4631 94.2316C96.8611 93.2169 97.836 92.5404 99.1691 92.5404C99.5073 92.5404 99.7859 92.5802 100.164 92.6598Z" fill="black"/>
<path d="M109.587 102.469H107.677V88.0835H109.587L114.541 100.181L119.496 88.0835H121.446V102.469H119.536V96.7784C119.536 94.0924 119.556 93.1174 119.655 92.1027L115.457 102.469H113.626L109.448 92.1425C109.547 92.8389 109.587 94.3112 109.587 96.3208V102.469Z" fill="black"/>
<path d="M125.392 90.4313C124.716 90.4313 124.159 89.8742 124.159 89.1977C124.159 88.5013 124.716 87.9641 125.392 87.9641C126.069 87.9641 126.626 88.5013 126.626 89.1977C126.626 89.8742 126.069 90.4313 125.392 90.4313ZM124.477 102.469V92.7394H126.347V102.469H124.477Z" fill="black"/>
<path d="M131.908 102.708C129.819 102.708 128.585 101.534 128.585 99.763C128.585 97.9723 129.918 96.858 132.206 96.679L135.27 96.4402V96.1616C135.27 94.5301 134.296 93.9531 132.982 93.9531C131.41 93.9531 130.515 94.6495 130.515 95.8234H128.884C128.884 93.7939 130.555 92.4608 133.062 92.4608C135.469 92.4608 137.101 93.7342 137.101 96.3606V102.469H135.509L135.31 100.897C134.813 102.011 133.48 102.708 131.908 102.708ZM132.445 101.255C134.216 101.255 135.29 100.101 135.29 98.2707V97.7534L132.803 97.9524C131.152 98.1115 130.475 98.7482 130.475 99.7033C130.475 100.738 131.231 101.255 132.445 101.255Z" fill="black"/>
<path d="M141.084 102.708C140.308 102.708 139.651 102.071 139.651 101.315C139.651 100.539 140.308 99.9023 141.084 99.9023C141.84 99.9023 142.497 100.539 142.497 101.315C142.497 102.071 141.84 102.708 141.084 102.708Z" fill="black"/>
</g>
<path fill-rule="evenodd" clip-rule="evenodd" d="M353.999 27.0515L351.203 23.2008L351.195 23.2061L350.408 22.1451C350.381 22.1083 350.347 22.077 350.308 22.0529C350.268 22.0288 350.224 22.0125 350.178 22.0049C350.132 21.9973 350.084 21.9985 350.039 22.0086C349.993 22.0186 349.95 22.0371 349.912 22.0632L348.03 23.3348C345.633 24.9714 344.133 26.4822 343.165 28.2133C342.71 29.0268 342.371 29.8893 342.137 30.8475L341.612 30.5453C341.295 29.8126 341.112 29.0141 341.043 28.1595L340.867 25.9292C340.859 25.8371 340.816 25.7526 340.746 25.6941C340.676 25.6356 340.585 25.6077 340.494 25.6165L335.752 26.1063L335.753 26.1155L334.438 26.265C334.392 26.2697 334.348 26.2835 334.308 26.3056C334.267 26.3277 334.231 26.3577 334.201 26.3938C334.171 26.4299 334.149 26.4714 334.135 26.5158C334.12 26.5603 334.115 26.6069 334.119 26.6528L334.282 28.9143C334.505 31.8023 335.066 33.8534 336.085 35.5555C336.564 36.3547 337.143 37.0784 337.858 37.76L337.332 38.0629C336.538 37.9702 335.754 37.7288 334.977 37.3619L332.953 36.3982C332.869 36.3592 332.774 36.3548 332.688 36.3859C332.602 36.4171 332.533 36.4814 332.495 36.5648L330.549 40.9053L330.558 40.9092L330.03 42.1197C330.011 42.1612 330.001 42.2064 330 42.2525C329.999 42.2987 330.007 42.345 330.023 42.3887C330.04 42.4324 330.065 42.4726 330.096 42.5071C330.128 42.5415 330.165 42.5695 330.207 42.5894L332.252 43.5794C334.871 44.8307 336.933 45.371 338.921 45.3421C339.854 45.328 340.773 45.1894 341.722 44.913V45.5204C341.244 46.1595 340.643 46.7158 339.937 47.2026L338.088 48.4693C338.012 48.5223 337.96 48.6023 337.944 48.692C337.929 48.7817 337.95 48.8738 338.003 48.9485L340.799 52.7992L340.807 52.7939L341.594 53.8549C341.621 53.8917 341.655 53.923 341.694 53.9471C341.734 53.9712 341.778 53.9875 341.824 53.9951C341.87 54.0027 341.918 54.0015 341.963 53.9914C342.009 53.9814 342.052 53.9629 342.09 53.9368L343.973 52.6652C346.369 51.0286 347.869 49.5178 348.837 47.7867C349.292 46.9732 349.631 46.1107 349.865 45.1525L350.388 45.4534C350.705 46.1862 350.888 46.9847 350.957 47.8393L351.133 50.0696C351.141 50.1617 351.184 50.2461 351.254 50.3047C351.324 50.3632 351.415 50.391 351.506 50.3822L356.248 49.8924L356.247 49.8833L357.562 49.7338C357.608 49.7291 357.652 49.7153 357.692 49.6931C357.733 49.671 357.769 49.6411 357.799 49.605C357.829 49.5689 357.851 49.5274 357.865 49.4829C357.88 49.4385 357.885 49.3919 357.881 49.346L357.718 47.0844C357.495 44.1964 356.934 42.1454 355.915 40.4432C355.436 39.6441 354.857 38.9204 354.142 38.2388L354.668 37.9358C355.462 38.0286 356.246 38.2699 357.023 38.6369L359.047 39.6005C359.131 39.6396 359.226 39.644 359.312 39.6128C359.398 39.5816 359.467 39.5174 359.505 39.4339L361.451 35.0935L361.442 35.0895L361.97 33.879C361.989 33.8375 361.999 33.7924 362 33.7462C362.001 33.7 361.993 33.6538 361.977 33.61C361.96 33.5663 361.935 33.5261 361.904 33.4917C361.872 33.4572 361.835 33.4292 361.793 33.4094L359.748 32.4194C357.129 31.168 355.067 30.6277 353.079 30.6567C352.146 30.6707 351.229 30.8092 350.28 31.0852V30.4796C350.758 29.8405 351.359 29.2842 352.066 28.7974L353.915 27.5307C353.99 27.4777 354.042 27.3977 354.058 27.308C354.074 27.2183 354.052 27.1262 353.999 27.0515ZM344.815 32.7009C345.054 31.9708 345.322 31.2548 345.392 31.1145C345.415 31.0675 345.454 30.977 345.497 30.8783C345.581 30.682 345.679 30.4536 345.698 30.4723C345.707 30.482 345.714 30.6041 345.724 30.7845C345.743 31.1215 345.774 31.6619 345.856 32.0551C345.983 32.6588 346.251 33.4169 346.448 33.7257C347.348 35.1577 348.911 36.2106 351.431 37.0951C351.794 37.2232 352.33 37.3506 352.774 37.4561C353.205 37.5588 353.549 37.6407 353.563 37.6822C353.589 37.773 352.684 37.8779 352.169 37.9376C352.126 37.9426 352.086 37.9472 352.05 37.9515C349.558 38.2463 347.926 40.1837 346.56 44.4516C346.538 44.5227 346.513 44.6041 346.487 44.6902C346.363 45.0968 346.208 45.6055 346.161 45.6055C346.129 45.6055 346.094 45.3374 346.052 45.0131C346.02 44.7664 345.983 44.4874 345.941 44.269C345.702 42.9213 345.279 42.1491 344.308 41.1945C343.338 40.2515 341.951 39.8089 339.544 39.0407C339.156 38.9168 338.742 38.7845 338.298 38.6402C337.974 38.542 338.818 38.3025 339.818 38.0919C340.986 37.8392 341.971 37.3197 342.675 36.5616C343.478 35.6912 344.308 34.189 344.815 32.7009Z" fill="url(#paint5_linear_1109_20338)"/>
<path d="M48.2403 23.166V39.4565H51.3808V23.166H48.2403Z" fill="white"/>
<path d="M53.7555 23.166V39.4565H56.8961V23.166H53.7555Z" fill="white"/>
<path fill-rule="evenodd" clip-rule="evenodd" d="M58.9044 34.1135C58.9044 33.21 59.1436 32.3354 59.6221 31.4899C60.1005 30.6445 60.7765 29.999 61.6502 29.5537C62.5307 29.1084 63.5118 28.8857 64.5935 28.8857C66.2645 28.8857 67.6339 29.3924 68.7017 30.4057C69.7695 31.4125 70.3033 32.6872 70.3033 34.2297C70.3033 35.7852 69.7625 37.076 68.6809 38.1022C67.6062 39.1219 66.2506 39.6318 64.6143 39.6318C63.602 39.6318 62.6347 39.4188 61.7126 38.9929C60.7973 38.5669 60.1005 37.9441 59.6221 37.1244C59.1436 36.2983 58.9044 35.2947 58.9044 34.1135ZM61.8353 34.2588C61.8353 35.2785 62.1702 35.769 62.6902 36.3112C63.2102 36.8533 63.8516 37.1244 64.6143 37.1244C65.377 37.1244 66.0149 36.8533 66.528 36.3112C67.048 35.769 67.3874 35.2914 67.3874 34.2588C67.3874 33.2519 67.0272 32.7083 66.5072 32.1661C65.9941 31.624 65.3562 31.3529 64.5935 31.3529C63.8308 31.3529 63.1894 31.624 62.6694 32.1661C62.1494 32.7083 61.8353 33.239 61.8353 34.2588Z" fill="white"/>
<path d="M74.8363 39.4565L70.9399 28.8857H74.1057L76.4134 35.8134L78.5355 28.8857H81.6781L83.7307 35.8134L86.0847 28.8857H89.2969L85.3426 39.4565H82.2115L80.0894 32.6581L78.0021 39.4565H74.8363Z" fill="white"/>
<path fill-rule="evenodd" clip-rule="evenodd" d="M43.7704 36.1607L45.7274 37.7093C45.7005 37.7412 45.6746 37.7717 45.6498 37.801C45.316 38.1955 45.1694 38.3688 44.9993 38.5148C44.866 38.6291 44.7183 38.7266 44.4549 38.9005C44.3981 38.938 44.3359 38.9791 44.2673 39.0246C43.4516 39.5642 42.4285 39.834 41.1979 39.834C39.2501 39.834 37.8086 39.2236 36.8734 38.0027C36.135 37.0247 35.7659 35.7904 35.7659 34.2997C35.7659 32.5191 36.2511 31.1262 37.2215 30.1212C38.1918 29.1095 39.4189 28.6036 40.9026 28.6036C42.5691 28.6036 43.8841 29.1331 44.8474 30.192C45.8108 31.2442 46.2714 32.8597 46.2292 35.0383H38.8036C38.8247 35.8814 39.0638 36.5391 39.5209 37.0112C39.9779 37.4766 40.74 37.7093 41.422 37.7093C41.8861 37.7093 42.586 37.3478 42.9024 37.1049C43.2188 36.8621 43.4008 36.6608 43.7704 36.1607ZM43.2864 33.2981C43.2653 32.4752 43.0438 31.8513 42.6219 31.4264C42.2 30.9947 41.6866 30.7788 41.0819 30.7788C40.435 30.7788 39.9006 31.0048 39.4787 31.4567C39.0568 31.9086 38.8493 32.5224 38.8563 33.2981H43.2864Z" fill="white"/>
<path d="M28.3672 33.0639V39.4565H31.4788V33.0846L37.164 24.2676H33.5672L30.0021 30.2768L26.3632 24.2676H22.7031L28.3672 33.0639Z" fill="white"/>
<g style="mix-blend-mode:luminosity" opacity="0.6">
<path d="M38.0947 220.104V214.37C38.0576 213.016 37.4237 212.326 36.1929 212.301C34.9559 212.326 34.325 213.016 34.3003 214.37V220.104C34.325 221.47 34.9559 222.16 36.1929 222.172C37.4237 222.16 38.0576 221.47 38.0947 220.104ZM32.3613 220.215V214.25C32.3737 213 32.7726 212.038 33.5581 211.364C34.2941 210.696 35.1724 210.362 36.1929 210.362C37.2443 210.362 38.138 210.696 38.874 211.364C39.6224 212.038 40.009 213 40.0337 214.25V220.215C40.009 221.458 39.6224 222.417 38.874 223.091C38.138 223.759 37.2443 224.099 36.1929 224.111C35.1724 224.099 34.2941 223.759 33.5581 223.091C32.7726 222.417 32.3737 221.458 32.3613 220.215Z" fill="black"/>
<path d="M44.4864 217.886V216.17H45.1544C45.8162 216.17 46.3295 215.987 46.6945 215.623C47.0594 215.27 47.2418 214.812 47.2418 214.25C47.2294 213.681 47.0408 213.214 46.6759 212.849C46.311 212.496 45.8409 212.314 45.2657 212.301C44.8514 212.301 44.4741 212.434 44.1339 212.7C43.7752 212.966 43.534 213.377 43.4103 213.934H41.4713C41.5703 212.932 41.9754 212.088 42.6866 211.401C43.3855 210.721 44.2205 210.375 45.1915 210.362C46.4223 210.375 47.3995 210.767 48.1232 211.541C48.8159 212.295 49.1684 213.186 49.1808 214.212C49.1808 214.732 49.088 215.233 48.9025 215.715C48.686 216.198 48.2994 216.628 47.7428 217.005C48.3118 217.376 48.7231 217.821 48.9767 218.341C49.2179 218.86 49.3385 219.405 49.3385 219.974C49.3261 221.242 48.9334 222.24 48.1603 222.97C47.3995 223.719 46.4223 224.099 45.2286 224.111C44.3071 224.111 43.4907 223.814 42.7794 223.221C42.0682 222.627 41.6074 221.767 41.3971 220.642H43.3361C43.5092 221.093 43.7535 221.458 44.069 221.736C44.3906 222.027 44.8173 222.172 45.3492 222.172C45.9182 222.172 46.3976 221.978 46.7872 221.588C47.1831 221.223 47.3872 220.703 47.3995 220.029C47.3872 219.343 47.1831 218.811 46.7872 218.434C46.3976 218.069 45.9028 217.886 45.3029 217.886H44.4864Z" fill="black"/>
<path d="M50.8039 224.111L55.3498 210.362H56.8342L52.2883 224.111H50.8039Z" fill="black"/>
<path d="M57.975 224V222.172L63.2538 215.567C63.4579 215.301 63.597 215.054 63.6712 214.825C63.7207 214.608 63.7455 214.404 63.7455 214.212C63.7455 213.705 63.5878 213.263 63.2723 212.886C62.9445 212.508 62.4807 212.314 61.8807 212.301C61.3488 212.301 60.9066 212.471 60.5541 212.812C60.1892 213.152 59.9727 213.631 59.9046 214.25H57.975C58.0244 213.124 58.4017 212.193 59.1068 211.457C59.8181 210.74 60.6932 210.375 61.7323 210.362C62.895 210.375 63.8382 210.746 64.5619 211.476C65.2979 212.199 65.6721 213.118 65.6844 214.231C65.6844 215.122 65.4123 215.913 64.868 216.606L60.517 222.061H65.6844V224H57.975Z" fill="black"/>
<path d="M67.8364 214.37V210.474H75.5366V212.413L70.9536 224H68.792L73.3657 212.413H69.7754V214.37H67.8364Z" fill="black"/>
</g>
<ellipse cx="348.1" cy="213" rx="14" ry="14" fill="#F79E1B"/>
<ellipse cx="332" cy="213" rx="14" ry="14" fill="#EB001B"/>
<path d="M340.05 224.456C343.648 221.922 346 217.736 346 213C346 208.264 343.648 204.078 340.05 201.544C336.451 204.078 334.1 208.264 334.1 213C334.1 217.736 336.451 221.922 340.05 224.456Z" fill="#FF5F00"/>
<defs>
<filter id="filter0_f_1109_20338" x="-290.781" y="-76.4058" width="450.246" height="459.173" filterUnits="userSpaceOnUse" color-interpolation-filters="sRGB">
<feFlood flood-opacity="0" result="BackgroundImageFix"/>
<feBlend mode="normal" in="SourceGraphic" in2="BackgroundImageFix" result="shape"/>
<feGaussianBlur stdDeviation="20" result="effect1_foregroundBlur_1109_20338"/>
</filter>
<filter id="filter1_f_1109_20338" x="-172.297" y="68.6978" width="611.01" height="630.463" filterUnits="userSpaceOnUse" color-interpolation-filters="sRGB">
<feFlood flood-opacity="0" result="BackgroundImageFix"/>
<feBlend mode="normal" in="SourceGraphic" in2="BackgroundImageFix" result="shape"/>
<feGaussianBlur stdDeviation="20" result="effect1_foregroundBlur_1109_20338"/>
</filter>
<filter id="filter2_f_1109_20338" x="265.793" y="119.195" width="364.486" height="334.461" filterUnits="userSpaceOnUse" color-interpolation-filters="sRGB">
<feFlood flood-opacity="0" result="BackgroundImageFix"/>
<feBlend mode="normal" in="SourceGraphic" in2="BackgroundImageFix" result="shape"/>
<feGaussianBlur stdDeviation="20" result="effect1_foregroundBlur_1109_20338"/>
</filter>
<filter id="filter3_bii_1109_20338" x="-16" y="-16" width="418" height="282.701" filterUnits="userSpaceOnUse" color-interpolation-filters="sRGB">
<feFlood flood-opacity="0" result="BackgroundImageFix"/>
<feGaussianBlur in="BackgroundImageFix" stdDeviation="8"/>
<feComposite in2="SourceAlpha" operator="in" result="effect1_backgroundBlur_1109_20338"/>
<feBlend mode="normal" in="SourceGraphic" in2="effect1_backgroundBlur_1109_20338" result="shape"/>
<feColorMatrix in="SourceAlpha" type="matrix" values="0 0 0 0 0 0 0 0 0 0 0 0 0 0 0 0 0 0 127 0" result="hardAlpha"/>
<feMorphology radius="2" operator="erode" in="SourceAlpha" result="effect2_innerShadow_1109_20338"/>
<feOffset dx="-4" dy="2"/>
<feGaussianBlur stdDeviation="3"/>
<feComposite in2="hardAlpha" operator="arithmetic" k2="-1" k3="1"/>
<feColorMatrix type="matrix" values="0 0 0 0 0.341176 0 0 0 0 0.419608 0 0 0 0 1 0 0 0 0.18 0"/>
<feBlend mode="normal" in2="shape" result="effect2_innerShadow_1109_20338"/>
<feColorMatrix in="SourceAlpha" type="matrix" values="0 0 0 0 0 0 0 0 0 0 0 0 0 0 0 0 0 0 127 0" result="hardAlpha"/>
<feMorphology radius="2" operator="erode" in="SourceAlpha" result="effect3_innerShadow_1109_20338"/>
<feOffset dy="-2"/>
<feGaussianBlur stdDeviation="3"/>
<feComposite in2="hardAlpha" operator="arithmetic" k2="-1" k3="1"/>
<feColorMatrix type="matrix" values="0 0 0 0 0.74902 0 0 0 0 0.266667 0 0 0 0 0.811765 0 0 0 0.02 0"/>
<feBlend mode="normal" in2="effect2_innerShadow_1109_20338" result="effect3_innerShadow_1109_20338"/>
</filter>
<linearGradient id="paint0_linear_1109_20338" x1="29.5199" y1="1.34287" x2="-112.467" y2="299.922" gradientUnits="userSpaceOnUse">
<stop stop-color="#96FBC4"/>
<stop offset="1" stop-color="#F9F586"/>
</linearGradient>
<linearGradient id="paint1_linear_1109_20338" x1="393.772" y1="297.309" x2="-124.094" y2="493.81" gradientUnits="userSpaceOnUse">
<stop stop-color="#F9D423"/>
<stop offset="1" stop-color="#FF4E50"/>
</linearGradient>
<linearGradient id="paint2_linear_1109_20338" x1="305.793" y1="286.426" x2="590.28" y2="286.426" gradientUnits="userSpaceOnUse">
<stop stop-color="#84FAB0"/>
<stop offset="1" stop-color="#8FD3F4"/>
</linearGradient>
<linearGradient id="paint3_linear_1109_20338" x1="0" y1="250.701" x2="386.047" y2="0.0727039" gradientUnits="userSpaceOnUse">
<stop stop-color="white"/>
<stop offset="1" stop-color="white" stop-opacity="0"/>
</linearGradient>
<linearGradient id="paint4_linear_1109_20338" x1="386" y1="0" x2="-0.0472006" y2="250.628" gradientUnits="userSpaceOnUse">
<stop stop-color="white" stop-opacity="0.4"/>
<stop offset="0.791667" stop-color="white" stop-opacity="0"/>
</linearGradient>
<linearGradient id="paint5_linear_1109_20338" x1="331.659" y1="22" x2="351.979" y2="54.0483" gradientUnits="userSpaceOnUse">
<stop stop-color="#F3FFA6"/>
<stop offset="0.314755" stop-color="#E6FFDD"/>
<stop offset="0.791362" stop-color="#FFEDB4"/>
<stop offset="1" stop-color="#F7DF91"/>
</linearGradient>
</defs>
</svg>
