<svg width="300" height="146" viewBox="0 0 300 146" fill="none" xmlns="http://www.w3.org/2000/svg">
<rect y="0.619629" width="300" height="144.984" fill="white"/>
<g opacity="0.491605">
<path d="M99.3658 105.601V113.817H103.5V115H98.0918V105.601H99.3658Z" fill="black"/>
<path d="M110.617 115H104.884V105.601H110.617V106.771H106.158V109.709H110.175V110.84H106.158V113.817H110.617V115Z" fill="black"/>
<path d="M112.853 115H111.527L114.959 105.601H116.376L119.821 115H118.482L117.637 112.66H113.685L112.853 115ZM115.505 107.629L114.075 111.555H117.26L115.817 107.629C115.752 107.447 115.687 107.226 115.661 107.083C115.635 107.213 115.57 107.434 115.505 107.629Z" fill="black"/>
<path d="M122.344 115H121.07V105.601H124.619C126.634 105.601 127.83 106.667 127.83 108.422C127.83 109.722 127.18 110.658 126.01 111.035L127.921 115H126.504L124.749 111.282H122.344V115ZM122.344 106.745V110.151H124.632C125.815 110.151 126.491 109.514 126.491 108.435C126.491 107.343 125.789 106.745 124.619 106.745H122.344Z" fill="black"/>
<path d="M130.85 115H129.576V105.601H130.85L135.66 112.868V105.601H136.934V115H135.66L130.85 107.733V115Z" fill="black"/>
<path d="M143.926 115H142.678V105.601H143.926L147.163 113.505L150.4 105.601H151.674V115H150.426V111.282C150.426 109.527 150.439 108.89 150.504 108.227L147.761 115H146.565L143.835 108.253C143.9 108.708 143.926 109.67 143.926 110.983V115Z" fill="black"/>
<path d="M162.338 110.294C162.338 113.154 160.466 115.156 157.801 115.156C155.149 115.156 153.303 113.154 153.303 110.294C153.303 107.447 155.162 105.432 157.814 105.432C160.479 105.432 162.338 107.434 162.338 110.294ZM160.999 110.294C160.999 108.11 159.725 106.667 157.814 106.667C155.903 106.667 154.642 108.11 154.642 110.294C154.642 112.478 155.903 113.934 157.814 113.934C159.725 113.934 160.999 112.465 160.999 110.294Z" fill="black"/>
<path d="M165.242 115H163.968V105.601H167.517C169.532 105.601 170.728 106.667 170.728 108.422C170.728 109.722 170.078 110.658 168.908 111.035L170.819 115H169.402L167.647 111.282H165.242V115ZM165.242 106.745V110.151H167.53C168.713 110.151 169.389 109.514 169.389 108.435C169.389 107.343 168.687 106.745 167.517 106.745H165.242Z" fill="black"/>
<path d="M178.207 115H172.474V105.601H178.207V106.771H173.748V109.709H177.765V110.84H173.748V113.817H178.207V115Z" fill="black"/>
</g>
<path d="M95.8392 36.827C95.8392 34.347 97.8392 32.667 100.819 32.667C103.579 32.667 105.359 34.207 105.519 36.707H103.539C103.439 35.267 102.419 34.427 100.799 34.427C98.9792 34.427 97.7992 35.347 97.7992 36.767C97.7992 37.927 98.4592 38.627 99.8192 38.947L102.199 39.507C104.559 40.047 105.759 41.327 105.759 43.367C105.759 45.967 103.739 47.627 100.659 47.627C97.7192 47.627 95.7592 46.087 95.6392 43.607H97.6392C97.6792 44.987 98.8392 45.867 100.659 45.867C102.579 45.867 103.799 44.967 103.799 43.527C103.799 42.387 103.179 41.667 101.799 41.347L99.4192 40.807C97.0592 40.267 95.8392 38.907 95.8392 36.827Z" fill="black"/>
<path d="M110.762 47.627C108.662 47.627 107.422 46.447 107.422 44.667C107.422 42.867 108.762 41.747 111.062 41.567L114.142 41.327V41.047C114.142 39.407 113.162 38.827 111.842 38.827C110.262 38.827 109.362 39.527 109.362 40.707H107.722C107.722 38.667 109.402 37.327 111.922 37.327C114.342 37.327 115.982 38.607 115.982 41.247V47.387H114.382L114.182 45.807C113.682 46.927 112.342 47.627 110.762 47.627ZM111.302 46.167C113.082 46.167 114.162 45.007 114.162 43.167V42.647L111.662 42.847C110.002 43.007 109.322 43.647 109.322 44.607C109.322 45.647 110.082 46.167 111.302 46.167Z" fill="black"/>
<path d="M120.935 47.387L116.995 37.607H118.995L121.135 43.067C121.475 43.987 121.755 44.807 121.915 45.407C122.075 44.767 122.395 43.927 122.735 43.067L124.915 37.607H126.875L122.795 47.387H120.935Z" fill="black"/>
<path d="M132.142 47.627C129.262 47.627 127.282 45.547 127.282 42.507C127.282 39.447 129.222 37.327 132.062 37.327C134.842 37.327 136.662 39.247 136.662 42.147V42.847L129.102 42.867C129.242 44.927 130.322 46.067 132.182 46.067C133.642 46.067 134.602 45.467 134.922 44.347H136.682C136.202 46.447 134.562 47.627 132.142 47.627ZM132.062 38.907C130.422 38.907 129.382 39.887 129.142 41.607H134.782C134.782 39.987 133.722 38.907 132.062 38.907Z" fill="black"/>
<path d="M150.99 37.607H152.85V47.387H151.17L150.97 45.907C150.41 46.927 149.11 47.627 147.67 47.627C145.39 47.627 144.11 46.087 144.11 43.687V37.607H145.99V43.067C145.99 45.167 146.89 45.967 148.33 45.967C150.05 45.967 150.99 44.867 150.99 42.767V37.607Z" fill="black"/>
<path d="M155.578 51.767V37.607H157.278L157.418 39.367C158.078 38.027 159.398 37.327 160.958 37.327C163.758 37.327 165.498 39.427 165.498 42.427C165.498 45.407 163.858 47.647 160.958 47.647C159.398 47.647 158.098 46.987 157.458 45.787V51.767H155.578ZM157.478 42.507C157.478 44.507 158.638 45.947 160.558 45.947C162.478 45.947 163.618 44.507 163.618 42.507C163.618 40.487 162.478 39.047 160.558 39.047C158.638 39.047 157.478 40.467 157.478 42.507Z" fill="black"/>
<path d="M175.799 47.387H173.919V39.187H171.999V37.607H173.919V34.547H175.799V37.607H177.719V39.187H175.799V47.387Z" fill="black"/>
<path d="M178.668 42.487C178.668 39.467 180.828 37.347 183.768 37.347C186.688 37.347 188.848 39.467 188.848 42.487C188.848 45.507 186.688 47.627 183.768 47.627C180.828 47.627 178.668 45.507 178.668 42.487ZM180.568 42.487C180.568 44.527 181.868 45.947 183.768 45.947C185.648 45.947 186.968 44.527 186.968 42.487C186.968 40.447 185.648 39.027 183.768 39.027C181.868 39.027 180.568 40.447 180.568 42.487Z" fill="black"/>
<path d="M200.878 47.627C197.918 47.627 195.998 45.747 195.998 42.867H197.938C197.938 44.727 199.078 45.867 200.918 45.867C202.878 45.867 204.138 44.567 204.138 42.607C204.138 40.747 202.958 39.367 200.938 39.367C199.718 39.367 198.598 39.947 197.938 40.767L196.278 40.347L198.038 32.927H205.278V34.727H199.458L198.498 38.567C199.258 37.987 200.218 37.687 201.298 37.687C204.238 37.687 206.138 39.747 206.138 42.527C206.138 45.527 203.998 47.627 200.878 47.627Z" fill="black"/>
<path d="M207.835 40.167C207.835 35.687 210.155 32.647 213.795 32.647C217.415 32.647 219.735 35.687 219.735 40.167C219.735 44.667 217.515 47.647 213.795 47.647C210.055 47.647 207.835 44.667 207.835 40.167ZM209.775 40.167C209.775 43.727 211.255 45.887 213.795 45.887C216.335 45.887 217.795 43.727 217.795 40.167C217.795 36.567 216.335 34.407 213.795 34.407C211.255 34.407 209.775 36.567 209.775 40.167Z" fill="black"/>
<path d="M228.862 36.347C228.862 38.487 227.342 40.027 225.202 40.027C223.082 40.027 221.562 38.487 221.562 36.347C221.562 34.187 223.082 32.647 225.202 32.647C227.342 32.647 228.862 34.187 228.862 36.347ZM236.482 32.947L225.502 47.387H223.582L234.562 32.947H236.482ZM227.322 36.347C227.322 35.047 226.462 34.147 225.202 34.147C223.962 34.147 223.102 35.047 223.102 36.347C223.102 37.627 223.962 38.527 225.202 38.527C226.442 38.527 227.322 37.627 227.322 36.347ZM238.542 43.967C238.542 46.107 237.002 47.647 234.882 47.647C232.762 47.647 231.222 46.107 231.222 43.967C231.222 41.807 232.762 40.287 234.882 40.287C237.002 40.287 238.542 41.807 238.542 43.967ZM236.982 43.967C236.982 42.667 236.142 41.767 234.882 41.767C233.642 41.767 232.782 42.667 232.782 43.967C232.782 45.247 233.642 46.147 234.882 46.147C236.122 46.147 236.982 45.247 236.982 43.967Z" fill="black"/>
<path d="M247.103 35.287C246.423 35.287 245.863 34.727 245.863 34.047C245.863 33.347 246.423 32.807 247.103 32.807C247.783 32.807 248.343 33.347 248.343 34.047C248.343 34.727 247.783 35.287 247.103 35.287ZM246.183 47.387V37.607H248.063V47.387H246.183Z" fill="black"/>
<path d="M252.673 47.387H250.793V37.607H252.493L252.693 39.107C253.313 37.987 254.553 37.327 255.933 37.327C258.513 37.327 259.693 38.907 259.693 41.407V47.387H257.813V41.827C257.813 39.847 256.893 39.047 255.453 39.047C253.693 39.047 252.673 40.307 252.673 42.207V47.387Z" fill="black"/>
<path d="M100.099 69.507L95.1992 60.927H97.3992L100.619 66.707C100.819 67.047 100.939 67.327 101.099 67.667C101.279 67.307 101.319 67.187 101.579 66.707L104.779 60.927H106.919L102.059 69.507V75.387H100.099V69.507Z" fill="black"/>
<path d="M110.735 75.627C107.855 75.627 105.875 73.547 105.875 70.507C105.875 67.447 107.815 65.327 110.655 65.327C113.435 65.327 115.255 67.247 115.255 70.147V70.847L107.695 70.867C107.835 72.927 108.915 74.067 110.775 74.067C112.235 74.067 113.195 73.467 113.515 72.347H115.275C114.795 74.447 113.155 75.627 110.735 75.627ZM110.655 66.907C109.015 66.907 107.975 67.887 107.735 69.607H113.375C113.375 67.987 112.315 66.907 110.655 66.907Z" fill="black"/>
<path d="M120.118 75.627C118.018 75.627 116.778 74.447 116.778 72.667C116.778 70.867 118.118 69.747 120.418 69.567L123.498 69.327V69.047C123.498 67.407 122.518 66.827 121.198 66.827C119.618 66.827 118.718 67.527 118.718 68.707H117.078C117.078 66.667 118.758 65.327 121.278 65.327C123.698 65.327 125.338 66.607 125.338 69.247V75.387H123.738L123.538 73.807C123.038 74.927 121.698 75.627 120.118 75.627ZM120.658 74.167C122.438 74.167 123.518 73.007 123.518 71.167V70.647L121.018 70.847C119.358 71.007 118.678 71.647 118.678 72.607C118.678 73.647 119.438 74.167 120.658 74.167Z" fill="black"/>
<path d="M133.541 65.527V67.247H132.701C130.921 67.247 129.821 68.327 129.821 70.207V75.387H127.941V65.627H129.701L129.821 67.107C130.221 66.087 131.201 65.407 132.541 65.407C132.881 65.407 133.161 65.447 133.541 65.527Z" fill="black"/>
<path d="M137.225 75.387H135.345V60.667H137.225V75.387Z" fill="black"/>
<path d="M139.052 79.767V78.227H140.312C141.212 78.227 141.932 78.087 142.392 76.847L142.732 75.907L138.792 65.607H140.772L143.612 73.487L146.512 65.607H148.452L143.832 77.587C143.172 79.267 142.192 79.967 140.692 79.967C140.072 79.967 139.552 79.887 139.052 79.767Z" fill="black"/>
<path d="M155.422 79.767V65.607H157.122L157.262 67.367C157.922 66.027 159.242 65.327 160.802 65.327C163.602 65.327 165.342 67.427 165.342 70.427C165.342 73.407 163.702 75.647 160.802 75.647C159.242 75.647 157.942 74.987 157.302 73.787V79.767H155.422ZM157.322 70.507C157.322 72.507 158.482 73.947 160.402 73.947C162.322 73.947 163.462 72.507 163.462 70.507C163.462 68.487 162.322 67.047 160.402 67.047C158.482 67.047 157.322 68.467 157.322 70.507Z" fill="black"/>
<path d="M169.334 75.387H167.454V60.667H169.334V75.387Z" fill="black"/>
<path d="M174.961 75.627C172.861 75.627 171.621 74.447 171.621 72.667C171.621 70.867 172.961 69.747 175.261 69.567L178.341 69.327V69.047C178.341 67.407 177.361 66.827 176.041 66.827C174.461 66.827 173.561 67.527 173.561 68.707H171.921C171.921 66.667 173.601 65.327 176.121 65.327C178.541 65.327 180.181 66.607 180.181 69.247V75.387H178.581L178.381 73.807C177.881 74.927 176.541 75.627 174.961 75.627ZM175.501 74.167C177.281 74.167 178.361 73.007 178.361 71.167V70.647L175.861 70.847C174.201 71.007 173.521 71.647 173.521 72.607C173.521 73.647 174.281 74.167 175.501 74.167Z" fill="black"/>
<path d="M184.665 75.387H182.785V65.607H184.485L184.685 67.107C185.305 65.987 186.545 65.327 187.925 65.327C190.505 65.327 191.685 66.907 191.685 69.407V75.387H189.805V69.827C189.805 67.847 188.885 67.047 187.445 67.047C185.685 67.047 184.665 68.307 184.665 70.207V75.387Z" fill="black"/>
<path d="M195.689 75.627C194.909 75.627 194.249 74.987 194.249 74.227C194.249 73.447 194.909 72.807 195.689 72.807C196.449 72.807 197.109 73.447 197.109 74.227C197.109 74.987 196.449 75.627 195.689 75.627Z" fill="black"/>
<ellipse cx="51" cy="53.327" rx="22" ry="22.3052" fill="#C2F6F9"/>
<path d="M42 55.2334L48.8 60.4129L59.8888 45.6145" stroke="black" stroke-width="2" stroke-linecap="round"/>
</svg>
