<svg width="220" height="82" viewBox="0 0 220 82" fill="none" xmlns="http://www.w3.org/2000/svg">
<rect width="220" height="82" rx="10" fill="white"/>
<path d="M86.7591 26.7919H83.5431V30.9999H82.3911V19.5439H86.7591C88.9671 19.5439 90.3591 20.9839 90.3591 23.1439C90.3591 25.2239 88.9511 26.7919 86.7591 26.7919ZM86.5991 20.5839H83.5431V25.7519H86.5351C88.1991 25.7519 89.1591 24.6959 89.1591 23.1279C89.1591 21.5439 88.1831 20.5839 86.5991 20.5839Z" fill="#19352D"/>
<path d="M96.0273 23.1599V24.1519H95.4192C93.9952 24.1519 93.0833 25.1119 93.0833 26.5839V30.9999H91.9792V23.2559H93.0192L93.0992 24.4559C93.4032 23.6239 94.2192 23.0799 95.3072 23.0799C95.5472 23.0799 95.7553 23.0959 96.0273 23.1599Z" fill="#19352D"/>
<path d="M96.654 27.1279C96.654 24.7599 98.318 23.0479 100.59 23.0479C102.862 23.0479 104.526 24.7599 104.526 27.1279C104.526 29.4799 102.862 31.1919 100.59 31.1919C98.318 31.1919 96.654 29.4799 96.654 27.1279ZM97.774 27.1119C97.774 28.9359 98.926 30.1999 100.59 30.1999C102.238 30.1999 103.406 28.9359 103.406 27.1119C103.406 25.3199 102.238 24.0399 100.59 24.0399C98.926 24.0399 97.774 25.3199 97.774 27.1119Z" fill="#19352D"/>
<path d="M111.333 30.9999V24.1839H107.653V30.9999H106.549V24.1839H105.365V23.2559H106.549V21.7519C106.549 20.0079 107.493 19.3359 108.645 19.3359C108.917 19.3359 109.253 19.3519 109.509 19.3999V20.3599H108.837C107.909 20.3599 107.653 20.8399 107.653 21.7519V23.2559H112.437V30.9999H111.333ZM111.877 21.0479C111.429 21.0479 111.109 20.7279 111.109 20.2799C111.109 19.8319 111.429 19.4959 111.877 19.4959C112.309 19.4959 112.645 19.8319 112.645 20.2799C112.645 20.7279 112.309 21.0479 111.877 21.0479Z" fill="#19352D"/>
<path d="M116.474 30.9999H115.386V24.1839H113.834V23.2559H115.386V20.8079H116.474V23.2559H118.026V24.1839H116.474V30.9999Z" fill="#19352D"/>
<path d="M86.6531 60.1339V58.2419C83.7491 58.0659 81.8351 56.4159 81.7031 53.8419H83.9031C83.9471 55.2499 84.9811 56.1739 86.6531 56.3499V50.8719L85.8611 50.6959C83.2651 50.1019 81.9231 48.6499 81.9231 46.3839C81.9231 43.8759 83.7931 42.0939 86.6531 41.8519V39.9379H88.0611V41.8299C90.7231 42.0719 92.4171 43.6999 92.5711 46.2519H90.4371C90.3491 44.8439 89.4911 43.9419 88.0611 43.7439V49.1999L88.9191 49.3979C91.5591 49.9919 92.8351 51.3779 92.8351 53.5779C92.8351 56.1959 90.9651 57.9559 88.0611 58.2199V60.1339H86.6531ZM86.3011 48.7819L86.6531 48.8699V43.7439C85.0251 43.9639 84.0351 44.9099 84.0351 46.3179C84.0351 47.5939 84.7611 48.4079 86.3011 48.7819ZM88.4791 51.3119L88.0611 51.2239V56.3059C89.7111 56.0859 90.7231 55.1399 90.7231 53.7539C90.7231 52.4779 89.9971 51.6639 88.4791 51.3119Z" fill="#19352D"/>
<path d="M97.8104 44.0299H94.4664V42.0939H99.8784V57.9999H97.8104V44.0299Z" fill="#19352D"/>
<path d="M107.342 49.7719H105.758V48.3419L110.268 44.0079H103.118V42.0939H112.996V43.8319L108.64 47.9899C111.346 48.3199 113.392 50.1459 113.392 53.0059C113.392 56.2179 110.972 58.2639 107.738 58.2639C104.614 58.2639 102.37 56.3499 102.37 53.0499H104.504C104.504 55.1179 105.78 56.3279 107.782 56.3279C109.85 56.3279 111.192 55.0079 111.192 52.9619C111.192 51.0479 109.872 49.7719 107.342 49.7719Z" fill="#19352D"/>
<path d="M118.447 57.1419C118.447 58.7259 117.259 60.0459 115.697 60.2439V59.3199C116.599 59.1659 117.237 58.5719 117.237 57.8899C117.083 57.9779 116.907 58.0219 116.643 58.0219C115.917 58.0219 115.301 57.4939 115.301 56.6799C115.301 55.7999 115.895 55.1619 116.775 55.1619C117.699 55.1619 118.447 55.9319 118.447 57.1419Z" fill="#19352D"/>
<path d="M131.677 57.9779L120.941 57.9999V56.3499L126.067 51.9279C128.641 49.7059 129.367 48.6279 129.367 46.9339C129.367 44.9319 128.223 43.7439 126.309 43.7439C124.351 43.7439 123.075 45.1739 123.031 47.4399H120.875C120.941 44.0299 123.097 41.8079 126.331 41.8079C129.521 41.8079 131.567 43.7439 131.567 46.8019C131.567 49.0679 130.445 50.6739 127.629 53.1159L124.329 55.9759H131.677V57.9779Z" fill="#19352D"/>
<path d="M132.63 42.0939H143.74V44.0739L137.712 57.9999H135.468L141.562 44.0739H132.63V42.0939Z" fill="#19352D"/>
<path d="M144.618 50.0579C144.618 45.1299 147.17 41.7859 151.174 41.7859C155.156 41.7859 157.708 45.1299 157.708 50.0579C157.708 55.0079 155.266 58.2859 151.174 58.2859C147.06 58.2859 144.618 55.0079 144.618 50.0579ZM146.752 50.0579C146.752 53.9739 148.38 56.3499 151.174 56.3499C153.968 56.3499 155.574 53.9739 155.574 50.0579C155.574 46.0979 153.968 43.7219 151.174 43.7219C148.38 43.7219 146.752 46.0979 146.752 50.0579Z" fill="#19352D"/>
<path d="M160.928 58.2639C160.07 58.2639 159.344 57.5599 159.344 56.7239C159.344 55.8659 160.07 55.1619 160.928 55.1619C161.764 55.1619 162.49 55.8659 162.49 56.7239C162.49 57.5599 161.764 58.2639 160.928 58.2639Z" fill="#19352D"/>
<path d="M164.147 50.0579C164.147 45.1299 166.699 41.7859 170.703 41.7859C174.685 41.7859 177.237 45.1299 177.237 50.0579C177.237 55.0079 174.795 58.2859 170.703 58.2859C166.589 58.2859 164.147 55.0079 164.147 50.0579ZM166.281 50.0579C166.281 53.9739 167.909 56.3499 170.703 56.3499C173.497 56.3499 175.103 53.9739 175.103 50.0579C175.103 46.0979 173.497 43.7219 170.703 43.7219C167.909 43.7219 166.281 46.0979 166.281 50.0579Z" fill="#19352D"/>
<path d="M179.401 50.0579C179.401 45.1299 181.953 41.7859 185.957 41.7859C189.939 41.7859 192.491 45.1299 192.491 50.0579C192.491 55.0079 190.049 58.2859 185.957 58.2859C181.843 58.2859 179.401 55.0079 179.401 50.0579ZM181.535 50.0579C181.535 53.9739 183.163 56.3499 185.957 56.3499C188.751 56.3499 190.357 53.9739 190.357 50.0579C190.357 46.0979 188.751 43.7219 185.957 43.7219C183.163 43.7219 181.535 46.0979 181.535 50.0579Z" fill="#19352D"/>
<rect x="20" y="20" width="44" height="44" rx="22" fill="#FFDF6C"/>
<path d="M36 43L41.5 48L50.5 36" stroke="#1A4137" stroke-width="2" stroke-linecap="round"/>
</svg>
