<svg width="220" height="82" viewBox="0 0 220 82" fill="none" xmlns="http://www.w3.org/2000/svg">
<rect width="220" height="82" rx="10" fill="white"/>
<path d="M83.528 30.9999H82.392V19.5439H83.528L87.704 29.6399L91.88 19.5439H93.032V30.9999H91.896V25.5599C91.896 23.5599 91.928 22.6799 91.992 21.8959L88.264 30.9999H87.16L83.432 21.9439C83.496 22.3759 83.528 23.6399 83.528 25.3839V30.9999Z" fill="#19352D"/>
<path d="M97.7979 31.1919C96.1499 31.1919 95.1739 30.2639 95.1739 28.9039C95.1739 27.4799 96.2619 26.5839 98.0699 26.4399L100.63 26.2319V25.9759C100.63 24.4559 99.7179 23.9759 98.5819 23.9759C97.2379 23.9759 96.4379 24.5839 96.4379 25.6239H95.4299C95.4299 24.0559 96.7099 23.0479 98.6139 23.0479C100.406 23.0479 101.718 23.9439 101.718 25.9919V30.9999H100.79L100.646 29.6399C100.166 30.6159 99.1099 31.1919 97.7979 31.1919ZM98.0539 30.2959C99.6859 30.2959 100.63 29.1599 100.63 27.4799V27.0639L98.3419 27.2399C96.8859 27.3679 96.2939 28.0079 96.2939 28.8719C96.2939 29.8159 96.9979 30.2959 98.0539 30.2959Z" fill="#19352D"/>
<path d="M107.981 23.1599V24.1519H107.373C105.949 24.1519 105.037 25.1119 105.037 26.5839V30.9999H103.933V23.2559H104.973L105.053 24.4559C105.357 23.6239 106.173 23.0799 107.261 23.0799C107.501 23.0799 107.709 23.0959 107.981 23.1599Z" fill="#19352D"/>
<path d="M110.601 30.9999H109.497V19.3359H110.601V27.2559L114.441 23.2559H115.833L112.857 26.3439L115.849 30.9999H114.569L112.105 27.1279L110.601 28.6799V30.9999Z" fill="#19352D"/>
<path d="M120.15 31.1919C117.878 31.1919 116.358 29.5599 116.358 27.1279C116.358 24.7119 117.862 23.0479 120.07 23.0479C122.166 23.0479 123.59 24.5359 123.59 26.7279V27.2719H117.43C117.51 29.1599 118.502 30.2479 120.166 30.2479C121.43 30.2479 122.246 29.7039 122.534 28.6799H123.59C123.174 30.3119 121.974 31.1919 120.15 31.1919ZM120.07 23.9919C118.614 23.9919 117.654 24.9519 117.462 26.4719H122.486C122.486 24.9839 121.526 23.9919 120.07 23.9919Z" fill="#19352D"/>
<path d="M127.053 30.9999H125.965V24.1839H124.413V23.2559H125.965V20.8079H127.053V23.2559H128.605V24.1839H127.053V30.9999Z" fill="#19352D"/>
<path d="M137.872 30.9999L133.488 19.5439H134.72L137.776 27.5119C138.016 28.1359 138.24 28.7599 138.496 29.5599C138.736 28.7279 139.024 27.9279 139.2 27.4959L142.24 19.5439H143.424L139.072 30.9999H137.872Z" fill="#19352D"/>
<path d="M145.767 31.1919C144.119 31.1919 143.143 30.2639 143.143 28.9039C143.143 27.4799 144.231 26.5839 146.039 26.4399L148.599 26.2319V25.9759C148.599 24.4559 147.687 23.9759 146.551 23.9759C145.207 23.9759 144.407 24.5839 144.407 25.6239H143.399C143.399 24.0559 144.679 23.0479 146.583 23.0479C148.375 23.0479 149.687 23.9439 149.687 25.9919V30.9999H148.759L148.615 29.6399C148.135 30.6159 147.079 31.1919 145.767 31.1919ZM146.023 30.2959C147.655 30.2959 148.599 29.1599 148.599 27.4799V27.0639L146.311 27.2399C144.855 27.3679 144.263 28.0079 144.263 28.8719C144.263 29.8159 144.967 30.2959 146.023 30.2959Z" fill="#19352D"/>
<path d="M153.054 30.9999H151.95V19.3359H153.054V30.9999Z" fill="#19352D"/>
<path d="M160.842 23.2559H161.946V30.9999H160.986L160.842 29.6879C160.41 30.5839 159.338 31.1919 158.122 31.1919C156.298 31.1919 155.306 29.9439 155.306 28.0559V23.2399H156.426V27.7039C156.426 29.5439 157.242 30.1999 158.474 30.1999C159.962 30.1999 160.842 29.2079 160.842 27.3679V23.2559Z" fill="#19352D"/>
<path d="M167.337 31.1919C165.065 31.1919 163.545 29.5599 163.545 27.1279C163.545 24.7119 165.049 23.0479 167.257 23.0479C169.353 23.0479 170.777 24.5359 170.777 26.7279V27.2719H164.617C164.697 29.1599 165.689 30.2479 167.353 30.2479C168.617 30.2479 169.433 29.7039 169.721 28.6799H170.777C170.361 30.3119 169.161 31.1919 167.337 31.1919ZM167.257 23.9919C165.801 23.9919 164.841 24.9519 164.649 26.4719H169.673C169.673 24.9839 168.713 23.9919 167.257 23.9919Z" fill="#19352D"/>
<path d="M86.654 60.1339V58.2419C83.75 58.0659 81.836 56.4159 81.704 53.8419H83.904C83.948 55.2499 84.982 56.1739 86.654 56.3499V50.8719L85.862 50.6959C83.266 50.1019 81.924 48.6499 81.924 46.3839C81.924 43.8759 83.794 42.0939 86.654 41.8519V39.9379H88.062V41.8299C90.724 42.0719 92.418 43.6999 92.572 46.2519H90.438C90.35 44.8439 89.492 43.9419 88.062 43.7439V49.1999L88.92 49.3979C91.56 49.9919 92.836 51.3779 92.836 53.5779C92.836 56.1959 90.966 57.9559 88.062 58.2199V60.1339H86.654ZM86.302 48.7819L86.654 48.8699V43.7439C85.026 43.9639 84.036 44.9099 84.036 46.3179C84.036 47.5939 84.762 48.4079 86.302 48.7819ZM88.48 51.3119L88.062 51.2239V56.3059C89.712 56.0859 90.724 55.1399 90.724 53.7539C90.724 52.4779 89.998 51.6639 88.48 51.3119Z" fill="#19352D"/>
<path d="M97.8112 44.0299H94.4672V42.0939H99.8792V57.9999H97.8112V44.0299Z" fill="#19352D"/>
<path d="M107.343 49.7719H105.759V48.3419L110.269 44.0079H103.119V42.0939H112.997V43.8319L108.641 47.9899C111.347 48.3199 113.393 50.1459 113.393 53.0059C113.393 56.2179 110.973 58.2639 107.739 58.2639C104.615 58.2639 102.371 56.3499 102.371 53.0499H104.505C104.505 55.1179 105.781 56.3279 107.783 56.3279C109.851 56.3279 111.193 55.0079 111.193 52.9619C111.193 51.0479 109.873 49.7719 107.343 49.7719Z" fill="#19352D"/>
<path d="M118.448 57.1419C118.448 58.7259 117.26 60.0459 115.698 60.2439V59.3199C116.6 59.1659 117.238 58.5719 117.238 57.8899C117.084 57.9779 116.908 58.0219 116.644 58.0219C115.918 58.0219 115.302 57.4939 115.302 56.6799C115.302 55.7999 115.896 55.1619 116.776 55.1619C117.7 55.1619 118.448 55.9319 118.448 57.1419Z" fill="#19352D"/>
<path d="M131.678 57.9779L120.942 57.9999V56.3499L126.068 51.9279C128.642 49.7059 129.368 48.6279 129.368 46.9339C129.368 44.9319 128.224 43.7439 126.31 43.7439C124.352 43.7439 123.076 45.1739 123.032 47.4399H120.876C120.942 44.0299 123.098 41.8079 126.332 41.8079C129.522 41.8079 131.568 43.7439 131.568 46.8019C131.568 49.0679 130.446 50.6739 127.63 53.1159L124.33 55.9759H131.678V57.9779Z" fill="#19352D"/>
<path d="M132.631 42.0939H143.741V44.0739L137.713 57.9999H135.469L141.563 44.0739H132.631V42.0939Z" fill="#19352D"/>
<path d="M144.619 50.0579C144.619 45.1299 147.171 41.7859 151.175 41.7859C155.157 41.7859 157.709 45.1299 157.709 50.0579C157.709 55.0079 155.267 58.2859 151.175 58.2859C147.061 58.2859 144.619 55.0079 144.619 50.0579ZM146.753 50.0579C146.753 53.9739 148.381 56.3499 151.175 56.3499C153.969 56.3499 155.575 53.9739 155.575 50.0579C155.575 46.0979 153.969 43.7219 151.175 43.7219C148.381 43.7219 146.753 46.0979 146.753 50.0579Z" fill="#19352D"/>
<path d="M160.929 58.2639C160.071 58.2639 159.345 57.5599 159.345 56.7239C159.345 55.8659 160.071 55.1619 160.929 55.1619C161.765 55.1619 162.491 55.8659 162.491 56.7239C162.491 57.5599 161.765 58.2639 160.929 58.2639Z" fill="#19352D"/>
<path d="M164.148 50.0579C164.148 45.1299 166.7 41.7859 170.704 41.7859C174.686 41.7859 177.238 45.1299 177.238 50.0579C177.238 55.0079 174.796 58.2859 170.704 58.2859C166.59 58.2859 164.148 55.0079 164.148 50.0579ZM166.282 50.0579C166.282 53.9739 167.91 56.3499 170.704 56.3499C173.498 56.3499 175.104 53.9739 175.104 50.0579C175.104 46.0979 173.498 43.7219 170.704 43.7219C167.91 43.7219 166.282 46.0979 166.282 50.0579Z" fill="#19352D"/>
<path d="M179.402 50.0579C179.402 45.1299 181.954 41.7859 185.958 41.7859C189.94 41.7859 192.492 45.1299 192.492 50.0579C192.492 55.0079 190.05 58.2859 185.958 58.2859C181.844 58.2859 179.402 55.0079 179.402 50.0579ZM181.536 50.0579C181.536 53.9739 183.164 56.3499 185.958 56.3499C188.752 56.3499 190.358 53.9739 190.358 50.0579C190.358 46.0979 188.752 43.7219 185.958 43.7219C183.164 43.7219 181.536 46.0979 181.536 50.0579Z" fill="#19352D"/>
<rect x="20" y="20" width="44" height="44" rx="22" fill="#1F5E59"/>
<path d="M36 43L41.5 48L50.5 36" stroke="white" stroke-width="2" stroke-linecap="round"/>
</svg>
