<svg width="420" height="196" viewBox="0 0 420 196" fill="none" xmlns="http://www.w3.org/2000/svg">
<path d="M0 15C0 6.71573 6.71573 0 15 0H405C413.284 0 420 6.71573 420 15V196H0V15Z" fill="white"/>
<circle cx="394" cy="49" r="2" transform="rotate(-90 394 49)" fill="#D9D9D9"/>
<circle cx="394" cy="41" r="2" transform="rotate(-90 394 41)" fill="#D9D9D9"/>
<circle cx="394" cy="33" r="2" transform="rotate(-90 394 33)" fill="#D9D9D9"/>
<path d="M40.4497 115H32.5117V101.986H40.4497V103.606H34.2757V107.674H39.8377V109.24H34.2757V113.362H40.4497V115Z" fill="black" fill-opacity="0.3"/>
<path d="M45.2919 115.216C43.4019 115.216 42.2859 114.154 42.2859 112.552C42.2859 110.932 43.4919 109.924 45.5619 109.762L48.3339 109.546V109.294C48.3339 107.818 47.4519 107.296 46.2639 107.296C44.8419 107.296 44.0319 107.926 44.0319 108.988H42.5559C42.5559 107.152 44.0679 105.946 46.3359 105.946C48.5139 105.946 49.9899 107.098 49.9899 109.474V115H48.5499L48.3699 113.578C47.9199 114.586 46.7139 115.216 45.2919 115.216ZM45.7779 113.902C47.3799 113.902 48.3519 112.858 48.3519 111.202V110.734L46.1019 110.914C44.6079 111.058 43.9959 111.634 43.9959 112.498C43.9959 113.434 44.6799 113.902 45.7779 113.902Z" fill="black" fill-opacity="0.3"/>
<path d="M57.3731 106.126V107.674H56.6171C55.0151 107.674 54.0251 108.646 54.0251 110.338V115H52.3331V106.216H53.9171L54.0251 107.548C54.3851 106.63 55.2671 106.018 56.4731 106.018C56.7791 106.018 57.0311 106.054 57.3731 106.126Z" fill="black" fill-opacity="0.3"/>
<path d="M60.652 115H58.96V106.198H60.49L60.67 107.548C61.228 106.54 62.344 105.946 63.586 105.946C65.908 105.946 66.97 107.368 66.97 109.618V115H65.278V109.996C65.278 108.214 64.45 107.494 63.154 107.494C61.57 107.494 60.652 108.628 60.652 110.338V115Z" fill="black" fill-opacity="0.3"/>
<path d="M70.1416 104.11C69.5296 104.11 69.0256 103.606 69.0256 102.994C69.0256 102.364 69.5296 101.878 70.1416 101.878C70.7536 101.878 71.2576 102.364 71.2576 102.994C71.2576 103.606 70.7536 104.11 70.1416 104.11ZM69.3136 115V106.198H71.0056V115H69.3136Z" fill="black" fill-opacity="0.3"/>
<path d="M75.154 115H73.462V106.198H74.992L75.172 107.548C75.73 106.54 76.846 105.946 78.088 105.946C80.41 105.946 81.472 107.368 81.472 109.618V115H79.78V109.996C79.78 108.214 78.952 107.494 77.656 107.494C76.072 107.494 75.154 108.628 75.154 110.338V115Z" fill="black" fill-opacity="0.3"/>
<path d="M83.2575 110.374C83.2575 107.89 84.8595 105.946 87.4155 105.946C88.8375 105.946 89.9355 106.594 90.4935 107.692L90.6195 106.198H92.1315V114.64C92.1315 117.412 90.4215 119.176 87.7215 119.176C85.3275 119.176 83.6895 117.826 83.3655 115.594H85.0575C85.2735 116.89 86.2455 117.646 87.7215 117.646C89.3775 117.646 90.4575 116.566 90.4575 114.892V113.128C89.8815 114.154 88.7295 114.766 87.3435 114.766C84.8415 114.766 83.2575 112.84 83.2575 110.374ZM84.9495 110.338C84.9495 111.994 85.9755 113.29 87.6315 113.29C89.3415 113.29 90.3855 112.066 90.3855 110.338C90.3855 108.646 89.3775 107.422 87.6495 107.422C85.9575 107.422 84.9495 108.718 84.9495 110.338Z" fill="black" fill-opacity="0.3"/>
<path d="M35.6262 144.746V143.198C33.2502 143.054 31.6842 141.704 31.5762 139.598H33.3762C33.4122 140.75 34.2582 141.506 35.6262 141.65V137.168L34.9782 137.024C32.8542 136.538 31.7562 135.35 31.7562 133.496C31.7562 131.444 33.2862 129.986 35.6262 129.788V128.222H36.7782V129.77C38.9562 129.968 40.3422 131.3 40.4682 133.388H38.7222C38.6502 132.236 37.9482 131.498 36.7782 131.336V135.8L37.4802 135.962C39.6402 136.448 40.6842 137.582 40.6842 139.382C40.6842 141.524 39.1542 142.964 36.7782 143.18V144.746H35.6262ZM35.3382 135.458L35.6262 135.53V131.336C34.2942 131.516 33.4842 132.29 33.4842 133.442C33.4842 134.486 34.0782 135.152 35.3382 135.458ZM37.1202 137.528L36.7782 137.456V141.614C38.1282 141.434 38.9562 140.66 38.9562 139.526C38.9562 138.482 38.3622 137.816 37.1202 137.528Z" fill="black"/>
<path d="M45.9968 136.268H44.7008V135.098L48.3908 131.552H42.5408V129.986H50.6228V131.408L47.0588 134.81C49.2728 135.08 50.9468 136.574 50.9468 138.914C50.9468 141.542 48.9668 143.216 46.3208 143.216C43.7648 143.216 41.9288 141.65 41.9288 138.95H43.6748C43.6748 140.642 44.7188 141.632 46.3568 141.632C48.0488 141.632 49.1468 140.552 49.1468 138.878C49.1468 137.312 48.0668 136.268 45.9968 136.268Z" fill="black"/>
<path d="M60.9501 142.982L52.1661 143V141.65L56.3601 138.032C58.4661 136.214 59.0601 135.332 59.0601 133.946C59.0601 132.308 58.1241 131.336 56.5581 131.336C54.9561 131.336 53.9121 132.506 53.8761 134.36H52.1121C52.1661 131.57 53.9301 129.752 56.5761 129.752C59.1861 129.752 60.8601 131.336 60.8601 133.838C60.8601 135.692 59.9421 137.006 57.6381 139.004L54.9381 141.344H60.9501V142.982Z" fill="black"/>
<path d="M65.6118 142.298C65.6118 143.594 64.6398 144.674 63.3618 144.836V144.08C64.0998 143.954 64.6218 143.468 64.6218 142.91C64.4958 142.982 64.3518 143.018 64.1358 143.018C63.5418 143.018 63.0378 142.586 63.0378 141.92C63.0378 141.2 63.5238 140.678 64.2438 140.678C64.9998 140.678 65.6118 141.308 65.6118 142.298Z" fill="black"/>
<path d="M67.477 139.382C67.477 137.816 68.395 136.556 69.835 136.034C68.611 135.512 67.945 134.486 67.945 133.172C67.945 131.138 69.691 129.752 72.283 129.752C74.839 129.752 76.567 131.138 76.567 133.19C76.567 134.522 75.883 135.548 74.659 136.034C76.117 136.502 77.053 137.798 77.053 139.4C77.053 141.686 75.145 143.216 72.265 143.216C69.367 143.216 67.477 141.686 67.477 139.382ZM69.565 133.28C69.565 134.558 70.627 135.386 72.247 135.386C73.885 135.386 74.911 134.576 74.911 133.316C74.911 132.074 73.885 131.282 72.247 131.282C70.627 131.282 69.565 132.074 69.565 133.28ZM69.205 139.256C69.205 140.714 70.411 141.65 72.265 141.65C74.101 141.65 75.307 140.714 75.307 139.256C75.307 137.816 74.119 136.898 72.247 136.898C70.393 136.898 69.205 137.816 69.205 139.256Z" fill="black"/>
<path d="M87.2469 142.982L78.4629 143V141.65L82.6569 138.032C84.7629 136.214 85.3569 135.332 85.3569 133.946C85.3569 132.308 84.4209 131.336 82.8549 131.336C81.2529 131.336 80.2089 132.506 80.1729 134.36H78.4089C78.4629 131.57 80.2269 129.752 82.8729 129.752C85.4829 129.752 87.1569 131.336 87.1569 133.838C87.1569 135.692 86.2389 137.006 83.9349 139.004L81.2349 141.344H87.2469V142.982Z" fill="black"/>
<path d="M88.8705 136.502C88.8705 132.47 90.9585 129.734 94.2345 129.734C97.4925 129.734 99.5805 132.47 99.5805 136.502C99.5805 140.552 97.5825 143.234 94.2345 143.234C90.8685 143.234 88.8705 140.552 88.8705 136.502ZM90.6165 136.502C90.6165 139.706 91.9485 141.65 94.2345 141.65C96.5205 141.65 97.8345 139.706 97.8345 136.502C97.8345 133.262 96.5205 131.318 94.2345 131.318C91.9485 131.318 90.6165 133.262 90.6165 136.502Z" fill="black"/>
<path d="M188.626 145.746V144.198C186.25 144.054 184.684 142.704 184.576 140.598H186.376C186.412 141.75 187.258 142.506 188.626 142.65V138.168L187.978 138.024C185.854 137.538 184.756 136.35 184.756 134.496C184.756 132.444 186.286 130.986 188.626 130.788V129.222H189.778V130.77C191.956 130.968 193.342 132.3 193.468 134.388H191.722C191.65 133.236 190.948 132.498 189.778 132.336V136.8L190.48 136.962C192.64 137.448 193.684 138.582 193.684 140.382C193.684 142.524 192.154 143.964 189.778 144.18V145.746H188.626ZM188.338 136.458L188.626 136.53V132.336C187.294 132.516 186.484 133.29 186.484 134.442C186.484 135.486 187.078 136.152 188.338 136.458ZM190.12 138.528L189.778 138.456V142.614C191.128 142.434 191.956 141.66 191.956 140.526C191.956 139.482 191.362 138.816 190.12 138.528Z" fill="black"/>
<path d="M204.001 143.982L195.217 144V142.65L199.411 139.032C201.517 137.214 202.111 136.332 202.111 134.946C202.111 133.308 201.175 132.336 199.609 132.336C198.007 132.336 196.963 133.506 196.927 135.36H195.163C195.217 132.57 196.981 130.752 199.627 130.752C202.237 130.752 203.911 132.336 203.911 134.838C203.911 136.692 202.993 138.006 200.689 140.004L197.989 142.344H204.001V143.982Z" fill="black"/>
<path d="M208.663 143.298C208.663 144.594 207.691 145.674 206.413 145.836V145.08C207.151 144.954 207.673 144.468 207.673 143.91C207.547 143.982 207.403 144.018 207.187 144.018C206.593 144.018 206.089 143.586 206.089 142.92C206.089 142.2 206.575 141.678 207.295 141.678C208.051 141.678 208.663 142.308 208.663 143.298Z" fill="black"/>
<path d="M214.184 137.268H212.888V136.098L216.578 132.552H210.728V130.986H218.81V132.408L215.246 135.81C217.46 136.08 219.134 137.574 219.134 139.914C219.134 142.542 217.154 144.216 214.508 144.216C211.952 144.216 210.116 142.65 210.116 139.95H211.862C211.862 141.642 212.906 142.632 214.544 142.632C216.236 142.632 217.334 141.552 217.334 139.878C217.334 138.312 216.254 137.268 214.184 137.268Z" fill="black"/>
<path d="M230.373 141.372H228.825V144H227.133V141.372H220.401V139.806L226.539 130.986H228.825V139.806H230.373V141.372ZM222.309 139.806H227.133V132.858L222.309 139.806Z" fill="black"/>
<path d="M232.115 137.502C232.115 133.47 234.203 130.734 237.479 130.734C240.737 130.734 242.825 133.47 242.825 137.502C242.825 141.552 240.827 144.234 237.479 144.234C234.113 144.234 232.115 141.552 232.115 137.502ZM233.861 137.502C233.861 140.706 235.193 142.65 237.479 142.65C239.765 142.65 241.079 140.706 241.079 137.502C241.079 134.262 239.765 132.318 237.479 132.318C235.193 132.318 233.861 134.262 233.861 137.502Z" fill="black"/>
<path d="M190.57 111.356H187.276V116H185.512V102.986H190.57C193.126 102.986 194.764 104.66 194.764 107.162C194.764 109.592 193.108 111.356 190.57 111.356ZM190.264 104.57H187.276V109.772H190.192C191.938 109.772 192.91 108.746 192.91 107.144C192.91 105.506 191.92 104.57 190.264 104.57Z" fill="black" fill-opacity="0.3"/>
<path d="M201.514 107.126V108.674H200.758C199.156 108.674 198.166 109.646 198.166 111.338V116H196.474V107.216H198.058L198.166 108.548C198.526 107.63 199.408 107.018 200.614 107.018C200.92 107.018 201.172 107.054 201.514 107.126Z" fill="black" fill-opacity="0.3"/>
<path d="M202.208 111.59C202.208 108.872 204.152 106.964 206.798 106.964C209.426 106.964 211.37 108.872 211.37 111.59C211.37 114.308 209.426 116.216 206.798 116.216C204.152 116.216 202.208 114.308 202.208 111.59ZM203.918 111.59C203.918 113.426 205.088 114.704 206.798 114.704C208.49 114.704 209.678 113.426 209.678 111.59C209.678 109.754 208.49 108.476 206.798 108.476C205.088 108.476 203.918 109.754 203.918 111.59Z" fill="black" fill-opacity="0.3"/>
<path d="M219.149 116V108.62H215.243V116H213.551V108.62H212.255V107.198H213.551V105.794C213.551 103.634 214.721 102.752 216.251 102.752C216.575 102.752 216.971 102.77 217.295 102.824V104.282H216.539C215.513 104.282 215.243 104.84 215.243 105.794V107.198H220.841V116H219.149ZM219.995 105.038C219.383 105.038 218.915 104.57 218.915 103.958C218.915 103.346 219.383 102.878 219.995 102.878C220.589 102.878 221.057 103.346 221.057 103.958C221.057 104.57 220.589 105.038 219.995 105.038Z" fill="black" fill-opacity="0.3"/>
<path d="M225.729 116H224.037V108.62H222.309V107.198H224.037V104.444H225.729V107.198H227.457V108.62H225.729V116Z" fill="black" fill-opacity="0.3"/>
<path d="M323.538 134.108L326.58 129.986H328.632L325.374 134.306C325.824 134.126 326.292 134.036 326.742 134.036C329.442 134.036 331.26 135.98 331.26 138.554C331.26 141.272 329.208 143.216 326.526 143.216C323.826 143.216 321.738 141.182 321.738 138.554C321.738 137.006 322.206 135.926 323.538 134.108ZM323.538 138.572C323.538 140.354 324.762 141.632 326.526 141.632C328.254 141.632 329.478 140.354 329.478 138.572C329.478 136.79 328.254 135.53 326.526 135.53C324.762 135.53 323.538 136.79 323.538 138.572Z" fill="black"/>
<path d="M339.842 143H338.15V134.198H339.662L339.824 135.35C340.274 134.522 341.21 133.946 342.452 133.946C343.82 133.946 344.792 134.63 345.242 135.728C345.656 134.63 346.718 133.946 348.086 133.946C350.102 133.946 351.326 135.206 351.326 137.24V143H349.67V137.654C349.67 136.268 348.896 135.476 347.708 135.476C346.43 135.476 345.584 136.376 345.584 137.78V143H343.91V137.636C343.91 136.25 343.154 135.494 341.966 135.494C340.688 135.494 339.842 136.376 339.842 137.78V143Z" fill="black"/>
<path d="M353.096 138.59C353.096 135.872 355.04 133.964 357.686 133.964C360.314 133.964 362.258 135.872 362.258 138.59C362.258 141.308 360.314 143.216 357.686 143.216C355.04 143.216 353.096 141.308 353.096 138.59ZM354.806 138.59C354.806 140.426 355.976 141.704 357.686 141.704C359.378 141.704 360.566 140.426 360.566 138.59C360.566 136.754 359.378 135.476 357.686 135.476C355.976 135.476 354.806 136.754 354.806 138.59Z" fill="black"/>
<path d="M365.823 143H364.131V134.198H365.661L365.841 135.548C366.399 134.54 367.515 133.946 368.757 133.946C371.079 133.946 372.141 135.368 372.141 137.618V143H370.449V137.996C370.449 136.214 369.621 135.494 368.325 135.494C366.741 135.494 365.823 136.628 365.823 138.338V143Z" fill="black"/>
<path d="M376.968 143H375.276V135.62H373.548V134.198H375.276V131.444H376.968V134.198H378.696V135.62H376.968V143Z" fill="black"/>
<path d="M381.907 142.982H380.215V129.752H381.907V135.548C382.465 134.594 383.527 133.946 384.895 133.946C387.145 133.946 388.225 135.368 388.225 137.618V143H386.533V137.996C386.533 136.214 385.687 135.494 384.427 135.494C382.789 135.494 381.907 136.682 381.907 138.194V142.982Z" fill="black"/>
<path d="M389.743 140.444H391.363C391.363 141.344 392.047 141.884 393.163 141.884C394.351 141.884 395.035 141.398 395.035 140.588C395.035 139.994 394.747 139.634 393.829 139.4L392.281 139.04C390.715 138.662 389.977 137.888 389.977 136.592C389.977 134.972 391.345 133.946 393.289 133.946C395.215 133.946 396.475 135.026 396.511 136.7H394.891C394.855 135.818 394.261 135.26 393.235 135.26C392.173 135.26 391.579 135.728 391.579 136.538C391.579 137.132 392.011 137.528 392.875 137.744L394.423 138.122C395.917 138.482 396.655 139.166 396.655 140.48C396.655 142.154 395.215 143.216 393.127 143.216C391.057 143.216 389.743 142.118 389.743 140.444Z" fill="black"/>
<path d="M328.814 115H324.512V101.986H328.742C332.63 101.986 335.258 104.614 335.258 108.502C335.258 112.372 332.666 115 328.814 115ZM328.616 103.606H326.276V113.362H328.688C331.586 113.362 333.422 111.49 333.422 108.502C333.422 105.478 331.586 103.606 328.616 103.606Z" fill="black" fill-opacity="0.3"/>
<path d="M343.298 106.198H344.972V115H343.46L343.28 113.668C342.776 114.586 341.606 115.216 340.31 115.216C338.258 115.216 337.106 113.83 337.106 111.67V106.198H338.798V111.112C338.798 113.002 339.608 113.722 340.904 113.722C342.452 113.722 343.298 112.732 343.298 110.842V106.198Z" fill="black" fill-opacity="0.3"/>
<path d="M352.467 106.126V107.674H351.711C350.109 107.674 349.119 108.646 349.119 110.338V115H347.427V106.216H349.011L349.119 107.548C349.479 106.63 350.361 106.018 351.567 106.018C351.873 106.018 352.125 106.054 352.467 106.126Z" fill="black" fill-opacity="0.3"/>
<path d="M356.276 115.216C354.386 115.216 353.27 114.154 353.27 112.552C353.27 110.932 354.476 109.924 356.546 109.762L359.318 109.546V109.294C359.318 107.818 358.436 107.296 357.248 107.296C355.826 107.296 355.016 107.926 355.016 108.988H353.54C353.54 107.152 355.052 105.946 357.32 105.946C359.498 105.946 360.974 107.098 360.974 109.474V115H359.534L359.354 113.578C358.904 114.586 357.698 115.216 356.276 115.216ZM356.762 113.902C358.364 113.902 359.336 112.858 359.336 111.202V110.734L357.086 110.914C355.592 111.058 354.98 111.634 354.98 112.498C354.98 113.434 355.664 113.902 356.762 113.902Z" fill="black" fill-opacity="0.3"/>
<path d="M365.661 115H363.969V107.62H362.241V106.198H363.969V103.444H365.661V106.198H367.389V107.62H365.661V115Z" fill="black" fill-opacity="0.3"/>
<path d="M369.735 104.11C369.123 104.11 368.619 103.606 368.619 102.994C368.619 102.364 369.123 101.878 369.735 101.878C370.347 101.878 370.851 102.364 370.851 102.994C370.851 103.606 370.347 104.11 369.735 104.11ZM368.907 115V106.198H370.599V115H368.907Z" fill="black" fill-opacity="0.3"/>
<path d="M372.48 110.59C372.48 107.872 374.424 105.964 377.07 105.964C379.698 105.964 381.642 107.872 381.642 110.59C381.642 113.308 379.698 115.216 377.07 115.216C374.424 115.216 372.48 113.308 372.48 110.59ZM374.19 110.59C374.19 112.426 375.36 113.704 377.07 113.704C378.762 113.704 379.95 112.426 379.95 110.59C379.95 108.754 378.762 107.476 377.07 107.476C375.36 107.476 374.19 108.754 374.19 110.59Z" fill="black" fill-opacity="0.3"/>
<path d="M385.207 115H383.515V106.198H385.045L385.225 107.548C385.783 106.54 386.899 105.946 388.141 105.946C390.463 105.946 391.525 107.368 391.525 109.618V115H389.833V109.996C389.833 108.214 389.005 107.494 387.709 107.494C386.125 107.494 385.207 108.628 385.207 110.338V115Z" fill="black" fill-opacity="0.3"/>
<path d="M39.3197 59.0399V56.3839C34.8717 56.0639 32.0237 53.4719 31.9277 49.5679H36.0237C36.0557 51.3919 37.2397 52.5439 39.3197 52.7999V45.9839L38.2957 45.7599C34.2637 44.8959 32.2477 42.6559 32.2477 39.1359C32.2477 35.3919 35.0637 32.7039 39.3197 32.2559V29.5359H41.7837V32.2559C45.8157 32.6719 48.3117 35.1999 48.4397 39.0399H44.4717C44.4077 37.3119 43.4477 36.1919 41.7837 35.8399V42.7199L42.8717 42.9759C46.9677 43.8719 48.8237 45.8559 48.8237 49.2479C48.8237 53.1519 46.0717 55.8399 41.7837 56.3199V59.0399H39.3197ZM39.1917 42.1439L39.3197 42.1759V35.8079C37.3997 36.1279 36.2477 37.2799 36.2477 39.0079C36.2477 40.7039 37.1437 41.6959 39.1917 42.1439ZM42.0077 46.5599L41.7837 46.4959V52.7359C43.7037 52.3519 44.8557 51.2319 44.8557 49.5999C44.8557 47.9679 43.9277 46.9759 42.0077 46.5599Z" fill="#00DAC0"/>
<path d="M56.1452 36.2879H51.0252V32.6079H60.0812V55.9999H56.1452V36.2879Z" fill="#00DAC0"/>
<path d="M63.1925 32.6079H79.9925V36.3839L71.5125 55.9999H67.2565L75.8965 36.3839H63.1925V32.6079Z" fill="#00DAC0"/>
<path d="M84.1067 54.5919C84.1067 57.2479 82.1867 59.3599 79.5947 59.6799V58.1119C81.0347 57.8559 82.1227 56.9919 82.1227 55.8719C81.8667 55.9999 81.5787 56.0639 81.1947 56.0639C79.9467 56.0639 78.9227 55.1359 78.9227 53.8559C78.9227 52.3199 79.9147 51.2959 81.3547 51.2959C82.9547 51.2959 84.1067 52.6079 84.1067 54.5919Z" fill="#00DAC0"/>
<path d="M94.194 44.4159H91.346V41.7599L97.362 36.2239H87.634V32.6079H102.482V35.8719L96.786 41.1199C100.37 41.8239 103.154 44.4479 103.154 48.5759C103.154 53.3759 99.41 56.4159 94.674 56.4159C90.098 56.4159 86.546 53.5999 86.546 48.5439H90.578C90.578 51.2319 92.242 52.7679 94.738 52.7679C97.298 52.7679 98.994 51.1039 98.994 48.5119C98.994 46.1439 97.458 44.4159 94.194 44.4159Z" fill="#00DAC0"/>
<path d="M113.44 56.3839C108.544 56.3839 105.312 53.2479 105.312 48.5119H109.376C109.376 51.1679 110.944 52.7359 113.536 52.7359C116.288 52.7359 118.048 50.9439 118.048 48.0959C118.048 45.3759 116.416 43.5199 113.6 43.5199C111.808 43.5199 110.176 44.4159 109.344 45.6319L105.728 44.8639L108.608 32.6079H120.8V36.3839H111.552L110.304 41.2479C111.424 40.5119 112.832 40.0959 114.432 40.0959C119.104 40.0959 122.208 43.2639 122.208 47.8719C122.208 52.9279 118.656 56.3839 113.44 56.3839Z" fill="#00DAC0"/>
<path d="M124.563 44.3519C124.563 37.0879 128.467 32.1599 134.451 32.1599C140.435 32.1599 144.371 37.0879 144.371 44.3519C144.371 51.5839 140.659 56.4159 134.451 56.4159C128.243 56.4159 124.563 51.5839 124.563 44.3519ZM128.595 44.3519C128.595 49.7599 130.771 52.7999 134.451 52.7999C138.163 52.7999 140.339 49.7599 140.339 44.3519C140.339 38.8159 138.163 35.7759 134.451 35.7759C130.771 35.7759 128.595 38.8159 128.595 44.3519Z" fill="#00DAC0"/>
<path d="M149.233 56.3839C147.825 56.3839 146.641 55.2319 146.641 53.8559C146.641 52.4479 147.825 51.2959 149.233 51.2959C150.641 51.2959 151.825 52.4479 151.825 53.8559C151.825 55.2319 150.641 56.3839 149.233 56.3839Z" fill="#00DAC0"/>
<path d="M154.126 44.3519C154.126 37.0879 158.03 32.1599 164.014 32.1599C169.998 32.1599 173.934 37.0879 173.934 44.3519C173.934 51.5839 170.222 56.4159 164.014 56.4159C157.806 56.4159 154.126 51.5839 154.126 44.3519ZM158.158 44.3519C158.158 49.7599 160.334 52.7999 164.014 52.7999C167.726 52.7999 169.902 49.7599 169.902 44.3519C169.902 38.8159 167.726 35.7759 164.014 35.7759C160.334 35.7759 158.158 38.8159 158.158 44.3519Z" fill="#00DAC0"/>
<path d="M176.688 44.3519C176.688 37.0879 180.592 32.1599 186.576 32.1599C192.56 32.1599 196.496 37.0879 196.496 44.3519C196.496 51.5839 192.784 56.4159 186.576 56.4159C180.368 56.4159 176.688 51.5839 176.688 44.3519ZM180.72 44.3519C180.72 49.7599 182.896 52.7999 186.576 52.7999C190.288 52.7999 192.464 49.7599 192.464 44.3519C192.464 38.8159 190.288 35.7759 186.576 35.7759C182.896 35.7759 180.72 38.8159 180.72 44.3519Z" fill="#00DAC0"/>
</svg>
