<svg xmlns="http://www.w3.org/2000/svg" xmlns:xlink="http://www.w3.org/1999/xlink" width="647.522" height="545.201" viewBox="0 0 647.522 545.201"><defs><clipPath id="clip-path"><path id="Path_4153" data-name="Path 4153" d="M-3399.748,168.527c-72.717,100.917-129.127,117.82-129.127,117.82l-.015-.045c-20.9,9.669-43.534,15.08-67.642,14.333-28.95-.9-57.317-6.65-83.13-20.107-49.906-26.018-94.3-63.025-131.906-104.573-35.783-39.543-70.89-82.343-97.717-128.555A421.559,421.559,0,0,1-3937.04-8.815c-10.695-27.078-17.629-55.594-16.753-83.977,1.258-40.822,11.261-80.4,44.889-106.67,24.137-18.85,58.091-31.67,87.959-37.592,84.072-16.664,173.1-2.523,255.937,14.688a1466.329,1466.329,0,0,1,151.117,39.809c34.29,11.043,64.745,29.243,86.507,59.182,10.479,14.423,16.833,31.486,19.749,49.271C-3293.678,14.446-3397.47,165.229-3399.748,168.527Z" transform="translate(3953.868 244.497)" fill="#013437"></path></clipPath><linearGradient id="linear-gradient" x1="0.955" y1="0.067" x2="0.319" y2="0.684" gradientUnits="objectBoundingBox"><stop offset="0" stop-color="#013437"></stop><stop offset="1" stop-color="#013437" stop-opacity="0"></stop></linearGradient></defs><g id="Group_426" data-name="Group 426" transform="translate(-275 -4758)"><path id="Path_4152" data-name="Path 4152" d="M-3399.748,168.527c-72.717,100.917-129.127,117.82-129.127,117.82l-.015-.045c-20.9,9.669-43.534,15.08-67.642,14.333-28.95-.9-57.317-6.65-83.13-20.107-49.906-26.018-94.3-63.025-131.906-104.573-35.783-39.543-70.89-82.343-97.717-128.555A421.559,421.559,0,0,1-3937.04-8.815c-10.695-27.078-17.629-55.594-16.753-83.977,1.258-40.822,11.261-80.4,44.889-106.67,24.137-18.85,58.091-31.67,87.959-37.592,84.072-16.664,173.1-2.523,255.937,14.688a1466.329,1466.329,0,0,1,151.117,39.809c34.29,11.043,64.745,29.243,86.507,59.182,10.479,14.423,16.833,31.486,19.749,49.271C-3293.678,14.446-3397.47,165.229-3399.748,168.527Z" transform="translate(4228.868 5002.497)" fill="#004246"></path><g id="Mask_Group_2" data-name="Mask Group 2" transform="translate(275 4758)" clip-path="url(#clip-path)"><g id="Group_352" data-name="Group 352" transform="translate(37 -9.799)"><path id="Path_4148" data-name="Path 4148" d="M-2949.79,1200.313l-2.42-.626c.036-.139.9-3.455,2.834-8.758a155.172,155.172,0,0,1,9.309-20.634,123.541,123.541,0,0,1,17.1-24.34,84.839,84.839,0,0,1,26.266-19.818,73.974,73.974,0,0,1,31.932-7.024c14.679,0,30.486,3.92,47.3,11.753,52.858,24.633,116.6,14.918,160.757,2.43a462.361,462.361,0,0,0,60.255-21.846c14.794-6.558,23.766-11.5,23.855-11.545l1.209,2.188c-.09.05-9.158,5.04-24.051,11.642-8.741,3.875-17.757,7.542-26.8,10.9-11.3,4.2-22.669,7.921-33.792,11.066-28.333,8.012-55.264,12.37-80.045,12.953a213.343,213.343,0,0,1-42-2.976,172.874,172.874,0,0,1-20.555-4.923,154.808,154.808,0,0,1-19.9-7.624c-16.462-7.672-31.92-11.513-46.236-11.513a71.49,71.49,0,0,0-30.857,6.772c-20.874,9.843-34.479,28.836-42.217,43.037a152.586,152.586,0,0,0-9.168,20.3C-2948.909,1196.938-2949.781,1200.28-2949.79,1200.313Z" transform="translate(3152 -674)" fill="#013437"></path><path id="Path_4149" data-name="Path 4149" d="M-3024.828,1409.768l-2.345-.868c.021-.056,2.126-5.715,6.211-14.315a270.011,270.011,0,0,1,18.548-32.876,193.089,193.089,0,0,1,30.892-36.59,130.311,130.311,0,0,1,20.1-15.035,101.365,101.365,0,0,1,23.23-10.348,90.2,90.2,0,0,1,22.237-3.68,96.214,96.214,0,0,1,24.436,2.286,122.756,122.756,0,0,1,26.575,9.387,178.693,178.693,0,0,1,28.685,17.6c17.852,13.254,34.2,22.455,48.578,27.348a72.411,72.411,0,0,0,23.186,4.26c10.667,0,19.879-3.205,27.54-9.606,32.125-26.844,34.582-68.015,36.958-107.83.254-4.255.516-8.655.812-12.915.191-2.76.261-6,.336-9.431.186-8.594.4-18.333,2.477-27.06a38.155,38.155,0,0,1,4.843-12.033,22.1,22.1,0,0,1,9.311-8.266,34.978,34.978,0,0,1,16.158-3.017,56.37,56.37,0,0,1,16.635,3.421,88.1,88.1,0,0,1,15.493,7.386,101.56,101.56,0,0,1,12.772,9.009,299.907,299.907,0,0,1,33.724,33.608c10.507,12.039,20.438,24.668,30.042,36.881l.374.475-1.965,1.545-.373-.475c-19.406-24.678-39.473-50.2-63.4-70.113a94.392,94.392,0,0,0-27.5-15.962c-12-4.264-22.4-4.429-30.906-.491-6.305,2.919-10.483,9.007-12.772,18.61-2.019,8.467-2.226,18.066-2.41,26.534-.075,3.461-.146,6.73-.341,9.549-.295,4.248-.557,8.642-.81,12.892-1.18,19.782-2.4,40.238-7.422,59.206a109.461,109.461,0,0,1-10.907,27.152,88.046,88.046,0,0,1-8.509,12.223,86.627,86.627,0,0,1-11.012,11.019c-13.472,11.257-31.349,13.206-53.134,5.794a146.408,146.408,0,0,1-26.69-12.6,253.89,253.89,0,0,1-22.572-15.106c-25.848-19.19-50.912-28.835-74.805-28.835a87.069,87.069,0,0,0-24.917,3.628c-33.315,9.9-57.994,38.586-72.83,60.912a267.436,267.436,0,0,0-18.382,32.565C-3022.728,1404.125-3024.807,1409.712-3024.828,1409.768Z" transform="translate(3152 -950.333)" fill="#013437"></path><path id="Path_4150" data-name="Path 4150" d="M-3125.752,1605.692l-2.5-.14c0-.071.418-7.276,1.97-18.346a317.259,317.259,0,0,1,8.991-42.715c5.446-18.92,12.409-35.364,20.7-48.874a117.131,117.131,0,0,1,16.25-21.054,84.094,84.094,0,0,1,21.019-15.713,75.108,75.108,0,0,1,22.348-7.423,89.245,89.245,0,0,1,26.577-.189,134.089,134.089,0,0,1,31.093,8.467,226.7,226.7,0,0,1,35.965,18.524c26.952,16.805,50.381,27.048,69.638,30.443,16.608,2.928,30.368.8,40.9-6.311,8.656-5.849,15.289-15.164,19.716-27.686,3.573-10.109,5.723-22.308,6.39-36.259a227.709,227.709,0,0,0-.837-31.5c-.746-7.88-1.633-13.037-1.693-13.385-.08-.379-.918-4.45-1.594-10.9a149.393,149.393,0,0,1-.477-25.994,97.386,97.386,0,0,1,7.126-31.238,65.3,65.3,0,0,1,8.49-14.5,56.475,56.475,0,0,1,12.884-12.034,61.952,61.952,0,0,1,16.006-7.637,84.894,84.894,0,0,1,20.7-3.63,134.313,134.313,0,0,1,25.929,1.251,224.3,224.3,0,0,1,31.744,7,373.515,373.515,0,0,1,38.16,13.64c14.117,5.861,29.317,12.986,45.177,21.177,16.578,8.562,34.339,18.527,52.789,29.619,19.236,11.564,39.758,24.674,61,38.968l-1.4,2.074c-79.636-53.6-145.719-88.276-196.415-103.074q-28.538-8.331-50.6-8.33c-16.876,0-30.812,3.67-41.683,11.008-8.917,6.019-15.8,14.57-20.468,25.415a94.819,94.819,0,0,0-6.941,30.407,146.78,146.78,0,0,0,.458,25.552c.682,6.527,1.556,10.685,1.565,10.726l.008.042c.01.053.945,5.382,1.724,13.6a230.259,230.259,0,0,1,.845,31.859c-.678,14.194-2.875,26.634-6.53,36.973a69.4,69.4,0,0,1-8.128,16.313,47.933,47.933,0,0,1-12.545,12.612,46.369,46.369,0,0,1-18.3,7.192,71.76,71.76,0,0,1-24.433-.49,143.982,143.982,0,0,1-31.348-9.851,297.722,297.722,0,0,1-39.178-20.932c-45.41-28.314-83.6-34.8-113.509-19.281-13.915,7.221-26.125,19.285-36.29,35.856-8.169,13.318-15.042,29.554-20.425,48.258a314.7,314.7,0,0,0-8.918,42.371C-3125.34,1598.521-3125.748,1605.622-3125.752,1605.692Z" transform="translate(3152 -1267.289)" fill="#013437"></path><path id="Path_4151" data-name="Path 4151" d="M-2976.3,1628.246q-6.133,0-12.743-.523c-21.142-1.674-46.135-7.355-74.283-16.886-11.045-3.74-22.61-8.089-34.374-12.926-9.409-3.869-18.967-8.058-28.406-12.45-16.077-7.48-26.385-13.036-26.487-13.091l1.188-2.2c.1.055,10.362,5.585,26.384,13.038a637.067,637.067,0,0,0,62.528,25.271c27.948,9.46,52.731,15.1,73.663,16.752,25.979,2.055,46.01-2.051,59.535-12.2,21.021-15.78,26.765-46.563,17.074-91.494l2.444-.527a197.1,197.1,0,0,1,4.544,33.623,106.247,106.247,0,0,1-2,26.446,63.508,63.508,0,0,1-7.79,19.943,50.816,50.816,0,0,1-12.771,14.009,57.39,57.39,0,0,1-12.742,7.15,76.373,76.373,0,0,1-14.722,4.261A114.034,114.034,0,0,1-2976.3,1628.246Z" transform="translate(3152 -1521.271)" fill="#013437"></path></g></g><g id="Group_383" data-name="Group 383" transform="translate(-2.751)"><rect id="Rectangle_357" data-name="Rectangle 357" width="436.5" height="297.588" rx="23" transform="translate(409.593 4837.88)" fill="url(#linear-gradient)"></rect><path id="Path_4188" data-name="Path 4188" d="M592.083,5161.558l-7.7,52-34.489,26.085v9.979H707.1v-9.979l-35.539-26.085-8.929-52Z" transform="translate(0 -26)" fill="#004246"></path><path id="Path_4165" data-name="Path 4165" d="M601.41,573.375a2.375,2.375,0,0,0,0,4.75h52.5a2.375,2.375,0,0,0,0-4.75Z" transform="translate(0.295 4612.63)" fill="#eee234"></path><path id="Path_4166" data-name="Path 4166" d="M610.182,356.36l-21.656-48.7a2,2,0,0,0-2.645-1.013,6.7,6.7,0,0,0-3.5,8.6l6.473,16.264a2.381,2.381,0,0,1-1.337,3.086l-.085.028-2.859,1.005a14.382,14.382,0,0,0-8.294,19.6l6.492,14.061a2,2,0,0,0,2.673.969l23.766-11.276A2,2,0,0,0,610.182,356.36Z" transform="translate(0.295 4612.63)" fill="#004246"></path><path id="Path_4167" data-name="Path 4167" d="M728.291,337.122a15.128,15.128,0,0,0,14.246-10.085,2,2,0,0,0-1.887-2.665h-3.609A2.373,2.373,0,0,1,734.666,322V293.911a2.377,2.377,0,0,1,2.381-2.38,2.414,2.414,0,0,1,.375.029,5.085,5.085,0,0,0,.936.093,5.033,5.033,0,0,0,4.97-4.181c.005-.029.009-.058.013-.087h0c.009-.039.016-.079.022-.119a3.913,3.913,0,0,0,.046-.682,5.066,5.066,0,0,0-9.088-3.106,2.367,2.367,0,0,1-1.777.932l-.12,0a2.376,2.376,0,0,1-1.734-.758,20.184,20.184,0,0,1-3.818-5.884,2,2,0,0,0-1.45-1.181l-14.242-2.843a2,2,0,0,0-2.392,1.961v18.744a12.966,12.966,0,0,0,12.943,12.924,2.361,2.361,0,0,1,1.179,4.407,2,2,0,0,0-1,1.73V322a2.361,2.361,0,0,1-.7,1.68,2.391,2.391,0,0,1-1.68.7h-3.609a2,2,0,0,0-1.887,2.665A15.129,15.129,0,0,0,728.291,337.122Z" transform="translate(0.295 4612.63)" fill="#004246"></path><path id="Path_4168" data-name="Path 4168" d="M748.165,263.044v7.316a2,2,0,0,0,2,2h.045a10.741,10.741,0,1,0-2.756-21.165,2,2,0,0,0-1.319,2.8A21.189,21.189,0,0,1,748.165,263.044Z" transform="translate(0.295 4612.63)" fill="#004246"></path><path id="Path_4169" data-name="Path 4169" d="M730.541,273.983c.007.023.016.046.024.068l.2.593a15.736,15.736,0,0,0,.847,2.062,2,2,0,0,0,2.608.936,10.172,10.172,0,0,1,6.69-.555,2,2,0,0,0,2.5-1.935V263.043A16.55,16.55,0,0,0,726.869,246.5H716.622a13.277,13.277,0,0,1-7.985-2.659,8.574,8.574,0,0,0-5.143-1.716h-1.453a12.938,12.938,0,1,0,0,25.875h4.375a2.322,2.322,0,0,1,.471.047l21.877,4.375A2.374,2.374,0,0,1,730.541,273.983Z" transform="translate(0.295 4612.63)" fill="#004246"></path><path id="Path_4170" data-name="Path 4170" d="M684.537,459.622h8.75a2,2,0,0,0,2-2V431.373a6.766,6.766,0,0,1,6.75-6.751h8.75a2,2,0,0,0,2-2v-.929a10.316,10.316,0,0,1,20.42-2.075l.7,3.406a2,2,0,0,0,1.959,1.6H780a2,2,0,0,0,1.973-2.329l-11.55-69.318a2.375,2.375,0,1,1,4.685-.779c.007.053.018.1.029.157l12.37,74.253a2.379,2.379,0,0,1-2.342,2.766H754.64a2,2,0,0,0-2,2v26.25a2,2,0,0,0,2,2h47.914a19.5,19.5,0,0,0,19.169-23.1l-18.047-96.252a19.5,19.5,0,0,0-19.169-15.9H749.726a2,2,0,0,0-1.959,1.6,19.95,19.95,0,0,1-15.507,15.506,2,2,0,0,0-1.6,1.959v56.973a2.375,2.375,0,0,1-4.75,0V343.435a2,2,0,0,0-1.6-1.959A19.947,19.947,0,0,1,708.81,325.97a2,2,0,0,0-1.959-1.6H678.864a19.395,19.395,0,0,0-18.605,13.894L638.69,410.178a2.392,2.392,0,0,1-2.124,1.691l-.148,0a2.376,2.376,0,0,1-2.173-1.411l-20.505-46.1a2,2,0,0,0-2.684-.994L587.4,374.589a2,2,0,0,0-.958,2.645l26.3,56.978a28.7,28.7,0,0,0,53.783-4.645l9.341-35.062a2,2,0,0,0-.921-2.241,21.821,21.821,0,0,1-6.423-31.919l9.749-13a2.43,2.43,0,0,1,3.324-.477,2.378,2.378,0,0,1,.478,3.325c-.02.026-.039.053-.057.08l-9.69,12.917a17.071,17.071,0,0,0,8.558,26.542A2.36,2.36,0,0,1,682.537,392v65.625A2,2,0,0,0,684.537,459.622Z" transform="translate(0.295 4612.63)" fill="#004246"></path><path id="Path_4171" data-name="Path 4171" d="M732.3,429.373a2.386,2.386,0,0,1-2.325-1.9l-1.42-6.891a5.561,5.561,0,0,0-11.012,1.107V427a2.375,2.375,0,0,1-2.375,2.375H702.039a2,2,0,0,0-2,2v26.25a2,2,0,0,0,2,2h43.852a2,2,0,0,0,2-2v-26.25a2,2,0,0,0-2-2Z" transform="translate(0.295 4612.63)" fill="#004246"></path><rect id="Rectangle_355" data-name="Rectangle 355" width="100.25" height="21.5" rx="2" transform="translate(682.834 5077.002)" fill="#004246"></rect><path id="Path_4172" data-name="Path 4172" d="M842.97,229.2a19.784,19.784,0,0,0-14.05-5.828H456.41a19.9,19.9,0,0,0-19.875,19.877,2.375,2.375,0,0,0,4.75,0,15.164,15.164,0,0,1,15.123-15.125h372.5a15.164,15.164,0,0,1,15.125,15.123V483.865a2,2,0,0,1-2,2h-52.5a2,2,0,0,1-2-2v-17.5a2,2,0,0,1,2-2h13.017a24.251,24.251,0,0,0,23.835-28.725l-18.047-96.25A24.242,24.242,0,0,0,784.5,319.616H741.409a2,2,0,0,1-2-2V298a2,2,0,0,1,1.484-1.932,9.8,9.8,0,0,0,7.1-7.733,8.8,8.8,0,0,0,.168-1.746V279.1a2,2,0,0,1,1.983-2,15.5,15.5,0,0,0,6.629-29.439,15.761,15.761,0,0,0-13.394-.073,2,2,0,0,1-2.2-.33,21.111,21.111,0,0,0-14.25-5.521H716.612a8.618,8.618,0,0,1-5.136-1.712,13.273,13.273,0,0,0-7.953-2.663h-1.489a17.688,17.688,0,1,0,0,35.375,2,2,0,0,1,2,2v19.7a17.682,17.682,0,0,0,11.792,16.643,2,2,0,0,1,1.333,1.885v4.645a2,2,0,0,1-2,2H678.806a24.1,24.1,0,0,0-23.1,17.27L642.7,380.25a2,2,0,0,1-.353.674l-5.485,14.534a2,2,0,0,1-3.675.155l-2.512-5.26a1.994,1.994,0,0,1-.463-.65l-38.939-87.539a2.4,2.4,0,0,0-2.857-1.306l-3.15.954a11.464,11.464,0,0,0-7.306,15.193l4.811,12.075a2,2,0,0,1-1.061,2.578,19.136,19.136,0,0,0-9.746,25.558l36.457,78.98c.011.023.02.045.03.068a33.684,33.684,0,0,0,23.971,18.718,30.373,30.373,0,0,0,5.466.414,67.3,67.3,0,0,0,7.326-.44,33.739,33.739,0,0,0,13.954-6.26A33.348,33.348,0,0,0,671.1,430.8l2.752-10.318a2,2,0,0,1,3.932.516v62.879a2,2,0,0,1-2,2H552.664a2.375,2.375,0,0,0,0,4.75h289.38a2,2,0,0,1,2,2v13.125a15.164,15.164,0,0,1-15.123,15.125H552.669a2.375,2.375,0,0,0,0,4.75h34.836a2,2,0,0,1,1.973,2.327l-7.613,45.816a1.994,1.994,0,0,1-.778,1.275L547.5,600.088a2.4,2.4,0,0,0-.954,1.909v8.75a2.361,2.361,0,0,0,.7,1.68,2.393,2.393,0,0,0,1.679.7h157.5a2.375,2.375,0,0,0,2.375-2.375V602a2.4,2.4,0,0,0-.957-1.908l-33.586-25.044a2,2,0,0,1-.778-1.276l-7.613-45.82a2,2,0,0,1,1.973-2.327h161.09A19.9,19.9,0,0,0,848.8,505.743v-262.5A19.78,19.78,0,0,0,842.97,229.2ZM746.133,252.28a2,2,0,0,1,1.321-1.086,10.735,10.735,0,1,1,2.756,21.165h-.045a2,2,0,0,1-2-2v-7.316a21.189,21.189,0,0,0-2.03-9.054A2,2,0,0,1,746.133,252.28Zm-39.246,15.763a2.322,2.322,0,0,0-.471-.047h-4.375a12.938,12.938,0,1,1,0-25.875h1.453a8.574,8.574,0,0,1,5.143,1.716,13.277,13.277,0,0,0,7.985,2.659h10.247a16.55,16.55,0,0,1,16.546,16.547v12.109a2,2,0,0,1-2.5,1.935,10.172,10.172,0,0,0-6.69.555,2,2,0,0,1-2.608-.936,15.736,15.736,0,0,1-.847-2.062l-.2-.593c-.008-.022-.017-.045-.024-.068a2.374,2.374,0,0,0-1.777-1.565Zm7.412,57.173a2,2,0,0,1,1.633-.844h3.609a2.391,2.391,0,0,0,1.68-.7,2.361,2.361,0,0,0,.7-1.68v-8.484a2,2,0,0,1,1-1.73,2.361,2.361,0,0,0-1.179-4.407,12.966,12.966,0,0,1-12.943-12.924V275.708a2,2,0,0,1,2.392-1.961l14.242,2.843a2,2,0,0,1,1.45,1.181,20.184,20.184,0,0,0,3.818,5.884,2.376,2.376,0,0,0,1.734.758l.12,0a2.367,2.367,0,0,0,1.777-.932,5.069,5.069,0,0,1,9.088,3.106,3.913,3.913,0,0,1-.046.682c-.006.04-.013.08-.022.119h0c0,.029-.008.058-.013.087a5.033,5.033,0,0,1-4.97,4.181,5.085,5.085,0,0,1-.936-.093,2.4,2.4,0,0,0-1.907.527,2.376,2.376,0,0,0-.849,1.824V322a2.373,2.373,0,0,0,2.375,2.375h3.609a2,2,0,0,1,1.887,2.665,15.1,15.1,0,0,1-28.492,0A2,2,0,0,1,714.3,325.216Zm-129.71,45.233a2,2,0,0,1-1.816-1.162l-6.492-14.061a14.382,14.382,0,0,1,8.294-19.6l2.859-1.005.085-.028a2.381,2.381,0,0,0,1.337-3.086l-6.473-16.264a6.7,6.7,0,0,1,3.5-8.6,2,2,0,0,1,2.645,1.013l21.656,48.7a2,2,0,0,1-.97,2.62l-23.766,11.276A2,2,0,0,1,584.589,370.449Zm96.289,19.284a17.071,17.071,0,0,1-8.558-26.542l9.69-12.917c.018-.027.037-.054.057-.08a2.378,2.378,0,0,0-.478-3.325,2.43,2.43,0,0,0-3.324.477l-9.749,13a21.821,21.821,0,0,0,6.423,31.919,2,2,0,0,1,.921,2.241l-9.341,35.062a28.715,28.715,0,0,1-53.783,4.645l-26.3-56.978a2,2,0,0,1,.958-2.645l23.657-11.223a2,2,0,0,1,2.684.994l20.505,46.1a2.376,2.376,0,0,0,2.173,1.411l.148,0a2.392,2.392,0,0,0,2.124-1.691l21.569-71.911a19.395,19.395,0,0,1,18.605-13.894h27.987a2,2,0,0,1,1.959,1.6,19.947,19.947,0,0,0,15.506,15.506,2,2,0,0,1,1.6,1.959v56.973a2.375,2.375,0,0,0,4.75,0V343.435a2,2,0,0,1,1.6-1.959,19.95,19.95,0,0,0,15.507-15.506,2,2,0,0,1,1.959-1.6h34.781a19.5,19.5,0,0,1,19.169,15.9l18.047,96.252a19.5,19.5,0,0,1-19.169,23.1H754.64a2,2,0,0,1-2-2v-26.25a2,2,0,0,1,2-2h30.523a2.379,2.379,0,0,0,2.342-2.766l-12.37-74.253c-.011-.052-.022-.1-.029-.157a2.375,2.375,0,1,0-4.685.779l11.55,69.318A2,2,0,0,1,780,424.622H735.865a2,2,0,0,1-1.959-1.6l-.7-3.406a10.316,10.316,0,0,0-20.42,2.075v.929a2,2,0,0,1-2,2h-8.75a6.766,6.766,0,0,0-6.75,6.751v26.249a2,2,0,0,1-2,2h-8.75a2,2,0,0,1-2-2V392A2.36,2.36,0,0,0,680.878,389.733Zm67.013,41.64v26.25a2,2,0,0,1-2,2H702.039a2,2,0,0,1-2-2v-26.25a2,2,0,0,1,2-2h13.125A2.375,2.375,0,0,0,717.539,427v-5.3a5.525,5.525,0,0,1,1.369-3.656,5.559,5.559,0,0,1,9.643,2.549l1.42,6.891a2.386,2.386,0,0,0,2.325,1.9h13.595A2,2,0,0,1,747.891,431.373Zm34.9,52.5a2,2,0,0,1-2,2h-96.25a2,2,0,0,1-2-2v-17.5a2,2,0,0,1,2-2h96.25a2,2,0,0,1,2,2ZM669.071,576.284a2.351,2.351,0,0,0,.922,1.513l33.242,24.794a2,2,0,0,1,.8,1.6v2.18a2,2,0,0,1-2,2H553.289a2,2,0,0,1-2-2v-2.18a2,2,0,0,1,.8-1.6L585.336,577.8a2.359,2.359,0,0,0,.921-1.511L594.4,527.3a2,2,0,0,1,1.973-1.672h62.586a2,2,0,0,1,1.973,1.672Z" transform="translate(0.295 4612.63)" fill="#80ef76"></path><path id="Path_4173" data-name="Path 4173" d="M513.447,407.174a18.4,18.4,0,0,0,10.317-3.35l.342-.235c.1-.067.2-.134.278-.194.053-.038.1-.078.156-.122a19.568,19.568,0,0,0,7.916-15.653v-105a19.524,19.524,0,0,0-19.5-19.5h-140a19.523,19.523,0,0,0-19.5,19.5v105a19.385,19.385,0,0,0,9.01,16.406c.591.454,3.8,2.694,10.055,3.043a2.015,2.015,0,0,0,.436.048H512.291A11.356,11.356,0,0,0,513.447,407.174Z" transform="translate(0.295 4612.63)" fill="#c2e26d"></path><rect id="Rectangle_356" data-name="Rectangle 356" width="21.5" height="12.75" rx="2" transform="translate(441.252 5024.5)" fill="none"></rect><path id="Path_4174" data-name="Path 4174" d="M527.127,435.091a19.388,19.388,0,0,0-13.781-5.718h-140a19.524,19.524,0,0,0-19.5,19.5v105a19.5,19.5,0,0,0,8.329,15.955s.126.087.305.2l.122.082c.185.125.37.249.561.366a1.985,1.985,0,0,0,.379.18,21.43,21.43,0,0,0,10.049,2.732c.265,0,.533-.007.8-.019H512.043c.128.006.434.018.873.018,2.6,0,7.437-.382,10.607-2.9a19.484,19.484,0,0,0,9.323-16.618v-105A19.387,19.387,0,0,0,527.127,435.091Z" transform="translate(0.295 4612.63)" fill="#01df74"></path><g id="Group_368" data-name="Group 368" transform="translate(0.295 4612.63)"><g id="Group_367" data-name="Group 367"><path id="Path_4176" data-name="Path 4176" d="M416.973,355.574l-9.389-8.854q-7.424-7-14.846-14.02c-.428-.406-.86-.814-1.291-1.221q3.691-3.486,7.385-6.971,7.365-6.946,14.719-13.892l3.409-3.219a2.546,2.546,0,0,0-3.6-3.6q-4.656,4.391-9.3,8.779-7.367,6.945-14.719,13.891l-3.41,3.22a2.513,2.513,0,0,0,.066,3.6l-.04-.017q4.656,4.387,9.3,8.777,7.365,6.947,14.719,13.893l3.409,3.218a2.537,2.537,0,1,0,3.588-3.587Z" fill="#004147"></path><path id="Path_4177" data-name="Path 4177" d="M464.005,290.883a2.585,2.585,0,0,0-3.485.916c-1.3,2.558-2.609,5.115-3.906,7.672q-4.676,9.16-9.338,18.307-5.667,11.124-11.335,22.237-4.886,9.561-9.758,19.134c-1.59,3.1-3.205,6.208-4.758,9.337-.025.039-.038.09-.063.128a2.548,2.548,0,0,0,4.4,2.569c1.3-2.556,2.608-5.113,3.9-7.671q4.676-9.159,9.338-18.306,5.667-11.125,11.335-22.238,4.885-9.559,9.758-19.133c1.59-3.1,3.206-6.209,4.758-9.339.025-.037.038-.089.063-.127A2.609,2.609,0,0,0,464.005,290.883Z" fill="#004147"></path><path id="Path_4178" data-name="Path 4178" d="M500.364,329.7q-4.658-4.389-9.3-8.778-7.366-6.945-14.719-13.892l-3.409-3.219a2.546,2.546,0,1,0-3.6,3.6q4.656,4.389,9.3,8.778,7.365,6.945,14.719,13.892l1.495,1.412c-.223.212-.448.424-.668.636-2.163,2.036-4.313,4.071-6.476,6.106l-14.948,14.109q-1.717,1.621-3.435,3.243a2.576,2.576,0,0,0,0,3.6,2.608,2.608,0,0,0,3.588-.014h0q4.656-4.389,9.3-8.777,7.365-6.948,14.719-13.893l3.409-3.218-.036.014A2.5,2.5,0,0,0,500.364,329.7Z" fill="#004147"></path></g></g><g id="Group_370" data-name="Group 370" transform="translate(0.295 4612.63)"><g id="Group_369" data-name="Group 369"><path id="Path_4179" data-name="Path 4179" d="M416.622,501.3a26.507,26.507,0,0,0,53.014.026A26.174,26.174,0,0,0,467.558,491a2.163,2.163,0,0,0-.878-1.036,2.218,2.218,0,0,0-3.187,2.762,21.594,21.594,0,0,1,1.746,8.6,22.1,22.1,0,1,1-22.1-22.1,21.894,21.894,0,0,1,7.536,1.322,22.189,22.189,0,0,1,3.557,1.658,2.17,2.17,0,0,0,1.388.284,2.213,2.213,0,0,0,.843-4.109,26.672,26.672,0,0,0-4.286-2.012,26.206,26.206,0,0,0-9.038-1.588A26.536,26.536,0,0,0,416.624,501.3Z" fill="#004147"></path><path id="Path_4180" data-name="Path 4180" d="M430.478,548.254a6.088,6.088,0,0,0,6.077,6.078h13.17a6.116,6.116,0,0,0,6.1-6.051V545.6a5.562,5.562,0,0,1,3.668-4.971,5.5,5.5,0,0,1,6.033.924l1.9,1.9a6.069,6.069,0,0,0,8.575,0l9.325-9.323a6.108,6.108,0,0,0,1.769-4.282,6.023,6.023,0,0,0-1.769-4.29l-1.9-1.9a5.494,5.494,0,0,1-.927-6.034,5.579,5.579,0,0,1,4.972-3.669h2.674A6.04,6.04,0,0,0,496.2,507.9V494.735a6.093,6.093,0,0,0-6.077-6.077h-2.674a4.952,4.952,0,0,1-3.12-1.148,6.413,6.413,0,0,1-1.852-2.521,5.485,5.485,0,0,1,.928-6.032l1.879-1.9a6.072,6.072,0,0,0,1.7-3.254,5.971,5.971,0,0,0,.09-1.035,6.167,6.167,0,0,0-.852-3.073,6.044,6.044,0,0,0-.938-1.218l-9.325-9.322a6.068,6.068,0,0,0-8.574,0l-1.878,1.9a5.475,5.475,0,0,1-6.033.933,5.6,5.6,0,0,1-3.669-4.972v-2.676a6.088,6.088,0,0,0-6.077-6.078H436.554a6.086,6.086,0,0,0-6.076,6.078v2.676a5.573,5.573,0,0,1-3.669,4.972,5.482,5.482,0,0,1-6.033-.933l-1.9-1.9a6.068,6.068,0,0,0-8.574,0l-9.326,9.305a6.067,6.067,0,0,0,0,8.572l1.9,1.9a5.5,5.5,0,0,1,.929,6.034,5.586,5.586,0,0,1-4.973,3.669H396.16a5.986,5.986,0,0,0-4.288,1.77,6.113,6.113,0,0,0-1.768,4.289v13.165a6.09,6.09,0,0,0,6.078,6.077h2.673a5.573,5.573,0,0,1,4.972,3.669,5.488,5.488,0,0,1-.928,6.033l-1.879,1.9a6.036,6.036,0,0,0,0,8.58l9.3,9.322a6.068,6.068,0,0,0,8.574,0l1.878-1.9a5.475,5.475,0,0,1,6.033-.933,5.6,5.6,0,0,1,3.669,4.972Zm-1.967-11.688a10.493,10.493,0,0,0-4.133-.846,9.839,9.839,0,0,0-3.647.691,9.138,9.138,0,0,0-3.069,2.01l-1.88,1.9a1.653,1.653,0,0,1-1.634.415,1.727,1.727,0,0,1-.708-.415L404.114,531a1.654,1.654,0,0,1-.364-.552,1.664,1.664,0,0,1,.364-1.8l1.879-1.9a10.344,10.344,0,0,0-7.16-17.256H396.16a1.652,1.652,0,0,1-1.443-.846,1.635,1.635,0,0,1-.215-.812V494.666a1.664,1.664,0,0,1,.486-1.174,1.688,1.688,0,0,1,.718-.423,1.6,1.6,0,0,1,.454-.061h2.673a10.343,10.343,0,0,0,7.16-17.254l-1.9-1.909a1.665,1.665,0,0,1,0-2.339l9.3-9.305a1.67,1.67,0,0,1,2.342,0l1.9,1.908a10.368,10.368,0,0,0,17.28-7.164v-2.677a1.658,1.658,0,0,1,1.657-1.657h13.171a1.655,1.655,0,0,1,1.658,1.657v2.677a10.348,10.348,0,0,0,17.257,7.164l1.879-1.908a1.671,1.671,0,0,1,2.343,0l9.325,9.331a1.678,1.678,0,0,1,.485,1.165,1.652,1.652,0,0,1-.485,1.174l-1.9,1.9a10.35,10.35,0,0,0,7.16,17.264h2.674a1.669,1.669,0,0,1,1.657,1.656v13.165a1.712,1.712,0,0,1-.133.665,1.633,1.633,0,0,1-.353.509,1.555,1.555,0,0,1-.621.389,1.717,1.717,0,0,1-.55.094h-2.674a9.442,9.442,0,0,0-6.406,2.582,10.847,10.847,0,0,0-2.632,3.805,9.9,9.9,0,0,0,1.878,10.877l1.9,1.9a1.654,1.654,0,0,1,0,2.34l-9.325,9.331a1.655,1.655,0,0,1-2.32,0l-1.9-1.908a10.368,10.368,0,0,0-17.28,7.164v2.676a1.658,1.658,0,0,1-1.657,1.658H436.554a1.655,1.655,0,0,1-1.656-1.658V545.6a9.953,9.953,0,0,0-6.388-9.037Z" fill="#004147"></path></g></g></g></g></svg>