<svg width="51" height="51" viewBox="0 0 51 51" fill="none" xmlns="http://www.w3.org/2000/svg">
<path d="M8.52211 17.367C3.81502 22.7884 4.39416 30.999 9.8155 35.706C15.2369 40.4131 23.4474 39.834 28.1545 34.4126C32.8616 28.9912 32.2825 20.7807 26.8611 16.0736C21.4398 11.3666 13.2292 11.9456 8.52211 17.367Z" fill="#196164"/>
<path d="M29.6748 12.1936C29.2771 12.2801 29.1773 12.7869 29.4846 13.0538C36.574 19.2091 37.3313 29.9461 31.1759 37.0355C30.9091 37.3429 31.0792 37.8306 31.485 37.8604C35.4344 38.1502 39.4666 36.6384 42.2625 33.4182C46.9695 27.9969 46.3905 19.7863 40.9691 15.0792C37.7489 12.2833 33.5444 11.3524 29.6748 12.1936Z" fill="#C4F500"/>
</svg>
