<svg xmlns="http://www.w3.org/2000/svg" xmlns:xlink="http://www.w3.org/1999/xlink" width="230" zoomAndPan="magnify" viewBox="0 0 172.5 170.249993" height="227" preserveAspectRatio="xMidYMid meet" version="1.0"><defs><clipPath id="0728fde58f"><path d="M 0.128906 24.605469 L 171.871094 24.605469 L 171.871094 152.292969 L 0.128906 152.292969 Z M 0.128906 24.605469 " clip-rule="nonzero"/></clipPath></defs><g clip-path="url(#0728fde58f)"><path fill="#5cc6d0" d="M 1.625 100.070312 C 2.902344 95.96875 2.902344 95.96875 5.027344 91.265625 C 4.980469 91.019531 4.953125 90.78125 4.953125 90.539062 C 4.949219 90.296875 4.957031 90.136719 4.976562 89.976562 C 3.195312 87.179688 3.195312 87.179688 1.859375 84.636719 C 1.785156 85.054688 1.671875 85.300781 1.558594 85.382812 C 1.382812 85.371094 1.269531 84.777344 1.308594 83.933594 C 1.347656 83.171875 1.515625 82.511719 1.695312 82.441406 C 1.863281 82.453125 1.980469 82.964844 1.957031 83.71875 C 4.953125 83.664062 4.953125 83.664062 9.476562 83.65625 C 10.738281 76.453125 10.738281 76.453125 12.367188 69.359375 C 12.191406 69.078125 12.117188 68.582031 12.191406 68.050781 C 12.332031 67.136719 12.847656 66.257812 13.347656 66.09375 C 13.542969 66.078125 13.714844 66.132812 13.855469 66.253906 C 21.242188 60.097656 21.242188 60.097656 30.390625 53.675781 C 33.652344 49.648438 33.652344 49.648438 37.042969 45.691406 C 38.433594 42.960938 38.433594 42.960938 39.835938 40.3125 C 39.65625 40.214844 39.554688 40.015625 39.648438 39.71875 C 39.730469 39.316406 40.167969 38.890625 40.617188 38.78125 C 41.070312 38.679688 41.371094 38.921875 41.242188 39.375 C 41.160156 39.785156 40.734375 40.199219 40.28125 40.300781 C 40.226562 40.339844 40.214844 40.328125 40.207031 40.320312 C 38.769531 43.011719 38.769531 43.011719 37.394531 45.746094 C 37.351562 45.796875 37.351562 45.796875 37.316406 45.851562 C 33.9375 49.785156 33.9375 49.785156 30.726562 53.734375 C 35.15625 58.464844 35.15625 58.464844 40.402344 63.800781 C 41.789062 58.210938 41.789062 58.210938 43.277344 52.800781 C 42.539062 52.691406 42.109375 52.03125 42.210938 51.210938 C 42.359375 50.1875 43.296875 49.234375 44.304688 49.070312 C 44.804688 48.996094 45.210938 49.152344 45.492188 49.4375 C 53.246094 43.191406 61.175781 37.355469 69.117188 32.011719 C 68.929688 31.800781 68.851562 31.53125 68.890625 31.242188 C 68.949219 30.789062 69.210938 30.386719 69.695312 30.070312 C 67.65625 27.921875 67.65625 27.921875 65.753906 25.921875 C 65.691406 25.949219 65.5625 25.980469 65.429688 26 C 64.894531 26.0625 64.527344 25.8125 64.621094 25.445312 C 64.644531 25.105469 65.109375 24.773438 65.652344 24.707031 C 66.195312 24.644531 66.546875 24.886719 66.515625 25.234375 C 66.429688 25.417969 66.335938 25.566406 66.167969 25.699219 C 68.058594 27.695312 68.058594 27.695312 70.078125 29.847656 C 70.363281 29.71875 70.71875 29.625 71.027344 29.609375 C 72.144531 29.53125 73.023438 30.132812 72.957031 30.957031 C 72.929688 31.113281 72.902344 31.261719 72.816406 31.40625 C 78.855469 33.15625 78.855469 33.15625 85.117188 35.164062 C 98.558594 34.4375 98.558594 34.4375 111.28125 34.472656 C 111.195312 33.640625 111.9375 33.0625 112.976562 33.195312 C 114.078125 33.359375 115.003906 34.140625 115.171875 35.003906 C 115.214844 35.183594 115.203125 35.332031 115.132812 35.457031 C 124.832031 40.472656 124.832031 40.472656 133.914062 45.832031 C 135.710938 44.136719 135.710938 44.136719 137.320312 42.507812 C 137.242188 39.304688 137.242188 39.304688 137.058594 36.3125 C 136.480469 35.957031 135.949219 35.347656 135.765625 34.785156 C 135.527344 34.0625 135.960938 33.695312 136.679688 33.910156 C 137.449219 34.183594 138.257812 34.976562 138.507812 35.6875 C 138.742188 36.40625 138.339844 36.804688 137.613281 36.585938 C 137.539062 36.558594 137.472656 36.523438 137.402344 36.488281 C 137.570312 39.285156 137.570312 39.285156 137.667969 42.285156 C 142.773438 39.425781 142.773438 39.425781 146.671875 37.410156 C 146.628906 37.339844 146.59375 37.269531 146.5625 37.191406 C 146.4375 36.878906 146.523438 36.695312 146.828125 36.859375 C 147.128906 37.023438 147.453125 37.382812 147.582031 37.695312 C 147.707031 38.007812 147.613281 38.191406 147.308594 38.023438 C 147.214844 38 147.085938 37.898438 146.921875 37.722656 C 143.085938 39.753906 143.085938 39.753906 138.054688 42.59375 C 143.261719 43.839844 143.261719 43.839844 147.832031 45.171875 C 147.609375 44.398438 147.902344 43.996094 148.488281 44.242188 C 149.082031 44.484375 149.765625 45.328125 150.007812 46.097656 C 150.285156 46.929688 150.007812 47.386719 149.402344 47.140625 C 148.832031 46.878906 148.226562 46.191406 147.925781 45.476562 C 143.132812 44.125 143.132812 44.125 137.640625 42.867188 C 132.347656 48.066406 132.347656 48.066406 125.847656 54.472656 C 126.074219 54.765625 126.261719 55.160156 126.339844 55.574219 C 137.347656 57.796875 137.347656 57.796875 146.679688 60.246094 C 146.660156 59.433594 147.09375 58.917969 147.730469 59.066406 C 148.390625 59.210938 149.054688 60.046875 149.25 60.949219 C 153.371094 62.230469 156.929688 63.421875 160.023438 64.714844 C 159.925781 63.925781 160.160156 63.515625 160.535156 63.636719 C 160.796875 63.714844 161.09375 64.113281 161.316406 64.628906 C 162.398438 63.855469 162.398438 63.855469 163.355469 63.195312 C 163.332031 63.121094 163.3125 63.042969 163.292969 62.960938 C 163.1875 62.480469 163.25 62.109375 163.453125 62.214844 C 163.679688 62.398438 163.945312 62.917969 164.050781 63.402344 C 164.15625 63.882812 164.09375 64.25 163.890625 64.140625 C 163.746094 64.015625 163.601562 63.804688 163.5 63.582031 C 162.535156 64.234375 162.535156 64.234375 161.449219 65 C 161.5 65.152344 161.539062 65.304688 161.589844 65.539062 C 161.746094 66.402344 161.53125 66.957031 161.121094 66.832031 C 161.054688 66.769531 161.015625 66.78125 160.957031 66.71875 C 160.804688 74.316406 160.804688 74.316406 160.082031 82.414062 C 160.402344 82.757812 160.636719 83.417969 160.660156 84.089844 C 160.671875 84.542969 160.601562 84.996094 160.464844 85.300781 C 163.328125 92.445312 163.328125 92.445312 165.339844 99.023438 C 165.453125 98.796875 165.578125 98.652344 165.695312 98.664062 C 165.878906 98.605469 166.019531 98.785156 166.09375 99.117188 C 168.308594 94.820312 168.308594 94.820312 169.925781 90.894531 C 169.90625 90.726562 169.902344 90.472656 169.90625 90.304688 C 169.910156 89.632812 170.039062 89.042969 170.191406 89.042969 C 170.335938 89.042969 170.449219 89.550781 170.441406 90.3125 C 170.433594 90.988281 170.308594 91.578125 170.160156 91.574219 C 170.074219 91.570312 170.007812 91.398438 169.960938 91.144531 C 168.351562 95.074219 168.351562 95.074219 166.136719 99.449219 C 166.152344 99.535156 166.152344 99.699219 166.144531 99.863281 C 170.128906 97.839844 170.128906 97.839844 171.769531 96.191406 C 171.808594 95.761719 171.839844 95.503906 171.863281 95.421875 C 171.875 95.421875 171.859375 95.765625 171.824219 96.195312 C 171.785156 96.625 171.746094 96.96875 171.738281 96.96875 C 171.714844 97.050781 171.722656 96.792969 171.75 96.445312 C 170.101562 98.175781 170.101562 98.175781 166.125 100.183594 C 166.105469 100.347656 166.078125 100.507812 166.042969 100.664062 C 168.539062 104.769531 168.539062 104.769531 169.609375 107.855469 C 169.695312 107.527344 169.800781 107.195312 169.863281 107.121094 C 169.957031 106.964844 169.921875 107.398438 169.78125 108.070312 C 169.636719 108.746094 169.445312 109.40625 169.351562 109.558594 C 169.25 109.714844 169.285156 109.28125 169.425781 108.609375 C 169.460938 108.441406 169.503906 108.273438 169.523438 108.191406 C 168.46875 105.011719 168.46875 105.011719 165.957031 100.980469 C 165.808594 101.449219 165.597656 101.824219 165.402344 101.871094 C 165.214844 101.925781 165.070312 101.738281 165 101.402344 C 152.429688 117.65625 152.429688 117.65625 132.609375 135.34375 C 132.589844 135.507812 132.613281 135.625 132.582031 135.78125 C 132.355469 136.6875 131.496094 137.527344 130.597656 137.730469 C 129.648438 137.964844 129.0625 137.410156 129.28125 136.492188 C 129.316406 136.34375 129.363281 136.203125 129.417969 136.070312 C 123.265625 132.039062 116.160156 127.238281 108.226562 121.660156 C 110.554688 131.863281 110.554688 131.863281 112.421875 140.800781 C 116.824219 142.824219 116.824219 142.824219 120.886719 144.59375 C 121.140625 144.375 121.433594 144.222656 121.78125 144.148438 C 122.410156 144.027344 122.796875 144.363281 122.660156 144.882812 C 122.574219 145.367188 121.949219 145.890625 121.316406 146.019531 C 120.738281 146.113281 120.316406 145.808594 120.402344 145.3125 C 120.46875 145.160156 120.480469 145.058594 120.617188 144.90625 C 116.707031 143.238281 116.707031 143.238281 112.496094 141.324219 C 113.019531 146.414062 113.019531 146.414062 113.433594 150.917969 C 113.925781 150.847656 114.1875 151.097656 114.117188 151.441406 C 114.046875 151.789062 113.59375 152.128906 113.101562 152.207031 C 112.609375 152.28125 112.289062 152.054688 112.359375 151.703125 C 112.402344 151.453125 112.664062 151.195312 112.972656 151.054688 C 112.566406 146.492188 112.566406 146.492188 112.039062 141.332031 C 106.585938 145.683594 106.585938 145.683594 101.242188 149.667969 C 101.34375 149.808594 101.386719 149.976562 101.367188 150.160156 C 101.359375 150.640625 100.746094 151.082031 100.035156 151.136719 C 99.328125 151.191406 98.792969 150.835938 98.820312 150.347656 C 98.902344 149.835938 99.503906 149.394531 100.199219 149.347656 C 100.511719 149.316406 100.714844 149.371094 100.929688 149.457031 C 106.40625 145.367188 106.40625 145.367188 111.957031 140.914062 C 110 131.789062 110 131.789062 107.582031 121.34375 C 101.34375 122.792969 101.34375 122.792969 94.984375 124.160156 C 94.980469 124.285156 95.007812 124.398438 95.003906 124.523438 C 94.9375 126.242188 93.410156 127.640625 91.5 127.683594 C 90.121094 127.703125 88.957031 126.976562 88.421875 125.910156 C 78.40625 129.054688 78.40625 129.054688 68.773438 131.78125 C 68.816406 131.921875 68.859375 132.070312 68.851562 132.210938 C 68.949219 133.269531 68.03125 134.046875 66.855469 133.972656 C 65.660156 133.890625 64.664062 132.996094 64.582031 131.957031 C 64.511719 131.34375 64.773438 130.820312 65.246094 130.5 C 55.367188 116.105469 55.367188 116.105469 46.019531 100.808594 C 45.972656 100.824219 45.917969 100.839844 45.855469 100.8125 C 45.152344 100.804688 44.519531 100.367188 44.144531 99.714844 C 38.835938 104.808594 38.835938 104.808594 34.0625 109.53125 C 34.261719 109.867188 34.410156 110.285156 34.441406 110.695312 C 34.539062 111.808594 33.871094 112.601562 32.96875 112.507812 C 32.394531 112.445312 31.839844 111.988281 31.515625 111.425781 C 24.386719 115.027344 24.386719 115.027344 18.710938 117.914062 C 18.789062 118.117188 18.824219 118.261719 18.875 118.480469 C 19.039062 119.367188 18.71875 120 18.113281 119.789062 C 17.554688 119.632812 16.949219 118.757812 16.738281 117.792969 C 16.609375 117.117188 16.761719 116.65625 17.054688 116.460938 C 15.023438 110.367188 13.25 104.195312 11.75 97.980469 C 8.609375 94.554688 8.609375 94.554688 6.050781 91.472656 C 5.953125 91.875 5.773438 92.199219 5.5625 92.128906 C 5.671875 98.964844 5.671875 98.964844 6.144531 105.523438 C 6.410156 105.714844 6.691406 106.398438 6.816406 107.199219 C 6.933594 108.003906 6.796875 108.617188 6.46875 108.449219 C 6.953125 111.785156 6.953125 111.785156 7.511719 114.964844 C 7.785156 115.21875 8.109375 115.890625 8.28125 116.609375 C 8.480469 117.414062 8.382812 117.886719 8.054688 117.65625 C 7.765625 117.5 7.351562 116.679688 7.175781 115.949219 C 6.976562 115.140625 7.074219 114.675781 7.367188 114.839844 C 6.804688 111.660156 6.804688 111.660156 6.339844 108.398438 C 6.066406 108.128906 5.789062 107.4375 5.675781 106.707031 C 5.660156 106.625 5.652344 106.542969 5.640625 106.464844 C 3.488281 103.941406 3.488281 103.941406 1.847656 101.578125 C 1.871094 102.085938 1.808594 102.351562 1.695312 102.289062 C 1.621094 102.210938 1.542969 102.050781 1.46875 101.804688 C 1.296875 105.480469 1.296875 105.480469 1.628906 108.75 C 1.671875 108.917969 1.730469 109.171875 1.792969 109.421875 C 1.933594 110.011719 2.023438 110.429688 1.976562 110.261719 C 1.976562 110.261719 1.933594 110.097656 1.898438 110.015625 C 1.75 109.433594 1.605469 108.84375 1.472656 108.257812 C 1.429688 108 1.410156 107.917969 1.433594 108 C 1.460938 108.082031 1.503906 108.25 1.566406 108.5 C 1.234375 105.230469 1.234375 105.230469 1.402344 101.558594 C 1.347656 101.308594 1.300781 101.058594 1.261719 100.71875 C 1.25 100.632812 1.25 100.632812 1.242188 100.546875 C 0.886719 99.910156 0.886719 99.910156 0.574219 99.257812 C 0.59375 99.683594 0.566406 99.949219 0.492188 99.871094 C 0.40625 99.796875 0.285156 99.207031 0.210938 98.523438 C 0.136719 97.753906 0.148438 97.234375 0.238281 97.3125 C 0.332031 97.386719 0.460938 97.980469 0.53125 98.746094 C 0.542969 98.828125 0.542969 98.828125 0.546875 98.914062 C 0.863281 99.566406 0.863281 99.566406 1.21875 100.207031 C 1.207031 99.78125 1.253906 99.429688 1.367188 99.503906 C 1.453125 99.578125 1.550781 99.824219 1.625 100.070312 Z M 17.46875 116.453125 C 17.480469 116.445312 17.523438 116.507812 17.539062 116.503906 C 17.183594 106.835938 17.183594 106.835938 17.5 96.382812 C 16.746094 96.046875 16.167969 94.84375 16.125 93.523438 C 16.109375 93.035156 16.167969 92.613281 16.28125 92.261719 C 12.675781 88.117188 12.675781 88.117188 9.699219 84.359375 C 12.496094 100.273438 12.496094 100.273438 17.285156 116.445312 C 17.335938 116.421875 17.414062 116.472656 17.46875 116.453125 Z M 17.796875 116.632812 C 18.074219 116.835938 18.324219 117.128906 18.53125 117.515625 C 24.191406 114.605469 24.191406 114.605469 31.296875 110.945312 C 31.238281 110.78125 31.179688 110.550781 31.15625 110.304688 C 31.125 109.941406 31.164062 109.550781 31.285156 109.261719 C 24.8125 102.335938 24.8125 102.335938 19.226562 95.65625 C 18.914062 96.230469 18.457031 96.550781 17.945312 96.539062 C 17.882812 96.476562 17.828125 96.484375 17.773438 96.488281 C 17.4375 106.914062 17.4375 106.914062 17.796875 116.632812 Z M 5.625 106.128906 C 5.628906 105.628906 5.773438 105.347656 5.996094 105.386719 C 5.535156 98.902344 5.535156 98.902344 5.429688 92.132812 C 5.300781 92.058594 5.191406 91.820312 5.109375 91.582031 C 2.976562 96.296875 2.976562 96.296875 1.699219 100.398438 C 1.734375 100.566406 1.777344 100.816406 1.808594 101.070312 C 1.816406 101.152344 1.824219 101.238281 1.820312 101.238281 C 3.464844 103.609375 3.464844 103.609375 5.625 106.128906 Z M 5.515625 88.832031 C 5.695312 88.832031 5.859375 89.085938 5.976562 89.484375 C 7.484375 86.804688 7.484375 86.804688 9.242188 84.097656 C 4.859375 84.066406 4.859375 84.066406 1.9375 84.054688 C 1.929688 84.136719 1.921875 84.222656 1.910156 84.304688 C 3.25 86.851562 3.25 86.851562 5.03125 89.652344 C 5.132812 89.167969 5.308594 88.832031 5.515625 88.832031 Z M 6.0625 89.804688 C 6.105469 90.039062 6.132812 90.277344 6.136719 90.515625 C 6.140625 90.753906 6.128906 90.914062 6.109375 91.074219 C 8.597656 94.09375 8.597656 94.09375 11.625 97.394531 C 10.375 90.734375 10.375 90.734375 9.480469 84.191406 C 7.636719 87.042969 7.636719 87.042969 6.0625 89.804688 Z M 159.695312 82.222656 C 159.757812 82.21875 159.820312 82.285156 159.875 82.28125 C 160.597656 74.125 160.597656 74.125 160.757812 66.53125 C 160.472656 66.210938 160.203125 65.640625 160.066406 65.03125 C 155.277344 63.226562 155.277344 63.226562 149.3125 61.378906 C 149.355469 62.1875 148.960938 62.722656 148.371094 62.675781 C 149 71.277344 149.214844 80.351562 148.960938 89.589844 C 149.589844 89.722656 150.109375 90.308594 150.394531 91.089844 C 155.019531 87.714844 155.019531 87.714844 158.902344 84.570312 C 158.867188 84.355469 158.847656 84.210938 158.839844 83.988281 C 158.800781 82.964844 159.1875 82.195312 159.695312 82.222656 Z M 160.308594 85.53125 C 160.1875 85.6875 160.046875 85.84375 159.882812 85.847656 C 159.683594 93.320312 159.683594 93.320312 159.113281 100.78125 C 159.484375 100.839844 159.722656 101.410156 159.730469 102.097656 C 162.578125 101.183594 162.578125 101.183594 164.957031 100.347656 C 165.003906 99.949219 165.097656 99.558594 165.214844 99.25 C 163.183594 92.75 163.183594 92.75 160.308594 85.53125 Z M 159.667969 85.785156 C 159.398438 85.722656 159.160156 85.363281 159.007812 84.933594 C 155.132812 88.128906 155.132812 88.128906 150.519531 91.480469 C 150.59375 91.8125 150.628906 92.203125 150.625 92.523438 C 150.605469 93.371094 150.363281 94.128906 149.980469 94.683594 C 152.328125 99.277344 152.328125 99.277344 154.355469 103.558594 C 156.164062 103.136719 156.164062 103.136719 157.863281 102.65625 C 157.960938 101.78125 158.410156 100.964844 158.890625 100.820312 C 159.464844 93.308594 159.464844 93.308594 159.667969 85.785156 Z M 164.957031 101.074219 C 164.9375 100.988281 164.9375 100.828125 164.941406 100.664062 C 162.554688 101.570312 162.554688 101.570312 159.699219 102.546875 C 159.601562 103.371094 159.160156 104.199219 158.699219 104.332031 C 158.199219 107.890625 158.199219 107.890625 157.636719 111.320312 C 161.675781 106.066406 161.675781 106.066406 164.957031 101.074219 Z M 131.300781 134.503906 C 131.683594 134.425781 131.957031 134.515625 132.199219 134.660156 C 144.21875 119.5 144.21875 119.5 153.945312 104.113281 C 143.691406 106.414062 143.691406 106.414062 130.640625 108.601562 C 130.519531 110.007812 129.636719 111.222656 128.492188 111.726562 C 130.027344 123.992188 130.027344 123.992188 130.777344 134.703125 C 130.957031 134.613281 131.101562 134.578125 131.300781 134.503906 Z M 132.417969 134.875 C 132.460938 134.917969 132.503906 134.960938 132.5 135.050781 C 146.417969 123.320312 146.417969 123.320312 157.289062 111.761719 C 155.90625 108.117188 155.90625 108.117188 154.238281 104.179688 C 144.488281 119.640625 144.488281 119.640625 132.417969 134.875 Z M 129.652344 135.664062 C 129.835938 135.390625 130.109375 135.121094 130.378906 134.9375 C 129.585938 124.214844 129.585938 124.214844 128.027344 111.914062 C 127.882812 111.945312 127.730469 111.972656 127.566406 111.992188 C 126.558594 112.078125 125.71875 111.550781 125.230469 110.757812 C 116.96875 115.925781 116.96875 115.925781 108.277344 121.042969 C 119.980469 129.238281 119.980469 129.238281 129.652344 135.664062 Z M 158.480469 104.359375 C 158.109375 104.28125 157.847656 103.773438 157.832031 103.101562 C 156.234375 103.519531 156.234375 103.519531 154.527344 103.957031 C 156.117188 107.722656 156.117188 107.722656 157.433594 111.253906 C 157.996094 107.839844 157.996094 107.839844 158.480469 104.359375 Z M 148.058594 62.585938 C 147.828125 62.464844 147.597656 62.265625 147.410156 62.054688 C 143.238281 67.746094 143.238281 67.746094 138.15625 74.082031 C 138.550781 74.652344 138.808594 75.375 138.851562 76.152344 C 138.890625 76.929688 138.691406 77.640625 138.324219 78.15625 C 143.089844 84.425781 143.089844 84.425781 147.308594 90.3125 C 147.675781 89.886719 148.136719 89.582031 148.636719 89.585938 C 148.84375 75.730469 148.84375 75.730469 148.058594 62.585938 Z M 147.15625 61.726562 C 146.941406 61.378906 146.785156 61.007812 146.730469 60.667969 C 137.394531 58.257812 137.394531 58.257812 126.359375 56.03125 C 126.332031 56.519531 126.101562 56.902344 125.769531 57.164062 C 130.535156 65.050781 130.535156 65.050781 134.96875 73 C 135.308594 72.835938 135.699219 72.761719 136.109375 72.796875 C 136.773438 72.863281 137.375 73.183594 137.859375 73.714844 C 142.9375 67.335938 142.9375 67.335938 147.15625 61.726562 Z M 45.722656 49.734375 C 45.882812 49.972656 45.917969 50.316406 45.878906 50.667969 C 45.855469 50.871094 45.773438 51.097656 45.714844 51.265625 C 52.855469 53.976562 52.855469 53.976562 60.6875 57.105469 C 61.28125 56.148438 62.390625 55.445312 63.613281 55.367188 C 63.710938 55.367188 63.804688 55.371094 63.902344 55.375 C 67.070312 43.175781 67.070312 43.175781 70.203125 32.597656 C 69.882812 32.546875 69.609375 32.433594 69.378906 32.28125 C 57.398438 40.519531 57.398438 40.519531 45.722656 49.734375 Z M 45.460938 51.707031 C 45.050781 52.300781 44.441406 52.710938 43.785156 52.800781 C 43.730469 52.824219 43.730469 52.824219 43.707031 52.800781 C 42.191406 58.296875 42.191406 58.296875 40.792969 63.960938 C 50.078125 61.433594 50.078125 61.433594 60.132812 59.019531 C 60.140625 58.910156 60.15625 58.800781 60.140625 58.71875 C 60.164062 58.320312 60.265625 57.9375 60.4375 57.574219 C 52.582031 54.453125 52.582031 54.453125 45.460938 51.707031 Z M 72.59375 31.753906 C 72.449219 31.921875 72.300781 32.070312 72.09375 32.199219 C 80.042969 42.820312 80.042969 42.820312 89 55.601562 C 89.335938 55.339844 89.734375 55.140625 90.160156 55.019531 C 87.398438 44.683594 87.398438 44.683594 84.855469 35.511719 C 78.617188 33.5 78.617188 33.5 72.59375 31.753906 Z M 71.664062 32.417969 C 71.390625 32.53125 71.050781 32.613281 70.753906 32.628906 C 70.753906 32.621094 70.695312 32.628906 70.636719 32.636719 C 67.5625 43.21875 67.5625 43.21875 64.414062 55.429688 C 65.777344 55.695312 66.75 56.804688 66.777344 58.203125 C 77.167969 58.136719 77.167969 58.136719 87.777344 58.3125 C 87.75 58.230469 87.753906 58.148438 87.761719 58.066406 C 87.75 57.257812 88.0625 56.519531 88.597656 55.960938 C 79.613281 43.105469 79.613281 43.105469 71.664062 32.417969 Z M 115.023438 35.785156 C 114.902344 36.003906 114.679688 36.164062 114.414062 36.265625 C 119.09375 44.488281 119.09375 44.488281 123.71875 53.492188 C 123.882812 53.480469 124.046875 53.46875 124.238281 53.511719 C 124.671875 53.535156 125.128906 53.765625 125.488281 54.085938 C 129.863281 49.855469 129.863281 49.855469 133.707031 46.101562 C 124.667969 40.777344 124.667969 40.777344 115.023438 35.785156 Z M 113.972656 36.332031 C 113.824219 36.355469 113.683594 36.363281 113.496094 36.335938 C 113.117188 36.292969 112.722656 36.144531 112.367188 35.933594 C 103.695312 44.921875 103.695312 44.921875 93.628906 55.835938 C 94.171875 56.324219 94.554688 56.960938 94.664062 57.664062 C 109.199219 56.195312 109.199219 56.195312 122.507812 55.304688 C 122.515625 55.296875 122.515625 55.296875 122.496094 55.246094 C 122.417969 54.5 122.761719 53.898438 123.332031 53.636719 C 118.675781 44.585938 118.675781 44.585938 113.972656 36.332031 Z M 111.980469 35.644531 C 111.75 35.433594 111.550781 35.164062 111.425781 34.871094 C 98.703125 34.8125 98.703125 34.8125 85.390625 35.539062 C 87.9375 44.652344 87.9375 44.652344 90.695312 54.914062 C 90.875 54.894531 91.015625 54.882812 91.191406 54.886719 C 91.960938 54.902344 92.65625 55.128906 93.210938 55.507812 C 103.304688 44.617188 103.304688 44.617188 111.980469 35.644531 Z M 13.972656 66.527344 C 14.035156 66.785156 14.074219 67.03125 14.03125 67.40625 C 18.90625 66.597656 18.90625 66.597656 24.792969 65.824219 C 25.09375 64.398438 26.101562 63.195312 27.203125 62.980469 C 27.300781 62.949219 27.371094 62.984375 27.46875 62.957031 C 28.773438 58.527344 28.773438 58.527344 30.160156 54.226562 C 21.203125 60.546875 21.203125 60.546875 13.972656 66.527344 Z M 13.949219 67.851562 C 13.953125 67.851562 13.933594 67.925781 13.914062 67.996094 C 17.328125 69.214844 17.328125 69.214844 21.367188 70.589844 C 23.042969 69.019531 23.042969 69.019531 24.800781 67.414062 C 24.707031 67.101562 24.6875 66.683594 24.722656 66.28125 C 18.839844 67.015625 18.839844 67.015625 13.949219 67.851562 Z M 13.769531 68.417969 C 13.652344 68.699219 13.496094 68.964844 13.324219 69.148438 C 13.671875 72.378906 13.671875 72.378906 14.128906 75.695312 C 14.222656 75.636719 14.304688 75.652344 14.410156 75.597656 C 14.875 75.539062 15.226562 76.042969 15.296875 76.78125 C 18 73.945312 18 73.945312 20.988281 70.96875 C 17.089844 69.589844 17.089844 69.589844 13.769531 68.417969 Z M 13.089844 69.394531 C 13.007812 69.453125 12.914062 69.507812 12.84375 69.488281 C 12.726562 69.535156 12.632812 69.507812 12.539062 69.484375 C 10.945312 76.410156 10.945312 76.410156 9.707031 83.441406 C 11.492188 81.183594 11.492188 81.183594 13.476562 78.828125 C 13.3125 78.511719 13.234375 78.058594 13.269531 77.542969 C 13.320312 76.886719 13.570312 76.261719 13.886719 75.945312 C 13.449219 72.558594 13.449219 72.558594 13.089844 69.394531 Z M 15.292969 77.285156 C 15.292969 77.285156 15.292969 77.285156 15.296875 77.285156 C 15.242188 77.996094 14.988281 78.609375 14.660156 78.921875 C 15.796875 84.796875 15.796875 84.796875 17.242188 90.847656 C 17.414062 90.773438 17.59375 90.703125 17.785156 90.695312 C 17.984375 90.757812 18.171875 90.753906 18.351562 90.882812 C 20.964844 81.585938 20.964844 81.585938 24.222656 72.066406 C 22.746094 71.59375 22.746094 71.59375 21.355469 71.070312 C 18.175781 74.195312 18.175781 74.195312 15.292969 77.285156 Z M 14.414062 79.179688 C 14.320312 79.238281 14.234375 79.226562 14.132812 79.285156 C 13.957031 79.261719 13.789062 79.238281 13.660156 79.074219 C 11.589844 81.492188 11.589844 81.492188 9.730469 83.824219 C 12.746094 87.679688 12.746094 87.679688 16.417969 91.835938 C 16.5625 91.488281 16.757812 91.207031 16.992188 91.058594 C 15.554688 84.921875 15.554688 84.921875 14.414062 79.179688 Z M 32.59375 108.46875 C 33.023438 108.492188 33.441406 108.753906 33.78125 109.15625 C 38.578125 104.375 38.578125 104.375 43.929688 99.238281 C 43.867188 99.03125 43.824219 98.820312 43.816406 98.644531 C 30.390625 96.382812 30.390625 96.382812 19.644531 94.21875 C 19.609375 94.621094 19.527344 95.027344 19.394531 95.308594 C 24.996094 101.976562 24.996094 101.976562 31.5 108.933594 C 31.757812 108.59375 32.152344 108.449219 32.59375 108.46875 Z M 45.738281 96.328125 C 46.773438 96.378906 47.640625 97.242188 47.785156 98.367188 C 53.25 98.546875 53.25 98.546875 58.941406 98.675781 C 53.738281 93.773438 53.738281 93.773438 48.765625 88.9375 C 48.535156 89.019531 48.292969 89.054688 48.042969 89.054688 C 47.84375 89.054688 47.652344 89.058594 47.464844 88.980469 C 46.578125 92.667969 46.578125 92.667969 45.738281 96.328125 Z M 47.804688 98.929688 C 47.730469 99.765625 47.226562 100.492188 46.507812 100.703125 C 55.839844 115.953125 55.839844 115.953125 65.660156 130.285156 C 65.953125 130.199219 66.234375 130.144531 66.574219 130.171875 C 67.402344 130.210938 68.179688 130.695312 68.597656 131.355469 C 78.238281 128.609375 78.238281 128.609375 88.242188 125.453125 C 88.152344 125.191406 88.132812 124.914062 88.113281 124.632812 C 88.132812 124.421875 88.15625 124.214844 88.175781 124.015625 C 73.835938 112.019531 73.835938 112.019531 59.550781 99.230469 C 53.546875 99.089844 53.546875 99.089844 47.804688 98.929688 Z M 43.832031 98.113281 C 43.945312 97.261719 44.496094 96.597656 45.230469 96.382812 C 46.085938 92.632812 46.085938 92.632812 46.996094 88.820312 C 46.09375 88.460938 45.394531 87.609375 45.132812 86.582031 C 30.882812 90.195312 30.882812 90.195312 19.640625 93.355469 C 19.652344 93.421875 19.660156 93.554688 19.664062 93.6875 C 19.667969 93.753906 19.667969 93.753906 19.664062 93.753906 C 30.40625 95.875 30.40625 95.875 43.832031 98.113281 Z M 138.0625 78.535156 C 137.632812 78.941406 137.070312 79.210938 136.433594 79.175781 C 135.421875 79.113281 134.507812 78.378906 134.019531 77.367188 C 126.144531 81.117188 126.144531 81.117188 117.445312 85.140625 C 133.5 88.722656 133.5 88.722656 146.605469 91.816406 C 146.695312 91.394531 146.855469 90.976562 147.066406 90.613281 C 142.828125 84.734375 142.828125 84.734375 138.0625 78.535156 Z M 133.816406 76.855469 C 133.710938 76.527344 133.648438 76.183594 133.632812 75.828125 C 133.570312 74.710938 133.976562 73.800781 134.632812 73.269531 C 130.164062 65.242188 130.164062 65.242188 125.414062 57.382812 C 125.171875 57.445312 124.9375 57.503906 124.660156 57.472656 C 123.757812 57.371094 122.929688 56.65625 122.632812 55.796875 C 109.285156 56.695312 109.285156 56.695312 94.71875 58.183594 C 94.722656 59.058594 94.359375 59.847656 93.753906 60.421875 C 101.554688 68.425781 109.242188 76.652344 116.648438 84.921875 C 125.664062 80.710938 125.664062 80.710938 133.816406 76.855469 Z M 149.726562 95.046875 C 149.390625 95.402344 148.980469 95.613281 148.542969 95.632812 C 147.839844 95.679688 147.226562 95.179688 146.863281 94.402344 C 139.246094 100.621094 139.246094 100.621094 130.441406 107.199219 C 130.5625 107.457031 130.613281 107.796875 130.636719 108.121094 C 143.738281 105.921875 143.738281 105.921875 154.007812 103.699219 C 152.03125 99.433594 152.03125 99.433594 149.726562 95.046875 Z M 146.699219 94.023438 C 146.574219 93.585938 146.503906 93.152344 146.511719 92.667969 C 146.515625 92.542969 146.523438 92.421875 146.53125 92.300781 C 133.144531 89.148438 133.144531 89.148438 116.710938 85.546875 C 113.570312 90.851562 113.570312 90.851562 110.324219 96.257812 C 111.140625 96.890625 111.660156 97.910156 111.640625 99.054688 C 111.632812 99.617188 111.488281 100.164062 111.246094 100.640625 C 118.539062 104.101562 118.539062 104.101562 125.34375 107.335938 C 125.898438 106.339844 126.894531 105.609375 127.972656 105.558594 C 128.953125 105.496094 129.785156 105.964844 130.25 106.757812 C 139.066406 100.195312 139.066406 100.195312 146.699219 94.023438 Z M 125.046875 110.296875 C 124.894531 109.910156 124.824219 109.472656 124.855469 108.992188 C 124.882812 108.570312 124.976562 108.175781 125.121094 107.808594 C 118.28125 104.578125 118.28125 104.578125 110.953125 101.121094 C 110.328125 101.996094 109.324219 102.574219 108.191406 102.613281 C 107.621094 102.628906 107.09375 102.480469 106.628906 102.246094 C 100.152344 112.351562 100.152344 112.351562 93.648438 122.027344 C 94.242188 122.429688 94.679688 123.003906 94.894531 123.671875 C 101.355469 122.285156 101.355469 122.285156 107.730469 120.800781 C 116.589844 115.601562 116.589844 115.601562 125.046875 110.296875 Z M 91.601562 121.429688 C 92.207031 121.414062 92.742188 121.535156 93.203125 121.761719 C 99.695312 112.078125 99.695312 112.078125 106.171875 101.957031 C 105.402344 101.382812 104.890625 100.476562 104.816406 99.445312 C 89.96875 99.539062 74.914062 99.476562 60.355469 99.261719 C 74.347656 111.75 74.347656 111.75 88.347656 123.488281 C 88.867188 122.300781 90.136719 121.445312 91.601562 121.429688 Z M 27.804688 62.964844 C 28.617188 63.195312 29.175781 64.054688 29.097656 65.292969 C 34.269531 64.683594 34.269531 64.683594 39.953125 64.09375 C 34.855469 58.832031 34.855469 58.832031 30.5 54.207031 C 29.097656 58.554688 29.097656 58.554688 27.804688 62.964844 Z M 29.023438 65.792969 C 28.941406 66.285156 28.769531 66.746094 28.523438 67.171875 C 32.871094 71.445312 32.871094 71.445312 37.816406 76.054688 C 38.949219 70.285156 38.949219 70.285156 40.230469 64.53125 C 34.378906 65.113281 34.378906 65.113281 29.023438 65.792969 Z M 28.253906 67.59375 C 27.792969 68.207031 27.175781 68.644531 26.53125 68.75 C 26.285156 68.800781 26.0625 68.789062 25.855469 68.722656 C 25.257812 70.253906 25.257812 70.253906 24.6875 71.734375 C 30.390625 73.699219 30.390625 73.699219 36.898438 75.914062 C 32.328125 71.5625 32.328125 71.5625 28.253906 67.59375 Z M 25.574219 68.558594 C 25.296875 68.398438 25.074219 68.121094 24.917969 67.792969 C 23.304688 69.238281 23.304688 69.238281 21.722656 70.757812 C 23.023438 71.195312 23.023438 71.195312 24.382812 71.648438 C 24.96875 70.101562 24.96875 70.101562 25.574219 68.558594 Z M 66.71875 58.726562 C 66.484375 60.355469 64.992188 61.699219 63.269531 61.765625 C 62.191406 61.820312 61.265625 61.367188 60.710938 60.625 C 53.722656 65.402344 53.722656 65.402344 47.011719 70.222656 C 53.644531 73.390625 53.644531 73.390625 60.742188 76.742188 C 74.433594 68.050781 74.433594 68.050781 88.265625 59.773438 C 88.085938 59.484375 87.960938 59.167969 87.863281 58.832031 C 77.179688 58.65625 77.179688 58.65625 66.71875 58.726562 Z M 60.449219 60.210938 C 60.347656 59.980469 60.25 59.753906 60.191406 59.507812 C 50.21875 61.878906 50.21875 61.878906 40.957031 64.40625 C 43.675781 67.136719 43.675781 67.136719 46.570312 69.957031 C 53.355469 65.078125 53.355469 65.078125 60.449219 60.210938 Z M 93.351562 60.765625 C 93.019531 60.992188 92.652344 61.167969 92.242188 61.269531 C 99.847656 78.308594 99.847656 78.308594 107.199219 95.800781 C 107.550781 95.671875 107.917969 95.59375 108.304688 95.589844 C 108.867188 95.601562 109.402344 95.730469 109.871094 95.96875 C 113.121094 90.574219 113.121094 90.574219 116.257812 85.285156 C 105.011719 72.875 105.011719 72.875 93.351562 60.765625 Z M 91.695312 61.367188 C 91.550781 61.378906 91.429688 61.386719 91.289062 61.382812 C 90.203125 61.371094 89.25 60.914062 88.609375 60.203125 C 74.890625 68.402344 74.890625 68.402344 61.316406 76.996094 C 83.046875 87.304688 83.046875 87.304688 105.125 97.746094 C 105.445312 97.007812 106.007812 96.394531 106.703125 96.015625 C 99.316406 78.472656 99.316406 78.472656 91.695312 61.367188 Z M 104.828125 98.886719 C 104.847656 98.679688 104.890625 98.460938 104.9375 98.269531 C 82.671875 87.742188 82.671875 87.742188 60.78125 77.347656 C 55.726562 80.6875 55.726562 80.6875 50.847656 84 C 51.070312 84.453125 51.191406 84.992188 51.183594 85.585938 C 51.175781 86.96875 50.398438 88.199219 49.304688 88.722656 C 54.40625 93.667969 54.40625 93.667969 59.738281 98.679688 C 82.097656 98.960938 82.097656 98.960938 104.828125 98.886719 Z M 48.109375 82.183594 C 49.125 82.179688 50.035156 82.675781 50.59375 83.53125 C 55.320312 80.3125 55.320312 80.3125 60.210938 77.078125 C 53.132812 73.742188 53.132812 73.742188 46.515625 70.605469 C 42.332031 73.566406 42.332031 73.566406 38.316406 76.546875 C 41.96875 79.851562 41.96875 79.851562 45.847656 83.328125 C 46.414062 82.648438 47.214844 82.222656 48.109375 82.183594 Z M 45.042969 86.050781 C 45.027344 85.925781 45.023438 85.757812 45.023438 85.636719 C 45.027344 84.945312 45.222656 84.308594 45.550781 83.734375 C 41.605469 80.238281 41.605469 80.238281 37.910156 76.847656 C 27.6875 84.980469 27.6875 84.980469 19.433594 92.375 C 19.488281 92.503906 19.53125 92.703125 19.570312 92.898438 C 30.800781 89.703125 30.800781 89.703125 45.042969 86.050781 Z M 18.621094 91.078125 C 18.875 91.269531 19.097656 91.59375 19.273438 91.984375 C 27.394531 84.609375 27.394531 84.609375 37.429688 76.621094 C 30.527344 74.273438 30.527344 74.273438 24.515625 72.210938 C 21.25 81.6875 21.25 81.6875 18.621094 91.078125 Z M 40.613281 64.742188 C 39.371094 70.34375 39.371094 70.34375 38.25 76.019531 C 42.113281 73.140625 42.113281 73.140625 46.132812 70.28125 C 43.285156 67.46875 43.285156 67.46875 40.613281 64.742188 Z M 40.613281 64.742188 " fill-opacity="1" fill-rule="nonzero"/></g></svg>