<svg xmlns="http://www.w3.org/2000/svg" xmlns:xlink="http://www.w3.org/1999/xlink" width="60" zoomAndPan="magnify" viewBox="0 0 45 44.999999" height="60" preserveAspectRatio="xMidYMid meet" version="1.0"><defs><filter x="0%" y="0%" width="100%" height="100%" id="c53faf03dc"><feColorMatrix values="0 0 0 0 1 0 0 0 0 1 0 0 0 0 1 0 0 0 1 0" color-interpolation-filters="sRGB"/></filter><mask id="091f1f13d3"><g filter="url(#c53faf03dc)"><rect x="-4.5" width="54" fill="#000000" y="-4.5" height="53.999999" fill-opacity="0.7"/></g></mask><clipPath id="f0b022a6dd"><path d="M 1.152344 1.761719 L 30.167969 1.761719 L 30.167969 27.417969 L 1.152344 27.417969 Z M 1.152344 1.761719 " clip-rule="nonzero"/></clipPath><clipPath id="171dd25928"><path d="M 16.804688 2.453125 L 29.953125 25.460938 C 30.1875 25.867188 30.183594 26.363281 29.949219 26.765625 C 29.714844 27.167969 29.285156 27.417969 28.820312 27.417969 L 2.558594 27.417969 C 2.09375 27.417969 1.664062 27.167969 1.429688 26.765625 C 1.195312 26.363281 1.195312 25.867188 1.425781 25.460938 L 14.574219 2.453125 C 14.804688 2.054688 15.230469 1.804688 15.691406 1.804688 C 16.152344 1.804688 16.578125 2.054688 16.804688 2.453125 Z M 16.804688 2.453125 " clip-rule="nonzero"/></clipPath><clipPath id="ddda16ad92"><rect x="0" width="32" y="0" height="28"/></clipPath><mask id="c09364062c"><g filter="url(#c53faf03dc)"><rect x="-4.5" width="54" fill="#000000" y="-4.5" height="53.999999" fill-opacity="0.7"/></g></mask><clipPath id="74411caa36"><path d="M 2 2.183594 L 30.976562 2.183594 L 30.976562 27.835938 L 2 27.835938 Z M 2 2.183594 " clip-rule="nonzero"/></clipPath><clipPath id="c515c77cf0"><path d="M 17.613281 2.875 L 30.761719 25.882812 C 30.992188 26.289062 30.992188 26.785156 30.757812 27.1875 C 30.523438 27.589844 30.09375 27.835938 29.628906 27.835938 L 3.367188 27.835938 C 2.902344 27.835938 2.46875 27.589844 2.238281 27.1875 C 2.003906 26.785156 2 26.289062 2.230469 25.882812 L 15.378906 2.875 C 15.609375 2.472656 16.035156 2.226562 16.496094 2.226562 C 16.957031 2.226562 17.382812 2.472656 17.613281 2.875 Z M 17.613281 2.875 " clip-rule="nonzero"/></clipPath><clipPath id="91af343a86"><rect x="0" width="33" y="0" height="28"/></clipPath><mask id="c1345509c2"><g filter="url(#c53faf03dc)"><rect x="-4.5" width="54" fill="#000000" y="-4.5" height="53.999999" fill-opacity="0.7"/></g></mask><clipPath id="335fce01c3"><path d="M 1.769531 1.761719 L 30.789062 1.761719 L 30.789062 27.417969 L 1.769531 27.417969 Z M 1.769531 1.761719 " clip-rule="nonzero"/></clipPath><clipPath id="0a310c0f0f"><path d="M 17.425781 2.453125 L 30.574219 25.460938 C 30.804688 25.867188 30.804688 26.363281 30.570312 26.765625 C 30.335938 27.167969 29.90625 27.417969 29.441406 27.417969 L 3.179688 27.417969 C 2.714844 27.417969 2.285156 27.167969 2.050781 26.765625 C 1.816406 26.363281 1.8125 25.867188 2.046875 25.460938 L 15.195312 2.453125 C 15.421875 2.054688 15.847656 1.804688 16.308594 1.804688 C 16.769531 1.804688 17.195312 2.054688 17.425781 2.453125 Z M 17.425781 2.453125 " clip-rule="nonzero"/></clipPath><clipPath id="5b462aef84"><rect x="0" width="32" y="0" height="28"/></clipPath></defs><g mask="url(#091f1f13d3)"><g transform="matrix(1, 0, 0, 1, 2, 4)"><g clip-path="url(#ddda16ad92)"><g clip-path="url(#f0b022a6dd)"><g clip-path="url(#171dd25928)"><path fill="#50d184" d="M 0.308594 0.5 L 31.117188 0.5 L 31.117188 27.417969 L 0.308594 27.417969 Z M 0.308594 0.5 " fill-opacity="1" fill-rule="nonzero"/></g></g></g></g></g><g mask="url(#c09364062c)"><g transform="matrix(1, 0, 0, 1, 6, 12)"><g clip-path="url(#91af343a86)"><g clip-path="url(#74411caa36)"><g clip-path="url(#c515c77cf0)"><path fill="#17c6b3" d="M 1.117188 0.921875 L 31.921875 0.921875 L 31.921875 27.835938 L 1.117188 27.835938 Z M 1.117188 0.921875 " fill-opacity="1" fill-rule="nonzero"/></g></g></g></g></g><g mask="url(#c1345509c2)"><g transform="matrix(1, 0, 0, 1, 11, 4)"><g clip-path="url(#5b462aef84)"><g clip-path="url(#335fce01c3)"><g clip-path="url(#0a310c0f0f)"><path fill="#4faefc" d="M 0.929688 0.5 L 31.734375 0.5 L 31.734375 27.417969 L 0.929688 27.417969 Z M 0.929688 0.5 " fill-opacity="1" fill-rule="nonzero"/></g></g></g></g></g></svg>