<svg xmlns="http://www.w3.org/2000/svg" xmlns:xlink="http://www.w3.org/1999/xlink" width="250" zoomAndPan="magnify" viewBox="0 0 187.5 187.499992" height="250" preserveAspectRatio="xMidYMid meet" version="1.0"><defs><filter x="0%" y="0%" width="100%" height="100%" id="0964f6bcd4"><feColorMatrix values="0 0 0 0 1 0 0 0 0 1 0 0 0 0 1 0 0 0 1 0" color-interpolation-filters="sRGB"/></filter><mask id="6ae6e239a8"><g filter="url(#0964f6bcd4)"><rect x="-18.75" width="225" fill="#000000" y="-18.749999" height="224.99999" fill-opacity="0.6"/></g></mask><clipPath id="215893d239"><path d="M 3 8 L 124 8 L 124 143 L 3 143 Z M 3 8 " clip-rule="nonzero"/></clipPath><clipPath id="501a0b1982"><path d="M 57.925781 -39.695312 L 189.441406 37.6875 L 121.925781 152.441406 L -9.59375 75.0625 Z M 57.925781 -39.695312 " clip-rule="nonzero"/></clipPath><clipPath id="2e8833af03"><path d="M 58.046875 -25.820312 L 177.003906 44.171875 L 115.460938 148.773438 L -3.5 78.78125 Z M 58.046875 -25.820312 " clip-rule="nonzero"/></clipPath><clipPath id="b6dbdabd58"><path d="M 123.273438 21.359375 L 121.898438 129.957031 C 121.839844 134.597656 119.3125 138.859375 115.269531 141.136719 C 111.226562 143.414062 106.273438 143.367188 102.273438 141.015625 L 9.6875 86.539062 C 5.6875 84.1875 3.242188 79.882812 3.269531 75.238281 C 3.296875 70.597656 5.792969 66.320312 9.824219 64.015625 L 104.082031 10.066406 C 108.078125 7.78125 112.988281 7.8125 116.953125 10.144531 C 120.921875 12.476562 123.332031 16.757812 123.273438 21.359375 Z M 123.273438 21.359375 " clip-rule="nonzero"/></clipPath><clipPath id="48a5f21361"><rect x="0" width="187" y="0" height="184"/></clipPath><mask id="099cef2228"><g filter="url(#0964f6bcd4)"><rect x="-18.75" width="225" fill="#000000" y="-18.749999" height="224.99999" fill-opacity="0.6"/></g></mask><clipPath id="ee1b8e280f"><path d="M 41 1 L 162 1 L 162 137 L 41 137 Z M 41 1 " clip-rule="nonzero"/></clipPath><clipPath id="0b4d4e8281"><path d="M 95.753906 -46.242188 L 227.335938 31.027344 L 159.917969 145.839844 L 28.332031 68.570312 Z M 95.753906 -46.242188 " clip-rule="nonzero"/></clipPath><clipPath id="0e3ee97a51"><path d="M 95.886719 -32.367188 L 214.902344 37.523438 L 153.449219 142.175781 L 34.429688 72.285156 Z M 95.886719 -32.367188 " clip-rule="nonzero"/></clipPath><clipPath id="5b3e40fc54"><path d="M 161.152344 14.753906 L 159.871094 123.355469 C 159.816406 127.996094 157.292969 132.257812 153.25 134.539062 C 149.210938 136.820312 144.257812 136.78125 140.253906 134.429688 L 47.625 80.035156 C 43.621094 77.683594 41.171875 73.378906 41.195312 68.738281 C 41.21875 64.097656 43.710938 59.816406 47.738281 57.507812 L 141.953125 3.480469 C 145.945312 1.191406 150.859375 1.214844 154.824219 3.546875 C 158.792969 5.875 161.207031 10.152344 161.152344 14.753906 Z M 161.152344 14.753906 " clip-rule="nonzero"/></clipPath><clipPath id="d371115345"><rect x="0" width="165" y="0" height="177"/></clipPath><mask id="36e8a0cfff"><g filter="url(#0964f6bcd4)"><rect x="-18.75" width="225" fill="#000000" y="-18.749999" height="224.99999" fill-opacity="0.6"/></g></mask><clipPath id="df85f9c8f7"><path d="M 26 50 L 146 50 L 146 186 L 26 186 Z M 26 50 " clip-rule="nonzero"/></clipPath><clipPath id="698795a59f"><path d="M 79.988281 3.304688 L 212.152344 79.574219 L 145.605469 194.894531 L 13.4375 118.625 Z M 79.988281 3.304688 " clip-rule="nonzero"/></clipPath><clipPath id="496598c5b9"><path d="M 80.222656 17.179688 L 199.769531 86.164062 L 139.109375 191.28125 L 19.5625 122.292969 Z M 80.222656 17.179688 " clip-rule="nonzero"/></clipPath><clipPath id="fc1940c729"><path d="M 145.847656 63.804688 L 145.386719 172.410156 C 145.367188 177.050781 142.878906 181.332031 138.855469 183.644531 C 134.828125 185.957031 129.878906 185.953125 125.859375 183.632812 L 32.816406 129.941406 C 28.796875 127.621094 26.3125 123.335938 26.300781 118.695312 C 26.292969 114.054688 28.75 109.757812 32.761719 107.417969 L 126.5625 52.675781 C 130.539062 50.355469 135.449219 50.34375 139.433594 52.644531 C 143.417969 54.941406 145.867188 59.203125 145.847656 63.804688 Z M 145.847656 63.804688 " clip-rule="nonzero"/></clipPath><clipPath id="df19f8849d"><rect x="0" width="187" y="0" height="187"/></clipPath></defs><g mask="url(#6ae6e239a8)"><g transform="matrix(1, 0, 0, 1, 0, 0)"><g clip-path="url(#48a5f21361)"><g clip-path="url(#215893d239)"><g clip-path="url(#501a0b1982)"><g clip-path="url(#2e8833af03)"><g clip-path="url(#b6dbdabd58)"><path stroke-linecap="butt" transform="matrix(0.644695, 0.379315, -0.379315, 0.644695, 57.92594, -39.69405)" fill="none" stroke-linejoin="miter" d="M 116.686902 26.046854 L 188.725244 152.110171 C 191.803794 157.497033 191.780863 164.120966 188.666273 169.485914 C 185.551683 174.850863 179.812689 178.154772 173.60949 178.156954 L 29.995937 178.154283 C 23.792737 178.156465 18.056818 174.854184 14.939612 169.484007 C 11.825054 164.118331 11.801385 157.497579 14.883935 152.109069 L 86.917739 26.045202 C 89.973021 20.70303 95.651912 17.410247 101.801362 17.409394 C 107.955313 17.405893 113.634834 20.705002 116.686902 26.046854 Z M 116.686902 26.046854 " stroke="#50d184" stroke-width="16" stroke-opacity="1" stroke-miterlimit="4"/></g></g></g></g></g></g></g><g mask="url(#099cef2228)"><g transform="matrix(1, 0, 0, 1, 22, 0)"><g clip-path="url(#d371115345)"><g clip-path="url(#ee1b8e280f)"><g clip-path="url(#0b4d4e8281)"><g clip-path="url(#0e3ee97a51)"><g clip-path="url(#5b3e40fc54)"><path stroke-linecap="butt" transform="matrix(0.645018, 0.378767, -0.378767, 0.645018, 95.754256, -46.242482)" fill="none" stroke-linejoin="miter" d="M 116.684417 26.046122 L 188.726206 152.111727 C 191.804675 157.498562 191.780612 164.119829 188.664103 169.486629 C 185.552097 174.850785 179.815583 178.158817 173.60788 178.158366 L 30.000369 178.157167 C 23.792667 178.156716 18.055055 174.8522 14.94056 169.48652 C 11.826065 164.12084 11.800881 157.498212 14.880867 152.110466 L 86.91948 26.046947 C 89.972159 20.705517 95.653063 17.405916 101.802512 17.410295 C 107.95382 17.407526 113.632391 20.704319 116.684417 26.046122 Z M 116.684417 26.046122 " stroke="#4faefc" stroke-width="16" stroke-opacity="1" stroke-miterlimit="4"/></g></g></g></g></g></g></g><g mask="url(#36e8a0cfff)"><g transform="matrix(1, 0, 0, 1, 0, 0)"><g clip-path="url(#df19f8849d)"><g clip-path="url(#df85f9c8f7)"><g clip-path="url(#698795a59f)"><g clip-path="url(#496598c5b9)"><g clip-path="url(#fc1940c729)"><path stroke-linecap="butt" transform="matrix(0.647871, 0.373865, -0.373865, 0.647871, 79.987246, 3.304347)" fill="none" stroke-linejoin="miter" d="M 116.687437 26.046893 L 188.723663 152.111574 C 191.801904 157.498108 191.78139 164.118127 188.66777 169.484275 C 185.549627 174.853033 179.816207 178.155568 173.611474 178.154669 L 29.998465 178.155322 C 23.793733 178.154424 18.053687 174.8526 14.939261 169.486948 C 11.829359 164.118686 11.803247 157.501455 14.885026 152.111476 L 86.920414 26.046788 C 89.974535 20.702916 95.652284 17.40839 101.803258 17.410164 C 107.951621 17.407415 113.635298 20.705591 116.687437 26.046893 Z M 116.687437 26.046893 " stroke="#4beddb" stroke-width="16" stroke-opacity="1" stroke-miterlimit="4"/></g></g></g></g></g></g></g></svg>