<svg width="60" height="68" viewBox="0 0 60 68" fill="none" xmlns="http://www.w3.org/2000/svg">
<path fill-rule="evenodd" clip-rule="evenodd" d="M30 0L33.124 25.4377C33.2728 26.6677 33.7686 27.7858 34.562 28.6803C35.3553 29.5748 36.3471 30.1339 37.438 30.3016L60 33.8238L37.438 37.3459C36.3471 37.5136 35.3553 38.0727 34.562 38.9672C33.7686 39.8617 33.2728 40.9799 33.124 42.2098L30 67.6475L26.876 42.2098C26.7272 40.9799 26.2314 39.8617 25.438 38.9672C24.6447 38.0727 23.6529 37.5136 22.562 37.3459L0 33.8238L22.562 30.3016C23.6529 30.1339 24.6447 29.5748 25.438 28.6803C26.2314 27.7858 26.7272 26.6677 26.876 25.4377L30 0Z" fill="#295956"/>
<path fill-rule="evenodd" clip-rule="evenodd" d="M30 0L33.124 25.4377C33.2728 26.6677 33.7686 27.7858 34.562 28.6803C35.3553 29.5748 36.3471 30.1339 37.438 30.3016L60 33.8238L37.438 37.3459C36.3471 37.5136 35.3553 38.0727 34.562 38.9672C33.7686 39.8617 33.2728 40.9799 33.124 42.2098L30 67.6475L26.876 42.2098C26.7272 40.9799 26.2314 39.8617 25.438 38.9672C24.6447 38.0727 23.6529 37.5136 22.562 37.3459L0 33.8238L22.562 30.3016C23.6529 30.1339 24.6447 29.5748 25.438 28.6803C26.2314 27.7858 26.7272 26.6677 26.876 25.4377L30 0Z" fill="#295956"/>
</svg>
