<svg width="44" height="49" viewBox="0 0 44 49" fill="none" xmlns="http://www.w3.org/2000/svg">
<path fill-rule="evenodd" clip-rule="evenodd" d="M22 0L24.2909 18.4256C24.4 19.3165 24.7636 20.1264 25.3454 20.7744C25.9273 21.4223 26.6545 21.8273 27.4545 21.9488L44 24.5L27.4545 27.0512C26.6545 27.1727 25.9273 27.5777 25.3454 28.2256C24.7636 28.8736 24.4 29.6835 24.2909 30.5744L22 49L19.7091 30.5744C19.6 29.6835 19.2364 28.8736 18.6546 28.2256C18.0727 27.5777 17.3455 27.1727 16.5455 27.0512L0 24.5L16.5455 21.9488C17.3455 21.8273 18.0727 21.4223 18.6546 20.7744C19.2364 20.1264 19.6 19.3165 19.7091 18.4256L22 0Z" fill="#FFDF6C"/>
</svg>
