<svg width="1600" height="1020" viewBox="0 0 1600 1020" fill="none" xmlns="http://www.w3.org/2000/svg">
<path d="M1460.05 0V1020M1271.69 0V1020M1083.33 0V1020M894.967 0V1020M706.607 0V1020M518.248 0V1020M329.888 0V1020M141.528 0V1020M1600 721.878L-2.47955e-05 721.878M1600 864.875L-2.47955e-05 864.875M1600 578.882L-2.47955e-05 578.882M1600 435.885L-2.47955e-05 435.885M1600 292.888L-2.47955e-05 292.888M1600 149.892L-2.47955e-05 149.892" stroke="url(#paint0_linear_1109_21114)"/>
<defs>
<linearGradient id="paint0_linear_1109_21114" x1="1143.92" y1="89.4384" x2="57.8385" y2="1082.63" gradientUnits="userSpaceOnUse">
<stop offset="0.00946072" stop-opacity="0"/>
<stop offset="0.511048" stop-opacity="0"/>
<stop offset="0.76833" stop-opacity="0.05"/>
<stop offset="1" stop-opacity="0.21"/>
</linearGradient>
</defs>
</svg>
