<svg width="725" height="699" viewBox="0 0 725 699" fill="none" xmlns="http://www.w3.org/2000/svg">
<path d="M45.7974 184.518C146.982 109.237 488.719 204.991 582.543 541.321M147.327 161.466C183.27 292.645 396.484 610.251 672.853 526.758M27.4763 206.339L160.682 57.5038C206.897 2.26928 352.1 -60.967 563.475 128.211C810.193 349.02 702.044 490.095 690.784 505.375C681.776 517.598 594.227 614.161 544.377 668.959C495.282 714.371 335.869 721.422 167.457 570.695C-43.0587 382.286 -7.32521 245.224 27.4763 206.339Z" stroke="#11635D"/>
<path d="M71 224C52.7029 238.75 27.2446 290.375 55.8845 342" stroke="#1F5E59"/>
<path d="M675 441C683.851 433.625 692.689 402.597 682.312 382" stroke="#1F5E59"/>
</svg>
