<svg width="34" height="39" viewBox="0 0 34 39" fill="none" xmlns="http://www.w3.org/2000/svg">
<path fill-rule="evenodd" clip-rule="evenodd" d="M17 0L18.7703 14.6496C18.8546 15.358 19.1355 16.0019 19.5851 16.517C20.0347 17.0322 20.5967 17.3542 21.2149 17.4508L34 19.4792L21.2149 21.5076C20.5967 21.6042 20.0347 21.9261 19.5851 22.4413C19.1355 22.9564 18.8546 23.6004 18.7703 24.3087L17 38.9583L15.2297 24.3087C15.1454 23.6004 14.8645 22.9564 14.4149 22.4413C13.9653 21.9261 13.4033 21.6042 12.7851 21.5076L0 19.4792L12.7851 17.4508C13.4033 17.3542 13.9653 17.0322 14.4149 16.517C14.8645 16.0019 15.1454 15.358 15.2297 14.6496L17 0Z" fill="#29594B"/>
</svg>
