<svg width="402" height="24" viewBox="0 0 402 24" fill="none" xmlns="http://www.w3.org/2000/svg">
<path d="M1.96134 14.5096C38.4728 13.8757 74.4394 12.3022 110.266 6.93756C111.554 6.74473 129.447 2.49613 122.579 5.66359C114.203 9.52697 105.785 13.297 98.4043 18.1938C93.5947 21.3847 91.491 22.0538 98.567 21.1676C122.324 18.1926 146.044 15.1876 169.455 10.8846C181.095 8.74509 215.579 1.10524 204.113 3.71788C198.47 5.00385 194.223 9.57842 190.825 12.797C187.322 16.1144 184.281 18.5398 191.906 17.5082C217.624 14.0291 243.405 10.5895 268.712 5.65448C271.104 5.18808 293.015 -1.37208 284.803 4.31493C279.215 8.1847 271.028 11.9998 267.634 17.172C265.512 20.4057 275.505 17.973 276.978 17.703C304.215 12.7114 331.047 7.9169 358.879 4.90447C366.943 4.0317 379.603 2.2884 400.102 2.49383" stroke="#295956" stroke-width="3" stroke-linecap="round"/>
</svg>
