<svg width="595" height="298" viewBox="0 0 595 298" fill="none" xmlns="http://www.w3.org/2000/svg">
<path d="M574 0H21C9.40202 0 0 9.40202 0 21V277C0 288.598 9.40203 298 21 298H372.888C384.486 298 393.888 288.598 393.888 277V230.464C393.888 218.866 403.29 209.464 414.888 209.464H539.613C551.211 209.464 560.613 200.062 560.613 188.464V138.583C560.613 128.755 567.43 120.241 577.02 118.092L578.593 117.739C588.183 115.59 595 107.076 595 97.2477V21C595 9.40202 585.598 0 574 0Z" fill="white"/>
</svg>
