<svg width="35" height="40" viewBox="0 0 35 40" fill="none" xmlns="http://www.w3.org/2000/svg">
<path fill-rule="evenodd" clip-rule="evenodd" d="M17.5 0L19.3223 15.0413C19.4091 15.7686 19.6983 16.4297 20.1611 16.9587C20.624 17.4876 21.2025 17.8182 21.8388 17.9174L35 20L21.8388 22.0826C21.2025 22.1818 20.624 22.5124 20.1611 23.0413C19.6983 23.5703 19.4091 24.2314 19.3223 24.9587L17.5 40L15.6777 24.9587C15.5909 24.2314 15.3017 23.5703 14.8389 23.0413C14.376 22.5124 13.7975 22.1818 13.1612 22.0826L0 20L13.1612 17.9174C13.7975 17.8182 14.376 17.4876 14.8389 16.9587C15.3017 16.4297 15.5909 15.7686 15.6777 15.0413L17.5 0Z" fill="#295956"/>
</svg>
