<svg width="30" height="34" viewBox="0 0 30 34" fill="none" xmlns="http://www.w3.org/2000/svg">
<path fill-rule="evenodd" clip-rule="evenodd" d="M15 0L16.562 12.7851C16.6364 13.4033 16.8843 13.9653 17.281 14.4149C17.6777 14.8645 18.1736 15.1455 18.719 15.2298L30 17L18.719 18.7702C18.1736 18.8545 17.6777 19.1355 17.281 19.5851C16.8843 20.0347 16.6364 20.5967 16.562 21.2149L15 34L13.438 21.2149C13.3636 20.5967 13.1157 20.0347 12.719 19.5851C12.3223 19.1355 11.8264 18.8545 11.281 18.7702L0 17L11.281 15.2298C11.8264 15.1455 12.3223 14.8645 12.719 14.4149C13.1157 13.9653 13.3636 13.4033 13.438 12.7851L15 0Z" fill="#FFDF6C"/>
</svg>
