<svg width="78" height="157" viewBox="0 0 78 157" fill="none" xmlns="http://www.w3.org/2000/svg">
<mask id="mask0_1109_23629" style="mask-type:alpha" maskUnits="userSpaceOnUse" x="0" y="0" width="157" height="157">
<circle cx="78.5" cy="78.5" r="78.5" transform="rotate(90 78.5 78.5)" fill="#C4C4C4"/>
</mask>
<g mask="url(#mask0_1109_23629)">
<circle cx="7.25897" cy="155.958" r="1.04217" transform="rotate(-90 7.25897 155.958)" fill="black"/>
<circle cx="7.25897" cy="5.8855" r="1.04217" transform="rotate(-90 7.25897 5.8855)" fill="black"/>
<circle cx="7.25897" cy="80.9217" r="1.04217" transform="rotate(-90 7.25897 80.9217)" fill="black"/>
<circle cx="7.25897" cy="118.44" r="1.04217" transform="rotate(-90 7.25897 118.44)" fill="black"/>
<circle cx="7.25897" cy="43.4036" r="1.04217" transform="rotate(-90 7.25897 43.4036)" fill="black"/>
<circle cx="7.25897" cy="143.452" r="1.04217" transform="rotate(-90 7.25897 143.452)" fill="black"/>
<circle cx="7.25897" cy="68.4157" r="1.04217" transform="rotate(-90 7.25897 68.4157)" fill="black"/>
<circle cx="7.25897" cy="105.934" r="1.04217" transform="rotate(-90 7.25897 105.934)" fill="black"/>
<circle cx="7.25897" cy="30.8976" r="1.04217" transform="rotate(-90 7.25897 30.8976)" fill="black"/>
<circle cx="7.25897" cy="130.946" r="1.04217" transform="rotate(-90 7.25897 130.946)" fill="black"/>
<circle cx="7.25897" cy="55.9096" r="1.04217" transform="rotate(-90 7.25897 55.9096)" fill="black"/>
<circle cx="7.25897" cy="93.4277" r="1.04217" transform="rotate(-90 7.25897 93.4277)" fill="black"/>
<circle cx="7.25897" cy="18.3915" r="1.04217" transform="rotate(-90 7.25897 18.3915)" fill="black"/>
<circle cx="15.5949" cy="149.705" r="1.04217" transform="rotate(-90 15.5949 149.705)" fill="black"/>
<circle cx="15.5949" cy="-0.367425" r="1.04217" transform="rotate(-90 15.5949 -0.367425)" fill="black"/>
<circle cx="15.5949" cy="74.6687" r="1.04217" transform="rotate(-90 15.5949 74.6687)" fill="black"/>
<circle cx="15.5949" cy="112.187" r="1.04217" transform="rotate(-90 15.5949 112.187)" fill="black"/>
<circle cx="15.5949" cy="37.1506" r="1.04217" transform="rotate(-90 15.5949 37.1506)" fill="black"/>
<circle cx="15.5949" cy="137.199" r="1.04217" transform="rotate(-90 15.5949 137.199)" fill="black"/>
<circle cx="15.5949" cy="62.1627" r="1.04217" transform="rotate(-90 15.5949 62.1627)" fill="black"/>
<circle cx="15.5949" cy="99.6807" r="1.04217" transform="rotate(-90 15.5949 99.6807)" fill="black"/>
<circle cx="15.5949" cy="24.6446" r="1.04217" transform="rotate(-90 15.5949 24.6446)" fill="black"/>
<circle cx="15.5949" cy="124.693" r="1.04217" transform="rotate(-90 15.5949 124.693)" fill="black"/>
<circle cx="15.5949" cy="49.6567" r="1.04217" transform="rotate(-90 15.5949 49.6567)" fill="black"/>
<circle cx="15.5949" cy="87.1748" r="1.04217" transform="rotate(-90 15.5949 87.1748)" fill="black"/>
<circle cx="15.5949" cy="12.1386" r="1.04217" transform="rotate(-90 15.5949 12.1386)" fill="black"/>
<circle cx="32.2707" cy="149.705" r="1.04217" transform="rotate(-90 32.2707 149.705)" fill="black"/>
<circle cx="32.2707" cy="-0.367425" r="1.04217" transform="rotate(-90 32.2707 -0.367425)" fill="black"/>
<circle cx="32.2707" cy="74.6687" r="1.04217" transform="rotate(-90 32.2707 74.6687)" fill="black"/>
<circle cx="32.2707" cy="112.187" r="1.04217" transform="rotate(-90 32.2707 112.187)" fill="black"/>
<circle cx="32.2707" cy="37.1506" r="1.04217" transform="rotate(-90 32.2707 37.1506)" fill="black"/>
<circle cx="32.2707" cy="137.199" r="1.04217" transform="rotate(-90 32.2707 137.199)" fill="black"/>
<circle cx="32.2707" cy="62.1627" r="1.04217" transform="rotate(-90 32.2707 62.1627)" fill="black"/>
<circle cx="32.2707" cy="99.6807" r="1.04217" transform="rotate(-90 32.2707 99.6807)" fill="black"/>
<circle cx="32.2707" cy="24.6446" r="1.04217" transform="rotate(-90 32.2707 24.6446)" fill="black"/>
<circle cx="32.2707" cy="124.693" r="1.04217" transform="rotate(-90 32.2707 124.693)" fill="black"/>
<circle cx="32.2707" cy="49.6566" r="1.04217" transform="rotate(-90 32.2707 49.6566)" fill="black"/>
<circle cx="32.2707" cy="87.1748" r="1.04217" transform="rotate(-90 32.2707 87.1748)" fill="black"/>
<circle cx="32.2707" cy="12.1386" r="1.04217" transform="rotate(-90 32.2707 12.1386)" fill="black"/>
<circle cx="48.9445" cy="149.705" r="1.04217" transform="rotate(-90 48.9445 149.705)" fill="black"/>
<circle cx="48.9445" cy="-0.367425" r="1.04217" transform="rotate(-90 48.9445 -0.367425)" fill="black"/>
<circle cx="48.9445" cy="74.6687" r="1.04217" transform="rotate(-90 48.9445 74.6687)" fill="black"/>
<circle cx="48.9445" cy="112.187" r="1.04217" transform="rotate(-90 48.9445 112.187)" fill="black"/>
<circle cx="48.9445" cy="37.1506" r="1.04217" transform="rotate(-90 48.9445 37.1506)" fill="black"/>
<circle cx="48.9445" cy="137.199" r="1.04217" transform="rotate(-90 48.9445 137.199)" fill="black"/>
<circle cx="48.9445" cy="62.1627" r="1.04217" transform="rotate(-90 48.9445 62.1627)" fill="black"/>
<circle cx="48.9445" cy="99.6807" r="1.04217" transform="rotate(-90 48.9445 99.6807)" fill="black"/>
<circle cx="48.9445" cy="24.6446" r="1.04217" transform="rotate(-90 48.9445 24.6446)" fill="black"/>
<circle cx="48.9445" cy="124.693" r="1.04217" transform="rotate(-90 48.9445 124.693)" fill="black"/>
<circle cx="48.9445" cy="49.6567" r="1.04217" transform="rotate(-90 48.9445 49.6567)" fill="black"/>
<circle cx="48.9445" cy="87.1748" r="1.04217" transform="rotate(-90 48.9445 87.1748)" fill="black"/>
<circle cx="48.9445" cy="12.1386" r="1.04217" transform="rotate(-90 48.9445 12.1386)" fill="black"/>
<circle cx="65.6203" cy="149.705" r="1.04217" transform="rotate(-90 65.6203 149.705)" fill="black"/>
<circle cx="65.6203" cy="-0.367425" r="1.04217" transform="rotate(-90 65.6203 -0.367425)" fill="black"/>
<circle cx="65.6203" cy="74.6687" r="1.04217" transform="rotate(-90 65.6203 74.6687)" fill="black"/>
<circle cx="65.6203" cy="112.187" r="1.04217" transform="rotate(-90 65.6203 112.187)" fill="black"/>
<circle cx="65.6203" cy="37.1506" r="1.04217" transform="rotate(-90 65.6203 37.1506)" fill="black"/>
<circle cx="65.6203" cy="137.199" r="1.04217" transform="rotate(-90 65.6203 137.199)" fill="black"/>
<circle cx="65.6203" cy="62.1627" r="1.04217" transform="rotate(-90 65.6203 62.1627)" fill="black"/>
<circle cx="65.6203" cy="99.6807" r="1.04217" transform="rotate(-90 65.6203 99.6807)" fill="black"/>
<circle cx="65.6203" cy="24.6446" r="1.04217" transform="rotate(-90 65.6203 24.6446)" fill="black"/>
<circle cx="65.6203" cy="124.693" r="1.04217" transform="rotate(-90 65.6203 124.693)" fill="black"/>
<circle cx="65.6203" cy="49.6566" r="1.04217" transform="rotate(-90 65.6203 49.6566)" fill="black"/>
<circle cx="65.6203" cy="87.1748" r="1.04217" transform="rotate(-90 65.6203 87.1748)" fill="black"/>
<circle cx="65.6203" cy="12.1386" r="1.04217" transform="rotate(-90 65.6203 12.1386)" fill="black"/>
<circle cx="23.9328" cy="154.916" r="1.04217" transform="rotate(-90 23.9328 154.916)" fill="black"/>
<circle cx="23.9328" cy="4.84339" r="1.04217" transform="rotate(-90 23.9328 4.84339)" fill="black"/>
<circle cx="23.9328" cy="79.8795" r="1.04217" transform="rotate(-90 23.9328 79.8795)" fill="black"/>
<circle cx="23.9328" cy="117.398" r="1.04217" transform="rotate(-90 23.9328 117.398)" fill="black"/>
<circle cx="23.9328" cy="42.3615" r="1.04217" transform="rotate(-90 23.9328 42.3615)" fill="black"/>
<circle cx="23.9328" cy="142.41" r="1.04217" transform="rotate(-90 23.9328 142.41)" fill="black"/>
<circle cx="23.9328" cy="67.3735" r="1.04217" transform="rotate(-90 23.9328 67.3735)" fill="black"/>
<circle cx="23.9328" cy="104.892" r="1.04217" transform="rotate(-90 23.9328 104.892)" fill="black"/>
<circle cx="23.9328" cy="29.8554" r="1.04217" transform="rotate(-90 23.9328 29.8554)" fill="black"/>
<circle cx="23.9328" cy="129.904" r="1.04217" transform="rotate(-90 23.9328 129.904)" fill="black"/>
<circle cx="23.9328" cy="54.8675" r="1.04217" transform="rotate(-90 23.9328 54.8675)" fill="black"/>
<circle cx="23.9328" cy="92.3856" r="1.04217" transform="rotate(-90 23.9328 92.3856)" fill="black"/>
<circle cx="23.9328" cy="17.3494" r="1.04217" transform="rotate(-90 23.9328 17.3494)" fill="black"/>
<circle cx="40.6086" cy="154.916" r="1.04217" transform="rotate(-90 40.6086 154.916)" fill="black"/>
<circle cx="40.6086" cy="4.84339" r="1.04217" transform="rotate(-90 40.6086 4.84339)" fill="black"/>
<circle cx="40.6086" cy="79.8795" r="1.04217" transform="rotate(-90 40.6086 79.8795)" fill="black"/>
<circle cx="40.6086" cy="117.398" r="1.04217" transform="rotate(-90 40.6086 117.398)" fill="black"/>
<circle cx="40.6086" cy="42.3615" r="1.04217" transform="rotate(-90 40.6086 42.3615)" fill="black"/>
<circle cx="40.6086" cy="142.41" r="1.04217" transform="rotate(-90 40.6086 142.41)" fill="black"/>
<circle cx="40.6086" cy="67.3735" r="1.04217" transform="rotate(-90 40.6086 67.3735)" fill="black"/>
<circle cx="40.6086" cy="104.892" r="1.04217" transform="rotate(-90 40.6086 104.892)" fill="black"/>
<circle cx="40.6086" cy="29.8554" r="1.04217" transform="rotate(-90 40.6086 29.8554)" fill="black"/>
<circle cx="40.6086" cy="129.904" r="1.04217" transform="rotate(-90 40.6086 129.904)" fill="black"/>
<circle cx="40.6086" cy="54.8674" r="1.04217" transform="rotate(-90 40.6086 54.8674)" fill="black"/>
<circle cx="40.6086" cy="92.3856" r="1.04217" transform="rotate(-90 40.6086 92.3856)" fill="black"/>
<circle cx="40.6086" cy="17.3494" r="1.04217" transform="rotate(-90 40.6086 17.3494)" fill="black"/>
<circle cx="57.2824" cy="154.916" r="1.04217" transform="rotate(-90 57.2824 154.916)" fill="black"/>
<circle cx="57.2824" cy="4.84339" r="1.04217" transform="rotate(-90 57.2824 4.84339)" fill="black"/>
<circle cx="57.2824" cy="79.8795" r="1.04217" transform="rotate(-90 57.2824 79.8795)" fill="black"/>
<circle cx="57.2824" cy="117.398" r="1.04217" transform="rotate(-90 57.2824 117.398)" fill="black"/>
<circle cx="57.2824" cy="42.3615" r="1.04217" transform="rotate(-90 57.2824 42.3615)" fill="black"/>
<circle cx="57.2824" cy="142.41" r="1.04217" transform="rotate(-90 57.2824 142.41)" fill="black"/>
<circle cx="57.2824" cy="67.3735" r="1.04217" transform="rotate(-90 57.2824 67.3735)" fill="black"/>
<circle cx="57.2824" cy="104.892" r="1.04217" transform="rotate(-90 57.2824 104.892)" fill="black"/>
<circle cx="57.2824" cy="29.8554" r="1.04217" transform="rotate(-90 57.2824 29.8554)" fill="black"/>
<circle cx="57.2824" cy="129.904" r="1.04217" transform="rotate(-90 57.2824 129.904)" fill="black"/>
<circle cx="57.2824" cy="54.8675" r="1.04217" transform="rotate(-90 57.2824 54.8675)" fill="black"/>
<circle cx="57.2824" cy="92.3856" r="1.04217" transform="rotate(-90 57.2824 92.3856)" fill="black"/>
<circle cx="57.2824" cy="17.3494" r="1.04217" transform="rotate(-90 57.2824 17.3494)" fill="black"/>
<circle cx="73.9582" cy="154.916" r="1.04217" transform="rotate(-90 73.9582 154.916)" fill="black"/>
<circle cx="73.9582" cy="4.84339" r="1.04217" transform="rotate(-90 73.9582 4.84339)" fill="black"/>
<circle cx="73.9582" cy="79.8795" r="1.04217" transform="rotate(-90 73.9582 79.8795)" fill="black"/>
<circle cx="73.9582" cy="117.398" r="1.04217" transform="rotate(-90 73.9582 117.398)" fill="black"/>
<circle cx="73.9582" cy="42.3615" r="1.04217" transform="rotate(-90 73.9582 42.3615)" fill="black"/>
<circle cx="73.9582" cy="142.41" r="1.04217" transform="rotate(-90 73.9582 142.41)" fill="black"/>
<circle cx="73.9582" cy="67.3735" r="1.04217" transform="rotate(-90 73.9582 67.3735)" fill="black"/>
<circle cx="73.9582" cy="104.892" r="1.04217" transform="rotate(-90 73.9582 104.892)" fill="black"/>
<circle cx="73.9582" cy="29.8554" r="1.04217" transform="rotate(-90 73.9582 29.8554)" fill="black"/>
<circle cx="73.9582" cy="129.904" r="1.04217" transform="rotate(-90 73.9582 129.904)" fill="black"/>
<circle cx="73.9582" cy="54.8674" r="1.04217" transform="rotate(-90 73.9582 54.8674)" fill="black"/>
<circle cx="73.9582" cy="92.3856" r="1.04217" transform="rotate(-90 73.9582 92.3856)" fill="black"/>
<circle cx="73.9582" cy="17.3494" r="1.04217" transform="rotate(-90 73.9582 17.3494)" fill="black"/>
</g>
</svg>
