<svg width="16" height="14" viewBox="0 0 16 14" fill="none" xmlns="http://www.w3.org/2000/svg">
<path d="M3.33023 7.16902L0.740234 6.24402L1.77623 3.58002L4.25523 4.39402C5.47623 4.80102 6.10523 5.20802 6.84523 5.76302C6.62323 4.87502 6.51223 4.02402 6.51223 2.84002V0.10202H9.36123V2.84002C9.36123 4.02402 9.21323 4.94902 9.02824 5.76302C9.69424 5.28202 10.3972 4.80102 11.6552 4.39402L14.1712 3.58002L15.1702 6.24402L12.5432 7.16902C11.4332 7.57602 10.4712 7.68702 9.65723 7.76102C10.4712 8.42702 11.0632 8.94502 11.6552 9.87002L13.1722 12.201L10.8412 13.792L9.28724 11.609C8.54724 10.573 8.17723 9.75902 7.88123 9.01902C7.62223 10.018 7.10423 10.943 6.58623 11.609L4.92123 13.792L2.59023 12.201L4.18123 9.87002C4.84723 8.90802 5.43923 8.39002 6.21623 7.76102C5.21723 7.65002 4.47723 7.57602 3.33023 7.16902Z" fill="black"/>
</svg>
