<svg width="161" height="80" viewBox="0 0 161 80" fill="none" xmlns="http://www.w3.org/2000/svg">
<mask id="mask0_148_78" style="mask-type:alpha" maskUnits="userSpaceOnUse" x="0" y="0" width="161" height="80">
<rect width="161" height="80" fill="#D9D9D9"/>
</mask>
<g mask="url(#mask0_148_78)">
<mask id="mask1_148_78" style="mask-type:alpha" maskUnits="userSpaceOnUse" x="4" y="3" width="157" height="157">
<circle cx="82.5" cy="81.5" r="78.5" transform="rotate(180 82.5 81.5)" fill="#C4C4C4"/>
</mask>
<g mask="url(#mask1_148_78)">
<circle cx="5.04217" cy="10.2591" r="1.04217" fill="white"/>
<circle cx="155.114" cy="10.2591" r="1.04217" fill="white"/>
<circle cx="80.0793" cy="10.2591" r="1.04217" fill="white"/>
<circle cx="42.5597" cy="10.2591" r="1.04217" fill="white"/>
<circle cx="117.597" cy="10.2591" r="1.04217" fill="white"/>
<circle cx="17.548" cy="10.2591" r="1.04217" fill="white"/>
<circle cx="92.5851" cy="10.2591" r="1.04217" fill="white"/>
<circle cx="55.0656" cy="10.2591" r="1.04217" fill="white"/>
<circle cx="130.103" cy="10.2591" r="1.04217" fill="white"/>
<circle cx="30.0539" cy="10.2591" r="1.04217" fill="white"/>
<circle cx="105.091" cy="10.2591" r="1.04217" fill="white"/>
<circle cx="67.5715" cy="10.2591" r="1.04217" fill="white"/>
<circle cx="142.609" cy="10.2591" r="1.04217" fill="white"/>
<circle cx="11.2961" cy="18.5964" r="1.04217" fill="white"/>
<circle cx="161.368" cy="18.5964" r="1.04217" fill="white"/>
<circle cx="86.3312" cy="18.5964" r="1.04217" fill="white"/>
<circle cx="48.8137" cy="18.5964" r="1.04217" fill="white"/>
<circle cx="123.851" cy="18.5964" r="1.04217" fill="white"/>
<circle cx="23.8019" cy="18.5964" r="1.04217" fill="white"/>
<circle cx="98.839" cy="18.5964" r="1.04217" fill="white"/>
<circle cx="61.3195" cy="18.5964" r="1.04217" fill="white"/>
<circle cx="136.357" cy="18.5964" r="1.04217" fill="white"/>
<circle cx="36.3078" cy="18.5964" r="1.04217" fill="white"/>
<circle cx="111.345" cy="18.5964" r="1.04217" fill="white"/>
<circle cx="73.8254" cy="18.5964" r="1.04217" fill="white"/>
<circle cx="148.862" cy="18.5964" r="1.04217" fill="white"/>
<circle cx="11.2961" cy="35.271" r="1.04217" fill="white"/>
<circle cx="161.368" cy="35.271" r="1.04217" fill="white"/>
<circle cx="86.3312" cy="35.271" r="1.04217" fill="white"/>
<circle cx="48.8137" cy="35.271" r="1.04217" fill="white"/>
<circle cx="123.851" cy="35.271" r="1.04217" fill="white"/>
<circle cx="23.8019" cy="35.271" r="1.04217" fill="white"/>
<circle cx="98.839" cy="35.271" r="1.04217" fill="white"/>
<circle cx="61.3195" cy="35.271" r="1.04217" fill="white"/>
<circle cx="136.357" cy="35.271" r="1.04217" fill="white"/>
<circle cx="36.3078" cy="35.271" r="1.04217" fill="white"/>
<circle cx="111.345" cy="35.271" r="1.04217" fill="white"/>
<circle cx="73.8254" cy="35.271" r="1.04217" fill="white"/>
<circle cx="148.862" cy="35.271" r="1.04217" fill="white"/>
<circle cx="11.2961" cy="51.9457" r="1.04217" fill="white"/>
<circle cx="161.368" cy="51.9457" r="1.04217" fill="white"/>
<circle cx="86.3312" cy="51.9457" r="1.04217" fill="white"/>
<circle cx="48.8137" cy="51.9457" r="1.04217" fill="white"/>
<circle cx="123.851" cy="51.9457" r="1.04217" fill="white"/>
<circle cx="23.8019" cy="51.9457" r="1.04217" fill="white"/>
<circle cx="98.839" cy="51.9457" r="1.04217" fill="white"/>
<circle cx="61.3195" cy="51.9457" r="1.04217" fill="white"/>
<circle cx="136.357" cy="51.9457" r="1.04217" fill="white"/>
<circle cx="36.3078" cy="51.9457" r="1.04217" fill="white"/>
<circle cx="111.345" cy="51.9457" r="1.04217" fill="white"/>
<circle cx="73.8254" cy="51.9457" r="1.04217" fill="white"/>
<circle cx="148.862" cy="51.9457" r="1.04217" fill="white"/>
<circle cx="11.2961" cy="68.6205" r="1.04217" fill="white"/>
<circle cx="161.368" cy="68.6205" r="1.04217" fill="white"/>
<circle cx="86.3312" cy="68.6205" r="1.04217" fill="white"/>
<circle cx="48.8137" cy="68.6205" r="1.04217" fill="white"/>
<circle cx="123.851" cy="68.6205" r="1.04217" fill="white"/>
<circle cx="23.8019" cy="68.6205" r="1.04217" fill="white"/>
<circle cx="98.839" cy="68.6205" r="1.04217" fill="white"/>
<circle cx="61.3195" cy="68.6205" r="1.04217" fill="white"/>
<circle cx="136.357" cy="68.6205" r="1.04217" fill="white"/>
<circle cx="36.3078" cy="68.6205" r="1.04217" fill="white"/>
<circle cx="111.345" cy="68.6205" r="1.04217" fill="white"/>
<circle cx="73.8254" cy="68.6205" r="1.04217" fill="white"/>
<circle cx="148.862" cy="68.6205" r="1.04217" fill="white"/>
<circle cx="6.08514" cy="26.9338" r="1.04217" fill="white"/>
<circle cx="156.157" cy="26.9338" r="1.04217" fill="white"/>
<circle cx="81.1222" cy="26.9338" r="1.04217" fill="white"/>
<circle cx="43.6027" cy="26.9338" r="1.04217" fill="white"/>
<circle cx="118.64" cy="26.9338" r="1.04217" fill="white"/>
<circle cx="18.591" cy="26.9338" r="1.04217" fill="white"/>
<circle cx="93.6281" cy="26.9338" r="1.04217" fill="white"/>
<circle cx="56.1086" cy="26.9338" r="1.04217" fill="white"/>
<circle cx="131.146" cy="26.9338" r="1.04217" fill="white"/>
<circle cx="31.0969" cy="26.9338" r="1.04217" fill="white"/>
<circle cx="106.134" cy="26.9338" r="1.04217" fill="white"/>
<circle cx="68.6144" cy="26.9338" r="1.04217" fill="white"/>
<circle cx="143.652" cy="26.9338" r="1.04217" fill="white"/>
<circle cx="6.08514" cy="43.6085" r="1.04217" fill="white"/>
<circle cx="156.157" cy="43.6085" r="1.04217" fill="white"/>
<circle cx="81.1222" cy="43.6085" r="1.04217" fill="white"/>
<circle cx="43.6027" cy="43.6085" r="1.04217" fill="white"/>
<circle cx="118.64" cy="43.6085" r="1.04217" fill="white"/>
<circle cx="18.591" cy="43.6085" r="1.04217" fill="white"/>
<circle cx="93.6281" cy="43.6085" r="1.04217" fill="white"/>
<circle cx="56.1086" cy="43.6085" r="1.04217" fill="white"/>
<circle cx="131.146" cy="43.6085" r="1.04217" fill="white"/>
<circle cx="31.0969" cy="43.6085" r="1.04217" fill="white"/>
<circle cx="106.134" cy="43.6085" r="1.04217" fill="white"/>
<circle cx="68.6144" cy="43.6085" r="1.04217" fill="white"/>
<circle cx="143.652" cy="43.6085" r="1.04217" fill="white"/>
<circle cx="6.08514" cy="60.2831" r="1.04217" fill="white"/>
<circle cx="156.157" cy="60.2831" r="1.04217" fill="white"/>
<circle cx="81.1222" cy="60.2831" r="1.04217" fill="white"/>
<circle cx="43.6027" cy="60.2831" r="1.04217" fill="white"/>
<circle cx="118.64" cy="60.2831" r="1.04217" fill="white"/>
<circle cx="18.591" cy="60.2831" r="1.04217" fill="white"/>
<circle cx="93.6281" cy="60.2831" r="1.04217" fill="white"/>
<circle cx="56.1086" cy="60.2831" r="1.04217" fill="white"/>
<circle cx="131.146" cy="60.2831" r="1.04217" fill="white"/>
<circle cx="31.0969" cy="60.2831" r="1.04217" fill="white"/>
<circle cx="106.134" cy="60.2831" r="1.04217" fill="white"/>
<circle cx="68.6144" cy="60.2831" r="1.04217" fill="white"/>
<circle cx="143.652" cy="60.2831" r="1.04217" fill="white"/>
<circle cx="6.08514" cy="76.9578" r="1.04217" fill="white"/>
<circle cx="156.157" cy="76.9578" r="1.04217" fill="white"/>
<circle cx="81.1222" cy="76.9578" r="1.04217" fill="white"/>
<circle cx="43.6027" cy="76.9578" r="1.04217" fill="white"/>
<circle cx="118.64" cy="76.9578" r="1.04217" fill="white"/>
<circle cx="18.591" cy="76.9578" r="1.04217" fill="white"/>
<circle cx="93.6281" cy="76.9578" r="1.04217" fill="white"/>
<circle cx="56.1086" cy="76.9578" r="1.04217" fill="white"/>
<circle cx="131.146" cy="76.9578" r="1.04217" fill="white"/>
<circle cx="31.0969" cy="76.9578" r="1.04217" fill="white"/>
<circle cx="106.134" cy="76.9578" r="1.04217" fill="white"/>
<circle cx="68.6144" cy="76.9578" r="1.04217" fill="white"/>
<circle cx="143.652" cy="76.9578" r="1.04217" fill="white"/>
</g>
</g>
</svg>
